<svg xmlns="http://www.w3.org/2000/svg" xmlns:xlink="http://www.w3.org/1999/xlink" width="295" height="544" viewBox="0 0 295 544">
  <defs>
    <clipPath id="clip-path">
      <rect id="Rectángulo_401760" data-name="Rectángulo 401760" width="295" height="544" rx="9" transform="translate(180.051 1289)" fill="#ede9ec"/>
    </clipPath>
    <clipPath id="clip-path-2">
      <rect id="Rectángulo_401752" data-name="Rectángulo 401752" width="286.251" height="304.087" fill="none"/>
    </clipPath>
    <clipPath id="clip-path-4">
      <rect id="Rectángulo_401749" data-name="Rectángulo 401749" width="25.833" height="3.039" fill="none"/>
    </clipPath>
    <clipPath id="clip-path-5">
      <rect id="Rectángulo_401756" data-name="Rectángulo 401756" width="164.904" height="148.456" fill="none"/>
    </clipPath>
    <clipPath id="clip-path-6">
      <rect id="Rectángulo_401753" data-name="Rectángulo 401753" width="103.118" height="209.623" fill="none"/>
    </clipPath>
    <clipPath id="clip-path-7">
      <rect id="Rectángulo_401754" data-name="Rectángulo 401754" width="82.823" height="82.823" fill="none"/>
    </clipPath>
  </defs>
  <g id="_19" data-name="19" transform="translate(-180.051 -1289)" clip-path="url(#clip-path)">
    <rect id="Rectángulo_401672" data-name="Rectángulo 401672" width="277" height="544" rx="9" transform="translate(189.051 1289)" fill="#ede9ec"/>
    <path id="Rectángulo_401759" data-name="Rectángulo 401759" d="M94,30A64.072,64.072,0,0,0,30,94v6a64,64,0,0,0,128,0V94A64.072,64.072,0,0,0,94,30M94,0a94,94,0,0,1,94,94v6A94,94,0,0,1,0,100V94A94,94,0,0,1,94,0Z" transform="translate(381.051 1203)" fill="#1169e3"/>
    <rect id="Rectángulo_401757" data-name="Rectángulo 401757" width="223" height="496" rx="15" transform="translate(220.051 1309)" fill="#5e3552"/>
    <g id="Grupo_1099886" data-name="Grupo 1099886" transform="translate(11.073 13.288)">
      <g id="Grupo_1099875" data-name="Grupo 1099875" transform="translate(177.727 1513.625)">
        <g id="Grupo_1099874" data-name="Grupo 1099874" clip-path="url(#clip-path-2)">
          <g id="Grupo_1099873" data-name="Grupo 1099873">
            <g id="Grupo_1099872" data-name="Grupo 1099872" clip-path="url(#clip-path-2)">
              <path id="Trazado_873741" data-name="Trazado 873741" d="M111.475,27.485l4.888,39.475c.7,6.758,1.768,16.76,12.4,15.168,9.122-2.078,10.559-11.108,9.9-17.414-.312-2.992-.566-5.487-.578-5.8,0,0,10.017-2,9.713-12.087-.147-4.875-1.268-14.893-2.387-23.943A18.8,18.8,0,0,0,125.95,6.424l-.972.042c-10.465,1.059-14.852,10.588-13.5,21.019" transform="translate(-2.663 -0.153)" fill="#ffceb3"/>
              <path id="Trazado_873742" data-name="Trazado 873742" d="M138.448,60.12A24.383,24.383,0,0,1,125.154,56.8s3.516,7.229,13.539,5.892Z" transform="translate(-2.997 -1.36)" fill="#ff9c65"/>
              <path id="Trazado_873743" data-name="Trazado 873743" d="M129.779,30.035c-.215.084-1.293-.559-2.962-.792s-2.981.055-3.139-.083c-.079-.062.156-.236.731-.375a7.087,7.087,0,0,1,2.542-.07,6.363,6.363,0,0,1,2.33.768c.469.289.6.515.5.551" transform="translate(-2.961 -0.686)" fill="#263238"/>
              <path id="Trazado_873744" data-name="Trazado 873744" d="M129.555,33.787a1.363,1.363,0,0,1-1.255,1.43,1.3,1.3,0,0,1-1.456-1.168,1.365,1.365,0,0,1,1.254-1.431,1.3,1.3,0,0,1,1.457,1.169" transform="translate(-3.037 -0.781)" fill="#263238"/>
              <path id="Trazado_873745" data-name="Trazado 873745" d="M135.16,40.6a10.27,10.27,0,0,1,2.5-.561c.393-.058.764-.152.82-.425a2.017,2.017,0,0,0-.314-1.162q-.619-1.411-1.3-2.962c-1.808-4.22-3.134-7.7-2.964-7.769s1.774,3.292,3.582,7.513q.654,1.561,1.25,2.983A2.293,2.293,0,0,1,139,39.758a.991.991,0,0,1-.626.606,2.643,2.643,0,0,1-.669.122,10.1,10.1,0,0,1-2.55.112" transform="translate(-3.206 -0.664)" fill="#263238"/>
              <path id="Trazado_873746" data-name="Trazado 873746" d="M127.883,23.1c-.119.39-1.49.266-3.085.535-1.6.234-2.874.775-3.1.439-.1-.161.108-.532.615-.926a5.1,5.1,0,0,1,2.272-.933,5.043,5.043,0,0,1,2.441.191c.6.22.908.51.858.694" transform="translate(-2.913 -0.53)" fill="#263238"/>
              <path id="Trazado_873747" data-name="Trazado 873747" d="M144.538,24.387c-.141.323-1.486.139-3.074.273-1.592.106-2.878.49-3.082.192-.091-.142.139-.443.663-.748a5.564,5.564,0,0,1,2.3-.659,5.771,5.771,0,0,1,2.394.3c.577.222.864.484.8.637" transform="translate(-3.313 -0.561)" fill="#263238"/>
              <path id="Trazado_873748" data-name="Trazado 873748" d="M112.506,35.753c-.186-.065-7.41-1.649-6.682,5.562s7.815,4.992,7.807,4.784-1.125-10.345-1.125-10.345" transform="translate(-2.533 -0.851)" fill="#ffceb3"/>
              <path id="Trazado_873749" data-name="Trazado 873749" d="M111.2,43.649c-.034-.019-.117.1-.319.221a1.265,1.265,0,0,1-.937.114,3.127,3.127,0,0,1-1.72-2.643,4.176,4.176,0,0,1,.171-1.834,1.456,1.456,0,0,1,.847-1.059.642.642,0,0,1,.776.269c.117.191.085.34.125.348.022.017.143-.136.055-.428a.807.807,0,0,0-.329-.423.952.952,0,0,0-.713-.113,1.773,1.773,0,0,0-1.2,1.25,4.289,4.289,0,0,0-.232,2.053c.193,1.448,1.074,2.733,2.146,2.929A1.347,1.347,0,0,0,111,44.026c.206-.2.227-.365.2-.377" transform="translate(-2.578 -0.912)" fill="#ff9c65"/>
              <path id="Trazado_873750" data-name="Trazado 873750" d="M135.9,45.7c0-.189-1.4-.047-2.763-.855a7.733,7.733,0,0,1-1.57-1.3c-.378-.386-.639-.618-.7-.568s.089.353.4.815a5.09,5.09,0,0,0,1.592,1.525,4.128,4.128,0,0,0,2.143.572c.568,0,.9-.128.9-.189" transform="translate(-3.133 -1.029)" fill="#263238"/>
              <path id="Trazado_873751" data-name="Trazado 873751" d="M144.727,27.937c-.142.179-1.387.21-2.934.877s-2.53,1.573-2.735,1.543c-.1-.01.018-.271.441-.678a7.445,7.445,0,0,1,2.144-1.361,6.634,6.634,0,0,1,2.382-.572c.547-.007.773.107.7.19" transform="translate(-3.329 -0.664)" fill="#263238"/>
              <path id="Trazado_873752" data-name="Trazado 873752" d="M143.711,32.55a1.363,1.363,0,0,1-1.254,1.431A1.3,1.3,0,0,1,141,32.813a1.364,1.364,0,0,1,1.253-1.431,1.3,1.3,0,0,1,1.457,1.168" transform="translate(-3.376 -0.751)" fill="#263238"/>
              <path id="Trazado_873753" data-name="Trazado 873753" d="M157.625,12.2a1.631,1.631,0,0,0-.87-.857,5.01,5.01,0,0,0-2.6-.118,14.474,14.474,0,0,1-6.43-.844,7.169,7.169,0,0,0,1.688-1.5,4.315,4.315,0,0,0,.739-4.4.957.957,0,0,0-.612-.591c-.459-.085-.8.4-1.066.777a3.713,3.713,0,0,1-3.3,1.873,6.1,6.1,0,0,1-2.685-.466c-.033-.027-.063-.059-.1-.086-.4-.325-.785-.634-1.165-.934l0,0v0c-2.864-2.25-5.278-3.759-7.658-4.411a23.35,23.35,0,0,0-12.5.463c-3.37,1.315-6.165,4.5-6.235,8.114-2.14-1.422-5.066-1.069-7.329.161l-.062-.019c-2.534,1.248-3.713,4.217-4.18,7-.025.152-.045.306-.067.459a10.557,10.557,0,0,1-3.156,3.888c-.238.179-.509.4-.507.692s.276.509.535.652a5.309,5.309,0,0,0,2.243.641,11.981,11.981,0,0,1-.661,1.959c-.24.54-.525,1.187-.2,1.683a1.125,1.125,0,0,0,1.226.373,3.29,3.29,0,0,0,1.166-.7q-.319,1.11-.639,2.221a6.292,6.292,0,0,0,2.854-.525,70.2,70.2,0,0,0,2.711,7.234c1.1-.132,2.121-.511,2.874.022,1.023.725,1.618,2.243,3.088,1.47.748-.393,1.272-2.119,1.442-2.948a39.246,39.246,0,0,0-.225-16.7,12.615,12.615,0,0,1,3.546-3.241l-.106.12c2.679-1.293,5.727-2.614,8.528-1.61,2.173.778,3.627,2.77,5.361,4.294a14.912,14.912,0,0,0,11.385,3.893c.741,2.969.862,6.83,1.335,9.626l2.074-4.837,0,.022c.156-.352.278-.7.394-1.055l.041-.107,0-.012a17.6,17.6,0,0,1,.606-1.692l.029.02a1.769,1.769,0,0,0,2.3-2.648,4.01,4.01,0,0,0-.949-.754,2.8,2.8,0,0,0,2.728.379,2.2,2.2,0,0,0,1.292-2.336,1.866,1.866,0,0,0-1.279-1.36,6.317,6.317,0,0,0,3.473-1.2,1.826,1.826,0,0,0,.929-2.081" transform="translate(-2.383 0)" fill="#263238"/>
              <path id="Trazado_873754" data-name="Trazado 873754" d="M118.251,10.238a8.522,8.522,0,0,0-.9,1.033,7.219,7.219,0,0,0-1.149,3.5,12.617,12.617,0,0,0,.039,2.569c.1.921.291,1.9.481,2.928a26.46,26.46,0,0,1,.456,3.269,11.6,11.6,0,0,1-.025,1.754,3.622,3.622,0,0,1-.51,1.759,1.52,1.52,0,0,1-1.356.638,2.261,2.261,0,0,1-1.352-.57,5.212,5.212,0,0,1-1.257-2.429h.212a8.425,8.425,0,0,1-.972,2.234A3,3,0,0,1,110.1,28.2a1.935,1.935,0,0,1-1.051-.061,1.671,1.671,0,0,1-.78-.609,1.714,1.714,0,0,1-.315-.861,1.248,1.248,0,0,1,.23-.814l.117.082a6.469,6.469,0,0,1-1.96,1.859,5.726,5.726,0,0,1-.635.336,1.158,1.158,0,0,1-.231.087,1.2,1.2,0,0,1,.215-.122c.142-.079.351-.193.611-.365a6.706,6.706,0,0,0,1.883-1.875l.117.082a1.29,1.29,0,0,0,.105,1.492,1.514,1.514,0,0,0,.7.538,1.76,1.76,0,0,0,.952.043,2.806,2.806,0,0,0,1.688-1.215,8.308,8.308,0,0,0,.933-2.184l.106-.337.106.338a5.038,5.038,0,0,0,1.2,2.322,2.035,2.035,0,0,0,1.209.51,1.279,1.279,0,0,0,1.153-.541,3.444,3.444,0,0,0,.469-1.645,11.517,11.517,0,0,0,.027-1.719,26.958,26.958,0,0,0-.438-3.242c-.184-1.031-.367-2.013-.463-2.947a12.66,12.66,0,0,1-.011-2.606,7.119,7.119,0,0,1,1.24-3.532,4.08,4.08,0,0,1,.971-.98" transform="translate(-2.525 -0.245)" fill="#455a64"/>
              <path id="Trazado_873755" data-name="Trazado 873755" d="M150.611,16.221s-.021.029-.072.077l-.228.212a3.331,3.331,0,0,1-.392.32,5.488,5.488,0,0,1-.57.39,8.931,8.931,0,0,1-4.188,1.266,11.414,11.414,0,0,1-6.29-1.528A19.754,19.754,0,0,1,133,11.587c-.867-1.125-1.6-2.3-2.389-3.367a13.367,13.367,0,0,0-2.586-2.784,6.865,6.865,0,0,0-3.082-1.413,4.925,4.925,0,0,0-1.538,0,5.428,5.428,0,0,0-1.36.428,5.832,5.832,0,0,0-2.9,3.089A6.978,6.978,0,0,0,118.8,9.1a.342.342,0,0,1,0-.106c0-.084.007-.186.012-.311a5.041,5.041,0,0,1,.248-1.172A5.732,5.732,0,0,1,120,5.864,5.888,5.888,0,0,1,121.969,4.3a5.511,5.511,0,0,1,1.4-.457,5.037,5.037,0,0,1,1.6-.015,7.029,7.029,0,0,1,3.184,1.434,13.416,13.416,0,0,1,2.639,2.819c.8,1.078,1.531,2.246,2.391,3.362a19.747,19.747,0,0,0,5.793,5.324,11.339,11.339,0,0,0,6.175,1.551,9.06,9.06,0,0,0,4.149-1.178,14.178,14.178,0,0,0,1.311-.921" transform="translate(-2.844 -0.09)" fill="#455a64"/>
              <path id="Trazado_873756" data-name="Trazado 873756" d="M151.542,11.919a1.59,1.59,0,0,1-.33.291,7.809,7.809,0,0,1-1,.663,10.342,10.342,0,0,1-1.616.746,11.826,11.826,0,0,1-2.115.535,11.87,11.87,0,0,1-2.18.1,10.46,10.46,0,0,1-1.764-.244,7.784,7.784,0,0,1-1.148-.344,1.567,1.567,0,0,1-.4-.183c.015-.042.6.178,1.581.363a12.062,12.062,0,0,0,1.739.191,13.011,13.011,0,0,0,2.137-.121,12.852,12.852,0,0,0,2.078-.506,11.965,11.965,0,0,0,1.609-.688c.885-.463,1.381-.842,1.407-.807" transform="translate(-3.376 -0.285)" fill="#455a64"/>
              <path id="Trazado_873757" data-name="Trazado 873757" d="M142.955,82.147l-63.008.778A5.717,5.717,0,0,0,74.3,88.6l-.889,111.226L158.3,200.98l-9.58-113.6a5.716,5.716,0,0,0-5.767-5.236" transform="translate(-1.758 -1.967)" fill="#455a64"/>
              <path id="Trazado_873758" data-name="Trazado 873758" d="M218.213,276.733l-.347,21.48s21.716,7.566,22.038,11.543l-41.672.822-.833-33.49Z" transform="translate(-4.726 -6.626)" fill="#0b65bf"/>
              <path id="Trazado_873759" data-name="Trazado 873759" d="M205.1,297.148a1.7,1.7,0,0,0-1.138,1.965,1.635,1.635,0,0,0,1.937,1.146,1.8,1.8,0,0,0,1.195-2.088,1.7,1.7,0,0,0-2.148-.967" transform="translate(-4.883 -7.113)" fill="#e0e0e0"/>
              <path id="Trazado_873760" data-name="Trazado 873760" d="M198.25,311.325l-.139-3.381,40.123.477s1.871.771,1.688,2.082Z" transform="translate(-4.744 -7.373)" fill="#e0e0e0"/>
              <path id="Trazado_873761" data-name="Trazado 873761" d="M218.963,298.5c0,.2-1.018.316-2.007.99-1.005.649-1.505,1.54-1.693,1.463-.188-.036.091-1.258,1.3-2.053s2.439-.588,2.4-.4" transform="translate(-5.153 -7.143)" fill="#263238"/>
              <path id="Trazado_873762" data-name="Trazado 873762" d="M223.5,300.271c.051.2-.824.559-1.5,1.434-.7.854-.856,1.788-1.059,1.784-.19.035-.354-1.154.5-2.224s2.045-1.188,2.053-.994" transform="translate(-5.287 -7.188)" fill="#263238"/>
              <path id="Trazado_873763" data-name="Trazado 873763" d="M226.213,305.5c-.184.047-.487-.964.013-2.089s1.444-1.587,1.533-1.419c.118.165-.488.775-.884,1.705-.419.919-.46,1.778-.662,1.8" transform="translate(-5.41 -7.23)" fill="#263238"/>
              <path id="Trazado_873764" data-name="Trazado 873764" d="M218.474,293.468c-.081.187-1.021-.075-2.17.025-1.151.077-2.038.481-2.147.309-.12-.145.739-.916,2.093-1.015s2.321.518,2.224.68" transform="translate(-5.127 -7.01)" fill="#263238"/>
              <path id="Trazado_873765" data-name="Trazado 873765" d="M153.162,163.477s12.34,1.857,25.052,4.219c15.241,2.831,31.464,6.369,33.64,8.078,3.988,3.134,4.843,11.681,6.552,22.223s2.1,88.968,2.1,88.968l-28.307.825-5.6-82.284s-41.33,0-49.833-.065c-6.862-.049-25.312.715-32.316-2.973-11.018-5.8-8.955-27.919-8.955-27.919,2.75-2.366,49.878-16.327,49.878-16.327Z" transform="translate(-2.283 -3.788)" fill="#263238"/>
              <path id="Trazado_873766" data-name="Trazado 873766" d="M225.478,223.878l4.073,21.652s23.376,3.132,24.519,7.06l-41.7,9.405-7.73-33.476Z" transform="translate(-4.9 -5.36)" fill="#0b65bf"/>
              <path id="Trazado_873767" data-name="Trazado 873767" d="M216.512,247.185a1.744,1.744,0,0,0-.739,2.209,1.677,1.677,0,0,0,2.182.752,1.84,1.84,0,0,0,.77-2.343,1.74,1.74,0,0,0-2.357-.531" transform="translate(-5.163 -5.914)" fill="#e0e0e0"/>
              <path id="Trazado_873768" data-name="Trazado 873768" d="M212.714,263.541l-.753-3.242,40.159-8.79s2.039.388,2.124,1.743Z" transform="translate(-5.075 -6.022)" fill="#e0e0e0"/>
              <path id="Trazado_873769" data-name="Trazado 873769" d="M230.724,245.686c.039.2-.958.527-1.813,1.407-.876.859-1.195,1.857-1.4,1.818-.2,0-.168-1.283.885-2.331s2.329-1.092,2.327-.9" transform="translate(-5.445 -5.88)" fill="#263238"/>
              <path id="Trazado_873770" data-name="Trazado 873770" d="M235.65,246.53c.091.186-.713.732-1.21,1.749-.527,1-.491,1.973-.7,2.01-.184.075-.594-1.085.049-2.339s1.81-1.613,1.857-1.42" transform="translate(-5.59 -5.902)" fill="#263238"/>
              <path id="Trazado_873771" data-name="Trazado 873771" d="M239.447,251.224c-.176.085-.688-.869-.417-2.1s1.123-1.892,1.248-1.741c.152.142-.331.879-.538,1.9-.231,1.01-.1,1.882-.294,1.947" transform="translate(-5.721 -5.923)" fill="#263238"/>
              <path id="Trazado_873772" data-name="Trazado 873772" d="M229.188,240.729c-.043.2-1.04.135-2.175.472-1.14.314-1.948.9-2.094.753-.151-.121.553-1.072,1.894-1.451s2.439.044,2.375.226" transform="translate(-5.385 -5.755)" fill="#263238"/>
              <path id="Trazado_873773" data-name="Trazado 873773" d="M203.876,147.163s9.75-.69,11.844,7.654c2.9,11.568,15.7,80.711,15.7,80.711L202.6,241.1l-15.194-67.478-27.3-4.443-11.252-4.5s6.356-6.778,19.528-10.972c8.964-2.854,35.491-6.543,35.491-6.543" transform="translate(-3.564 -3.523)" fill="#263238"/>
              <path id="Trazado_873774" data-name="Trazado 873774" d="M188.449,175.887a21.369,21.369,0,0,1,3.429-4.179,21.976,21.976,0,0,1,4.616-2.817,9.6,9.6,0,0,0-4.918,2.467,11.826,11.826,0,0,0-2.5,3.028,4.1,4.1,0,0,0-.626,1.5" transform="translate(-4.512 -4.044)" fill="#455a64"/>
              <path id="Trazado_873775" data-name="Trazado 873775" d="M194.726,162.033c-.02-.024-.21.1-.538.353a11.406,11.406,0,0,0-1.294,1.178,16.63,16.63,0,0,0-4.543,10.414,11.406,11.406,0,0,0,.016,1.75c.039.412.075.636.107.634.079,0,.043-.913.2-2.356a18.755,18.755,0,0,1,4.46-10.222c.951-1.1,1.642-1.691,1.59-1.751" transform="translate(-4.509 -3.88)" fill="#455a64"/>
              <path id="Trazado_873776" data-name="Trazado 873776" d="M217.011,162.031s.036.118.089.355c.054.253.128.6.224,1.052.192.947.472,2.316.833,4.088.714,3.588,1.751,8.79,3.052,15.324,2.576,13.114,6.2,31.567,10.41,52.991l.043.217-.219.043-28.816,5.581-.221.043-.049-.219c-.151-.671-.314-1.4-.478-2.125-5.586-24.893-10.713-47.744-14.666-65.364l.146.137c-12.027-1.99-21.836-3.614-28.657-4.742l-7.848-1.327-2.046-.358c-.461-.084-.7-.141-.7-.141s.24.02.7.087l2.055.308,7.863,1.231,28.682,4.588.12.019.026.118c3.981,17.614,9.144,40.458,14.767,65.342.164.728.328,1.453.479,2.124l-.27-.176,28.821-5.562-.176.26c-4.142-21.438-7.712-39.9-10.248-53.023-1.246-6.544-2.24-11.755-2.925-15.348-.33-1.777-.586-3.154-.762-4.1-.08-.456-.143-.805-.187-1.06-.04-.238-.051-.362-.051-.362" transform="translate(-3.546 -3.88)" fill="#455a64"/>
              <path id="Trazado_873777" data-name="Trazado 873777" d="M154.487,73.662s5.345,3.546,7.7,14.035c1.888,8.415,4.886,24.363,4.886,24.363l11.2,7.354a2.514,2.514,0,0,1,.814,3.339c-2.63,4.658-9.244,15.7-13.562,17.033-5.491,1.7-10.794-2.621-10.794-2.621Z" transform="translate(-3.699 -1.764)" fill="#b0c8cb"/>
              <path id="Trazado_873778" data-name="Trazado 873778" d="M152.945,73.341,140.05,68.154l-2.2-4.293-2,8.89-20.98-12.5-1.489,5.221s-20,8.4-22.6,10.767C87.586,79.148,96.3,127.6,96.3,127.6s-3.161,38.884-2,46.622a218.267,218.267,0,0,1,25.636-5.618c11.634-1.592,25.69-6.055,25.69-6.055l12.694-7.851Z" transform="translate(-2.157 -1.443)" fill="#b0c8cb"/>
              <path id="Trazado_873779" data-name="Trazado 873779" d="M156.453,95.291a3.53,3.53,0,0,1,.063.65c.023.471.054,1.091.092,1.865.075,1.672.181,4,.309,6.86.265,5.793.675,13.793,1.183,22.625s1.037,16.828,1.474,22.609c.225,2.851.41,5.177.542,6.844.062.772.113,1.391.151,1.861a3.4,3.4,0,0,1,.021.652,3.454,3.454,0,0,1-.114-.642c-.061-.469-.14-1.084-.238-1.853-.187-1.611-.429-3.947-.688-6.836-.521-5.777-1.092-13.772-1.609-22.609s-.868-16.84-1.049-22.639c-.093-2.9-.143-5.245-.162-6.868,0-.775,0-1.4,0-1.868a3.539,3.539,0,0,1,.03-.652" transform="translate(-3.745 -2.282)" fill="#263238"/>
              <path id="Trazado_873780" data-name="Trazado 873780" d="M102.311,90.9c-.083,0,.031-1.037-.2-2.666a12.981,12.981,0,0,0-7.19-9.944c-1.474-.729-2.49-.944-2.468-1.024a2.021,2.021,0,0,1,.723.1,10.524,10.524,0,0,1,1.884.632,12.385,12.385,0,0,1,7.376,10.2,10.491,10.491,0,0,1,.009,1.987,2.026,2.026,0,0,1-.136.716" transform="translate(-2.214 -1.85)" fill="#263238"/>
              <path id="Trazado_873781" data-name="Trazado 873781" d="M157.7,143.032l-6.145-6.246-12.642-3.06s-11.585,3.32-11.862,3.311-10.228-3.311-10.228-3.311L113.538,146.5l17.659,1.158,20.162-.772s1.052-.937.428-1.577,3.371,1.082,3.842,1.1,1.382.366,2-.355a2.457,2.457,0,0,0,.061-3.024" transform="translate(-2.719 -3.202)" fill="#ffceb3"/>
              <path id="Trazado_873782" data-name="Trazado 873782" d="M90.3,76.635s-4.486,2.817-6.7,11.549-9.139,44.829-7.168,50.165,45.688,12.217,45.688,12.217l4.982-15.814L96.756,124.7s4.441-17.363,4.688-24.4S90.3,76.635,90.3,76.635" transform="translate(-1.822 -1.835)" fill="#b0c8cb"/>
              <path id="Trazado_873783" data-name="Trazado 873783" d="M152.389,145.507a11.324,11.324,0,0,1-2.009-.547c-1.225-.373-2.921-.87-4.818-1.335s-3.635-.808-4.895-1.049a11.237,11.237,0,0,1-2.034-.455,8.953,8.953,0,0,1,2.087.151,46.579,46.579,0,0,1,4.955.932,44.736,44.736,0,0,1,4.811,1.466,8.637,8.637,0,0,1,1.9.836" transform="translate(-3.319 -3.402)" fill="#ff9c65"/>
              <path id="Trazado_873784" data-name="Trazado 873784" d="M158.3,143.143a27.546,27.546,0,0,1-2.8-.866c-1.722-.555-4.127-1.236-6.8-1.95a37.112,37.112,0,0,0-6.854-1.619,17.55,17.55,0,0,0-2.911.108,2.367,2.367,0,0,1,.756-.244,8.691,8.691,0,0,1,2.173-.172,30.872,30.872,0,0,1,6.959,1.509c2.675.714,5.082,1.446,6.785,2.079.853.312,1.532.59,2,.794a2.649,2.649,0,0,1,.7.361" transform="translate(-3.327 -3.314)" fill="#ff9c65"/>
              <path id="Trazado_873785" data-name="Trazado 873785" d="M88.32,129.14a10,10,0,0,1,8.883-3.294,23.02,23.02,0,0,0-4.7.962,22.945,22.945,0,0,0-4.187,2.332" transform="translate(-2.115 -3.01)" fill="#263238"/>
              <path id="Trazado_873786" data-name="Trazado 873786" d="M83.374,142.963a.759.759,0,0,1,.189.038l.547.148c.477.144,1.194.32,2.125.547,1.863.447,4.593,1.058,8.044,1.764,6.9,1.422,16.658,3.307,28.052,5.395l-.249.15,4.97-15.818.147.289-1.717-.569-28.613-9.514-.164-.055.032-.169,3.78-19.964c.465-2.381.831-4.26,1.087-5.575.128-.621.228-1.108.3-1.465a3.1,3.1,0,0,1,.124-.5,3.33,3.33,0,0,1-.063.51c-.06.361-.14.851-.243,1.476-.231,1.321-.561,3.206-.98,5.6-.877,4.847-2.123,11.728-3.618,19.994l-.132-.224,28.634,9.45,1.717.569.217.072-.068.217L122.5,151.136l-.059.185-.19-.035c-11.392-2.119-21.143-4.062-28.029-5.56-3.445-.744-6.168-1.4-8.023-1.89-.927-.25-1.639-.448-2.11-.617l-.537-.184a.734.734,0,0,1-.178-.074" transform="translate(-1.996 -2.338)" fill="#263238"/>
              <path id="Trazado_873787" data-name="Trazado 873787" d="M170.169,126.475a3.19,3.19,0,0,1-.865-.326,12.649,12.649,0,0,1-2.129-1.343,14.5,14.5,0,0,1-4.771-6.722,12.115,12.115,0,0,1-.67-4.552,3.929,3.929,0,0,1,1.892-3.232,2.424,2.424,0,0,1,2.516.109c.508.37.592.737.574.737-.042.029-.189-.287-.679-.57a2.26,2.26,0,0,0-2.236.037,3.6,3.6,0,0,0-1.6,2.957,12.248,12.248,0,0,0,.684,4.35,15.11,15.11,0,0,0,4.515,6.606c1.594,1.347,2.813,1.861,2.767,1.948" transform="translate(-3.872 -2.634)" fill="#263238"/>
              <path id="Trazado_873788" data-name="Trazado 873788" d="M159.8,119.374a5.917,5.917,0,0,1,.875-2.259c.609-1.184,1.2-2.092,1.327-2.027a5.925,5.925,0,0,1-.875,2.26c-.608,1.183-1.2,2.091-1.327,2.026" transform="translate(-3.826 -2.756)" fill="#263238"/>
              <path id="Trazado_873789" data-name="Trazado 873789" d="M141.3,67.992a9.512,9.512,0,0,1-.143,2.2c-.153,1.348-.4,3.205-.7,5.251-.049.33-.1.654-.145.97l-.11.733-.358-.646a27.291,27.291,0,0,0-2.108-3.215l.343-.114a12.28,12.28,0,0,1-.274,2.618,12.319,12.319,0,0,1-.11-2.63v-.512l.342.4a20.615,20.615,0,0,1,2.247,3.209l-.469.087q.07-.476.142-.971c.3-2.047.6-3.9.847-5.23a9.51,9.51,0,0,1,.5-2.144" transform="translate(-3.297 -1.628)" fill="#263238"/>
              <path id="Trazado_873790" data-name="Trazado 873790" d="M136.752,76.264a4.961,4.961,0,0,1-.686-.858l-1.742-2.46.3-.05c-.4,1.551-.887,3.407-1.427,5.481l-.077.294-.266-.155c-1.741-1.017-3.663-2.181-5.66-3.444-3.832-2.42-7.207-4.754-9.605-6.5-1.2-.873-2.157-1.6-2.811-2.111a6.217,6.217,0,0,1-.981-.84,6.345,6.345,0,0,1,1.1.68l2.9,1.977c2.447,1.672,5.847,3.954,9.67,6.369,1.993,1.26,3.9,2.434,5.626,3.473l-.343.14c.587-2.061,1.112-3.905,1.551-5.446l.1-.363.2.313,1.615,2.546a4.936,4.936,0,0,1,.534.959" transform="translate(-2.725 -1.571)" fill="#263238"/>
              <path id="Trazado_873791" data-name="Trazado 873791" d="M141.82,132.835a2.347,2.347,0,0,1-.106-.554c-.056-.422-.124-.952-.208-1.6-.171-1.392-.393-3.408-.649-5.9-.51-4.987-1.132-11.885-1.678-19.515s-.908-14.551-1.109-19.56c-.1-2.5-.168-4.533-.2-5.934-.009-.655-.017-1.189-.021-1.614a2.345,2.345,0,0,1,.026-.564,2.373,2.373,0,0,1,.075.56c.031.424.07.957.117,1.61.089,1.468.21,3.475.357,5.924.294,5,.714,11.914,1.258,19.542s1.109,14.526,1.529,19.519c.2,2.446.367,4.45.487,5.916.046.654.084,1.187.113,1.61a2.338,2.338,0,0,1,0,.565" transform="translate(-3.301 -1.858)" fill="#263238"/>
              <path id="Trazado_873792" data-name="Trazado 873792" d="M113.016,157.34c0,.129-7.384.232-16.49.232s-16.491-.1-16.491-.232,7.382-.231,16.491-.231,16.49.1,16.49.231" transform="translate(-1.916 -3.762)" fill="#263238"/>
              <path id="Trazado_873793" data-name="Trazado 873793" d="M98.8,148.613c0,.128-4.4.231-9.829.231s-9.83-.1-9.83-.231,4.4-.231,9.83-.231,9.829.1,9.829.231" transform="translate(-1.895 -3.553)" fill="#263238"/>
              <path id="Trazado_873794" data-name="Trazado 873794" d="M187.316,110.385,168.4,143.864l-43.766.952-.111,2.031,43.423-.323,1.376-.047,45.854.091,9.266-15.981L235.913,112a1.675,1.675,0,0,0-1.379-2.632l-45.772.175a1.675,1.675,0,0,0-1.447.843" transform="translate(-2.981 -2.619)" fill="#e0e0e0"/>
              <path id="Trazado_873795" data-name="Trazado 873795" d="M203.856,128.062a1.935,1.935,0,1,0,2.89-.342,2.068,2.068,0,0,0-2.89.342" transform="translate(-4.866 -3.047)" fill="#fff"/>
              <path id="Trazado_873796" data-name="Trazado 873796" d="M193.452,109.537c.111.063-4.506,8.38-10.313,18.573s-10.6,18.409-10.715,18.346,4.505-8.378,10.313-18.575,10.6-18.407,10.715-18.344" transform="translate(-4.128 -2.623)" fill="#263238"/>
              <path id="Trazado_873797" data-name="Trazado 873797" d="M164.17,215.093s-20.841,9.512-41.113,9.512c-18.774,0-39.775-9.45-39.775-9.45Z" transform="translate(-1.994 -5.15)" fill="#e0e0e0"/>
              <rect id="Rectángulo_401745" data-name="Rectángulo 401745" width="8.041" height="84.215" transform="translate(118.94 210.849)" fill="#e0e0e0"/>
              <rect id="Rectángulo_401746" data-name="Rectángulo 401746" width="71.359" height="4.938" transform="translate(86.915 291.576)" fill="#e0e0e0"/>
              <path id="Trazado_873798" data-name="Trazado 873798" d="M153.585,305.833a5.446,5.446,0,1,0,5.445-5.445,5.446,5.446,0,0,0-5.445,5.445" transform="translate(-3.677 -7.192)" fill="#263238"/>
              <path id="Trazado_873799" data-name="Trazado 873799" d="M121.1,305.833a5.446,5.446,0,1,0,5.446-5.445,5.446,5.446,0,0,0-5.446,5.445" transform="translate(-2.9 -7.192)" fill="#263238"/>
              <path id="Trazado_873800" data-name="Trazado 873800" d="M83.468,305.833a5.446,5.446,0,1,0,5.446-5.445,5.446,5.446,0,0,0-5.446,5.445" transform="translate(-1.999 -7.192)" fill="#263238"/>
              <rect id="Rectángulo_401747" data-name="Rectángulo 401747" width="10.936" height="4.526" transform="translate(121.062 241.159)" fill="#e0e0e0"/>
              <rect id="Rectángulo_401748" data-name="Rectángulo 401748" width="3.982" height="10.862" transform="translate(130.007 237.991)" fill="#e0e0e0"/>
              <path id="Trazado_873801" data-name="Trazado 873801" d="M81.767,214.8h95.2c3.559,0,6.445-1.976,6.445-6.045a6.254,6.254,0,0,0-6.445-6.044H73.413v4.254a8.107,8.107,0,0,0,8.354,7.835" transform="translate(-1.758 -4.854)" fill="#455a64"/>
              <path id="Trazado_873802" data-name="Trazado 873802" d="M86.657,157.16c.128,0,.231,10.5.231,23.45s-.1,23.452-.231,23.452-.231-10.5-.231-23.452.1-23.45.231-23.45" transform="translate(-2.069 -3.763)" fill="#263238"/>
              <path id="Trazado_873803" data-name="Trazado 873803" d="M180.67,199.046a9.6,9.6,0,0,1,1.292,1.8,11.96,11.96,0,0,1,1.536,6.119,5.557,5.557,0,0,1-1.567,4.258,5.229,5.229,0,0,1-2.3,1.321,10.184,10.184,0,0,1-2.847.25l-13.3.046-77,.121a47.9,47.9,0,0,1-5.453-.158,9.061,9.061,0,0,1-4.87-2.365,9.98,9.98,0,0,1-2.573-4.673,15.959,15.959,0,0,1-.432-5.234v.026c.258-24.989.484-46.9.646-62.587.1-7.819.183-14.086.239-18.419.037-2.14.066-3.8.087-4.951.014-.55.025-.974.033-1.282.01-.288.027-.434.027-.434s.014.147.019.435c0,.307.006.731.011,1.282,0,1.148,0,2.81,0,4.952-.021,4.333-.052,10.6-.09,18.42-.118,15.686-.283,37.6-.471,62.588v0l0,.021a15.469,15.469,0,0,0,.424,5.05,9.472,9.472,0,0,0,2.44,4.438,8.55,8.55,0,0,0,4.6,2.225,47.655,47.655,0,0,0,5.374.151l77,.027,13.3.03a9.964,9.964,0,0,0,2.777-.22,5,5,0,0,0,2.2-1.24,5.354,5.354,0,0,0,1.539-4.082,12.066,12.066,0,0,0-1.428-6.072,13.72,13.72,0,0,0-.879-1.389c-.221-.3-.324-.46-.324-.46" transform="translate(-1.75 -2.703)" fill="#263238"/>
              <path id="Trazado_873804" data-name="Trazado 873804" d="M74.871,156.823l43.925.526a1.138,1.138,0,0,1,1.086,1.3L113.3,213.527h10.311l5.323-60.41a3.544,3.544,0,0,0-3.391-3.974l-51.324-.3Z" transform="translate(-1.777 -3.564)" fill="#455a64"/>
              <path id="Trazado_873805" data-name="Trazado 873805" d="M74.868,156.821s-.024-.158-.059-.489c-.033-.351-.081-.846-.144-1.5q-.184-2.039-.543-5.987l-.009-.1h.1l42.551.131,7.409.033a13.223,13.223,0,0,1,1.943.075,3.683,3.683,0,0,1,1.816.9,3.785,3.785,0,0,1,1.094,1.736,5.01,5.01,0,0,1,.08,2.049c-.462,5.283-.942,10.794-1.44,16.494-1,11.4-2.068,23.563-3.176,36.186q-.321,3.628-.634,7.191l-.021.231H123.6l-10.311,0h-.284l.034-.282c1.717-14.218,3.333-27.6,4.791-39.681q.551-4.528,1.069-8.8.259-2.136.511-4.2.126-1.035.249-2.051a.96.96,0,0,0-.865-1.208l-14.905-.215-21.338-.344-5.725-.106-1.474-.036c-.33-.01-.49-.023-.49-.023s.182-.01.522-.012h1.5l5.769.03,21.318.168,14.833.143a1.333,1.333,0,0,1,1.014.541,1.4,1.4,0,0,1,.234,1.114q-.12,1.018-.242,2.052-.246,2.069-.5,4.207-.507,4.274-1.045,8.807c-1.441,12.08-3.037,25.464-4.733,39.685l-.25-.281,10.311,0-.253.231c.209-2.371.421-4.773.633-7.192,1.117-12.623,2.192-24.786,3.2-36.188.508-5.7,1-11.211,1.468-16.494a4.554,4.554,0,0,0-.06-1.874,3.332,3.332,0,0,0-.96-1.532,3.252,3.252,0,0,0-1.6-.8,13.3,13.3,0,0,0-1.87-.071l-7.407-.054-42.544-.368.091-.1q.287,3.918.437,5.946c.045.66.079,1.162.1,1.519s.024.522.024.522" transform="translate(-1.775 -3.562)" fill="#263238"/>
              <path id="Trazado_873806" data-name="Trazado 873806" d="M121.481,209.681a1.342,1.342,0,1,1-1.342-1.342,1.342,1.342,0,0,1,1.342,1.342" transform="translate(-2.844 -4.988)" fill="#263238"/>
              <path id="Trazado_873807" data-name="Trazado 873807" d="M27.37,126.029l3.217,21.142H49.28l4.338-20.837Z" transform="translate(-0.655 -3.018)" fill="#0b65bf"/>
              <path id="Trazado_873808" data-name="Trazado 873808" d="M51.059,139.908c0,.061-4.79.11-10.7.11s-10.7-.049-10.7-.11,4.789-.109,10.7-.109,10.7.05,10.7.109" transform="translate(-0.71 -3.347)" fill="#fafafa"/>
              <path id="Trazado_873809" data-name="Trazado 873809" d="M51.13,138.843c0,.061-4.822.11-10.769.11s-10.77-.05-10.77-.11,4.821-.109,10.77-.109,10.769.049,10.769.109" transform="translate(-0.709 -3.322)" fill="#fafafa"/>
              <path id="Trazado_873810" data-name="Trazado 873810" d="M51.092,137.64c0,.061-4.822.109-10.769.109s-10.77-.049-10.77-.109,4.821-.109,10.77-.109,10.769.049,10.769.109" transform="translate(-0.708 -3.293)" fill="#fafafa"/>
              <path id="Trazado_873811" data-name="Trazado 873811" d="M32.843,146.322a16.988,16.988,0,0,1-.573-2.662,16.771,16.771,0,0,1-.357-2.7,16.954,16.954,0,0,1,.573,2.662,17.027,17.027,0,0,1,.357,2.7" transform="translate(-0.764 -3.375)" fill="#fafafa"/>
              <path id="Trazado_873812" data-name="Trazado 873812" d="M34.16,146.1a20.416,20.416,0,0,1-.231-2.6,20.67,20.67,0,0,1-.122-2.605,20.765,20.765,0,0,1,.353,5.2" transform="translate(-0.809 -3.374)" fill="#fafafa"/>
              <path id="Trazado_873813" data-name="Trazado 873813" d="M36.527,146.091a21.18,21.18,0,0,1-.629-5.367,23.389,23.389,0,0,1,.36,2.678,23.462,23.462,0,0,1,.268,2.689" transform="translate(-0.859 -3.369)" fill="#fafafa"/>
              <path id="Trazado_873814" data-name="Trazado 873814" d="M38.2,146.2a21.679,21.679,0,0,1-.177-5.423,23.177,23.177,0,0,1,.137,2.71,23.1,23.1,0,0,1,.04,2.713" transform="translate(-0.908 -3.371)" fill="#fafafa"/>
              <path id="Trazado_873815" data-name="Trazado 873815" d="M41.155,146.1a15.252,15.252,0,0,1-.2-2.568,15.043,15.043,0,0,1,.023-2.576,30.326,30.326,0,0,1,.174,5.144" transform="translate(-0.98 -3.375)" fill="#fafafa"/>
              <path id="Trazado_873816" data-name="Trazado 873816" d="M43.314,146.208a32.318,32.318,0,0,1,.043-5.312,16.024,16.024,0,0,1,.089,2.657,16.249,16.249,0,0,1-.132,2.655" transform="translate(-1.035 -3.374)" fill="#fafafa"/>
              <path id="Trazado_873817" data-name="Trazado 873817" d="M45.335,145.913a35.212,35.212,0,0,1,.537-5.532,35.213,35.213,0,0,1-.537,5.532" transform="translate(-1.085 -3.361)" fill="#fafafa"/>
              <path id="Trazado_873818" data-name="Trazado 873818" d="M47.942,145.651a14.575,14.575,0,0,1,1.009-4.64,20.853,20.853,0,0,1-.48,2.326,21.033,21.033,0,0,1-.529,2.314" transform="translate(-1.148 -3.376)" fill="#fafafa"/>
              <path id="Trazado_873819" data-name="Trazado 873819" d="M25.173,121.74V125.7a1.558,1.558,0,0,0,1.558,1.558H53.8a1.558,1.558,0,0,0,1.558-1.558V121.74Z" transform="translate(-0.603 -2.915)" fill="#0b65bf"/>
              <g id="Grupo_1099871" data-name="Grupo 1099871" transform="translate(26.917 124.338)" opacity="0.4">
                <g id="Grupo_1099870" data-name="Grupo 1099870">
                  <g id="Grupo_1099869" data-name="Grupo 1099869" clip-path="url(#clip-path-4)">
                    <path id="Trazado_873820" data-name="Trazado 873820" d="M27.577,127.388l.224,1.259,24.975,1.78.632-3.039Z" transform="translate(-27.577 -127.388)"/>
                  </g>
                </g>
              </g>
              <path id="Trazado_873821" data-name="Trazado 873821" d="M35.078,121.1c-3.977-2.306-6.105-7.671-6.264-12.06s1.67-8.971,5.27-11.488a12.062,12.062,0,0,1,13.09-.107,13.623,13.623,0,0,1,6,11.829,15.685,15.685,0,0,1-6.424,11.781" transform="translate(-0.69 -2.288)" fill="#455a64"/>
              <path id="Trazado_873822" data-name="Trazado 873822" d="M41.707,121.536a5.219,5.219,0,0,1-.073-1c-.02-.718-.047-1.637-.078-2.738-.059-2.312-.15-5.5-.3-9.029s-.346-6.713-.489-9.022c-.065-1.1-.121-2.018-.163-2.735A5.256,5.256,0,0,1,40.584,96a5.15,5.15,0,0,1,.16.995c.079.642.176,1.573.281,2.726.212,2.305.443,5.5.6,9.026s.2,6.727.2,9.041c0,1.158-.019,2.095-.041,2.742a5.245,5.245,0,0,1-.071,1" transform="translate(-0.971 -2.299)" fill="#263238"/>
              <path id="Trazado_873823" data-name="Trazado 873823" d="M29.951,108.344c-.01.1-.643.134-1.416.07s-1.4-.2-1.388-.3.643-.134,1.418-.07,1.394.2,1.386.3" transform="translate(-0.65 -2.586)" fill="#263238"/>
              <path id="Trazado_873824" data-name="Trazado 873824" d="M30.186,104.291c-.042.094-.589-.058-1.222-.338s-1.113-.586-1.071-.679.589.058,1.222.339,1.113.585,1.071.678" transform="translate(-0.668 -2.472)" fill="#263238"/>
              <path id="Trazado_873825" data-name="Trazado 873825" d="M32.263,101.275c-.054.086-.669-.2-1.308-.735s-1.04-1.08-.966-1.148.584.349,1.2.861,1.126.933,1.071,1.022" transform="translate(-0.718 -2.38)" fill="#263238"/>
              <path id="Trazado_873826" data-name="Trazado 873826" d="M34.382,98.441c-.094.042-.388-.419-.658-1.029s-.412-1.138-.318-1.18.389.42.659,1.03.412,1.137.317,1.179" transform="translate(-0.799 -2.304)" fill="#263238"/>
              <path id="Trazado_873827" data-name="Trazado 873827" d="M37.663,96.43c-.092.043-.409-.447-.62-1.127s-.229-1.263-.129-1.28.28.515.485,1.169.359,1.194.264,1.238" transform="translate(-0.882 -2.251)" fill="#263238"/>
              <path id="Trazado_873828" data-name="Trazado 873828" d="M43.135,94.229c.1.034.038.453-.133.935s-.387.845-.483.811-.038-.453.132-.935.387-.845.484-.811" transform="translate(-1.017 -2.256)" fill="#263238"/>
              <path id="Trazado_873829" data-name="Trazado 873829" d="M47.172,95.969c.07.075-.184.425-.567.779s-.751.58-.82.5.183-.424.567-.779.75-.58.82-.5" transform="translate(-1.096 -2.297)" fill="#263238"/>
              <path id="Trazado_873830" data-name="Trazado 873830" d="M50.738,98.273c.058.085-.252.4-.691.694s-.843.47-.9.385.252-.4.691-.693.843-.47.9-.386" transform="translate(-1.177 -2.353)" fill="#263238"/>
              <path id="Trazado_873831" data-name="Trazado 873831" d="M53.255,101.711c.041.095-.449.393-1.091.668s-1.2.419-1.236.325.447-.394,1.09-.668,1.2-.42,1.237-.325" transform="translate(-1.219 -2.435)" fill="#263238"/>
              <path id="Trazado_873832" data-name="Trazado 873832" d="M54.254,105.459c.013.1-.483.248-1.109.325s-1.142.058-1.155-.045.484-.247,1.109-.325,1.142-.058,1.155.045" transform="translate(-1.245 -2.523)" fill="#263238"/>
              <path id="Trazado_873833" data-name="Trazado 873833" d="M54.775,110.052c-.041.095-.57-.045-1.182-.31s-1.074-.558-1.033-.652.57.044,1.182.31,1.074.557,1.033.652" transform="translate(-1.258 -2.611)" fill="#263238"/>
              <path id="Trazado_873834" data-name="Trazado 873834" d="M54.312,114c-.033.094-.7-.065-1.4-.524s-1.115-1-1.042-1.073.584.331,1.246.76,1.235.737,1.2.836" transform="translate(-1.242 -2.691)" fill="#263238"/>
              <path id="Trazado_873835" data-name="Trazado 873835" d="M52.265,117.594c-.061.08-.593-.233-1.1-.785s-.785-1.1-.7-1.16.483.38.974.906.9.957.832,1.039" transform="translate(-1.208 -2.769)" fill="#263238"/>
              <path id="Trazado_873836" data-name="Trazado 873836" d="M32.665,118.065c.048.092-.511.476-1.248.86s-1.373.622-1.421.53.511-.476,1.249-.86,1.372-.621,1.42-.53" transform="translate(-0.718 -2.826)" fill="#263238"/>
              <path id="Trazado_873837" data-name="Trazado 873837" d="M30.89,114.8c.043.094-.406.388-1,.659s-1.113.413-1.155.319.405-.388,1-.659,1.112-.413,1.155-.319" transform="translate(-0.688 -2.748)" fill="#263238"/>
              <path id="Trazado_873838" data-name="Trazado 873838" d="M29.566,111.914c.015.1-.538.265-1.232.363s-1.271.1-1.285-.006.538-.265,1.233-.363,1.27-.1,1.284.006" transform="translate(-0.648 -2.678)" fill="#263238"/>
              <path id="Trazado_873839" data-name="Trazado 873839" d="M33.878,110.323c.03.1-.508.347-1.226.427s-1.3-.042-1.289-.143.568-.148,1.247-.227,1.238-.158,1.268-.057" transform="translate(-0.751 -2.64)" fill="#263238"/>
              <path id="Trazado_873840" data-name="Trazado 873840" d="M37.473,106.759c.03.1-.4.313-.976.369s-1.04-.071-1.029-.172.456-.144.993-.2.982-.1,1.012,0" transform="translate(-0.849 -2.555)" fill="#263238"/>
              <path id="Trazado_873841" data-name="Trazado 873841" d="M38.159,103.887c-.033.1-.5.025-1.036-.161s-.948-.416-.914-.513.5-.025,1.036.161.948.416.914.513" transform="translate(-0.867 -2.47)" fill="#263238"/>
              <path id="Trazado_873842" data-name="Trazado 873842" d="M39.5,100.984c-.071.071-.39-.139-.617-.534s-.251-.775-.153-.8.272.265.476.615.369.648.294.72" transform="translate(-0.926 -2.386)" fill="#263238"/>
              <path id="Trazado_873843" data-name="Trazado 873843" d="M37.895,112.837c.024.1-.377.284-.9.411a3.478,3.478,0,0,1-.754.111l-.073-.218c.134-.024.221-.019.238.021s-.037.107-.146.189l-.073-.217a3.447,3.447,0,0,1,.719-.25c.52-.127.961-.148.986-.049" transform="translate(-0.866 -2.7)" fill="#263238"/>
              <path id="Trazado_873844" data-name="Trazado 873844" d="M38.616,117.9c.037.1-.474.387-1.143.65s-1.243.4-1.281.3.474-.387,1.144-.65,1.242-.4,1.28-.3" transform="translate(-0.867 -2.822)" fill="#263238"/>
              <path id="Trazado_873845" data-name="Trazado 873845" d="M34.589,115.651c.032.1-.308.3-.763.456s-.849.2-.882.1.307-.3.762-.456.85-.2.883-.1" transform="translate(-0.789 -2.768)" fill="#263238"/>
              <path id="Trazado_873846" data-name="Trazado 873846" d="M34.878,105.326c-.023.1-.618.04-1.3-.2s-1.187-.572-1.143-.664.6.076,1.268.312,1.205.454,1.18.555" transform="translate(-0.776 -2.5)" fill="#263238"/>
              <path id="Trazado_873847" data-name="Trazado 873847" d="M44.688,104.227c.057.086-.278.407-.748.716s-.9.491-.953.405.278-.407.748-.716.9-.491.953-.405" transform="translate(-1.029 -2.495)" fill="#263238"/>
              <path id="Trazado_873848" data-name="Trazado 873848" d="M45.223,109.309c.02.1-.331.259-.786.353s-.84.09-.862-.012.331-.259.786-.353.84-.089.862.012" transform="translate(-1.043 -2.615)" fill="#263238"/>
              <path id="Trazado_873849" data-name="Trazado 873849" d="M45.829,115c-.043.094-.55-.049-1.131-.318s-1.018-.563-.975-.657.55.049,1.131.318,1.018.563.975.657" transform="translate(-1.047 -2.73)" fill="#263238"/>
              <path id="Trazado_873850" data-name="Trazado 873850" d="M44.543,120.556c-.08.065-.409-.2-.735-.6s-.526-.772-.446-.837.408.2.734.6.526.772.447.837" transform="translate(-1.038 -2.852)" fill="#263238"/>
              <path id="Trazado_873851" data-name="Trazado 873851" d="M44.273,100.484c.062.079-.154.353-.527.54s-.721.2-.748.1.245-.264.581-.433.631-.289.694-.206" transform="translate(-1.029 -2.405)" fill="#263238"/>
              <path id="Trazado_873852" data-name="Trazado 873852" d="M49.052,105.611c.034.095-.4.333-.992.415s-1.075-.028-1.068-.129.464-.162,1.016-.24,1.009-.145,1.043-.046" transform="translate(-1.125 -2.528)" fill="#263238"/>
              <path id="Trazado_873853" data-name="Trazado 873853" d="M48.094,101.008c.046.091-.385.4-1,.591s-1.14.2-1.155.1.461-.265,1.041-.45,1.063-.332,1.11-.238" transform="translate(-1.1 -2.418)" fill="#263238"/>
              <path id="Trazado_873854" data-name="Trazado 873854" d="M50.073,112.725a2.831,2.831,0,0,1-1.624,0,2.841,2.841,0,0,1-1.521-.573,4.967,4.967,0,0,1,1.587.206,4.987,4.987,0,0,1,1.558.364" transform="translate(-1.124 -2.685)" fill="#263238"/>
              <path id="Trazado_873855" data-name="Trazado 873855" d="M48.32,119.378c-.061.08-.6-.239-1.144-.784s-.859-1.086-.779-1.148.518.36,1.042.885.946.964.88,1.046" transform="translate(-1.111 -2.812)" fill="#263238"/>
              <path id="Trazado_873856" data-name="Trazado 873856" d="M40.335,95.569a16.892,16.892,0,0,0-3.267,2.582,15.949,15.949,0,0,0-4.07,9,20.193,20.193,0,0,0,.246,5.512,42.007,42.007,0,0,0,1.033,4.423c.357,1.245.685,2.243.906,2.934A6.95,6.95,0,0,1,35.5,121.1a6.13,6.13,0,0,1-.451-1.037c-.263-.677-.631-1.665-1.022-2.907a37.544,37.544,0,0,1-1.119-4.44,19.776,19.776,0,0,1-.277-5.614,15.683,15.683,0,0,1,4.25-9.135,11.663,11.663,0,0,1,2.438-1.905,7.333,7.333,0,0,1,.746-.387.866.866,0,0,1,.273-.106" transform="translate(-0.779 -2.288)" fill="#263238"/>
              <path id="Trazado_873857" data-name="Trazado 873857" d="M45.6,121.344a41.039,41.039,0,0,0,1.675-4,22.647,22.647,0,0,0,1-10.293,19.346,19.346,0,0,0-1.587-5.488,12.963,12.963,0,0,0-2.706-3.77,9.852,9.852,0,0,0-2.652-1.675c-.689-.288-1.1-.355-1.1-.387a.892.892,0,0,1,.3.023,5.622,5.622,0,0,1,.844.227,9.182,9.182,0,0,1,2.773,1.612A12.764,12.764,0,0,1,47,101.412,19.067,19.067,0,0,1,48.647,107a21.887,21.887,0,0,1-1.121,10.43c-.211.643-.481,1.195-.683,1.692-.24.481-.438.9-.62,1.23a6.944,6.944,0,0,1-.621.995" transform="translate(-0.963 -2.292)" fill="#263238"/>
              <path id="Trazado_873858" data-name="Trazado 873858" d="M178.528,97.421l-12.767,15.695a13.774,13.774,0,0,0,4.28,7.613,7.84,7.84,0,0,0,7.845,1.49s.837-1.406,3.173-5.164c4.4-7.087,7.33-20.6,7.33-20.6Z" transform="translate(-3.969 -2.31)" fill="#ffceb3"/>
              <path id="Trazado_873859" data-name="Trazado 873859" d="M198.724,66.364a1.432,1.432,0,0,0-1.322-.329l-8.347,1.937a2.887,2.887,0,0,0-1.751,1.242L170.889,95.346l1.368.536,9.268-1.249,17.475-28Z" transform="translate(-4.092 -1.58)" fill="#263238"/>
              <path id="Trazado_873860" data-name="Trazado 873860" d="M193.454,70.227a.573.573,0,0,0,.7-.209c.2-.238.213-.532.027-.655a.575.575,0,0,0-.7.209c-.2.239-.212.532-.027.655" transform="translate(-4.629 -1.66)" fill="#fff"/>
              <path id="Trazado_873861" data-name="Trazado 873861" d="M199.041,66.648a11.805,11.805,0,0,1-1.61.464l-4.422,1.1-3.057.736a1.928,1.928,0,0,0-1.268.83l-.935,1.5-4.19,6.692c-2.987,4.743-5.714,9.025-7.71,12.113l-2.386,3.648a10.487,10.487,0,0,1-.934,1.31,10.112,10.112,0,0,1,.766-1.39c.573-.947,1.33-2.2,2.248-3.712,1.917-3.126,4.6-7.431,7.582-12.173l4.225-6.675.958-1.5a2.412,2.412,0,0,1,1.562-1.01l3.072-.682,4.455-.956a11.822,11.822,0,0,1,1.645-.29" transform="translate(-4.131 -1.596)" fill="#455a64"/>
              <path id="Trazado_873862" data-name="Trazado 873862" d="M192.12,73.552s-.845-.055-1.2,2.106-1.54,8.376-1.54,8.376l-4.5-1.711-5.461,1.211s-1.149,1.142-.243,1.609a20.184,20.184,0,0,0,4.406.69l2.725,3.139-7.508-2.53s-2.424.836-1.639,2.144,5.951,5.13,5.951,5.13l-3.694.112-4.5-2.013s-1.341.19-.788,1.2,5.29,4.362,5.29,4.362l5.642,1.918s3-.521,3.253-1.366a9.145,9.145,0,0,0,.266-2.018s1.581-.558,1.845-1.3a4.127,4.127,0,0,0,.018-1.859s2.531.154,2.78-1.168a13.451,13.451,0,0,0-.437-4.809c-.3-.968.574-10.335.458-10.6s.416-3.379-1.129-2.61" transform="translate(-4.166 -1.758)" fill="#ffceb3"/>
              <path id="Trazado_873863" data-name="Trazado 873863" d="M188.635,98.489a3.375,3.375,0,0,1-1.42.557,10.455,10.455,0,0,1-3.647.213,9.6,9.6,0,0,1-3.391-1.041c-.785-.43-1.175-.807-1.132-.858a20.049,20.049,0,0,0,4.629,1.378,21.859,21.859,0,0,0,4.96-.249" transform="translate(-4.287 -2.331)" fill="#ff9c65"/>
              <path id="Trazado_873864" data-name="Trazado 873864" d="M187.344,96.719a4.559,4.559,0,0,1-2.164-.935c-1.085-.685-1.818-1.407-1.715-1.519s.992.409,2.054,1.08,1.909,1.244,1.825,1.374" transform="translate(-4.393 -2.257)" fill="#ff9a6c"/>
              <path id="Trazado_873865" data-name="Trazado 873865" d="M190.107,91.915a3.985,3.985,0,0,1-2.091-.977c-1.023-.735-1.641-1.534-1.525-1.633s.9.5,1.89,1.211,1.81,1.268,1.726,1.4" transform="translate(-4.465 -2.138)" fill="#ff9a6c"/>
              <path id="Trazado_873866" data-name="Trazado 873866" d="M193.067,87.95c-.148.074-.75-.827-1.675-1.779s-1.812-1.615-1.717-1.744a3.962,3.962,0,0,1,2.15,1.381c.98,1.012,1.379,2.082,1.242,2.142" transform="translate(-4.541 -2.021)" fill="#ff9c65"/>
              <path id="Trazado_873867" data-name="Trazado 873867" d="M278.832,306.77h-3.979l1.99-146.991h8.511Z" transform="translate(-6.581 -3.826)" fill="#e0e0e0"/>
              <path id="Trazado_873868" data-name="Trazado 873868" d="M278.831,306.764s0-.266.016-.77.046-1.258.081-2.226c.078-1.965.193-4.836.342-8.535.31-7.412.759-18.123,1.316-31.39,1.15-26.513,2.743-63.224,4.514-104.081l.254.265h-8.511l.254-.25c-.977,72.062-1.873,132.015-2.188,146.988l-.056-.057,2.983.032c.661.01,1,.023,1,.023s-.309.014-.965.023l-3.014.032H274.8v-.058c.09-14.977.818-74.931,1.791-146.993l0-.251h9.028l-.012.265c-1.856,40.925-3.525,77.7-4.73,104.254-.62,13.239-1.121,23.929-1.467,31.326-.179,3.672-.317,6.524-.412,8.474q-.076,1.43-.116,2.191c-.027.492-.051.734-.051.734" transform="translate(-6.58 -3.819)" fill="#263238"/>
              <path id="Trazado_873869" data-name="Trazado 873869" d="M26.315,307.07H22.336L20.069,159.345h8.512Z" transform="translate(-0.481 -3.815)" fill="#e0e0e0"/>
              <path id="Trazado_873870" data-name="Trazado 873870" d="M26.308,307.063s-.008-.268-.006-.774.009-1.264.016-2.237c.022-1.974.055-4.859.1-8.576.1-7.448.234-18.212.407-31.542.382-26.644.911-63.537,1.5-104.6l.254.259H20.063l.255-.259c1.109,72.43,1.949,132.7,2.067,147.726l-.056-.055,2.982.032c.661.01,1,.023,1,.023s-.309.014-.965.023l-3.014.032h-.055v-.056c-.344-15.027-1.352-75.29-2.465-147.72l0-.258h9.028l0,.258c-.673,41.133-1.276,78.09-1.712,104.781-.237,13.3-.428,24.048-.56,31.482-.072,3.69-.128,6.556-.167,8.516q-.034,1.438-.052,2.2c-.014.494-.029.738-.029.738" transform="translate(-0.474 -3.809)" fill="#263238"/>
              <rect id="Rectángulo_401750" data-name="Rectángulo 401750" width="285.928" height="12.247" transform="translate(0.069 144.229)" fill="#455a64"/>
              <path id="Trazado_873871" data-name="Trazado 873871" d="M.069,147.761s.483-.012,1.445-.018l4.28-.019,16.51-.036,60.963-.077,202.731-.1h.254v.254c0,3.872,0,8.042,0,12.232v.268H286L.069,160.076H0v-.068c.018-4.209.031-7.275.039-9.3.008-1,.013-1.733.017-2.23s.013-.719.013-.719.009.248.013.743.009,1.243.017,2.247c.008,2.014.021,5.066.039,9.257l-.068-.068L286,159.753l-.254.255V147.761l.254.254-202.543-.105-61.021-.076L5.863,147.8l-4.313-.019c-.973-.006-1.481-.018-1.481-.018" transform="translate(0 -3.532)" fill="#263238"/>
              <path id="Trazado_873872" data-name="Trazado 873872" d="M59.409,147.953a.53.53,0,0,1-.089.133c-.064.083-.157.211-.293.367a5.864,5.864,0,0,1-1.407,1.127,7.894,7.894,0,0,1-2.706.908,19.1,19.1,0,0,1-3.773.166,36.894,36.894,0,0,1-4.543-.522,40.509,40.509,0,0,0-5.174-.617,32.08,32.08,0,0,0-11.643,2.258c-4,1.428-7.729,3.052-11.3,4.041a31.085,31.085,0,0,1-5.154,1.022,21.764,21.764,0,0,1-4.58-.009,15.563,15.563,0,0,1-6.28-2.009,9.877,9.877,0,0,1-1.941-1.452.526.526,0,0,1,.135.086l.374.279a13.059,13.059,0,0,0,1.5.97,15.881,15.881,0,0,0,6.239,1.884,21.982,21.982,0,0,0,4.523-.033,31.426,31.426,0,0,0,5.1-1.043c3.54-1,7.258-2.626,11.273-4.061A32,32,0,0,1,41.434,149.2a39.816,39.816,0,0,1,5.209.652,37.763,37.763,0,0,0,4.506.56,19.419,19.419,0,0,0,3.734-.112,7.939,7.939,0,0,0,2.67-.835,7.086,7.086,0,0,0,1.855-1.51" transform="translate(-0.013 -3.542)" fill="#263238"/>
              <path id="Trazado_873873" data-name="Trazado 873873" d="M28.839,148.142a6.929,6.929,0,0,1-.847.723,19.408,19.408,0,0,1-2.555,1.645,22.244,22.244,0,0,1-4.179,1.7,22.661,22.661,0,0,1-5.459.854,20.907,20.907,0,0,1-9.763-2.015,6.2,6.2,0,0,1-2.355-1.925,3.335,3.335,0,0,1-.385-.739.946.946,0,0,1-.072-.281,7.755,7.755,0,0,0,.566.941,6.383,6.383,0,0,0,2.355,1.786,21.651,21.651,0,0,0,9.642,1.888,23.316,23.316,0,0,0,5.384-.815,23.727,23.727,0,0,0,4.152-1.61,24.082,24.082,0,0,0,2.589-1.538,6.9,6.9,0,0,1,.926-.614" transform="translate(-0.077 -3.546)" fill="#263238"/>
              <path id="Trazado_873874" data-name="Trazado 873874" d="M96.244,155.965a3.356,3.356,0,0,1,.434.157,8.477,8.477,0,0,0,1.293.344,7.622,7.622,0,0,0,4.9-.767l-.015.155a11.672,11.672,0,0,0-6.077-2.367,11.826,11.826,0,0,0-7.905,2.054,1.267,1.267,0,0,0-.612.8.857.857,0,0,0,.525.79,3.641,3.641,0,0,0,1.085.381l1.193.27c1.6.356,3.258.711,4.971.962a29.608,29.608,0,0,0,5.288.359,19.246,19.246,0,0,0,2.714-.261c.452-.076.9-.164,1.351-.283a6.776,6.776,0,0,0,1.308-.423,4.319,4.319,0,0,0,1.7-1.226,1.934,1.934,0,0,0,.325-1.882,3.219,3.219,0,0,0-1.331-1.488,10.577,10.577,0,0,0-1.859-.908,25.372,25.372,0,0,0-7.778-1.613,32.23,32.23,0,0,0-13.277,2.058,32.874,32.874,0,0,0-7.994,4.366c-.854.661-1.512,1.182-1.932,1.568l-.493.42a1.187,1.187,0,0,1-.177.135,1.039,1.039,0,0,1,.152-.16l.471-.446c.406-.4,1.051-.943,1.9-1.622A32.391,32.391,0,0,1,97.771,150.7a25.586,25.586,0,0,1,7.885,1.616,10.87,10.87,0,0,1,1.921.937,3.536,3.536,0,0,1,1.467,1.654,2.281,2.281,0,0,1-.374,2.21,4.635,4.635,0,0,1-1.831,1.331,7.046,7.046,0,0,1-1.363.442c-.457.121-.917.21-1.378.288a19.658,19.658,0,0,1-2.761.263,29.71,29.71,0,0,1-5.347-.371c-1.727-.257-3.388-.618-4.993-.98l-1.194-.275a3.91,3.91,0,0,1-1.172-.42,1.574,1.574,0,0,1-.493-.43.962.962,0,0,1-.179-.66,1.539,1.539,0,0,1,.74-1.007,12.051,12.051,0,0,1,8.106-2.06,11.8,11.8,0,0,1,6.17,2.471l.113.091-.127.065a7.617,7.617,0,0,1-5.008.7,5.647,5.647,0,0,1-1.709-.6" transform="translate(-1.769 -3.607)" fill="#263238"/>
              <path id="Trazado_873875" data-name="Trazado 873875" d="M133.476,148.278a1.831,1.831,0,0,1,.276.617,4.672,4.672,0,0,1,.184,1.838,9.052,9.052,0,0,1-2.727,5.345,13.8,13.8,0,0,1-2.548,2.166,11.317,11.317,0,0,1-2.459,1.192,11.523,11.523,0,0,1-1.781.447,2.441,2.441,0,0,1-.671.057c-.013-.063.94-.2,2.369-.733a12.213,12.213,0,0,0,2.367-1.228,14.433,14.433,0,0,0,2.471-2.137,9.272,9.272,0,0,0,2.737-5.133,6.686,6.686,0,0,0-.219-2.43" transform="translate(-2.963 -3.55)" fill="#263238"/>
              <path id="Trazado_873876" data-name="Trazado 873876" d="M184.238,159.456a16.268,16.268,0,0,0-1.285-1.251,9.143,9.143,0,0,0-4.381-1.974,9.759,9.759,0,0,0-3.334.1,14.31,14.31,0,0,1-3.909.359,7.8,7.8,0,0,1-3.891-1.908,13.284,13.284,0,0,0-3.91-2.318,14.344,14.344,0,0,0-8.684-.135,20.612,20.612,0,0,0-6.424,3.255,35.278,35.278,0,0,0-3.725,3.178l-.951.938a2.256,2.256,0,0,1-.344.317,2.365,2.365,0,0,1,.293-.364c.2-.231.5-.565.906-.986a31.194,31.194,0,0,1,3.675-3.28,20.428,20.428,0,0,1,6.483-3.364,14.521,14.521,0,0,1,8.888.116,13.49,13.49,0,0,1,4,2.375,7.552,7.552,0,0,0,3.722,1.86,14.367,14.367,0,0,0,3.826-.326,9.9,9.9,0,0,1,3.42-.055,9,9,0,0,1,4.427,2.114,5.946,5.946,0,0,1,1.2,1.352" transform="translate(-3.434 -3.625)" fill="#263238"/>
              <path id="Trazado_873877" data-name="Trazado 873877" d="M230.159,147.887a2.769,2.769,0,0,1-.306.419,14.584,14.584,0,0,1-.957,1.138,26.078,26.078,0,0,1-4.089,3.632,32.792,32.792,0,0,1-7.093,3.933,29.036,29.036,0,0,1-4.574,1.459,23.625,23.625,0,0,1-5.117.659,25.307,25.307,0,0,1-9.71-2.02,32.343,32.343,0,0,1-7.055-4,27.567,27.567,0,0,1-4.059-3.664c-.45-.465-.741-.877-.959-1.137a2.839,2.839,0,0,1-.307-.417,2.907,2.907,0,0,1,.361.373c.235.245.541.641,1,1.089a29.949,29.949,0,0,0,4.106,3.559,33,33,0,0,0,7.031,3.9,25.335,25.335,0,0,0,9.586,1.969,23.548,23.548,0,0,0,5.045-.642,29.355,29.355,0,0,0,4.531-1.425,33.6,33.6,0,0,0,7.071-3.836,28.168,28.168,0,0,0,4.132-3.526c.466-.446.767-.846,1-1.091a3.024,3.024,0,0,1,.36-.374" transform="translate(-4.452 -3.541)" fill="#263238"/>
              <path id="Trazado_873878" data-name="Trazado 873878" d="M223.985,147.767c.007.01-.076.076-.238.193s-.4.291-.725.491a29.361,29.361,0,0,1-2.805,1.588,29.715,29.715,0,0,1-4.432,1.8,19.508,19.508,0,0,1-5.783.989,23.731,23.731,0,0,1-10.266-2.594,22.712,22.712,0,0,1-2.782-1.633c-.317-.21-.547-.4-.707-.518s-.237-.192-.23-.2a9.792,9.792,0,0,1,1.01.607,28.323,28.323,0,0,0,2.815,1.527A24.638,24.638,0,0,0,210,152.487a19.841,19.841,0,0,0,5.689-.948,31.991,31.991,0,0,0,4.42-1.72c1.222-.58,2.186-1.1,2.841-1.483a9.178,9.178,0,0,1,1.034-.57" transform="translate(-4.693 -3.538)" fill="#263238"/>
              <path id="Trazado_873879" data-name="Trazado 873879" d="M273.654,149.044a3.407,3.407,0,0,1-.557,0l-1.58-.059-1.138-.051-1.36,0c-.974-.007-2.083-.026-3.306.031l-1.921.061-2.07.14c-1.437.072-2.943.269-4.539.424-3.164.4-6.6.965-10.086,1.746a98.089,98.089,0,0,0-9.448,2.7c-1.36.511-2.694.96-3.842,1.468l-1.693.706-1.5.7c-.973.433-1.777.877-2.5,1.258l-1.007.531-.8.475-1.117.651a2.154,2.154,0,0,1-.421.212c-.016-.008.1-.1.331-.258l1.039-.7.763-.5.978-.554c.7-.4,1.493-.857,2.457-1.306l1.484-.726,1.687-.728c1.146-.521,2.481-.985,3.846-1.507a92.7,92.7,0,0,1,9.515-2.748c3.523-.789,6.993-1.35,10.195-1.736,1.614-.147,3.137-.336,4.59-.4l2.093-.121,1.939-.038c1.235-.043,2.352-.007,3.332.019l1.366.034,1.142.081,1.574.123a3.184,3.184,0,0,1,.543.066" transform="translate(-5.382 -3.56)" fill="#263238"/>
              <path id="Trazado_873880" data-name="Trazado 873880" d="M189.013,159.156a13.036,13.036,0,0,0-1.541-1.832,14.242,14.242,0,0,0-5.644-3.154,30.9,30.9,0,0,0-4.4-.973c-1.607-.255-3.337-.455-5.15-.768a43.131,43.131,0,0,1-5.592-1.4,36.492,36.492,0,0,0-5.966-1.44,24.859,24.859,0,0,0-11.621,1.6,42.393,42.393,0,0,0-4.727,2.124c-1.448.742-2.777,1.475-3.982,2.155-2.411,1.365-4.329,2.525-5.652,3.332l-1.522.933-.4.238a.576.576,0,0,1-.142.071s.038-.039.122-.1l.381-.267c.337-.231.837-.567,1.488-.988,1.3-.843,3.2-2.037,5.6-3.431,1.2-.695,2.524-1.442,3.972-2.2a41.582,41.582,0,0,1,4.749-2.168,24.952,24.952,0,0,1,11.775-1.649,36.458,36.458,0,0,1,6.019,1.458,43.684,43.684,0,0,0,5.55,1.413c1.8.319,3.527.53,5.139.8a30.3,30.3,0,0,1,4.433,1.023,14.019,14.019,0,0,1,5.663,3.29,7.185,7.185,0,0,1,1.447,1.928" transform="translate(-3.177 -3.57)" fill="#263238"/>
              <path id="Trazado_873881" data-name="Trazado 873881" d="M125.423,147.953a2.7,2.7,0,0,1-.041.783,9.116,9.116,0,0,1-.548,2.066,11.866,11.866,0,0,1-4.3,5.508,28.81,28.81,0,0,1-6.379,2.937c-.853.283-1.551.486-2.037.612a3.236,3.236,0,0,1-.765.159,3.608,3.608,0,0,1,.726-.287l1.994-.714a32.883,32.883,0,0,0,6.272-3,12.236,12.236,0,0,0,4.267-5.31,16.517,16.517,0,0,0,.815-2.758" transform="translate(-2.666 -3.543)" fill="#263238"/>
              <path id="Trazado_873882" data-name="Trazado 873882" d="M59.159,160.018a4.891,4.891,0,0,1,.682-.655c.45-.41,1.13-.968,1.993-1.632a57.778,57.778,0,0,1,7.143-4.6c2.911-1.6,5.629-2.879,7.6-3.785.987-.453,1.79-.81,2.348-1.05a4.893,4.893,0,0,1,.881-.341,4.968,4.968,0,0,1-.825.463l-2.3,1.148c-1.945.962-4.642,2.274-7.541,3.867a70.547,70.547,0,0,0-7.163,4.5c-.876.634-1.578,1.163-2.054,1.539a5.036,5.036,0,0,1-.767.551" transform="translate(-1.416 -3.542)" fill="#263238"/>
              <path id="Trazado_873883" data-name="Trazado 873883" d="M71.608,148.463c0,.04-.647-.083-1.807,0a12.778,12.778,0,0,0-4.672,1.421,42.7,42.7,0,0,0-6.069,4.072,30.89,30.89,0,0,1-3.655,2.368,20.336,20.336,0,0,1-4.371,1.683,40.6,40.6,0,0,1-8.947,1.076c-2.768.081-5.256.025-7.34.111a36.282,36.282,0,0,0-4.91.48c-.573.106-1.018.193-1.317.265a2.582,2.582,0,0,1-.463.084,2.3,2.3,0,0,1,.445-.151c.295-.093.736-.2,1.309-.329a31.979,31.979,0,0,1,4.923-.592c2.093-.117,4.586-.087,7.341-.184a41.5,41.5,0,0,0,8.87-1.092,20.224,20.224,0,0,0,4.3-1.648,31.3,31.3,0,0,0,3.627-2.326,40.887,40.887,0,0,1,6.148-4.035,12.364,12.364,0,0,1,4.771-1.335,8.3,8.3,0,0,1,1.352.045,2.417,2.417,0,0,1,.464.084" transform="translate(-0.672 -3.551)" fill="#263238"/>
            </g>
          </g>
        </g>
      </g>
      <g id="Grupo_1099884" data-name="Grupo 1099884" transform="translate(312.406 1276.048)">
        <g id="Grupo_1099883" data-name="Grupo 1099883" transform="translate(0 0)">
          <g id="Grupo_1099885" data-name="Grupo 1099885">
            <path id="Trazado_874019" data-name="Trazado 874019" d="M91.951,75.793H66.9V40c0-7.46-2.664-9.967-3.539-10.789-3.758-3.532-10.885-4.44-16.3-4.1-.315.02-.728.04-1.234.039h-.056c-8.825,0-14.9,2.36-18.054,7.017a16.694,16.694,0,0,0-2.672,7.945V39.9L0,40.093A40.905,40.905,0,0,1,11.536,12.585C19.765,4.318,31.249.117,45.669.1,52.381-.3,68.886.02,80.523,10.96,85.737,15.863,91.951,24.881,91.951,40Z" transform="translate(-0.001 0)" fill="#13de61"/>
          </g>
        </g>
      </g>
      <g id="Grupo_1099881" data-name="Grupo 1099881" transform="translate(186.877 1308.211)">
        <g id="Grupo_1099880" data-name="Grupo 1099880" clip-path="url(#clip-path-5)">
          <path id="Trazado_873962" data-name="Trazado 873962" d="M160.059,0H4.845A4.845,4.845,0,0,0,0,4.845V114.476a4.845,4.845,0,0,0,4.845,4.845H64.416L61.4,148.456l43.388-.271-2.482-28.864h57.752a4.845,4.845,0,0,0,4.845-4.845V4.845A4.845,4.845,0,0,0,160.059,0" fill="#455a64"/>
          <path id="Trazado_873963" data-name="Trazado 873963" d="M220.673,291.063a2.99,2.99,0,0,1-4.211,4.211,1.089,1.089,0,0,1-.259-.26,2.99,2.99,0,0,1,4.211-4.211,1.066,1.066,0,0,1,.26.26" transform="translate(-136.148 -183.272)" fill="#263238"/>
          <path id="Trazado_873964" data-name="Trazado 873964" d="M166.815,102.709H7.256V9.024a3.572,3.572,0,0,1,3.572-3.572H163.243a3.572,3.572,0,0,1,3.572,3.572Z" transform="translate(-4.583 -3.444)" fill="#fff"/>
          <path id="Trazado_873965" data-name="Trazado 873965" d="M166.815,13.534H7.256V8.825a3.372,3.372,0,0,1,3.371-3.372H164.046a2.768,2.768,0,0,1,2.768,2.768Z" transform="translate(-4.583 -3.445)" fill="#f5f5f5"/>
          <path id="Trazado_873966" data-name="Trazado 873966" d="M20.25,14.962a1.121,1.121,0,1,1-1.121-1.121,1.121,1.121,0,0,1,1.121,1.121" transform="translate(-11.375 -8.743)" fill="#e0e0e0"/>
          <path id="Trazado_873967" data-name="Trazado 873967" d="M29.322,14.962A1.121,1.121,0,1,1,28.2,13.841a1.121,1.121,0,0,1,1.121,1.121" transform="translate(-17.106 -8.743)" fill="#e0e0e0"/>
          <path id="Trazado_873968" data-name="Trazado 873968" d="M37.949,14.962a1.121,1.121,0,1,1-1.121-1.121,1.121,1.121,0,0,1,1.121,1.121" transform="translate(-22.555 -8.743)" fill="#e0e0e0"/>
          <path id="Trazado_873969" data-name="Trazado 873969" d="M221.568,323.794c0,.053-13.012.1-29.058.1s-29.061-.043-29.061-.1,13.009-.1,29.061-.1,29.058.043,29.058.1" transform="translate(-103.246 -204.471)" fill="#263238"/>
          <rect id="Rectángulo_401755" data-name="Rectángulo 401755" width="26.226" height="89.175" transform="translate(2.673 10.09)" fill="#ebebeb"/>
          <path id="Trazado_873970" data-name="Trazado 873970" d="M36.412,31.481a1.8,1.8,0,0,1,.437-.19l.09-.432.73-.013.105.429a1.792,1.792,0,0,1,.443.174l.369-.242.525.507-.229.378a1.787,1.787,0,0,1,.19.436l.432.09.013.73-.429.1a1.78,1.78,0,0,1-.174.443l.242.369-.507.526-.378-.229a1.8,1.8,0,0,1-.436.19l-.09.432-.73.013-.105-.429a1.783,1.783,0,0,1-.443-.174l-.369.242-.526-.508.229-.377a1.8,1.8,0,0,1-.19-.437l-.432-.09-.013-.73.429-.105a1.791,1.791,0,0,1,.174-.443l-.242-.369.507-.525Zm.389.973a.784.784,0,1,0,1.108-.02.784.784,0,0,0-1.108.02" transform="translate(-22.213 -19.485)" fill="#e0e0e0"/>
          <path id="Trazado_873971" data-name="Trazado 873971" d="M33.376,84.095H21.944a1.175,1.175,0,0,1,0-2.35H33.376a1.175,1.175,0,0,1,0,2.35" transform="translate(-13.119 -51.636)" fill="#e0e0e0"/>
          <path id="Trazado_873972" data-name="Trazado 873972" d="M33.376,67.844H21.944a1.175,1.175,0,0,1,0-2.35H33.376a1.175,1.175,0,0,1,0,2.35" transform="translate(-13.119 -41.371)" fill="#e0e0e0"/>
          <path id="Trazado_873973" data-name="Trazado 873973" d="M33.376,52.979H21.944a1.175,1.175,0,0,1,0-2.35H33.376a1.175,1.175,0,0,1,0,2.35" transform="translate(-13.119 -31.981)" fill="#e0e0e0"/>
          <path id="Trazado_873974" data-name="Trazado 873974" d="M117.806,51.148H106.978a1.175,1.175,0,0,1,0-2.35h10.829a1.175,1.175,0,1,1,0,2.35" transform="translate(-66.833 -30.824)" fill="#263238"/>
          <path id="Trazado_873975" data-name="Trazado 873975" d="M117.806,67.845H106.978a1.175,1.175,0,0,1,0-2.35h10.829a1.175,1.175,0,1,1,0,2.35" transform="translate(-66.833 -41.371)" fill="#e0e0e0"/>
          <path id="Trazado_873976" data-name="Trazado 873976" d="M117.806,85.1H106.978a1.175,1.175,0,0,1,0-2.35h10.829a1.175,1.175,0,1,1,0,2.35" transform="translate(-66.833 -52.271)" fill="#0b65bf"/>
          <path id="Trazado_873977" data-name="Trazado 873977" d="M113.187,118.46h-6.209a1.175,1.175,0,1,1,0-2.35h6.209a1.175,1.175,0,0,1,0,2.35" transform="translate(-66.833 -73.343)" fill="#263238"/>
          <path id="Trazado_873978" data-name="Trazado 873978" d="M113.187,135.754h-6.209a1.175,1.175,0,1,1,0-2.35h6.209a1.175,1.175,0,1,1,0,2.35" transform="translate(-66.833 -84.268)" fill="#263238"/>
          <path id="Trazado_873979" data-name="Trazado 873979" d="M154.413,135.754H143.027a1.175,1.175,0,1,1,0-2.35h11.386a1.175,1.175,0,1,1,0,2.35" transform="translate(-89.604 -84.268)" fill="#e0e0e0"/>
          <path id="Trazado_873980" data-name="Trazado 873980" d="M136.929,151.131H125.543a1.175,1.175,0,0,1,0-2.35h11.386a1.175,1.175,0,0,1,0,2.35" transform="translate(-78.56 -93.981)" fill="#0b65bf"/>
          <path id="Trazado_873981" data-name="Trazado 873981" d="M150.188,168.671h-7.135a1.144,1.144,0,0,1-1.145-1.144v-.061a1.145,1.145,0,0,1,1.145-1.145h7.135a1.145,1.145,0,0,1,1.145,1.145v.06a1.145,1.145,0,0,1-1.145,1.145" transform="translate(-89.639 -105.06)" fill="#0b65bf"/>
          <path id="Trazado_873982" data-name="Trazado 873982" d="M150.158,203.047h-7.075a1.175,1.175,0,1,1,0-2.35h7.075a1.175,1.175,0,1,1,0,2.35" transform="translate(-89.639 -126.775)" fill="#0b65bf"/>
          <path id="Trazado_873983" data-name="Trazado 873983" d="M150.158,239.355h-7.075a1.175,1.175,0,0,1,0-2.35h7.075a1.175,1.175,0,0,1,0,2.35" transform="translate(-89.639 -149.71)" fill="#0b65bf"/>
          <path id="Trazado_873984" data-name="Trazado 873984" d="M188.239,239.355h-12.4a1.175,1.175,0,0,1,0-2.35h12.4a1.175,1.175,0,0,1,0,2.35" transform="translate(-110.329 -149.71)" fill="#455a64"/>
          <path id="Trazado_873985" data-name="Trazado 873985" d="M230.016,239.355h-1.787a1.175,1.175,0,0,1,0-2.35h1.787a1.175,1.175,0,1,1,0,2.35" transform="translate(-143.424 -149.71)" fill="#e0e0e0"/>
          <path id="Trazado_873986" data-name="Trazado 873986" d="M189.516,203.047H179.035a1.175,1.175,0,1,1,0-2.35h10.482a1.175,1.175,0,1,1,0,2.35" transform="translate(-112.349 -126.775)" fill="#e0e0e0"/>
          <path id="Trazado_873987" data-name="Trazado 873987" d="M212.5,218.987H179.035a1.175,1.175,0,1,1,0-2.35H212.5a1.175,1.175,0,1,1,0,2.35" transform="translate(-112.349 -136.844)" fill="#e0e0e0"/>
          <path id="Trazado_873988" data-name="Trazado 873988" d="M243.747,203.047H222.38a1.175,1.175,0,1,1,0-2.35h21.367a1.175,1.175,0,1,1,0,2.35" transform="translate(-139.729 -126.775)" fill="#455a64"/>
          <path id="Trazado_873989" data-name="Trazado 873989" d="M185.909,168.671H177a1.144,1.144,0,0,1-1.145-1.144v-.061A1.145,1.145,0,0,1,177,166.321h8.913a1.145,1.145,0,0,1,1.144,1.145v.061a1.144,1.144,0,0,1-1.144,1.144" transform="translate(-111.08 -105.06)" fill="#455a64"/>
          <path id="Trazado_873990" data-name="Trazado 873990" d="M218.119,168.671h-2.26a1.144,1.144,0,0,1-1.144-1.144v-.061a1.145,1.145,0,0,1,1.144-1.145h2.26a1.145,1.145,0,0,1,1.145,1.145v.06a1.145,1.145,0,0,1-1.145,1.145" transform="translate(-135.629 -105.06)" fill="#e0e0e0"/>
          <path id="Trazado_873991" data-name="Trazado 873991" d="M248.733,168.671H237.6a1.144,1.144,0,0,1-1.144-1.144v-.061a1.145,1.145,0,0,1,1.144-1.145h11.129a1.145,1.145,0,0,1,1.145,1.145v.061a1.145,1.145,0,0,1-1.145,1.144" transform="translate(-149.365 -105.06)" fill="#e0e0e0"/>
          <path id="Trazado_873992" data-name="Trazado 873992" d="M173.043,151.131h-2.537a1.175,1.175,0,0,1,0-2.35h2.537a1.175,1.175,0,1,1,0,2.35" transform="translate(-106.962 -93.981)" fill="#263238"/>
          <path id="Trazado_873993" data-name="Trazado 873993" d="M208.047,151.131H191.893a1.175,1.175,0,1,1,0-2.35h16.154a1.175,1.175,0,0,1,0,2.35" transform="translate(-120.471 -93.981)" fill="#e0e0e0"/>
          <path id="Trazado_873994" data-name="Trazado 873994" d="M164.906,51.148H154.078a1.175,1.175,0,0,1,0-2.35h10.829a1.175,1.175,0,1,1,0,2.35" transform="translate(-96.585 -30.824)" fill="#455a64"/>
          <path id="Trazado_873995" data-name="Trazado 873995" d="M178.859,67.845H154.078a1.175,1.175,0,1,1,0-2.35h24.781a1.175,1.175,0,1,1,0,2.35" transform="translate(-96.585 -41.371)" fill="#263238"/>
          <path id="Trazado_873996" data-name="Trazado 873996" d="M205.54,85.1H154.078a1.175,1.175,0,1,1,0-2.35H205.54a1.175,1.175,0,1,1,0,2.35" transform="translate(-96.585 -52.271)" fill="#e0e0e0"/>
          <path id="Trazado_873997" data-name="Trazado 873997" d="M178.344,97.253H154.079a1.175,1.175,0,0,1,0-2.35h24.265a1.175,1.175,0,1,1,0,2.35" transform="translate(-96.585 -59.948)" fill="#e0e0e0"/>
          <path id="Trazado_873998" data-name="Trazado 873998" d="M164.866,118.46H140.6a1.175,1.175,0,1,1,0-2.35h24.265a1.175,1.175,0,1,1,0,2.35" transform="translate(-88.072 -73.343)" fill="#455a64"/>
          <path id="Trazado_873999" data-name="Trazado 873999" d="M229.411,118.46h-8.133a1.175,1.175,0,1,1,0-2.35h8.133a1.175,1.175,0,1,1,0,2.35" transform="translate(-139.033 -73.343)" fill="#0b65bf"/>
          <path id="Trazado_874000" data-name="Trazado 874000" d="M273.469,118.357H258.106a1.175,1.175,0,0,1,0-2.35h15.364a1.175,1.175,0,0,1,0,2.35" transform="translate(-162.296 -73.278)" fill="#263238"/>
          <path id="Trazado_874001" data-name="Trazado 874001" d="M330.235,118.357H314.872a1.175,1.175,0,0,1,0-2.35h15.364a1.175,1.175,0,1,1,0,2.35" transform="translate(-198.154 -73.278)" fill="#e0e0e0"/>
          <path id="Trazado_874002" data-name="Trazado 874002" d="M28.425,101.3H21.944a1.175,1.175,0,1,1,0-2.35h6.481a1.175,1.175,0,1,1,0,2.35" transform="translate(-13.119 -62.502)" fill="#e0e0e0"/>
          <path id="Trazado_874003" data-name="Trazado 874003" d="M26.485,152.9H21.944a1.175,1.175,0,0,1,0-2.35h4.541a1.175,1.175,0,1,1,0,2.35" transform="translate(-13.119 -95.1)" fill="#e0e0e0"/>
          <path id="Trazado_874004" data-name="Trazado 874004" d="M34.551,118.5H21.944a1.175,1.175,0,0,1,0-2.35H34.551a1.175,1.175,0,1,1,0,2.35" transform="translate(-13.119 -73.368)" fill="#e0e0e0"/>
          <path id="Trazado_874005" data-name="Trazado 874005" d="M32.338,135.7h-10.4a1.175,1.175,0,1,1,0-2.35h10.4a1.175,1.175,0,1,1,0,2.35" transform="translate(-13.119 -84.234)" fill="#e0e0e0"/>
          <path id="Trazado_874006" data-name="Trazado 874006" d="M90.488,49.94a1.193,1.193,0,1,1-1.193-1.193,1.194,1.194,0,0,1,1.193,1.193" transform="translate(-55.651 -30.792)" fill="#455a64"/>
          <path id="Trazado_874007" data-name="Trazado 874007" d="M90.488,66.587a1.193,1.193,0,1,1-1.193-1.193,1.194,1.194,0,0,1,1.193,1.193" transform="translate(-55.651 -41.308)" fill="#455a64"/>
          <path id="Trazado_874008" data-name="Trazado 874008" d="M90.488,83.892A1.193,1.193,0,1,1,89.294,82.7a1.194,1.194,0,0,1,1.193,1.193" transform="translate(-55.651 -52.239)" fill="#455a64"/>
          <path id="Trazado_874009" data-name="Trazado 874009" d="M90.488,101.2A1.193,1.193,0,1,1,89.294,100a1.194,1.194,0,0,1,1.193,1.193" transform="translate(-55.651 -63.17)" fill="#455a64"/>
          <path id="Trazado_874010" data-name="Trazado 874010" d="M90.488,118.5a1.193,1.193,0,1,1-1.193-1.193,1.193,1.193,0,0,1,1.193,1.193" transform="translate(-55.651 -74.101)" fill="#455a64"/>
          <path id="Trazado_874011" data-name="Trazado 874011" d="M90.488,135.808a1.193,1.193,0,1,1-1.193-1.193,1.194,1.194,0,0,1,1.193,1.193" transform="translate(-55.651 -85.033)" fill="#455a64"/>
          <path id="Trazado_874012" data-name="Trazado 874012" d="M90.488,153.114a1.193,1.193,0,1,1-1.193-1.193,1.194,1.194,0,0,1,1.193,1.193" transform="translate(-55.651 -95.964)" fill="#455a64"/>
          <path id="Trazado_874013" data-name="Trazado 874013" d="M90.488,170.419a1.193,1.193,0,1,1-1.193-1.193,1.193,1.193,0,0,1,1.193,1.193" transform="translate(-55.651 -106.895)" fill="#455a64"/>
          <path id="Trazado_874014" data-name="Trazado 874014" d="M90.488,187.724a1.193,1.193,0,1,1-1.193-1.193,1.193,1.193,0,0,1,1.193,1.193" transform="translate(-55.651 -117.826)" fill="#455a64"/>
          <path id="Trazado_874015" data-name="Trazado 874015" d="M90.488,205.03a1.193,1.193,0,1,1-1.193-1.193,1.194,1.194,0,0,1,1.193,1.193" transform="translate(-55.651 -128.758)" fill="#455a64"/>
          <path id="Trazado_874016" data-name="Trazado 874016" d="M90.488,222.335a1.193,1.193,0,1,1-1.193-1.193,1.193,1.193,0,0,1,1.193,1.193" transform="translate(-55.651 -139.689)" fill="#455a64"/>
          <path id="Trazado_874017" data-name="Trazado 874017" d="M90.488,239.64a1.193,1.193,0,1,1-1.193-1.193,1.193,1.193,0,0,1,1.193,1.193" transform="translate(-55.651 -150.62)" fill="#455a64"/>
        </g>
      </g>
      <g id="Grupo_1099877" data-name="Grupo 1099877" transform="translate(340.274 1349.82)">
        <g id="Grupo_1099876" data-name="Grupo 1099876" clip-path="url(#clip-path-6)">
          <path id="Trazado_873884" data-name="Trazado 873884" d="M87.433,209.623l-71.8-.042A15.577,15.577,0,0,1,0,194.065L.035,15.512A15.579,15.579,0,0,1,15.685,0l71.8.042A15.577,15.577,0,0,1,103.118,15.56l-.035,178.553a15.578,15.578,0,0,1-15.649,15.511" transform="translate(0 0)" fill="#263238"/>
          <path id="Trazado_873885" data-name="Trazado 873885" d="M89.97,10.178,76.049,10.17a3.443,3.443,0,0,0-3.381,3.5v2.5a3.442,3.442,0,0,1-3.381,3.5l-27.135-.016a3.446,3.446,0,0,1-3.38-3.507v-2.5a3.447,3.447,0,0,0-3.38-3.508l-4.9,0-12.184-.007A10.91,10.91,0,0,0,7.352,21L7.318,195.28a10.909,10.909,0,0,0,10.947,10.868l71.658.041a10.91,10.91,0,0,0,10.96-10.863l.035-174.28A10.91,10.91,0,0,0,89.97,10.178" transform="translate(-2.72 -3.768)" fill="#fff"/>
          <path id="Trazado_873886" data-name="Trazado 873886" d="M33,221.9H18.815A11.372,11.372,0,0,1,7.443,210.529V52.081H33Z" transform="translate(-2.767 -19.359)" fill="#ebebeb"/>
          <path id="Trazado_873887" data-name="Trazado 873887" d="M82.931,69.3H70.757a1.391,1.391,0,0,1,0-2.779H82.931a1.391,1.391,0,0,1,0,2.779" transform="translate(-25.81 -24.728)" fill="#263238"/>
          <path id="Trazado_873888" data-name="Trazado 873888" d="M83.535,80.846H71.361a1.391,1.391,0,0,1,0-2.779H83.535a1.391,1.391,0,0,1,0,2.779" transform="translate(-26.035 -29.019)" fill="#e0e0e0"/>
          <path id="Trazado_873889" data-name="Trazado 873889" d="M83.767,94.047H71.593a1.391,1.391,0,0,1,0-2.779H83.767a1.391,1.391,0,0,1,0,2.779" transform="translate(-26.121 -33.926)" fill="#0b65bf"/>
          <path id="Trazado_873890" data-name="Trazado 873890" d="M114.051,104.053H101.877a1.391,1.391,0,0,1,0-2.779h12.174a1.391,1.391,0,0,1,0,2.779" transform="translate(-37.378 -37.645)" fill="#e0e0e0"/>
          <path id="Trazado_873891" data-name="Trazado 873891" d="M81.872,117.179H74.891a1.392,1.392,0,0,1,0-2.78h6.981a1.392,1.392,0,0,1,0,2.78" transform="translate(-27.347 -42.524)" fill="#263238"/>
          <path id="Trazado_873892" data-name="Trazado 873892" d="M81.872,129.169H74.891a1.391,1.391,0,0,1,0-2.779h6.981a1.391,1.391,0,0,1,0,2.779" transform="translate(-27.347 -46.981)" fill="#263238"/>
          <path id="Trazado_873893" data-name="Trazado 873893" d="M111.449,129.169h-12.8a1.391,1.391,0,0,1,0-2.779h12.8a1.391,1.391,0,0,1,0,2.779" transform="translate(-36.178 -46.981)" fill="#e0e0e0"/>
          <path id="Trazado_873894" data-name="Trazado 873894" d="M87.668,143.3h-12.8a1.391,1.391,0,0,1,0-2.779h12.8a1.391,1.391,0,0,1,0,2.779" transform="translate(-27.338 -52.235)" fill="#0b65bf"/>
          <path id="Trazado_873895" data-name="Trazado 873895" d="M91.936,153.255H84.048A1.354,1.354,0,0,1,82.7,151.9v-.072a1.353,1.353,0,0,1,1.353-1.353h7.888a1.354,1.354,0,0,1,1.354,1.353v.072a1.354,1.354,0,0,1-1.354,1.354" transform="translate(-30.739 -55.934)" fill="#0b65bf"/>
          <path id="Trazado_873896" data-name="Trazado 873896" d="M84.4,172.637H76.449a1.391,1.391,0,0,1,0-2.779H84.4a1.391,1.391,0,0,1,0,2.779" transform="translate(-27.926 -63.138)" fill="#0b65bf"/>
          <path id="Trazado_873897" data-name="Trazado 873897" d="M84.4,197.813H76.449a1.391,1.391,0,0,1,0-2.779H84.4a1.391,1.391,0,0,1,0,2.779" transform="translate(-27.926 -72.497)" fill="#0b65bf"/>
          <path id="Trazado_873898" data-name="Trazado 873898" d="M111.98,197.813H98.036a1.391,1.391,0,0,1,0-2.779H111.98a1.391,1.391,0,0,1,0,2.779" transform="translate(-35.95 -72.497)" fill="#455a64"/>
          <path id="Trazado_873899" data-name="Trazado 873899" d="M140.127,173.118H126.183a1.391,1.391,0,0,1,0-2.779h13.944a1.391,1.391,0,0,1,0,2.779" transform="translate(-46.413 -63.317)" fill="#455a64"/>
          <path id="Trazado_873900" data-name="Trazado 873900" d="M113.461,182.524H99.517a1.391,1.391,0,0,1,0-2.779h13.944a1.391,1.391,0,0,1,0,2.779" transform="translate(-36.501 -66.814)" fill="#455a64"/>
          <path id="Trazado_873901" data-name="Trazado 873901" d="M134.575,197.813h-2.009a1.391,1.391,0,0,1,0-2.779h2.009a1.391,1.391,0,0,1,0,2.779" transform="translate(-48.786 -72.497)" fill="#e0e0e0"/>
          <path id="Trazado_873902" data-name="Trazado 873902" d="M111.928,172.637H100.144a1.391,1.391,0,0,1,0-2.779h11.784a1.391,1.391,0,0,1,0,2.779" transform="translate(-36.734 -63.138)" fill="#e0e0e0"/>
          <path id="Trazado_873903" data-name="Trazado 873903" d="M116.306,153.255H106.42a1.354,1.354,0,0,1-1.354-1.354v-.072a1.354,1.354,0,0,1,1.354-1.353h9.886a1.354,1.354,0,0,1,1.354,1.353v.072a1.354,1.354,0,0,1-1.354,1.354" transform="translate(-39.054 -55.934)" fill="#455a64"/>
          <path id="Trazado_873904" data-name="Trazado 873904" d="M134.44,153.255h-2.407a1.354,1.354,0,0,1-1.354-1.354v-.072a1.354,1.354,0,0,1,1.354-1.353h2.407a1.354,1.354,0,0,1,1.354,1.353v.072a1.354,1.354,0,0,1-1.354,1.354" transform="translate(-48.575 -55.934)" fill="#e0e0e0"/>
          <path id="Trazado_873905" data-name="Trazado 873905" d="M107.355,143.3H104.5a1.391,1.391,0,0,1,0-2.779h2.852a1.391,1.391,0,0,1,0,2.779" transform="translate(-38.354 -52.235)" fill="#263238"/>
          <path id="Trazado_873906" data-name="Trazado 873906" d="M136.76,143.3H118.6a1.391,1.391,0,0,1,0-2.779H136.76a1.391,1.391,0,0,1,0,2.779" transform="translate(-43.594 -52.235)" fill="#e0e0e0"/>
          <path id="Trazado_873907" data-name="Trazado 873907" d="M112.087,69.3H99.913a1.391,1.391,0,0,1,0-2.779h12.174a1.391,1.391,0,0,1,0,2.779" transform="translate(-36.648 -24.728)" fill="#455a64"/>
          <path id="Trazado_873908" data-name="Trazado 873908" d="M127.081,80.846H99.221a1.391,1.391,0,0,1,0-2.779h27.86a1.391,1.391,0,0,1,0,2.779" transform="translate(-36.391 -29.019)" fill="#263238"/>
          <path id="Trazado_873909" data-name="Trazado 873909" d="M128.274,93.956h-27.28a1.392,1.392,0,0,1,0-2.78h27.28a1.392,1.392,0,0,1,0,2.78" transform="translate(-37.05 -33.891)" fill="#e0e0e0"/>
          <path id="Trazado_873910" data-name="Trazado 873910" d="M124.33,117.179H97.051a1.392,1.392,0,0,1,0-2.78h27.28a1.392,1.392,0,0,1,0,2.78" transform="translate(-35.584 -42.524)" fill="#455a64"/>
          <path id="Trazado_873911" data-name="Trazado 873911" d="M81.872,285.276H74.891a1.392,1.392,0,0,1,0-2.78h6.981a1.392,1.392,0,0,1,0,2.78" transform="translate(-27.347 -105.008)" fill="#263238"/>
          <path id="Trazado_873912" data-name="Trazado 873912" d="M81.872,297.266H74.891a1.391,1.391,0,0,1,0-2.779h6.981a1.391,1.391,0,0,1,0,2.779" transform="translate(-27.347 -109.465)" fill="#263238"/>
          <path id="Trazado_873913" data-name="Trazado 873913" d="M124.33,285.276H97.051a1.392,1.392,0,0,1,0-2.78h27.28a1.392,1.392,0,0,1,0,2.78" transform="translate(-35.584 -105.008)" fill="#455a64"/>
          <path id="Trazado_873914" data-name="Trazado 873914" d="M26.133,108.246H18.847a1.392,1.392,0,0,1,0-2.78h7.286a1.392,1.392,0,0,1,0,2.78" transform="translate(-6.515 -39.203)" fill="#e0e0e0"/>
          <path id="Trazado_873915" data-name="Trazado 873915" d="M26.133,120.553H18.847a1.391,1.391,0,0,1,0-2.779h7.286a1.391,1.391,0,0,1,0,2.779" transform="translate(-6.515 -43.778)" fill="#e0e0e0"/>
          <path id="Trazado_873916" data-name="Trazado 873916" d="M26.133,132.859H18.847a1.392,1.392,0,0,1,0-2.78h7.286a1.392,1.392,0,0,1,0,2.78" transform="translate(-6.515 -48.352)" fill="#e0e0e0"/>
          <path id="Trazado_873917" data-name="Trazado 873917" d="M26.133,95.939H18.847a1.392,1.392,0,0,1,0-2.78h7.286a1.392,1.392,0,0,1,0,2.78" transform="translate(-6.515 -34.628)" fill="#e0e0e0"/>
          <path id="Trazado_873918" data-name="Trazado 873918" d="M26.133,83.632H18.847a1.391,1.391,0,0,1,0-2.779h7.286a1.391,1.391,0,0,1,0,2.779" transform="translate(-6.515 -30.054)" fill="#e0e0e0"/>
          <path id="Trazado_873919" data-name="Trazado 873919" d="M26.133,71.325H18.847a1.391,1.391,0,0,1,0-2.779h7.286a1.391,1.391,0,0,1,0,2.779" transform="translate(-6.515 -25.479)" fill="#e0e0e0"/>
          <path id="Trazado_873920" data-name="Trazado 873920" d="M23.952,145.166H18.847a1.391,1.391,0,0,1,0-2.779h5.105a1.391,1.391,0,0,1,0,2.779" transform="translate(-6.515 -52.927)" fill="#e0e0e0"/>
          <path id="Trazado_873921" data-name="Trazado 873921" d="M58.349,67.9a1.364,1.364,0,1,1-1.363-1.412A1.388,1.388,0,0,1,58.349,67.9" transform="translate(-20.676 -24.715)" fill="#455a64"/>
          <path id="Trazado_873922" data-name="Trazado 873922" d="M58.349,79.444a1.364,1.364,0,1,1-1.363-1.412,1.388,1.388,0,0,1,1.363,1.412" transform="translate(-20.676 -29.006)" fill="#455a64"/>
          <path id="Trazado_873923" data-name="Trazado 873923" d="M58.349,91.443a1.364,1.364,0,1,1-1.363-1.412,1.388,1.388,0,0,1,1.363,1.412" transform="translate(-20.676 -33.466)" fill="#455a64"/>
          <path id="Trazado_873924" data-name="Trazado 873924" d="M58.349,103.442a1.364,1.364,0,1,1-1.363-1.412,1.388,1.388,0,0,1,1.363,1.412" transform="translate(-20.676 -37.926)" fill="#455a64"/>
          <path id="Trazado_873925" data-name="Trazado 873925" d="M58.349,115.441a1.364,1.364,0,1,1-1.363-1.412,1.388,1.388,0,0,1,1.363,1.412" transform="translate(-20.676 -42.386)" fill="#455a64"/>
          <path id="Trazado_873926" data-name="Trazado 873926" d="M58.349,127.441a1.364,1.364,0,1,1-1.363-1.412,1.388,1.388,0,0,1,1.363,1.412" transform="translate(-20.676 -46.847)" fill="#455a64"/>
          <path id="Trazado_873927" data-name="Trazado 873927" d="M58.349,139.44a1.364,1.364,0,1,1-1.363-1.412,1.388,1.388,0,0,1,1.363,1.412" transform="translate(-20.676 -51.307)" fill="#455a64"/>
          <path id="Trazado_873928" data-name="Trazado 873928" d="M58.349,151.439a1.364,1.364,0,1,1-1.363-1.412,1.388,1.388,0,0,1,1.363,1.412" transform="translate(-20.676 -55.767)" fill="#455a64"/>
          <path id="Trazado_873929" data-name="Trazado 873929" d="M58.349,163.438a1.364,1.364,0,1,1-1.363-1.412,1.388,1.388,0,0,1,1.363,1.412" transform="translate(-20.676 -60.227)" fill="#455a64"/>
          <path id="Trazado_873930" data-name="Trazado 873930" d="M58.349,175.438a1.364,1.364,0,1,1-1.363-1.412,1.388,1.388,0,0,1,1.363,1.412" transform="translate(-20.676 -64.688)" fill="#455a64"/>
          <path id="Trazado_873931" data-name="Trazado 873931" d="M58.349,187.437a1.364,1.364,0,1,1-1.363-1.412,1.388,1.388,0,0,1,1.363,1.412" transform="translate(-20.676 -69.148)" fill="#455a64"/>
          <path id="Trazado_873932" data-name="Trazado 873932" d="M58.349,199.436a1.364,1.364,0,1,1-1.363-1.412,1.388,1.388,0,0,1,1.363,1.412" transform="translate(-20.676 -73.608)" fill="#455a64"/>
          <path id="Trazado_873933" data-name="Trazado 873933" d="M87.668,214.935h-12.8a1.391,1.391,0,0,1,0-2.779h12.8a1.391,1.391,0,0,1,0,2.779" transform="translate(-27.338 -78.861)" fill="#0b65bf"/>
          <path id="Trazado_873934" data-name="Trazado 873934" d="M91.936,224.885H84.048a1.354,1.354,0,0,1-1.353-1.354v-.072a1.353,1.353,0,0,1,1.353-1.353h7.888a1.354,1.354,0,0,1,1.354,1.353v.072a1.354,1.354,0,0,1-1.354,1.354" transform="translate(-30.739 -82.56)" fill="#0b65bf"/>
          <path id="Trazado_873935" data-name="Trazado 873935" d="M84.4,244.268H76.449a1.391,1.391,0,0,1,0-2.779H84.4a1.391,1.391,0,0,1,0,2.779" transform="translate(-27.926 -89.765)" fill="#0b65bf"/>
          <path id="Trazado_873936" data-name="Trazado 873936" d="M84.4,269.444H76.449a1.392,1.392,0,0,1,0-2.78H84.4a1.392,1.392,0,0,1,0,2.78" transform="translate(-27.926 -99.123)" fill="#0b65bf"/>
          <path id="Trazado_873937" data-name="Trazado 873937" d="M111.98,269.444H98.036a1.392,1.392,0,0,1,0-2.78H111.98a1.392,1.392,0,0,1,0,2.78" transform="translate(-35.95 -99.123)" fill="#455a64"/>
          <path id="Trazado_873938" data-name="Trazado 873938" d="M140.127,244.748H126.183a1.391,1.391,0,0,1,0-2.779h13.944a1.391,1.391,0,0,1,0,2.779" transform="translate(-46.413 -89.943)" fill="#455a64"/>
          <path id="Trazado_873939" data-name="Trazado 873939" d="M113.461,254.155H99.517a1.391,1.391,0,0,1,0-2.779h13.944a1.391,1.391,0,0,1,0,2.779" transform="translate(-36.501 -93.44)" fill="#455a64"/>
          <path id="Trazado_873940" data-name="Trazado 873940" d="M134.575,269.444h-2.009a1.392,1.392,0,0,1,0-2.78h2.009a1.392,1.392,0,0,1,0,2.78" transform="translate(-48.786 -99.123)" fill="#e0e0e0"/>
          <path id="Trazado_873941" data-name="Trazado 873941" d="M111.928,244.268H100.144a1.391,1.391,0,0,1,0-2.779h11.784a1.391,1.391,0,0,1,0,2.779" transform="translate(-36.734 -89.765)" fill="#e0e0e0"/>
          <path id="Trazado_873942" data-name="Trazado 873942" d="M116.306,224.885H106.42a1.354,1.354,0,0,1-1.354-1.354v-.072a1.354,1.354,0,0,1,1.354-1.353h9.886a1.354,1.354,0,0,1,1.354,1.353v.072a1.354,1.354,0,0,1-1.354,1.354" transform="translate(-39.054 -82.56)" fill="#455a64"/>
          <path id="Trazado_873943" data-name="Trazado 873943" d="M134.44,224.885h-2.407a1.354,1.354,0,0,1-1.354-1.354v-.072a1.354,1.354,0,0,1,1.354-1.353h2.407a1.354,1.354,0,0,1,1.354,1.353v.072a1.354,1.354,0,0,1-1.354,1.354" transform="translate(-48.575 -82.56)" fill="#e0e0e0"/>
          <path id="Trazado_873944" data-name="Trazado 873944" d="M107.355,214.935H104.5a1.391,1.391,0,0,1,0-2.779h2.852a1.391,1.391,0,0,1,0,2.779" transform="translate(-38.354 -78.861)" fill="#263238"/>
          <path id="Trazado_873945" data-name="Trazado 873945" d="M136.76,214.935H118.6a1.391,1.391,0,0,1,0-2.779H136.76a1.391,1.391,0,0,1,0,2.779" transform="translate(-43.594 -78.861)" fill="#e0e0e0"/>
          <path id="Trazado_873946" data-name="Trazado 873946" d="M58.349,211.07a1.364,1.364,0,1,1-1.363-1.412,1.388,1.388,0,0,1,1.363,1.412" transform="translate(-20.676 -77.933)" fill="#455a64"/>
          <path id="Trazado_873947" data-name="Trazado 873947" d="M58.349,223.07a1.364,1.364,0,1,1-1.363-1.412,1.388,1.388,0,0,1,1.363,1.412" transform="translate(-20.676 -82.393)" fill="#455a64"/>
          <path id="Trazado_873948" data-name="Trazado 873948" d="M58.349,235.069a1.364,1.364,0,1,1-1.363-1.412,1.388,1.388,0,0,1,1.363,1.412" transform="translate(-20.676 -86.853)" fill="#455a64"/>
          <path id="Trazado_873949" data-name="Trazado 873949" d="M58.349,247.068a1.364,1.364,0,1,1-1.363-1.412,1.388,1.388,0,0,1,1.363,1.412" transform="translate(-20.676 -91.314)" fill="#455a64"/>
          <path id="Trazado_873950" data-name="Trazado 873950" d="M58.349,259.067a1.364,1.364,0,1,1-1.363-1.412,1.388,1.388,0,0,1,1.363,1.412" transform="translate(-20.676 -95.774)" fill="#455a64"/>
          <path id="Trazado_873951" data-name="Trazado 873951" d="M58.349,271.067a1.364,1.364,0,1,1-1.363-1.412,1.388,1.388,0,0,1,1.363,1.412" transform="translate(-20.676 -100.234)" fill="#455a64"/>
          <path id="Trazado_873952" data-name="Trazado 873952" d="M58.349,283.873a1.364,1.364,0,1,1-1.363-1.412,1.388,1.388,0,0,1,1.363,1.412" transform="translate(-20.676 -104.995)" fill="#455a64"/>
          <path id="Trazado_873953" data-name="Trazado 873953" d="M58.349,296.679a1.364,1.364,0,1,1-1.363-1.412,1.388,1.388,0,0,1,1.363,1.412" transform="translate(-20.676 -109.755)" fill="#455a64"/>
          <path id="Trazado_873954" data-name="Trazado 873954" d="M89.989,10.178,76.068,10.17a3.443,3.443,0,0,0-3.381,3.5v2.5a3.442,3.442,0,0,1-3.381,3.5L42.17,19.666a3.446,3.446,0,0,1-3.38-3.508v-2.5a3.447,3.447,0,0,0-3.38-3.507l-4.9,0-12.184-.007A10.91,10.91,0,0,0,7.37,21l0,15.49h93.566l0-15.445A10.91,10.91,0,0,0,89.989,10.178" transform="translate(-2.738 -3.768)" fill="#f5f5f5"/>
          <path id="Trazado_873955" data-name="Trazado 873955" d="M18,41.341a1.727,1.727,0,1,1-1.727-1.727A1.727,1.727,0,0,1,18,41.341" transform="translate(-5.406 -14.725)" fill="#e0e0e0"/>
          <path id="Trazado_873956" data-name="Trazado 873956" d="M26.479,41.341a1.727,1.727,0,1,1-1.727-1.727,1.727,1.727,0,0,1,1.727,1.727" transform="translate(-8.559 -14.725)" fill="#e0e0e0"/>
          <path id="Trazado_873957" data-name="Trazado 873957" d="M34.962,41.341a1.727,1.727,0,1,1-1.727-1.727,1.727,1.727,0,0,1,1.727,1.727" transform="translate(-11.712 -14.725)" fill="#e0e0e0"/>
          <path id="Trazado_873958" data-name="Trazado 873958" d="M80.912,31.858a4.507,4.507,0,0,1,1.1-.479l.227-1.091,1.842-.032.266,1.082a4.542,4.542,0,0,1,1.118.44l.931-.61,1.326,1.279-.577.953a4.513,4.513,0,0,1,.479,1.1l1.091.227.032,1.842-1.082.266a4.5,4.5,0,0,1-.44,1.118l.611.931-1.28,1.326-.952-.578a4.477,4.477,0,0,1-1.1.479L84.276,41.2l-1.843.033-.265-1.083a4.51,4.51,0,0,1-1.118-.439l-.931.609-1.326-1.279.577-.952a4.533,4.533,0,0,1-.479-1.1L77.8,36.763l-.032-1.842,1.082-.265a4.518,4.518,0,0,1,.44-1.118l-.61-.932,1.28-1.326Zm.982,2.454a1.977,1.977,0,1,0,2.8-.048,1.977,1.977,0,0,0-2.8.048" transform="translate(-28.907 -11.247)" fill="#e0e0e0"/>
        </g>
      </g>
      <path id="Trazado_874020" data-name="Trazado 874020" d="M55.41,71.893l24.408,33.2L106.1,71.848Z" transform="translate(311.079 1274.328)" fill="#13de61"/>
      <g id="Grupo_1099879" data-name="Grupo 1099879" transform="translate(197.534 1440.954)">
        <g id="Grupo_1099878" data-name="Grupo 1099878" transform="translate(0 0)" clip-path="url(#clip-path-7)">
          <path id="Trazado_873959" data-name="Trazado 873959" d="M74.1,82.823H8.728A8.728,8.728,0,0,1,0,74.1V8.728A8.728,8.728,0,0,1,8.728,0H74.1a8.728,8.728,0,0,1,8.728,8.728V74.1A8.728,8.728,0,0,1,74.1,82.823" transform="translate(0 0)" fill="#1b6de0"/>
          <path id="Trazado_873960" data-name="Trazado 873960" d="M28.013,34.181a19.051,19.051,0,0,1,4.639-2.016l.956-4.592,7.758-.136,1.117,4.555a18.99,18.99,0,0,1,4.708,1.853l3.922-2.571,5.582,5.39-2.43,4.008a18.977,18.977,0,0,1,2.015,4.641l4.592.956.137,7.758-4.556,1.117A19.028,19.028,0,0,1,54.6,59.851l2.57,3.922-5.39,5.583-4.009-2.431a18.989,18.989,0,0,1-4.64,2.016l-.956,4.592-7.759.136L33.3,69.114a19.028,19.028,0,0,1-4.707-1.852l-3.922,2.57-5.582-5.39,2.431-4.009a18.977,18.977,0,0,1-2.017-4.64l-4.592-.956-.136-7.758,4.556-1.117a19,19,0,0,1,1.853-4.708l-2.571-3.921L24,31.75Zm4.136,10.336a8.324,8.324,0,1,0,11.77-.207,8.325,8.325,0,0,0-11.77.207" transform="translate(-1.71 -3.175)" fill="#fff"/>
          <path id="Trazado_873961" data-name="Trazado 873961" d="M61.944,17.984a7.431,7.431,0,0,1,1.5-1.282l-.167-1.823,2.881-.936.936,1.573a7.415,7.415,0,0,1,1.969.154l1.17-1.407,2.7,1.375-.449,1.774a7.411,7.411,0,0,1,1.282,1.5l1.822-.167.936,2.88-1.573.937a7.408,7.408,0,0,1-.154,1.968L76.205,25.7,74.83,28.4l-1.774-.45a7.387,7.387,0,0,1-1.5,1.282l.168,1.823-2.881.936L67.9,30.419a7.414,7.414,0,0,1-1.969-.154l-1.17,1.407-2.7-1.375.449-1.774a7.435,7.435,0,0,1-1.282-1.5l-1.822.167-.936-2.881,1.573-.936A7.406,7.406,0,0,1,60.2,21.4L58.8,20.233l1.375-2.7Zm2.724,3.386a3.249,3.249,0,1,0,4.37-1.42,3.249,3.249,0,0,0-4.37,1.42" transform="translate(-6.768 -1.613)" fill="#fff"/>
        </g>
      </g>
    </g>
    <path id="Rectángulo_401758" data-name="Rectángulo 401758" d="M94,30A64.072,64.072,0,0,0,30,94v6a64,64,0,0,0,128,0V94A64.072,64.072,0,0,0,94,30M94,0a94,94,0,0,1,94,94v6A94,94,0,0,1,0,100V94A94,94,0,0,1,94,0Z" transform="translate(105.051 1708)" fill="#fff"/>
  </g>
</svg>
