<svg xmlns="http://www.w3.org/2000/svg" xmlns:xlink="http://www.w3.org/1999/xlink" width="295" height="340" viewBox="0 0 295 340">
  <defs>
    <clipPath id="clip-path">
      <rect id="Rectángulo_401767" data-name="Rectángulo 401767" width="295" height="340" rx="14" transform="translate(285.051 892)" fill="#b0c8cb"/>
    </clipPath>
    <clipPath id="clip-path-2">
      <rect id="Rectángulo_383162" data-name="Rectángulo 383162" width="275.24" height="324.105" fill="none"/>
    </clipPath>
    <clipPath id="clip-path-4">
      <rect id="Rectángulo_383159" data-name="Rectángulo 383159" width="3.092" height="2.55" fill="none"/>
    </clipPath>
    <clipPath id="clip-path-5">
      <rect id="Rectángulo_383160" data-name="Rectángulo 383160" width="7.995" height="2.696" fill="none"/>
    </clipPath>
  </defs>
  <g id="_35" data-name="35" transform="translate(-285.051 -892)">
    <rect id="Rectángulo_401606" data-name="Rectángulo 401606" width="295" height="292" rx="14" transform="translate(285.051 940)" fill="#b0c8cb"/>
    <g id="_35-2" data-name="35" clip-path="url(#clip-path)">
      <g id="Grupo_1099903" data-name="Grupo 1099903" transform="translate(0 12)">
        <g id="Grupo_1099901" data-name="Grupo 1099901" transform="translate(297.893 880)">
          <g id="Grupo_1074099" data-name="Grupo 1074099" clip-path="url(#clip-path-2)">
            <g id="Grupo_1074098" data-name="Grupo 1074098">
              <g id="Grupo_1074097" data-name="Grupo 1074097" clip-path="url(#clip-path-2)">
                <path id="Trazado_825349" data-name="Trazado 825349" d="M177.493,57.4l-.425,1.856-.43,1.811c-.292,1.2-.6,2.4-.907,3.6-.618,2.394-1.285,4.773-1.969,7.151-1.394,4.754-2.9,9.5-4.643,14.232-.866,2.368-1.779,4.745-2.8,7.117s-2.1,4.758-3.357,7.176c-.627,1.209-1.3,2.429-2.05,3.659s-1.568,2.48-2.533,3.764a28.789,28.789,0,0,1-3.586,4.005,20.362,20.362,0,0,1-2.737,2.114,17.781,17.781,0,0,1-1.839,1.024,15.883,15.883,0,0,1-2.308.884,14.672,14.672,0,0,1-2.82.535c-.258.023-.514.038-.768.049s-.529.006-.791,0l-.194,0-.141-.008-.283-.015c-.191-.012-.37-.025-.543-.044a18.4,18.4,0,0,1-1.938-.285c-.6-.115-1.132-.251-1.646-.393a31.562,31.562,0,0,1-5.059-1.946c-1.446-.693-2.749-1.413-3.987-2.14s-2.41-1.469-3.54-2.226c-2.256-1.516-4.366-3.07-6.416-4.649s-4.025-3.182-5.954-4.82-3.821-3.282-5.674-4.959-3.675-3.372-5.477-5.083-3.569-3.45-5.316-5.211l-2.609-2.66-1.291-1.354L92.14,79.168a10.79,10.79,0,0,1,15.577-14.932l.121.124,1.176,1.2,1.227,1.239,2.472,2.483c1.654,1.654,3.311,3.307,4.992,4.929s3.349,3.251,5.043,4.838,3.381,3.165,5.09,4.693c.851.768,1.709,1.519,2.564,2.264s1.713,1.481,2.566,2.2c1.715,1.432,3.437,2.807,5.135,4.048.842.624,1.677,1.218,2.491,1.759s1.6,1.024,2.3,1.414c.095.055.191.107.283.156.522-.591,1.08-1.305,1.634-2.075.562-.789,1.135-1.64,1.7-2.524,1.128-1.775,2.217-3.694,3.271-5.671s2.079-4.017,3.076-6.092c1.983-4.154,3.884-8.437,5.7-12.774.918-2.166,1.8-4.348,2.685-6.537l1.3-3.286.647-1.64.618-1.6.064-.164A7.142,7.142,0,0,1,177.493,57.4" transform="translate(13.824 7.538)" fill="#eaad8f"/>
                <path id="Trazado_825350" data-name="Trazado 825350" d="M138.4,96.96a14.014,14.014,0,0,0-2.36-7.291c-.249-.377.364-.713.611-.34a14.713,14.713,0,0,1,2.447,7.646c.016.449-.681.433-.7-.015" transform="translate(21.071 13.816)" fill="#c6695d"/>
                <path id="Trazado_825351" data-name="Trazado 825351" d="M140.179,94.392a14.25,14.25,0,0,0-2.852-2.9c-.353-.27.008-.869.366-.6a15.42,15.42,0,0,1,3.1,3.155c.266.363-.349.7-.611.34" transform="translate(21.257 14.074)" fill="#c6695d"/>
                <path id="Trazado_825352" data-name="Trazado 825352" d="M159.143,42.053s.256-.008-.416-1.475c-1.1-2.4.607-6.6-.774-7.919-1.851-1.767-3.071,2.057-4.875,9.647-.475,2,.141,9.1.8,11.3.5,1.669.343,3.956,1.307,4.858,3.055,2.855,11.063,3.63,12.453,1.932,2.045-2.5,3.221-8.64,4.441-10.788s7.382-16.867,5.593-16.74-5.242,6.87-5.242,6.87,4-11.65,2.127-12.35c-1.771-.661-5.48,10.225-5.48,10.225s3.732-14.7,1.038-14.276c-1.343.211-5.084,13.341-5.084,13.341s1.883-8.679-1.805-8.887c-3.885-.217-5.726,3.913-5.726,3.913s.121,2.69,3.36.368c2.858-2.048-1.72,9.982-1.72,9.982" transform="translate(23.694 3.615)" fill="#eaad8f"/>
                <path id="Trazado_825353" data-name="Trazado 825353" d="M171.007,41.358a.508.508,0,0,0-.049-.669,14.463,14.463,0,0,0-10.549-3.759.507.507,0,0,0,.085,1.011c.058,0,5.77-.432,9.752,3.473a.509.509,0,0,0,.718-.007.421.421,0,0,0,.042-.049" transform="translate(24.784 5.719)" fill="#c6695d"/>
                <path id="Trazado_825354" data-name="Trazado 825354" d="M163.338,50.992a.509.509,0,0,0,.032-.567c-3.1-5.205-.35-9.079-.321-9.117a.508.508,0,0,0-.814-.606l-.006.008c-.131.179-3.168,4.459.269,10.234a.507.507,0,0,0,.7.177.5.5,0,0,0,.144-.128" transform="translate(24.926 6.276)" fill="#c6695d"/>
                <path id="Trazado_825355" data-name="Trazado 825355" d="M53.725,275.417v7.135h5.17v-3.225a1.646,1.646,0,0,1,1.646-1.646H82.684a1.384,1.384,0,0,1,1.384,1.384v3.487h6.013v-3.487a1.383,1.383,0,0,1,1.384-1.384h21.974a1.646,1.646,0,0,1,1.647,1.646v3.225h5.17v-7.135a2.9,2.9,0,0,0-2.9-2.9H90.081V180.546H84.068v91.966H56.63a2.9,2.9,0,0,0-2.9,2.9" transform="translate(8.325 27.976)" fill="#314fa5"/>
                <path id="Trazado_825356" data-name="Trazado 825356" d="M78.828,228.557H87.88a1.093,1.093,0,0,0,1.093-1.093V188.615H77.735v38.849a1.093,1.093,0,0,0,1.093,1.093" transform="translate(12.045 29.226)" fill="#1c2b74"/>
                <path id="Trazado_825357" data-name="Trazado 825357" d="M102.364,273.9a7.7,7.7,0,1,0,7.7-7.7,7.7,7.7,0,0,0-7.7,7.7" transform="translate(15.861 41.248)" fill="#171612"/>
                <path id="Trazado_825358" data-name="Trazado 825358" d="M109.621,277.864a4.409,4.409,0,1,0-4.408-4.408,4.413,4.413,0,0,0,4.408,4.408" transform="translate(16.303 41.689)" fill="#5a554d"/>
                <path id="Trazado_825359" data-name="Trazado 825359" d="M75.862,273.9a7.7,7.7,0,1,0,7.7-7.7,7.7,7.7,0,0,0-7.7,7.7" transform="translate(11.755 41.248)" fill="#171612"/>
                <path id="Trazado_825360" data-name="Trazado 825360" d="M83.118,277.864a4.409,4.409,0,1,0-4.408-4.408,4.413,4.413,0,0,0,4.408,4.408" transform="translate(12.196 41.689)" fill="#5a554d"/>
                <path id="Trazado_825361" data-name="Trazado 825361" d="M49.265,273.9a7.7,7.7,0,1,0,7.7-7.7,7.7,7.7,0,0,0-7.7,7.7" transform="translate(7.634 41.248)" fill="#171612"/>
                <path id="Trazado_825362" data-name="Trazado 825362" d="M56.522,277.864a4.409,4.409,0,1,0-4.408-4.408,4.413,4.413,0,0,0,4.408,4.408" transform="translate(8.075 41.689)" fill="#5a554d"/>
                <path id="Trazado_825363" data-name="Trazado 825363" d="M.274,68.084,32.946,204.193a9.769,9.769,0,0,0,9.5,7.489H119.13a9.77,9.77,0,0,0,9.488-12.1L95.207,63.475a9.767,9.767,0,0,0-9.487-7.439H9.772a9.768,9.768,0,0,0-9.5,12.048" transform="translate(0 8.683)" fill="#1c2b74"/>
                <path id="Trazado_825364" data-name="Trazado 825364" d="M7.582,68.084,40.254,204.193a9.769,9.769,0,0,0,9.5,7.489h76.684a9.77,9.77,0,0,0,9.488-12.1L102.515,63.475a9.767,9.767,0,0,0-9.487-7.439H17.08a9.768,9.768,0,0,0-9.5,12.048" transform="translate(1.132 8.683)" fill="#314fa5"/>
                <path id="Trazado_825365" data-name="Trazado 825365" d="M45.818,201.755,13.144,65.646a3.132,3.132,0,0,1,3.047-3.864H92.139a3.127,3.127,0,0,1,3.043,2.386l33.409,136.109a3.132,3.132,0,0,1-3.043,3.879H48.865a3.123,3.123,0,0,1-3.047-2.4M16.191,62.659A2.256,2.256,0,0,0,14,65.442L46.67,201.549a2.25,2.25,0,0,0,2.194,1.73h76.684a2.256,2.256,0,0,0,2.191-2.795L94.33,64.377a2.251,2.251,0,0,0-2.191-1.719Z" transform="translate(2.023 9.573)" fill="#1c2b74"/>
                <path id="Trazado_825366" data-name="Trazado 825366" d="M169.032,196.433H40.239A11.037,11.037,0,0,1,29.487,187.9l-1.725-7.414H165.32Z" transform="translate(4.302 27.966)" fill="#1c2b74"/>
                <path id="Trazado_825367" data-name="Trazado 825367" d="M166.155,196.433H47.407A11.038,11.038,0,0,1,36.655,187.9l-1.725-7.414H166.155a7.976,7.976,0,1,1,0,15.951" transform="translate(5.412 27.966)" fill="#314fa5"/>
                <path id="Trazado_825368" data-name="Trazado 825368" d="M92.268,2.454s16.828,6.06,13.4,25.468c-3.739,21.145-7.307,40.43-4.468,51.88,0,0-48.6,4.254-57.89-9.071,0,0,13.958-21.882,14.558-36.389S59.157,3.608,71.429.9,92.268,2.454,92.268,2.454" transform="translate(6.71 0)" fill="#171612"/>
                <path id="Trazado_825369" data-name="Trazado 825369" d="M114.991,150.344q-1.81.5-3.6.926c-.5.122-.993.24-1.489.353a137,137,0,0,1-47,2.578q-.785-.092-1.518-.192a85.246,85.246,0,0,1-10.5-1.988l-.047-.013A58.572,58.572,0,0,0,52.614,140.6c.073-1.3.125-2.562.164-3.762v0c.07-2.244.084-4.276.072-5.957v-.094c-.008-1.131-.027-2.1-.047-2.856,7.446-1.411,21.176-3.878,33.9-5.45,9.233-1.141,17.94-1.812,23.333-1.268l.306,2.006.456,2.962.385,2.217.839,4.852,2.9,16.733Z" transform="translate(7.878 18.751)" fill="#eaad8f"/>
                <path id="Trazado_825370" data-name="Trazado 825370" d="M52.6,140.406s42.3,5.025,60.283-5.832c0,0,3.907,17.931,3.565,22.688-.821,11.4-64.668,8.875-66.279-2.271-.711-4.92,2.431-14.585,2.431-14.585" transform="translate(7.757 20.852)" fill="#467b6c"/>
                <path id="Trazado_825371" data-name="Trazado 825371" d="M52.365,139.345a11.287,11.287,0,0,0-1.408,6.8s42.23,5.809,63.027-5.448a8.4,8.4,0,0,0-1.552-7.073S96.1,144.738,52.365,139.345" transform="translate(7.881 20.706)" fill="#253f3d"/>
                <path id="Trazado_825372" data-name="Trazado 825372" d="M110.567,126.173c-4.463.321-10.38.9-17.016,1.929-12.8,1.989-28.277,5.674-41.174,12.494.073-1.3.126-2.563.164-3.763v0c.072-2.244.085-4.277.073-5.957v-.094c-.008-1.131-.027-2.1-.047-2.856,7.447-1.413,21.177-3.878,33.9-5.451,9.233-1.141,17.941-1.812,23.333-1.267l.307,2Z" transform="translate(8.116 18.751)" fill="#c6695d"/>
                <path id="Trazado_825373" data-name="Trazado 825373" d="M53.319,135.52v0c-7.282-.321-5.845-4.41-5.845-4.41l.053-.014,5.865-1.631v.094Z" transform="translate(7.338 20.061)" fill="#32237f"/>
                <path id="Trazado_825374" data-name="Trazado 825374" d="M124.762,107.711a14.26,14.26,0,0,1-.172,1.449c-.032.2-.074.394-.12.594a14.547,14.547,0,0,1-.409,1.4c-.1.286-.21.576-.33.865a39.954,39.954,0,0,1-6.315,9.789c-.2.243-.4.464-.584.672s-.374.415-.541.59c-.269.283-.5.514-.669.678-.1.088-.179.166-.258.233-.222.2-.348.311-.348.311,0,.031,0,.058,0,.09q.014.341.036.722c.023.424.052.88.09,1.371q.057.814.149,1.753c.009.1.021.2.029.3l.009.107c.015.143.027.29.044.439.088.9.191,1.87.307,2.9.1.915.216,1.877.338,2.87l-.012,0h0a32.838,32.838,0,0,0-3.565-.83h-.006c-6.564-1.178-14.638-.9-22.932.137q-1.809.224-3.625.5c-.664.1-1.325.2-1.988.307l0,0c-4.188.672-8.355,1.5-12.338,2.382-.315.07-.631.141-.947.214-5.823,1.318-11.22,2.758-15.666,4.033-2.218.634-4.2,1.227-5.873,1.747l.008-.12q.14-1.842.231-3.6c.042-.806.073-1.6.1-2.378.012-.372.023-.739.032-1.105q.061-2.432.027-4.7-.017-1.324-.07-2.6c-.015-.373-.029-.745-.05-1.11-.053-1.054-.12-2.084-.2-3.08,0-.046-.006-.09-.012-.137-.126-1.528-.325-3.226-.59-5.055q-.066-.464-.14-.938c-.716-4.684-1.839-10.152-3.273-15.836-.07-.281-.143-.561-.216-.844-.006-.029-.015-.055-.021-.085-.283-1.119-.584-2.25-.894-3.381-.088-.325-.179-.646-.273-.968-.049-.18-.1-.365-.151-.546-.038-.14-.082-.277-.12-.417-.12-.424-.239-.842-.365-1.266-.12-.407-.24-.815-.359-1.222-.217-.722-.435-1.444-.664-2.159-.012-.038-.023-.08-.035-.118-.073-.233-.147-.468-.222-.7s-.141-.445-.21-.666q-.71-2.214-1.474-4.375c-.3-.856-.581-1.719-.838-2.58-.052-.178-.105-.357-.155-.535-.082-.278-.161-.561-.233-.842-.068-.231-.129-.464-.187-.7v0c-.176-.686-.336-1.379-.483-2.069v0c-.07-.34-.137-.684-.2-1.026v0c-.187-1.029-.342-2.051-.45-3.063v0a32.045,32.045,0,0,1-.193-3.726c0-.33.007-.661.021-.985.015-.382.038-.762.07-1.136.027-.283.055-.567.088-.848,0-.017,0-.029.006-.044.038-.292.079-.584.126-.871.023-.146.046-.289.073-.432l.084-.427c.03-.14.061-.28.091-.42V66.21c.027-.091.046-.185.067-.275.012-.044.023-.088.035-.135.032-.125.065-.251.1-.377.044-.166.091-.327.141-.491q.17-.553.371-1.087c.009-.018.015-.038.023-.055.05-.129.1-.258.155-.386s.109-.255.162-.38.119-.263.184-.395c.114-.233.233-.47.357-.7.075-.135.149-.269.228-.4.061-.109.126-.21.193-.319.143-.231.292-.459.453-.678.076-.111.158-.222.24-.33.067-.084.134-.176.2-.26.024-.032.05-.061.076-.094.07-.084.141-.176.216-.26.2-.234.4-.46.62-.678.079-.082.161-.164.245-.246.1-.1.2-.193.307-.289s.208-.185.315-.278.214-.181.325-.268c.073-.062.149-.12.225-.179a13.43,13.43,0,0,1,1.818-1.18c.087-.053.178-.1.268-.149s.191-.1.29-.149c.161-.082.327-.161.493-.237.053-.027.109-.05.162-.073.105-.047.2-.091.31-.135.464-.2.949-.373,1.458-.537.03-.012.061-.021.094-.032.135-.04.273-.082.41-.126.193-.055.388-.107.587-.161.489-.126.974-.248,1.455-.371s.955-.24,1.423-.351c5.935-1.446,10.927-2.361,12.759-2.683l.345-.061.157-.029a.052.052,0,0,0,.032,0c.038-.008.07-.014.1-.017a.076.076,0,0,0,.021-.006l.061-.008.032-.006,2.42.365,22.381,3.39.745.113,1.38.208.554.085,2.612.4c2.522.455,4.734.908,6.678,1.379.587.14,1.151.283,1.689.43.392.1.768.207,1.134.315a29.416,29.416,0,0,1,5.494,2.11A13.07,13.07,0,0,1,113.26,62c.065.055.126.114.185.172a8.382,8.382,0,0,1,.628.661c.05.055.1.109.14.166a9.2,9.2,0,0,1,1.18,1.841c.07.147.143.292.208.445.134.3.254.617.359.936.044.122.084.248.126.38.061.2.122.405.178.616.059.229.12.465.17.7.061.266.12.541.176.821.015.067.027.134.038.2.029.155.055.313.082.474.023.132.044.262.064.4.009.058.021.122.03.184.1.672.193,1.379.277,2.125.02.2.044.4.07.61.017.17.035.342.055.515.017.193.04.388.061.587q.123,1.136.256,2.388a.948.948,0,0,0,.013.1c.017.17.035.344.058.517.009.1.021.2.032.292s.027.225.038.338c.017.158.035.319.055.479.006.05.015.105.021.158.017.151.038.307.058.459.038.3.08.6.122.9q.159,1.1.355,2.192v0c.058.319.117.632.178.947.009.053.021.105.029.158v0c.021.1.038.2.061.3.313,1.616.676,3.22,1.064,4.792,1.71,6.94,3.893,11.4,4.772,15.509.059.289.114.573.161.858a14.767,14.767,0,0,1,.2,3.481" transform="translate(5.792 7.955)" fill="#fff"/>
                <path id="Trazado_825375" data-name="Trazado 825375" d="M105.949,123.752a3.87,3.87,0,0,1-2.786,4.359l-.8-5.2a11.362,11.362,0,0,1,3.584.837" transform="translate(15.862 19.046)" fill="#32237f"/>
                <path id="Trazado_825376" data-name="Trazado 825376" d="M116.792,67.714a73.526,73.526,0,0,1-11.283,2.416c-9.722,1.3-19.225.2-28.813-1.549-10.114-1.84-20.564-4-30.838-2.069a34.036,34.036,0,0,0-8.481,2.767c0-.33.006-.661.021-.985a34.619,34.619,0,0,1,7.954-2.574c9.468-1.849,19.138-.26,28.5,1.453,9.745,1.78,19.4,3.369,29.325,2.358a72.145,72.145,0,0,0,13.471-2.689c.029.155.055.313.081.474.024.132.044.263.065.4" transform="translate(5.792 10.055)" fill="#dbccc1"/>
                <path id="Trazado_825377" data-name="Trazado 825377" d="M102.884,57.088a91.578,91.578,0,0,1-58.915-1.233c.088-.052.179-.1.269-.149s.191-.1.29-.149c.161-.082.327-.161.493-.237a90.43,90.43,0,0,0,15.427,4.016A89.658,89.658,0,0,0,101.2,56.659q.88.21,1.689.43" transform="translate(6.813 8.572)" fill="#dbccc1"/>
                <path id="Trazado_825378" data-name="Trazado 825378" d="M117.738,75.812c-1.312.531-2.645,1.026-3.989,1.478a72.446,72.446,0,0,1-22.755,3.8c-8.6.037-16.884-1.973-25.312-3.416-8.5-1.455-16.935-1.7-25.231.967-.512.164-1.02.336-1.525.521-.082-.278-.162-.561-.234-.842q1.2-.435,2.417-.8c7.8-2.332,15.739-2.171,23.71-.877,8.726,1.421,17.273,3.606,26.175,3.569a71.65,71.65,0,0,0,26.622-5.3c.038.3.079.6.122.9" transform="translate(5.995 11.608)" fill="#dbccc1"/>
                <path id="Trazado_825379" data-name="Trazado 825379" d="M114.672,100.162a16.831,16.831,0,0,1-8.451-1.268,8.631,8.631,0,0,1-4.974-7.236c-.476-5.563,2.6-11,7.16-14.067.059.319.117.632.179.947a15.122,15.122,0,0,0-6.5,12.125,8.041,8.041,0,0,0,5.462,7.848,17.049,17.049,0,0,0,6.967.792c.058.29.114.573.161.859" transform="translate(15.681 12.023)" fill="#dbccc1"/>
                <path id="Trazado_825380" data-name="Trazado 825380" d="M123.466,106.17c-.1.286-.21.576-.33.865-16.013-4.281-29.906-14.071-45.654-19.129C65.949,84.2,52.927,82.938,41.468,86.8c-.012-.038-.023-.08-.035-.118-.073-.233-.146-.467-.222-.7a47.12,47.12,0,0,1,11.452-2.338c17.346-1.394,33.281,6.159,48.458,13.529,7.037,3.416,14.585,6.873,22.344,8.989" transform="translate(6.386 12.936)" fill="#dbccc1"/>
                <path id="Trazado_825381" data-name="Trazado 825381" d="M56.356,107q-4.291,3.1-8.828,5.827-.066-.464-.14-.938,3.366-2.034,6.6-4.284c2.641-1.835,10.377-6.189,7.136-10.269-1.224-1.543-3.443-2.07-5.307-2.268a31.206,31.206,0,0,0-6.745.038,32.708,32.708,0,0,0-4.962.947c-.07-.281-.143-.561-.216-.844a33.184,33.184,0,0,1,7.925-1.163c3.352-.085,8.951-.03,10.569,3.682,1.786,4.1-3.308,7.3-6.037,9.272" transform="translate(6.802 14.57)" fill="#dbccc1"/>
                <path id="Trazado_825382" data-name="Trazado 825382" d="M115.81,114.522c-.2.243-.4.464-.584.672a41,41,0,0,1-7.475-4.746c-4.728-3.659-9.188-8.013-14.888-10.137-6.631-2.473-13.226-.372-19.194,2.84a134.273,134.273,0,0,0-25.881,18.395c-.015-.373-.029-.745-.05-1.11q5.071-4.489,10.549-8.495A114.551,114.551,0,0,1,75.1,101.428c5.6-2.744,11.733-4.219,17.782-2.042,5.416,1.948,9.8,5.879,14.214,9.436a43.046,43.046,0,0,0,8.714,5.7" transform="translate(7.397 15.237)" fill="#dbccc1"/>
                <path id="Trazado_825383" data-name="Trazado 825383" d="M69.937,126.646c-.315.07-.632.14-.947.214a8.865,8.865,0,0,0-9.617-5.5,22.082,22.082,0,0,0-11.583,5.183c.012-.371.023-.739.032-1.1,5.1-3.936,13.384-7.469,18.883-3.156a9.86,9.86,0,0,1,3.232,4.363" transform="translate(7.405 18.642)" fill="#dbccc1"/>
                <path id="Trazado_825384" data-name="Trazado 825384" d="M109.135,118.819a55.808,55.808,0,0,0-14.354.065,37.1,37.1,0,0,0-15.144,5.5c-.663.1-1.324.2-1.987.307a31.528,31.528,0,0,1,6.589-3.808c8.089-3.472,16.438-3.855,24.813-2.916.009.1.021.2.029.3l.009.107c.015.143.027.29.044.439" transform="translate(12.032 18.211)" fill="#dbccc1"/>
                <path id="Trazado_825385" data-name="Trazado 825385" d="M69.685,116a.642.642,0,0,0,.855.295,36.878,36.878,0,0,1,23.377-1.868,40,40,0,0,0,16.142,1.27c-.015-.255-.028-.5-.035-.723l0-.09s.224-.191.6-.545c-4.225.774-9.8.6-16.377-1.149a37.5,37.5,0,0,0-24.268,1.955.639.639,0,0,0-.295.855" transform="translate(10.788 17.356)" fill="#dbccc1"/>
                <path id="Trazado_825386" data-name="Trazado 825386" d="M96.861,241.354,91.855,261.51l14.667.972,9.417-21.129Z" transform="translate(14.233 37.398)" fill="#eaad8f"/>
                <path id="Trazado_825387" data-name="Trazado 825387" d="M144.151,284.311l-55.117-.646a7.709,7.709,0,0,1-.69-3.071c-.29-4.666,1.283-12.089,2.067-16.772.095-.546.176-1.058.24-1.519a16.206,16.206,0,0,0,.187-1.915c.045-3.829,3.426-3.132,3.426-3.132,5.514,5.535,11.926-2.594,15.581.14,0,0,1.574,1.157,5.905,5.145s11.74,6.674,18.044,9.4c8.139,3.515,10.419,6.957,10.844,9.315a4.3,4.3,0,0,1-.489,3.056" transform="translate(13.684 39.794)" fill="#e59f3f"/>
                <path id="Trazado_825388" data-name="Trazado 825388" d="M144.146,281.121l-55.117-.646a7.709,7.709,0,0,1-.69-3.071l56.295.661a4.3,4.3,0,0,1-.489,3.056" transform="translate(13.688 42.984)" fill="#b56d25"/>
                <path id="Trazado_825389" data-name="Trazado 825389" d="M94.376,282.994l-1.638-.02a12.092,12.092,0,0,0,3.066-8.79,15.546,15.546,0,0,0-5.674-11.1c.095-.546.177-1.058.241-1.52a16.887,16.887,0,0,1,6.746,12.567,13.377,13.377,0,0,1-2.742,8.861" transform="translate(13.966 40.53)" fill="#b56d25"/>
                <path id="Trazado_825390" data-name="Trazado 825390" d="M111.348,264.932a.908.908,0,0,1-.2-1.792l3.453-.814a.908.908,0,0,1,.417,1.768l-3.453.814a.887.887,0,0,1-.219.024" transform="translate(17.114 40.644)" fill="#fff"/>
                <path id="Trazado_825391" data-name="Trazado 825391" d="M108.655,262.592a.908.908,0,0,1-.2-1.792l3.453-.814a.908.908,0,1,1,.417,1.768l-3.453.814a.9.9,0,0,1-.219.024" transform="translate(16.697 40.281)" fill="#fff"/>
                <path id="Trazado_825392" data-name="Trazado 825392" d="M114.308,266.7a.908.908,0,0,1-.2-1.792l3.452-.814a.908.908,0,0,1,.417,1.768l-3.453.814a.886.886,0,0,1-.219.024" transform="translate(17.573 40.918)" fill="#fff"/>
                <path id="Trazado_825393" data-name="Trazado 825393" d="M117.27,268.4a.908.908,0,0,1-.2-1.792l3.453-.814a.908.908,0,1,1,.417,1.767l-3.453.815a.889.889,0,0,1-.219.024" transform="translate(18.032 41.181)" fill="#fff"/>
                <path id="Trazado_825394" data-name="Trazado 825394" d="M120.5,269.98a.908.908,0,0,1-.2-1.793l3.453-.814a.908.908,0,1,1,.417,1.767l-3.453.815a.9.9,0,0,1-.219.024" transform="translate(18.533 41.426)" fill="#fff"/>
                <path id="Trazado_825395" data-name="Trazado 825395" d="M124.012,271.335a.908.908,0,0,1-.2-1.792l3.453-.814a.908.908,0,1,1,.417,1.768l-3.453.814a.889.889,0,0,1-.219.024" transform="translate(19.077 41.636)" fill="#fff"/>
                <path id="Trazado_825396" data-name="Trazado 825396" d="M105.551,226.27,96.319,260.98l18.708,3.324s4.277-5.836,10.307-14.564c.181-.263.364-.527.545-.793,3.791-5.5,8.22-12.063,12.7-19.006q.258-.4.516-.8c4.182-6.514,8.39-13.327,12.13-19.881.172-.3.344-.6.516-.9,6.536-11.538,11.547-22.17,12.365-28.772,2.638-21.327-45.1-37.737-45.1-37.737-28.825.523-37.872,39.793-37.872,39.793l39.231,6.012c-7.136,8.512-9.423,19.3-14.809,38.62" transform="translate(12.571 21.979)" fill="#467b6c"/>
                <path id="Trazado_825397" data-name="Trazado 825397" d="M106.744,222.527c2.343-1.579,5.141-1.451,7.841-1.663a15.221,15.221,0,0,0,5.962-1.613,14.435,14.435,0,0,0,6.977-8.146c1.387-4.16.93-9.367,4.38-12.587a10.145,10.145,0,0,1,11.785-1.046A11.54,11.54,0,0,1,147.36,201q.258-.456.516-.906a12.533,12.533,0,0,0-3.52-3.32,11.278,11.278,0,0,0-10.667-.576c-4.233,2.014-5.342,6.233-6.112,10.5a19.087,19.087,0,0,1-2.268,6.93,13.707,13.707,0,0,1-5.439,4.915c-4.292,2.146-9.586.463-13.6,3.17-.5.335-.028,1.149.474.811" transform="translate(16.434 30.235)" fill="#5fa68d"/>
                <path id="Trazado_825398" data-name="Trazado 825398" d="M119.848,238.151c.181-.263.364-.527.545-.792a12.407,12.407,0,0,1-1.716-13.321,11.444,11.444,0,0,1,14.413-5.686q.26-.4.517-.8a12.366,12.366,0,0,0-15.742,6.012,13.387,13.387,0,0,0,1.983,14.589" transform="translate(18.057 33.567)" fill="#5fa68d"/>
                <path id="Trazado_825399" data-name="Trazado 825399" d="M109.11,213.956a9.117,9.117,0,0,0,6.957-7.042c.741-3.489.472-6.76,3.019-9.578,2.4-2.66,5.874-4.01,8.376-6.553,1.5-1.521,2.795-3.807,2.3-6.02a3.776,3.776,0,0,0-4.556-2.989.471.471,0,0,1-.251-.907c3.48-1.027,6.224,2.459,5.77,5.714-.609,4.376-4.765,6.636-8.028,8.927-2.181,1.531-4.176,3.345-4.879,6.01-.617,2.34-.422,4.832-1.257,7.127a10.009,10.009,0,0,1-7.451,6.255Z" transform="translate(16.907 27.997)" fill="#5fa68d"/>
                <path id="Trazado_825400" data-name="Trazado 825400" d="M102.263,231.04c1.671-1.074,3.524-2.226,5.6-2.026a3.8,3.8,0,0,1,3.456,2.614c1.17,4.151-5.835,8.435-1.565,12.156.456.4-.21,1.06-.665.664-2.286-1.991-1.721-5.193-.343-7.492,1.094-1.825,3.158-5.058.463-6.582-2.193-1.24-4.634.3-6.47,1.477-.51.329-.983-.484-.475-.811" transform="translate(15.812 35.482)" fill="#5fa68d"/>
                <path id="Trazado_825401" data-name="Trazado 825401" d="M99.245,251.115a.724.724,0,0,1-.629-.966c.09-.252,9.111-25.3,13.61-43.427A59.316,59.316,0,0,1,128.8,178.693c-4.418-.413-11.705-1.951-12.059-2.025a.722.722,0,0,1,.3-1.414c.1.02,9.881,2.082,13.552,2.1a.722.722,0,0,1,.448,1.287,57.263,57.263,0,0,0-17.412,28.433c-4.517,18.2-13.563,43.318-13.654,43.569a.723.723,0,0,1-.729.476" transform="translate(15.274 27.153)" fill="#253f3d"/>
                <path id="Trazado_825402" data-name="Trazado 825402" d="M115.895,245.064a.719.719,0,0,1-.1-.014l-19.914-4.162a.722.722,0,1,1,.3-1.414l19.913,4.162a.722.722,0,0,1-.2,1.428" transform="translate(14.768 37.104)" fill="#253f3d"/>
                <path id="Trazado_825403" data-name="Trazado 825403" d="M179.812,225.16l12.508,15.369,12.631-8.9-11.613-19.2Z" transform="translate(27.862 32.916)" fill="#eaad8f"/>
                <path id="Trazado_825404" data-name="Trazado 825404" d="M245.989,225.474l-42.783,34.755a7.724,7.724,0,0,1-2.494-1.918c-3.207-3.4-6.745-10.115-9.138-14.216-.277-.48-.541-.926-.787-1.321a16.06,16.06,0,0,0-1.081-1.592c-2.414-2.972.629-4.6.629-4.6,7.779.729,7.509-9.621,12.068-9.857,0,0,1.951-.118,7.829.178s13.295-2.378,19.884-4.315c8.5-2.5,12.458-1.315,14.293.224a4.307,4.307,0,0,1,1.579,2.662" transform="translate(29.251 34.266)" fill="#e59f3f"/>
                <path id="Trazado_825405" data-name="Trazado 825405" d="M244.387,225.249,201.6,260a7.724,7.724,0,0,1-2.494-1.918l43.7-35.5a4.307,4.307,0,0,1,1.579,2.662" transform="translate(30.852 34.49)" fill="#b56d25"/>
                <path id="Trazado_825406" data-name="Trazado 825406" d="M207.3,253.781l-1.27,1.033a12.1,12.1,0,0,0-3.266-8.719,15.545,15.545,0,0,0-11.459-4.9c-.277-.48-.542-.926-.787-1.321a16.88,16.88,0,0,1,13.223,5.345,13.374,13.374,0,0,1,3.56,8.565" transform="translate(29.521 37.167)" fill="#b56d25"/>
                <path id="Trazado_825407" data-name="Trazado 825407" d="M208.7,229.422a.909.909,0,0,1-1.3-1.252l2.133-2.834a.908.908,0,1,1,1.452,1.093l-2.134,2.834a.953.953,0,0,1-.152.159" transform="translate(32.109 34.86)" fill="#fff"/>
                <path id="Trazado_825408" data-name="Trazado 825408" d="M205.134,229.346a.909.909,0,0,1-1.3-1.252l2.133-2.834a.908.908,0,1,1,1.452,1.093l-2.133,2.834a.915.915,0,0,1-.154.159" transform="translate(31.556 34.848)" fill="#fff"/>
                <path id="Trazado_825409" data-name="Trazado 825409" d="M212.108,228.888a.909.909,0,0,1-1.3-1.252l2.133-2.834a.908.908,0,1,1,1.452,1.093l-2.133,2.834a.916.916,0,0,1-.154.159" transform="translate(32.637 34.777)" fill="#fff"/>
                <path id="Trazado_825410" data-name="Trazado 825410" d="M215.473,228.3a.909.909,0,0,1-1.3-1.252l2.134-2.834a.908.908,0,1,1,1.451,1.091l-2.133,2.835a.914.914,0,0,1-.154.159" transform="translate(33.158 34.686)" fill="#fff"/>
                <path id="Trazado_825411" data-name="Trazado 825411" d="M218.967,227.447a.909.909,0,0,1-1.3-1.252l2.133-2.834a.908.908,0,0,1,1.452,1.093l-2.133,2.834a.916.916,0,0,1-.154.159" transform="translate(33.7 34.554)" fill="#fff"/>
                <path id="Trazado_825412" data-name="Trazado 825412" d="M222.532,226.244a.909.909,0,0,1-1.3-1.252l2.134-2.834a.908.908,0,1,1,1.451,1.093l-2.133,2.834a.959.959,0,0,1-.154.159" transform="translate(34.252 34.367)" fill="#fff"/>
                <path id="Trazado_825413" data-name="Trazado 825413" d="M49.578,169.815a35.238,35.238,0,0,0,.692,3.48c1.962,7.742,6.726,14.991,17.3,17.09,25.407,5.049,72.272-15.178,72.272-15.178,6.2,12.557,21.009,29.151,36.895,43.225s28.749,25.99,28.749,25.99l16.382-10.473s-3.547-6.319-9.12-15.645c-.185-.307-.373-.62-.561-.937-2.81-4.687-6.1-10.078-9.692-15.777q-.321-.511-.646-1.024c-1.892-2.995-3.866-6.068-5.893-9.16-.166-.256-.333-.51-.5-.765-8.688-13.229-18.3-26.744-26.817-36.142-.191-.214-.379-.42-.569-.627-1.075-1.168-2.127-2.268-3.161-3.289-.238-.238-.476-.47-.711-.7-3.8-3.672-7.277-6.253-10.219-7.287a34.191,34.191,0,0,0-7.325-1.473c-.851-.091-1.742-.169-2.662-.232-.345-.024-.69-.046-1.043-.066h0c-.739-.044-1.5-.077-2.281-.106-2.7-.094-5.626-.094-8.719-.015h0c-.43.009-.865.022-1.3.037-6.542.2-13.755.733-21.1,1.454-.419.037-.836.081-1.259.125h0c-4.435.442-8.906.953-13.289,1.494l-.933.119c-3.869.483-7.667.993-11.3,1.5l-1.1.157c-8.4,1.19-15.908,2.387-21.468,3.311h0c-.457.079-.9.15-1.332.222-5.335.9-8.558,1.491-8.558,1.491a57.277,57.277,0,0,0-.724,19.192" transform="translate(7.602 21.794)" fill="#467b6c"/>
                <path id="Trazado_825414" data-name="Trazado 825414" d="M182.149,203.946a11.473,11.473,0,0,0,10.213,6.319c-.185-.307-.373-.62-.561-.937a9.969,9.969,0,0,1-2.894-.5,10.713,10.713,0,0,1-6.45-6.5,13.887,13.887,0,0,1-.348-8.775q-.321-.513-.646-1.024a14.834,14.834,0,0,0,.686,11.419" transform="translate(27.991 29.832)" fill="#5fa68d"/>
                <path id="Trazado_825415" data-name="Trazado 825415" d="M136.535,175.975c1.786-6.087,4.33-13.907,11.463-15.372,6.065-1.244,11.714,4.442,14.8,9.006a27.9,27.9,0,0,1,3.635,7.66c.708,2.385,1,4.868,1.682,7.259,1.2,4.16,4.117,7.515,8.816,6.814a10.211,10.211,0,0,0,5.62-2.874c-.165-.256-.331-.51-.5-.765a10.993,10.993,0,0,1-1.566,1.257c-2.867,1.886-6.882,2.294-9.361-.448-1.713-1.9-2.258-4.608-2.763-7.036A38.761,38.761,0,0,0,166.249,174a28.147,28.147,0,0,0-9.3-11.811c-4.277-3.077-9.374-3.653-13.715-.375-4.427,3.339-6.115,8.805-7.613,13.906a.472.472,0,0,0,.909.251" transform="translate(21.012 24.732)" fill="#5fa68d"/>
                <path id="Trazado_825416" data-name="Trazado 825416" d="M141.986,185.2c.955-4.755,2.527-10.428,7.837-11.872,4.788-1.3,7.76,2.676,8.249,7,.364,3.225-.454,6.529.416,9.707.8,2.91,2.965,5.2,5.323,6.963,4.378,3.28,9.914,5.06,13.508,9.347,2.973,3.546,4.045,9.488.3,12.9-.446.407-1.112-.256-.664-.665,3.689-3.36,2.092-9.128-.966-12.313-3.394-3.536-8.127-5.25-12.072-8.038-3.464-2.447-6.268-5.656-6.7-10.021-.417-4.228,1.527-11.954-3.86-13.914-2.774-1.008-5.858.674-7.491,2.893-1.768,2.4-2.4,5.395-2.974,8.261-.119.592-1.026.342-.907-.249" transform="translate(21.999 26.819)" fill="#5fa68d"/>
                <path id="Trazado_825417" data-name="Trazado 825417" d="M194.4,219.99a8.394,8.394,0,0,0-16.39-2.018c-.194.569-1.1.325-.907-.251a9.332,9.332,0,0,1,18.237,2.268c.05.6-.89.6-.94,0" transform="translate(27.438 32.718)" fill="#5fa68d"/>
                <path id="Trazado_825418" data-name="Trazado 825418" d="M130.354,140.806c2.1,4.229,4.668,8.189,9.167,10.169a14.878,14.878,0,0,0,12.793-.417c-.238-.238-.476-.47-.711-.7a13.938,13.938,0,0,1-12.95-.37c-3.386-1.911-5.514-5.16-7.255-8.622-.344-.025-.69-.047-1.043-.066" transform="translate(20.198 21.818)" fill="#5fa68d"/>
                <path id="Trazado_825419" data-name="Trazado 825419" d="M88.026,143.513a15.974,15.974,0,0,0,17.469,13.038c5.567-.388,11.412-2.278,16.641.611,4.646,2.569,7.427,7.579,9.057,12.456.191.571,1.1.326.908-.251-1.431-4.279-3.65-8.512-7.183-11.428-3.929-3.242-8.571-3.631-13.462-3.042-5.448.655-10.836,1.683-15.742-1.485a15.318,15.318,0,0,1-6.754-10.018l-.933.119" transform="translate(13.64 22.219)" fill="#5fa68d"/>
                <path id="Trazado_825420" data-name="Trazado 825420" d="M100.343,142.317a30.569,30.569,0,0,0,17.7,8.164c2.14.231,4.661.469,6.738-.248a3.766,3.766,0,0,0,2.6-4.06c-.2-2.168-1.864-3.928-3.318-5.4-.022-.022-.044-.047-.069-.069h0c-.43.01-.865.022-1.3.038,1.482,1.378,3.3,3.086,3.7,5.106.632,3.2-2.44,3.834-4.872,3.867a29.652,29.652,0,0,1-19.922-7.52c-.419.038-.836.082-1.259.126" transform="translate(15.548 21.802)" fill="#5fa68d"/>
                <path id="Trazado_825421" data-name="Trazado 825421" d="M116.4,173.907a15.2,15.2,0,0,0-13.625-8.313c-5.7.121-11.2,3.106-16.728.343-4.572-2.283-7.463-6.937-12.118-9.094-5.307-2.459-12.242-.915-15.5,4.08A11.934,11.934,0,0,0,56.738,170c.78,3.361,3.307,5.859,5.22,8.607.346.5-.468.968-.812.475-1.8-2.579-4.1-4.917-5.078-7.97a12.5,12.5,0,0,1,.21-7.941,12.855,12.855,0,0,1,12.043-8.415c6.143-.111,10,3.985,14.336,7.683,2.542,2.17,5.308,3.809,8.748,3.816,3.483.008,6.823-1.251,10.279-1.541a16.128,16.128,0,0,1,15.526,8.719c.275.538-.536,1.014-.811.475" transform="translate(8.603 23.979)" fill="#5fa68d"/>
                <path id="Trazado_825422" data-name="Trazado 825422" d="M91.955,176.67a21.828,21.828,0,0,0-12.62-6.7c-2.555-.385-5.585-.491-7.782,1.09s-2.974,5.179-.072,6.517c.549.253.072,1.064-.474.812a4.325,4.325,0,0,1-2.021-5.644c1.086-2.548,3.84-3.7,6.442-3.9,6.381-.5,12.89,2.576,17.191,7.162.412.44-.251,1.106-.665.664" transform="translate(10.633 26.154)" fill="#5fa68d"/>
                <path id="Trazado_825423" data-name="Trazado 825423" d="M57.546,148.489a19.348,19.348,0,0,0,9.941,3.6c5.36.36,11.923-2.03,13.959-7.287-.366.053-.732.1-1.1.156-2.19,4.683-8.349,6.613-13.3,6.156a18.2,18.2,0,0,1-8.172-2.845h0c-.457.079-.9.151-1.332.223" transform="translate(8.917 22.437)" fill="#5fa68d"/>
                <path id="Trazado_825424" data-name="Trazado 825424" d="M150.3,197.2a.724.724,0,0,1-.392-.149c-11.549-8.951-17.762-22-19.22-25.337-6.046,3.5-24.559,8.953-25.379,9.193a.722.722,0,0,1-.407-1.386c.208-.061,20.828-6.13,25.715-9.465a.722.722,0,0,1,1.08.334c.06.154,6.15,15.487,19.095,25.519a.722.722,0,0,1-.493,1.291" transform="translate(16.174 26.331)" fill="#253f3d"/>
                <path id="Trazado_825425" data-name="Trazado 825425" d="M181.525,229.08a.722.722,0,0,1-.348-1.324l16.673-10.963a.722.722,0,1,1,.793,1.207l-16.672,10.963a.723.723,0,0,1-.447.117" transform="translate(28.023 33.574)" fill="#253f3d"/>
                <path id="Trazado_825426" data-name="Trazado 825426" d="M205.9,234.55a.729.729,0,0,1-1.021,0c-.275-.276-27.544-27.282-40.7-38.918-11.876-10.509-19.06-26.82-20.511-30.332-4.875,1.922-35.261,13.483-63.506,15.033-12.782.706-20.809-3.028-25.289-6.282a26.035,26.035,0,0,1-4.671-4.321,35.217,35.217,0,0,1-.7-3.484,17.108,17.108,0,0,0,1.344,1.984A24.506,24.506,0,0,0,55.8,172.94c4.284,3.089,11.978,6.633,24.29,5.958,30.408-1.675,63.377-15.064,63.7-15.2a.7.7,0,0,1,.56,0,.714.714,0,0,1,.39.4c.07.186,7.361,18.913,20.4,30.443,13.181,11.663,40.481,38.7,40.756,38.971a.728.728,0,0,1,0,1.026" transform="translate(7.671 25.357)" fill="#253f3d"/>
                <path id="Trazado_825427" data-name="Trazado 825427" d="M93.444,24.673s2.373.306,2.707,3.366-1.407,8.07-4.457,7.32,1.75-10.686,1.75-10.686" transform="translate(14.051 3.823)" fill="#c6695d"/>
                <path id="Trazado_825428" data-name="Trazado 825428" d="M85.59,37.529a6.654,6.654,0,1,1,5.63,7.54,6.66,6.66,0,0,1-5.63-7.54m1.192.173a5.449,5.449,0,1,0,6.174-4.612A5.455,5.455,0,0,0,86.782,37.7" transform="translate(13.252 4.932)" fill="#fff"/>
                <line id="Línea_266" data-name="Línea 266" y2="0.002" transform="translate(98.103 51.757)" fill="#eaad8f"/>
                <path id="Trazado_825429" data-name="Trazado 825429" d="M62.824,53.958a18.819,18.819,0,0,0,12.628,9.207c11.238,2.111,12.671-2.671,12.671-2.671a17.737,17.737,0,0,1-.594-4.3q-.036-.929-.008-1.911a52.124,52.124,0,0,1,.584-6c.076-.527.161-1.075.253-1.639l.009-.067c-7.752-2.187-14.012-5.934-18.151-11.9l-1.146-.751-.77-.508-.165.45.088,1.462c.433,6.872-1.351,12.475-5.4,18.62" transform="translate(9.735 5.179)" fill="#eaad8f"/>
                <path id="Trazado_825430" data-name="Trazado 825430" d="M81.2,72.257a6.263,6.263,0,0,0,.731.054,6.329,6.329,0,0,0,5.316-2.323c3.644-4.568,1.361-14.262,1.261-14.672a.608.608,0,1,0-1.183.285c.023.095,2.244,9.527-1.03,13.63a5.106,5.106,0,0,1-4.348,1.863c-7.978-.1-18.234-19.64-18.337-19.837a.608.608,0,1,0-1.079.561c.42.81,10.145,19.307,18.669,20.439" transform="translate(9.679 7.891)" fill="#e59f3f"/>
                <path id="Trazado_825431" data-name="Trazado 825431" d="M73.7,39.926c1.5,3.808,5.053,10.582,12.136,13.349a51.843,51.843,0,0,1,.583-6c.077-.527.162-1.075.253-1.639-.155.012-.314.018-.474.022-4.278.1-8.819-2.3-12.5-5.737" transform="translate(11.42 6.187)" fill="#171612"/>
                <path id="Trazado_825432" data-name="Trazado 825432" d="M59.743,26.34c-.448,4.233,2.586,9.8,8.105,10.534l.029,0h0L68,36.9c.064.253.141.5.224.759.035.11.072.222.11.333a.211.211,0,0,0,.013.03c2.686,7.556,12.483,12.871,18.008,13.609a12.736,12.736,0,0,0,3.787-.089c6.008-.654,7.947-8.474,7.67-14.637a23.352,23.352,0,0,0-.259-2.55l-.028-.165s2.868-8.276,3.721-11.929c1.649-7.08-1.694-14.805-17.276-17.906S63.578,10.614,61.923,15.678c-.278.843-.648,6,.124,6.925-1.572.6-2.154,2.316-2.3,3.737" transform="translate(9.25 0.578)" fill="#eaad8f"/>
                <path id="Trazado_825433" data-name="Trazado 825433" d="M84.4,27.871a.621.621,0,0,1-.507-.537c-.073-.609-.437-1.943-1.1-2.176a3.2,3.2,0,0,0-2.2.353.618.618,0,1,1-.614-1.073,4.395,4.395,0,0,1,3.225-.447c1.561.553,1.881,2.93,1.914,3.2a.618.618,0,0,1-.723.68" transform="translate(12.346 3.693)" fill="#171612"/>
                <path id="Trazado_825434" data-name="Trazado 825434" d="M88.447,29.043a.633.633,0,0,1-.171-.057.618.618,0,0,1-.274-.83c.1-.2,1-1.917,2.377-1.9a3.49,3.49,0,0,1,2.342,1.237.618.618,0,0,1-.944.8,2.3,2.3,0,0,0-1.411-.8c-.452,0-1.044.793-1.26,1.223a.617.617,0,0,1-.659.33" transform="translate(13.626 4.068)" fill="#171612"/>
                <path id="Trazado_825435" data-name="Trazado 825435" d="M82.006,32.51s-1.106,4.884,2.865,6.278A4.317,4.317,0,0,0,90.4,36.342Z" transform="translate(12.685 5.037)" fill="#fff"/>
                <path id="Trazado_825436" data-name="Trazado 825436" d="M83.459,39.534a2.246,2.246,0,0,1-1.019-1.095.378.378,0,0,1,.706-.271,1.537,1.537,0,0,0,1.474.875.378.378,0,1,1,0,.755,2.464,2.464,0,0,1-1.164-.264" transform="translate(12.77 5.877)" fill="#c6695d"/>
                <path id="Trazado_825437" data-name="Trazado 825437" d="M66.755,32.629l.029,0h0l.117.017c.064.252.141.5.224.758.035.11.072.222.11.333a.177.177,0,0,0,.013.031,5.127,5.127,0,0,0,2.228-.62,4.052,4.052,0,0,0,1.258-1.1.575.575,0,0,0-.917-.693A3.091,3.091,0,0,1,68.329,32.4a4.152,4.152,0,0,1-1.031.207,5.149,5.149,0,0,1-.543.018" transform="translate(10.344 4.823)" fill="#c6695d"/>
                <g id="Grupo_1074093" data-name="Grupo 1074093" transform="translate(103.965 34.928)" opacity="0.5">
                  <g id="Grupo_1074092" data-name="Grupo 1074092">
                    <g id="Grupo_1074091" data-name="Grupo 1074091" clip-path="url(#clip-path-4)">
                      <path id="Trazado_825438" data-name="Trazado 825438" d="M90.019,31.236c-.055.629,1.273,1.275,3.089,1.556a22.822,22.822,0,0,0-.259-2.55c-1.6.033-2.781.419-2.831.994" transform="translate(-90.017 -30.242)" fill="#c6695d"/>
                    </g>
                  </g>
                </g>
                <path id="Trazado_825439" data-name="Trazado 825439" d="M62.382,29.827c.321.3.639.6.968.9a5.445,5.445,0,1,0,3.122-.185,1.313,1.313,0,0,1-.612-1.321c.1.01.207.022.31.037a6.677,6.677,0,1,1-3.787.574" transform="translate(9.074 4.527)" fill="#fff"/>
                <path id="Trazado_825440" data-name="Trazado 825440" d="M86.769,33.5a.479.479,0,0,0,.267-.038l2.29-1.033a.482.482,0,0,0,.089-.826A6.946,6.946,0,0,1,86.7,26.4a.482.482,0,1,0-.957.105,8.017,8.017,0,0,0,2.48,5.362l-1.583.715a.482.482,0,0,0,.129.916" transform="translate(13.286 4.024)" fill="#c6695d"/>
                <path id="Trazado_825441" data-name="Trazado 825441" d="M84.889,20.529a1.171,1.171,0,0,0,1.022-2.059,3.394,3.394,0,0,0-2.3-.614,8.493,8.493,0,0,0-6.491,3.87s4.226-1.578,6.477-1.417a6.52,6.52,0,0,1,1.294.221" transform="translate(11.949 2.765)" fill="#171612"/>
                <path id="Trazado_825442" data-name="Trazado 825442" d="M89.829,21.524a1.171,1.171,0,0,1-.4-2.265,3.4,3.4,0,0,1,2.382.064c4.149,1.514,3.983,4.611,3.983,4.611a15.552,15.552,0,0,0-4.665-2.253,6.565,6.565,0,0,0-1.3-.156" transform="translate(13.74 2.956)" fill="#171612"/>
                <g id="Grupo_1074096" data-name="Grupo 1074096" transform="translate(86.188 33.27)" opacity="0.5">
                  <g id="Grupo_1074095" data-name="Grupo 1074095">
                    <g id="Grupo_1074094" data-name="Grupo 1074094" clip-path="url(#clip-path-5)">
                      <path id="Trazado_825443" data-name="Trazado 825443" d="M82.618,30.505c-.064.718-1.9,1.143-4.11.949s-3.944-.933-3.881-1.652,1.9-1.145,4.109-.951,3.945.934,3.882,1.653" transform="translate(-74.625 -28.806)" fill="#c6695d"/>
                    </g>
                  </g>
                </g>
                <path id="Trazado_825444" data-name="Trazado 825444" d="M68.276,30.678a.577.577,0,0,1-.42-.506c-.34-4.063-4.909-6.29-4.955-6.312a.574.574,0,0,1,.494-1.037c.213.1,5.21,2.526,5.6,7.253a.574.574,0,0,1-.724.6" transform="translate(9.696 3.528)" fill="#c6695d"/>
                <path id="Trazado_825445" data-name="Trazado 825445" d="M63.471,27.544a.6.6,0,0,1-.2-.1.574.574,0,0,1-.105-.806A3.943,3.943,0,0,1,66.8,25.3a.575.575,0,0,1-.167,1.138,2.8,2.8,0,0,0-2.551.9.574.574,0,0,1-.607.2" transform="translate(9.769 3.913)" fill="#c6695d"/>
                <path id="Trazado_825446" data-name="Trazado 825446" d="M81.883,12.915a7.283,7.283,0,0,1-3.654,6.735,21.8,21.8,0,0,1-5.3,2.191s3.878,12.819-.962,14.108S69.1,23.857,61.99,22.758c0,0-2.519-.807-1.789-5.282S65.944,1.061,81.6,2.932c11.747,1.4,21.5,8.8,21.055,17.092s-2.052,6.494-2.052,6.494,1.332-4.717-3.967-8.909c-4.4-3.478-14.757-4.695-14.757-4.695" transform="translate(9.308 0.424)" fill="#171612"/>
                <path id="Trazado_825447" data-name="Trazado 825447" d="M84.113,123.074c6.387-.37,12.691-.016,19.029-1.171.552-.1.773.75.216.85-6.413,1.169-12.8.825-19.263,1.2-.562.032-.543-.845.018-.878" transform="translate(12.967 18.888)" fill="#c6695d"/>
                <path id="Trazado_825448" data-name="Trazado 825448" d="M65.427,110.145c.017.016.034.035.051.052v0a.524.524,0,0,0-.057-.057c0-.006-.03-.027-.02-.017Z" transform="translate(10.133 17.063)" fill="#eaad8f"/>
                <path id="Trazado_825449" data-name="Trazado 825449" d="M65.5,110.23v0h0l0,0" transform="translate(10.15 17.08)" fill="#eaad8f"/>
                <path id="Trazado_825450" data-name="Trazado 825450" d="M60.34,63.638l1.594,3.086q.816,1.59,1.66,3.181,1.668,3.182,3.387,6.336,1.7,3.156,3.474,6.241c1.165,2.063,2.353,4.1,3.569,6.084s2.44,3.937,3.7,5.807,2.524,3.672,3.794,5.3c.634.818,1.268,1.593,1.887,2.3s1.217,1.342,1.749,1.856l.2.191.184.169c.127.124.231.2.341.3s.189.156.282.243l.1.083c.033.029.07.064.084.073a.366.366,0,0,1,.057.055c0,.006.051.032.079.05l.1.06c.119.079.3.169.455.258s.365.185.545.28l.614.289c1.725.778,3.837,1.544,5.994,2.265q1.627.541,3.316,1.051c1.124.346,2.258.688,3.406,1.018q3.442.993,6.978,1.9c2.351.606,4.717,1.228,7.1,1.812,4.763,1.164,9.563,2.32,14.384,3.43L143.82,120.7l.043.009a7.4,7.4,0,0,1-1.884,14.607c-1.312-.039-2.562-.1-3.838-.151l-3.8-.2c-2.534-.139-5.061-.333-7.594-.519-5.058-.407-10.121-.87-15.195-1.478-2.536-.3-5.083-.6-7.631-.977s-5.108-.767-7.687-1.212q-1.933-.331-3.889-.708t-3.938-.834a79.684,79.684,0,0,1-8.287-2.279l-1.128-.4c-.394-.151-.772-.29-1.178-.456s-.805-.329-1.244-.532l-.322-.147c-.112-.052-.2-.09-.34-.161l-.767-.394c-.263-.134-.491-.266-.724-.4l-.7-.407c-.422-.267-.872-.545-1.264-.815s-.8-.55-1.16-.821l-.552-.411-.521-.41a47.513,47.513,0,0,1-3.71-3.277c-1.119-1.091-2.151-2.179-3.135-3.267A119.428,119.428,0,0,1,53.292,101.9q-2.233-3.325-4.3-6.673Q46.933,91.865,45,88.472t-3.737-6.855q-.9-1.731-1.781-3.48l-.866-1.767-.433-.9-.449-.959a12.545,12.545,0,0,1,22.495-11.1Z" transform="translate(5.662 8.777)" fill="#eaad8f"/>
                <path id="Trazado_825451" data-name="Trazado 825451" d="M74.621,104.285a14,14,0,0,1,5.521-5.315c.4-.214.016-.8-.378-.588A14.692,14.692,0,0,0,74,103.969c-.228.388.4.7.623.316" transform="translate(11.459 15.237)" fill="#c6695d"/>
                <path id="Trazado_825452" data-name="Trazado 825452" d="M74.052,101.18a14.254,14.254,0,0,1,3.882-1.21c.439-.072.4-.769-.043-.7a15.389,15.389,0,0,0-4.219,1.321c-.4.193-.021.778.38.587" transform="translate(11.389 15.381)" fill="#c6695d"/>
              </g>
            </g>
          </g>
        </g>
        <g id="Grupo_1099902" data-name="Grupo 1099902" transform="translate(325.379 937.748)">
          <path id="Trazado_825224" data-name="Trazado 825224" d="M54.907,187.156H15.237a2.444,2.444,0,0,1-2.444-2.445v-.373a2.444,2.444,0,0,1,2.444-2.445h39.67a2.445,2.445,0,0,1,2.445,2.445v.373a2.445,2.445,0,0,1-2.445,2.445" transform="translate(1.982 28.184)" fill="#171612"/>
          <path id="Trazado_825225" data-name="Trazado 825225" d="M405.353,261.416a3.1,3.1,0,0,1-2.791-2.563L356.736,83.782c-.513-1.962.321-4.083,1.863-4.736s3.207.407,3.721,2.369l45.825,175.072c.513,1.962-.321,4.083-1.863,4.736a2.375,2.375,0,0,1-.93.193" transform="translate(55.253 12.218)" fill="#171612"/>
          <path id="Trazado_825226" data-name="Trazado 825226" d="M390.975,187.156h-39.67a2.445,2.445,0,0,1-2.445-2.445v-.373a2.445,2.445,0,0,1,2.445-2.445h39.67a2.445,2.445,0,0,1,2.445,2.445v.373a2.445,2.445,0,0,1-2.445,2.445" transform="translate(54.056 28.184)" fill="#171612"/>
          <path id="Trazado_825227" data-name="Trazado 825227" d="M337.194,261.416a2.384,2.384,0,0,1-.931-.193c-1.542-.654-2.376-2.774-1.862-4.736L380.226,81.415c.514-1.962,2.179-3.023,3.721-2.369s2.376,2.774,1.863,4.736L339.986,258.853a3.1,3.1,0,0,1-2.792,2.563" transform="translate(51.792 12.218)" fill="#171612"/>
          <path id="Trazado_825228" data-name="Trazado 825228" d="M71.1,261.416a3.1,3.1,0,0,1-2.793-2.563L22.486,83.782c-.512-1.962.321-4.083,1.864-4.736s3.207.407,3.721,2.369L73.9,256.487c.513,1.962-.321,4.083-1.864,4.736a2.374,2.374,0,0,1-.929.193" transform="translate(3.461 12.218)" fill="#171612"/>
          <path id="Trazado_825229" data-name="Trazado 825229" d="M2.944,261.416a2.385,2.385,0,0,1-.931-.193c-1.542-.654-2.375-2.774-1.862-4.736L45.976,81.415c.514-1.962,2.179-3.023,3.721-2.369s2.376,2.774,1.863,4.736L5.735,258.853a3.1,3.1,0,0,1-2.792,2.563" transform="translate(0 12.218)" fill="#171612"/>
          <rect id="Rectángulo_383152" data-name="Rectángulo 383152" width="437.75" height="16.009" transform="translate(13.707 84.852)" fill="#171612"/>
          <rect id="Rectángulo_383153" data-name="Rectángulo 383153" width="437.75" height="1.682" transform="translate(13.707 95.107)" fill="#5a554d"/>
          <path id="Trazado_825230" data-name="Trazado 825230" d="M61.616,74.378h96.3l1.045-3.009c.657-1.893-1.058-3.78-3.436-3.78H66.667a3.548,3.548,0,0,0-3.436,2.142Z" transform="translate(9.547 10.473)" fill="#fff"/>
          <path id="Trazado_825231" data-name="Trazado 825231" d="M173.553,4.537,161.948,67a3.141,3.141,0,0,1-2.822,2.839H87.637c-1.871,0-3.252-2.221-2.822-4.537l11.6-62.462A3.143,3.143,0,0,1,99.241,0h71.49c1.871,0,3.252,2.221,2.822,4.537" transform="translate(13.13)" fill="#fff"/>
          <path id="Trazado_825232" data-name="Trazado 825232" d="M133.065,33.3c-.341,3.931-3.121,7.118-6.21,7.118s-5.317-3.187-4.977-7.118,3.121-7.118,6.21-7.118,5.317,3.187,4.977,7.118" transform="translate(18.88 4.058)" fill="#2b2b39"/>
          <path id="Trazado_825233" data-name="Trazado 825233" d="M102.073,0,89.717,69.839H87.636c-1.871,0-3.252-2.222-2.822-4.538L96.42,2.84A3.142,3.142,0,0,1,99.241,0Z" transform="translate(13.13)" fill="#2b2b39"/>
          <path id="Trazado_825234" data-name="Trazado 825234" d="M118,60.468l-2.437,14.838h7.163l2.437-14.838Z" transform="translate(17.907 9.37)" fill="#2b2b39"/>
          <path id="Trazado_825235" data-name="Trazado 825235" d="M106.55,71.694l1.467-2.623a2.666,2.666,0,0,1,2.274-1.493H129.93a2.792,2.792,0,0,1,2.474,1.906l.989,2.407c.462,1.126-.18,2.474-1.178,2.474H107.633c-1.079,0-1.708-1.551-1.082-2.67" transform="translate(16.472 10.471)" fill="#fff"/>
          <path id="Trazado_825236" data-name="Trazado 825236" d="M363.17,74.378h-96.3l-1.045-3.009c-.657-1.893,1.058-3.78,3.436-3.78H358.12a3.547,3.547,0,0,1,3.436,2.142Z" transform="translate(41.167 10.473)" fill="#fff"/>
          <path id="Trazado_825237" data-name="Trazado 825237" d="M250.082,4.537,261.687,67a3.141,3.141,0,0,0,2.822,2.839H336c1.871,0,3.252-2.221,2.822-4.537l-11.6-62.462A3.143,3.143,0,0,0,324.393,0H252.9c-1.871,0-3.252,2.221-2.822,4.537" transform="translate(38.738)" fill="#fff"/>
          <path id="Trazado_825238" data-name="Trazado 825238" d="M280.152,33.3c.341,3.931,3.121,7.118,6.21,7.118s5.317-3.187,4.977-7.118-3.121-7.118-6.209-7.118-5.319,3.187-4.978,7.118" transform="translate(43.404 4.058)" fill="#2b2b39"/>
          <path id="Trazado_825239" data-name="Trazado 825239" d="M311.96,0l12.356,69.839H326.4c1.871,0,3.252-2.222,2.822-4.538L317.613,2.84A3.142,3.142,0,0,0,314.792,0Z" transform="translate(48.338)" fill="#2b2b39"/>
          <path id="Trazado_825240" data-name="Trazado 825240" d="M294.991,60.468l2.437,14.838h-7.163l-2.437-14.838Z" transform="translate(44.599 9.37)" fill="#2b2b39"/>
          <path id="Trazado_825241" data-name="Trazado 825241" d="M308.812,71.694l-1.467-2.623a2.666,2.666,0,0,0-2.274-1.493H285.432a2.789,2.789,0,0,0-2.473,1.906l-.99,2.407c-.462,1.126.18,2.474,1.178,2.474h24.582c1.079,0,1.708-1.551,1.082-2.67" transform="translate(43.668 10.471)" fill="#fff"/>
          <path id="Trazado_825242" data-name="Trazado 825242" d="M253.034,60.216h-20.58a1.32,1.32,0,0,1-1.32-1.32V57.289a1.32,1.32,0,0,1,1.32-1.319h20.58a1.319,1.319,0,0,1,1.32,1.319V58.9a1.32,1.32,0,0,1-1.32,1.32" transform="translate(35.814 8.673)" fill="#c04d3a"/>
          <path id="Trazado_825243" data-name="Trazado 825243" d="M255.684,69.135a5.709,5.709,0,0,1-.857,2.889c-2.028,3.1-7.352,3.566-10.151,3.584-.437,0-.813-.006-1.1-.017h0c-.213-.006-.379-.017-.491-.023l-.178-.01a25.665,25.665,0,0,1-4.6-.121q-.369-.043-.746-.1c-2.518-.383-5.252-1.284-6.577-3.31a5.027,5.027,0,0,1-.693-1.671,6.066,6.066,0,0,1-.133-.818,11.579,11.579,0,0,1,.476-4.183c.082-.3.172-.595.268-.882.141-.431.295-.848.452-1.245.252-.646.517-1.233.761-1.744l.166-.341c.133-.266.256-.5.365-.7.266-.5.441-.789.441-.789h19.64a25.405,25.405,0,0,1,1.446,2.879c.1.223.2.456.29.7.012.025.02.051.031.079.234.6.459,1.24.65,1.908.082.292.162.595.229.9a12.04,12.04,0,0,1,.312,2.175,8.1,8.1,0,0,1,0,.854" transform="translate(35.656 9.242)" fill="#c04d3a"/>
          <path id="Trazado_825244" data-name="Trazado 825244" d="M255.3,65.46a18.828,18.828,0,0,1-10.177,2.321c-3.505-.115-6.743-1.49-10.129-2.457a14.227,14.227,0,0,0-4.433-.62c.082-.3.172-.595.268-.881,3.7.01,7.618,2.036,11.141,2.746a19.634,19.634,0,0,0,10.512-.785,14.008,14.008,0,0,0,2.591-1.221c.082.293.162.595.228.9" transform="translate(35.725 9.889)" fill="#df7668"/>
          <path id="Trazado_825245" data-name="Trazado 825245" d="M246.3,59.646c-3.853,4.7-9.873,5.379-14.316,1.493.133-.264.256-.5.365-.7,3.988,3.491,9.33,3.094,12.963-.789Z" transform="translate(35.946 9.242)" fill="#df7668"/>
          <path id="Trazado_825246" data-name="Trazado 825246" d="M253.878,67.977a29.179,29.179,0,0,0-11.008,6.472c-.437,0-.813-.006-1.1-.017a30.127,30.127,0,0,1,12.106-7.309,8.1,8.1,0,0,1,0,.854" transform="translate(37.462 10.401)" fill="#df7668"/>
          <path id="Trazado_825247" data-name="Trazado 825247" d="M238.3,74.11c-.246-.028-.493-.062-.746-.1a4.026,4.026,0,0,0-1.27-3.192,8.521,8.521,0,0,0-6-1.789,6.078,6.078,0,0,1-.133-.817,10.882,10.882,0,0,1,2.951.29c1.521.364,3.448,1,4.443,2.643a5.067,5.067,0,0,1,.755,2.967" transform="translate(35.661 10.568)" fill="#df7668"/>
          <path id="Trazado_825248" data-name="Trazado 825248" d="M251.9,63.3a3.7,3.7,0,0,1-1.642.243c-1.889-.141-3.049-1.846-3.454-3.9h.7c.507,2.057,1.937,3.515,3.948,2.922.044-.014.089-.025.131-.042.1.222.2.456.29.7.012.025.02.051.031.079" transform="translate(38.243 9.242)" fill="#df7668"/>
          <path id="Trazado_825249" data-name="Trazado 825249" d="M252.368,60.125h-19.64a.435.435,0,0,1,0-.845h19.64a.435.435,0,0,1,0,.845" transform="translate(36.01 9.185)" fill="#7e231a"/>
          <path id="Trazado_825250" data-name="Trazado 825250" d="M250.821,58.479c-.27.513-.537.99-.788,1.423-.8,1.386-1.441,2.308-1.492,2.384H236.732c-.051-.076-.691-1-1.493-2.384-.251-.433-.517-.91-.788-1.423-1.447-2.748-2.975-6.458-2.557-9.283a5,5,0,0,1,.579-1.874,1.7,1.7,0,0,1,.419-.475c1.273-.946,3.226,1.265,3.844,1.193.833-.1-.523-5.389-2.455-9.145-1.807-3.512-2.984-8.206-.771-9.9a2.565,2.565,0,0,1,.251-.169,2.192,2.192,0,0,1,.253-.135c2.874-1.348,3.858,3.562,5.069,2.887,1.19-.665-2.455-16.344,3.277-16.375.089,0,.184,0,.278.008s.189-.01.279-.008c5.731.031,2.085,15.71,3.275,16.375,1.212.674,2.194-4.235,5.068-2.887a2.211,2.211,0,0,1,.254.135,2.874,2.874,0,0,1,.251.169c2.213,1.692,1.036,6.386-.77,9.9-1.933,3.756-3.288,9.049-2.457,9.145.619.072,2.57-2.139,3.844-1.193a1.715,1.715,0,0,1,.419.475,5,5,0,0,1,.577,1.874c.419,2.825-1.11,6.536-2.557,9.283" transform="translate(35.921 2.356)" fill="#467b6c"/>
          <path id="Trazado_825251" data-name="Trazado 825251" d="M241.5,15.2V62.287h-.558V15.2c.089,0,.184,0,.279.009s.187-.012.278-.009" transform="translate(37.335 2.356)" fill="#253f3d"/>
          <path id="Trazado_825252" data-name="Trazado 825252" d="M242.653,40.354l-.21.232-.211.231-.067-.1L233.081,27.37l.233-.2a2.582,2.582,0,0,1,.252-.169l8.6,12.634.278.41Z" transform="translate(36.116 4.184)" fill="#253f3d"/>
          <path id="Trazado_825253" data-name="Trazado 825253" d="M242.761,57.232l-.21.232-.211.232-.067-.1-9.885-14.522a1.689,1.689,0,0,1,.418-.474l9.467,13.911.278.41Z" transform="translate(36.009 6.601)" fill="#253f3d"/>
          <path id="Trazado_825254" data-name="Trazado 825254" d="M250.576,27.37l-9.083,13.345-.069.1-.21-.232L241,40.354l.211-.311.279-.411L250.09,27a2.644,2.644,0,0,1,.252.167Z" transform="translate(37.344 4.184)" fill="#253f3d"/>
          <path id="Trazado_825255" data-name="Trazado 825255" d="M251.378,43.075l-9.883,14.52-.069.1-.21-.232L241,57.232l.211-.31.28-.411L250.96,42.6a1.7,1.7,0,0,1,.418.474" transform="translate(37.344 6.601)" fill="#253f3d"/>
          <rect id="Rectángulo_383154" data-name="Rectángulo 383154" width="463.55" height="273.634" transform="translate(0)" fill="none"/>
        </g>
      </g>
      <path id="Rectángulo_401740" data-name="Rectángulo 401740" d="M94,30A64.072,64.072,0,0,0,30,94v6a64,64,0,0,0,128,0V94A64.072,64.072,0,0,0,94,30M94,0a94,94,0,0,1,94,94v6A94,94,0,0,1,0,100V94A94,94,0,0,1,94,0Z" transform="translate(191.051 1141)" fill="#fff"/>
      <path id="Rectángulo_401740-2" data-name="Rectángulo 401740" d="M94,30A64.072,64.072,0,0,0,30,94v6a64,64,0,0,0,128,0V94A64.072,64.072,0,0,0,94,30M94,0a94,94,0,0,1,94,94v6A94,94,0,0,1,0,100V94A94,94,0,0,1,94,0Z" transform="translate(497.051 829)" fill="#fff"/>
    </g>
  </g>
</svg>
