<svg xmlns="http://www.w3.org/2000/svg" width="118" height="118" viewBox="0 0 118 118">
  <g id="Grupo_1099859" data-name="Grupo 1099859" transform="translate(-194 -1236)">
    <circle id="Elipse_11492" data-name="Elipse 11492" cx="59" cy="59" r="59" transform="translate(194 1236)" fill="#5e3552"/>
    <g id="telefono-inteligente" transform="translate(217 1256)">
      <g id="Grupo_1099857" data-name="Grupo 1099857" transform="translate(16.111 1.144)">
        <g id="Grupo_1099856" data-name="Grupo 1099856">
          <g id="Grupo_1099855" data-name="Grupo 1099855">
            <ellipse id="Elipse_11514" data-name="Elipse 11514" cx="14.281" cy="14.346" rx="14.281" ry="14.346" transform="translate(13.177 35.345)" fill="#ffdbd3"/>
            <g id="Grupo_1099853" data-name="Grupo 1099853" transform="translate(3.909)">
              <g id="Grupo_1099852" data-name="Grupo 1099852">
                <g id="Grupo_1099851" data-name="Grupo 1099851">
                  <path id="Trazado_873613" data-name="Trazado 873613" d="M162.313,62.987h23.632a3.439,3.439,0,0,0,3.439-3.439V10.939A3.439,3.439,0,0,0,185.946,7.5H162.313a3.439,3.439,0,0,0-3.439,3.439V59.548A3.439,3.439,0,0,0,162.313,62.987Z" transform="translate(-158.874 -7.5)" fill="#7776d0"/>
                  <path id="Trazado_873614" data-name="Trazado 873614" d="M299.927,7.5h6.1a3.439,3.439,0,0,0-3.439,3.439V59.548a3.439,3.439,0,0,0,3.439,3.439h-6.1a3.439,3.439,0,0,1-3.439-3.439V10.939A3.439,3.439,0,0,1,299.927,7.5Z" transform="translate(-296.488 -7.5)" fill="#6967bf"/>
                  <path id="Trazado_873615" data-name="Trazado 873615" d="M189.384,41.534H158.873V84.278h30.511Z" transform="translate(-158.873 -36.347)" fill="#d4d9ff"/>
                  <path id="Trazado_873616" data-name="Trazado 873616" d="M325.15,41.534h-6.1V84.278h6.1Z" transform="translate(-319.053 -36.347)" fill="#c7cdff"/>
                </g>
              </g>
            </g>
            <path id="Trazado_873617" data-name="Trazado 873617" d="M77.753,179.1c-4.151-6.036-2.318-16.107,4.693-19.141V146.128a3.625,3.625,0,1,1,7.251,0v27.278l5.381,5.406L82.546,191.4l-5.5-5.528" transform="translate(-47.958 -121.911)" fill="#ffdbd3"/>
            <path id="Trazado_873618" data-name="Trazado 873618" d="M117.75,159.959V146.128a3.625,3.625,0,1,1,7.251,0v13.854c-4.984,2.189-7.332,7.945-6.75,13.25a5.252,5.252,0,0,1-5.194,5.869c-4.151-6.036-2.318-16.107,4.693-19.141Z" transform="translate(-83.262 -121.911)" fill="#ffd1c7"/>
            <g id="Grupo_1099854" data-name="Grupo 1099854" transform="translate(0 13.201)">
              <path id="Trazado_873619" data-name="Trazado 873619" d="M336.544,97.453v-.015a3.332,3.332,0,0,0-3.332-3.332h-2a3.332,3.332,0,0,0-3.332,3.332v.015a3.332,3.332,0,0,0,3.332,3.332h2A3.332,3.332,0,0,0,336.544,97.453Z" transform="translate(-327.884 -94.106)" fill="#ffdbd3"/>
              <path id="Trazado_873620" data-name="Trazado 873620" d="M344.625,94.106h2a3.323,3.323,0,0,1,1.288.258,3.333,3.333,0,0,0-2.044,3.074v.015a3.333,3.333,0,0,0,2.044,3.074,3.323,3.323,0,0,1-1.288.258h-2a3.332,3.332,0,0,1-3.332-3.332v-.015A3.332,3.332,0,0,1,344.625,94.106Z" transform="translate(-341.293 -94.106)" fill="#ffd1c7"/>
              <path id="Trazado_873621" data-name="Trazado 873621" d="M336.544,141.276v-.015a3.332,3.332,0,0,0-3.332-3.332h-2a3.332,3.332,0,0,0-3.332,3.332v.015a3.332,3.332,0,0,0,3.332,3.332h2A3.332,3.332,0,0,0,336.544,141.276Z" transform="translate(-327.884 -131.249)" fill="#ffdbd3"/>
              <path id="Trazado_873622" data-name="Trazado 873622" d="M344.625,137.928h2a3.322,3.322,0,0,1,1.288.258,3.333,3.333,0,0,0-2.044,3.074v.015a3.333,3.333,0,0,0,2.044,3.074,3.323,3.323,0,0,1-1.288.258h-2a3.332,3.332,0,0,1-3.332-3.332v-.015A3.332,3.332,0,0,1,344.625,137.928Z" transform="translate(-341.293 -131.249)" fill="#ffd1c7"/>
              <path id="Trazado_873623" data-name="Trazado 873623" d="M336.544,185.1v-.015a3.332,3.332,0,0,0-3.332-3.332h-2a3.332,3.332,0,0,0-3.332,3.332v.015a3.332,3.332,0,0,0,3.332,3.332h2A3.332,3.332,0,0,0,336.544,185.1Z" transform="translate(-327.884 -168.392)" fill="#ffdbd3"/>
              <path id="Trazado_873624" data-name="Trazado 873624" d="M344.625,181.751h2a3.323,3.323,0,0,1,1.288.258,3.333,3.333,0,0,0-2.044,3.074v.015a3.333,3.333,0,0,0,2.044,3.074,3.322,3.322,0,0,1-1.288.258h-2a3.332,3.332,0,0,1-3.332-3.332v-.015A3.332,3.332,0,0,1,344.625,181.751Z" transform="translate(-341.293 -168.392)" fill="#ffd1c7"/>
              <path id="Trazado_873625" data-name="Trazado 873625" d="M336.544,228.921v-.015a3.332,3.332,0,0,0-3.332-3.332h-2a3.332,3.332,0,0,0-3.332,3.332v.015a3.332,3.332,0,0,0,3.332,3.332h2A3.332,3.332,0,0,0,336.544,228.921Z" transform="translate(-327.884 -205.536)" fill="#ffdbd3"/>
              <path id="Trazado_873626" data-name="Trazado 873626" d="M344.625,225.573h2a3.32,3.32,0,0,1,1.288.258,3.333,3.333,0,0,0-2.044,3.074v.015a3.333,3.333,0,0,0,2.044,3.074,3.323,3.323,0,0,1-1.288.258h-2a3.332,3.332,0,0,1-3.332-3.332v-.015A3.332,3.332,0,0,1,344.625,225.573Z" transform="translate(-341.293 -205.535)" fill="#ffd1c7"/>
            </g>
            <path id="Trazado_873627" data-name="Trazado 873627" d="M40.427,380.595a5.048,5.048,0,0,0,7.16,0l11.8-11.855a5.07,5.07,0,1,0-7.16-7.18l-11.8,11.855A5.093,5.093,0,0,0,40.427,380.595Z" transform="translate(-8.169 -306.331)" fill="#7776d0"/>
          </g>
        </g>
      </g>
      <g id="Grupo_1099858" data-name="Grupo 1099858" transform="translate(0 0)">
        <path id="Trazado_873628" data-name="Trazado 873628" d="M82.6,87.291a1.23,1.23,0,0,1-1.616-.073,1.143,1.143,0,1,1,1.616.073Z" transform="translate(-20.521 -72.302)"/>
        <path id="Trazado_873629" data-name="Trazado 873629" d="M57.1,120.838a1.179,1.179,0,0,1-1.574-.366,1.143,1.143,0,1,1,1.574.366Z" transform="translate(8.677 -100.628)"/>
        <path id="Trazado_873630" data-name="Trazado 873630" d="M112.825,59.366a1.18,1.18,0,0,1-.911-1.832,1.143,1.143,0,1,1,.911,1.832Z" transform="translate(-56.249 -48.38)"/>
        <path id="Trazado_873631" data-name="Trazado 873631" d="M38.146,158.439a1.2,1.2,0,0,1-1.48-.652,1.143,1.143,0,1,1,1.48.652Z" transform="translate(30.295 -132.416)"/>
        <path id="Trazado_873632" data-name="Trazado 873632" d="M26.448,198.835a1.221,1.221,0,0,1-1.334-.915,1.143,1.143,0,1,1,1.334.915Z" transform="translate(43.541 -166.607)"/>
        <path id="Trazado_873633" data-name="Trazado 873633" d="M38.009,320.518a1.144,1.144,0,0,1-.413,2.21,1.2,1.2,0,0,1-1.067-1.556A1.143,1.143,0,0,1,38.009,320.518Z" transform="translate(30.451 -271.598)"/>
        <path id="Trazado_873634" data-name="Trazado 873634" d="M25.964,282.362a1.139,1.139,0,1,1,.209.02A1.091,1.091,0,0,1,25.964,282.362Z" transform="translate(43.617 -237.402)"/>
        <path id="Trazado_873635" data-name="Trazado 873635" d="M22.377,240.616a1.143,1.143,0,1,1,1.143-1.145,1.144,1.144,0,0,1-1.143,1.145Z" transform="translate(47.99 -202.003)"/>
        <path id="Trazado_873636" data-name="Trazado 873636" d="M440.684,360.27a1.144,1.144,0,1,1-.352,1.579A1.144,1.144,0,0,1,440.684,360.27Z" transform="translate(-434.781 -305.206)"/>
        <path id="Trazado_873637" data-name="Trazado 873637" d="M444.361,121.056a1.143,1.143,0,0,1,.384,1.57,1.183,1.183,0,0,1-1.572.384,1.143,1.143,0,1,1,1.187-1.954Z" transform="translate(-437.628 -102.464)"/>
        <path id="Trazado_873638" data-name="Trazado 873638" d="M419.579,87.483a1.143,1.143,0,1,1-1.614.09A1.143,1.143,0,0,1,419.579,87.483Z" transform="translate(-408.874 -73.903)"/>
        <path id="Trazado_873639" data-name="Trazado 873639" d="M460.066,322.853a1.143,1.143,0,0,1,1.486.636,1.2,1.2,0,0,1-1.061,1.568,1.143,1.143,0,0,1-.425-2.2Z" transform="translate(-456.888 -273.573)"/>
        <path id="Trazado_873640" data-name="Trazado 873640" d="M476.535,240.84a1.143,1.143,0,0,1,1.155,1.132,1.208,1.208,0,0,1-1.143,1.154,1.143,1.143,0,0,1-.012-2.286Z" transform="translate(-475.404 -204.131)"/>
        <path id="Trazado_873641" data-name="Trazado 873641" d="M462.1,160.884a1.13,1.13,0,0,1-.4-.073,1.144,1.144,0,1,1,.4.073Z" transform="translate(-458.761 -134.424)"/>
        <path id="Trazado_873642" data-name="Trazado 873642" d="M474.267,200.385a1.221,1.221,0,0,1-1.323.928,1.143,1.143,0,1,1,1.323-.928Z" transform="translate(-471.48 -168.706)"/>
        <path id="Trazado_873643" data-name="Trazado 873643" d="M414.87,393.58a1.143,1.143,0,1,1-.058,1.616A1.143,1.143,0,0,1,414.87,393.58Z" transform="translate(-405.223 -333.33)"/>
        <path id="Trazado_873644" data-name="Trazado 873644" d="M472.1,282.568a1.144,1.144,0,0,1,1.343.9,1.221,1.221,0,0,1-1.123,1.364,1.143,1.143,0,0,1-.219-2.265Z" transform="translate(-470.525 -239.48)"/>
        <path id="Trazado_873645" data-name="Trazado 873645" d="M268.035,464.858v0a1.145,1.145,0,0,1,1.049,1.232,1.234,1.234,0,0,1-1.232,1.049,1.143,1.143,0,1,1,.183-2.279Z" transform="translate(-235.006 -394.001)"/>
        <path id="Trazado_873646" data-name="Trazado 873646" d="M349,443.03a1.142,1.142,0,0,1,.529,1.527,1.189,1.189,0,0,1-1.527.529,1.143,1.143,0,1,1,1-2.056Z" transform="translate(-327.842 -375.406)"/>
        <path id="Trazado_873647" data-name="Trazado 873647" d="M309.543,457.677a1.143,1.143,0,0,1,.8,1.4,1.215,1.215,0,0,1-1.4.8,1.144,1.144,0,0,1,.6-2.207Z" transform="translate(-282.599 -387.883)"/>
        <path id="Trazado_873648" data-name="Trazado 873648" d="M387.406,58.866h0a1.143,1.143,0,1,1-.207,1.6A1.145,1.145,0,0,1,387.407,58.866Z" transform="translate(-373.482 -49.692)"/>
        <path id="Trazado_873649" data-name="Trazado 873649" d="M385.047,421.425a1.143,1.143,0,1,1-1.6.239A1.144,1.144,0,0,1,385.047,421.425Z" transform="translate(-369.174 -357.001)"/>
        <path id="Trazado_873650" data-name="Trazado 873650" d="M225.9,464.4v0a1.145,1.145,0,0,1,1.254,1.021,1.229,1.229,0,0,1-1.139,1.26,1.143,1.143,0,0,1-.116-2.28Z" transform="translate(-186.69 -393.607)"/>
        <path id="Trazado_873651" data-name="Trazado 873651" d="M31.47,37.714a4.465,4.465,0,0,1,1.492-3.333,4.529,4.529,0,0,1,0-6.679,4.529,4.529,0,0,1,0-6.679,4.523,4.523,0,0,1,2.418-7.787V4.583A4.588,4.588,0,0,1,39.961,0H54.446a1.144,1.144,0,0,1,0,2.286H39.961a2.3,2.3,0,0,0-2.3,2.3v.6H65.89v-.6a2.3,2.3,0,0,0-2.3-2.3h-2.9a1.144,1.144,0,0,1,0-2.286h2.9a4.588,4.588,0,0,1,4.582,4.583V21.317a4.817,4.817,0,0,1,7.318,4.042V52.166l2.14,2.15a6.219,6.219,0,0,1,7.007,10.042l-7.075,7.108a1.144,1.144,0,0,1-1.62-1.613l7.075-7.108a3.927,3.927,0,0,0-5.54-5.567l-11.8,11.855a3.954,3.954,0,0,0,0,5.567,4.04,4.04,0,0,0,5.988-.45,1.144,1.144,0,0,1,1.62,1.613,6.37,6.37,0,0,1-9.228.45,6.25,6.25,0,0,1-.755-7.874l-2.059-2.069a15.559,15.559,0,0,1-14.968-8.5H39.961a4.588,4.588,0,0,1-4.582-4.583V42.169a4.487,4.487,0,0,1-3.909-4.455Zm2.286.015a2.191,2.191,0,0,0,2.189,2.189h2a2.191,2.191,0,0,0,2.189-2.189v-.015a2.191,2.191,0,0,0-2.189-2.189h-2A2.195,2.195,0,0,0,33.756,37.729Zm0-6.679a2.191,2.191,0,0,0,2.189,2.189h2a2.191,2.191,0,0,0,2.189-2.189v-.015a2.191,2.191,0,0,0-2.189-2.189h-2A2.195,2.195,0,0,0,33.756,31.05Zm0-6.679a2.191,2.191,0,0,0,2.189,2.189h2a2.191,2.191,0,0,0,2.189-2.189v-.015a2.191,2.191,0,0,0-2.189-2.189h-2A2.195,2.195,0,0,0,33.756,24.371Zm0-6.695a2.254,2.254,0,0,0,2.189,2.2h2a2.191,2.191,0,0,0,2.189-2.189v-.015a2.191,2.191,0,0,0-2.189-2.189h-2a2.191,2.191,0,0,0-2.189,2.189Zm3.909-10.2V13.2h.276a4.48,4.48,0,0,1,4.475,4.475v.015a4.465,4.465,0,0,1-1.491,3.332,4.466,4.466,0,0,1,1.491,3.332v.015A4.465,4.465,0,0,1,40.925,27.7a4.466,4.466,0,0,1,1.491,3.332v.015a4.465,4.465,0,0,1-1.491,3.332,4.466,4.466,0,0,1,1.491,3.332v.015A4.48,4.48,0,0,1,37.941,42.2h-.276v5.727H59.341A13.2,13.2,0,0,1,65.89,38.5V7.474ZM60.045,64.038l1.6-.075a1.154,1.154,0,0,1,.863.335l2.329,2.34L75.757,55.67l-2.216-2.226a1.143,1.143,0,0,1-.333-.806V25.36c0-3.22-4.964-3.22-4.964,0V39.191a1.143,1.143,0,0,1-.689,1.049,10.3,10.3,0,0,0-5.674,6.872,12.823,12.823,0,0,0,1.469,10.572,1.143,1.143,0,0,1-1.884,1.3,12.346,12.346,0,0,1-.73-1.206H48.889A13.028,13.028,0,0,0,60.045,64.038ZM39.961,55.487H59.781a15.557,15.557,0,0,1-.694-5.27H37.665v2.973A2.3,2.3,0,0,0,39.961,55.487Z" transform="translate(-16.501 0)"/>
        <path id="Trazado_873652" data-name="Trazado 873652" d="M190.826,75.842a1.143,1.143,0,0,1-1.616-.021l-3.346-3.435a1.144,1.144,0,0,1,1.638-1.6l3.346,3.435A1.143,1.143,0,0,1,190.826,75.842Z" transform="translate(-144.703 -59.705)"/>
        <path id="Trazado_873653" data-name="Trazado 873653" d="M197.986,83.192a1.143,1.143,0,0,1-1.616-.021L185.863,72.386a1.144,1.144,0,0,1,1.638-1.6l10.506,10.785A1.143,1.143,0,0,1,197.986,83.192Z" transform="translate(-151.863 -59.705)"/>
      </g>
    </g>
  </g>
</svg>
