<svg xmlns="http://www.w3.org/2000/svg" width="190" height="188.782" viewBox="0 0 190 188.782">
  <g id="Grupo_1099850" data-name="Grupo 1099850" transform="translate(-1230 -1201)">
    <rect id="Rect치ngulo_35929" data-name="Rect치ngulo 35929" width="190" height="188.782" rx="13" transform="translate(1230 1201)" fill="#a0f2c0"/>
    <g id="smartphone-" transform="translate(1181 1200)">
      <rect id="Rect치ngulo_401738" data-name="Rect치ngulo 401738" width="84.481" height="153.18" rx="32" transform="translate(90.785 18.785)" fill="#2b70a8"/>
      <path id="Trazado_873596" data-name="Trazado 873596" d="M180.667,34.583V45.167H96V34.583A10.583,10.583,0,0,1,106.583,24h63.5A10.583,10.583,0,0,1,180.667,34.583Z" transform="translate(-5.354 -5.354)" fill="#c2c5c6"/>
      <path id="Trazado_873597" data-name="Trazado 873597" d="M180.667,408v15.875a10.583,10.583,0,0,1-10.583,10.583h-63.5A10.583,10.583,0,0,1,96,423.875V408Z" transform="translate(-5.354 -262.354)" fill="#c2c5c6"/>
      <path id="Trazado_873598" data-name="Trazado 873598" d="M286.678,210.333v63.5H268.157A26.458,26.458,0,0,1,241.7,247.375h.053l-17.165-25.4a10.583,10.583,0,0,1,17.539-11.85L257.574,231.5h7.938V168l19.921,37.353a10.583,10.583,0,0,1,1.245,4.98Z" transform="translate(-90.199 -101.729)" fill="#f5cbaa"/>
      <path id="Trazado_873599" data-name="Trazado 873599" d="M128,120h63.5v21.167H128Z" transform="translate(-26.771 -69.604)" fill="#a4d4f4"/>
      <path id="Trazado_873600" data-name="Trazado 873600" d="M272,216h15.875v10.583H272Z" transform="translate(-123.146 -133.854)" fill="#a4d4f4"/>
      <ellipse id="Elipse_11510" data-name="Elipse 11510" cx="2.321" cy="2.785" rx="2.321" ry="2.785" transform="translate(114.923 26.212)"/>
      <path id="Trazado_873601" data-name="Trazado 873601" d="M210.646,53.292h18.521a2.646,2.646,0,1,0,0-5.292H210.646a2.646,2.646,0,1,0,0,5.292Z" transform="translate(-80.313 -21.417)"/>
      <path id="Trazado_873602" data-name="Trazado 873602" d="M196.479,174.75a2.646,2.646,0,0,0,2.646-2.646V108.6a13.273,13.273,0,0,0-1.556-6.225l-19.61-36.769V29.229A13.244,13.244,0,0,0,164.729,16h-63.5A13.244,13.244,0,0,0,88,29.229V161.521a13.244,13.244,0,0,0,13.229,13.229h74.083l-.3-.148a29.31,29.31,0,0,0,2.941.148ZM193.833,108.6v60.854H177.958a23.841,23.841,0,0,1-23.807-23.311,2.646,2.646,0,0,0-.406-1.982l-17.163-25.4a7.938,7.938,0,1,1,13.154-8.888c.016.023.033.046.048.068l15.447,21.377a2.646,2.646,0,0,0,2.144,1.095h7.938a2.646,2.646,0,0,0,2.646-2.646V76.854L192.9,104.869a7.971,7.971,0,0,1,.934,3.735ZM172.667,66.271v60.854h-3.939L154.1,106.876a13.229,13.229,0,0,0-21.9,14.85L146.572,143H93.292V42.458h79.375ZM101.229,21.292h63.5a7.947,7.947,0,0,1,7.938,7.938v7.937H93.292V29.229A7.947,7.947,0,0,1,101.229,21.292Zm0,148.167a7.947,7.947,0,0,1-7.938-7.937V148.292h55.689a29.1,29.1,0,0,0,12.274,21.167Z"/>
      <path id="Trazado_873603" data-name="Trazado 873603" d="M207.938,424a7.938,7.938,0,1,0,7.937,7.938A7.938,7.938,0,0,0,207.938,424Zm0,10.583a2.646,2.646,0,1,1,2.646-2.646A2.646,2.646,0,0,1,207.938,434.583Z" transform="translate(-74.958 -273.063)"/>
      <path id="Trazado_873604" data-name="Trazado 873604" d="M122.646,138.458h63.5a2.646,2.646,0,0,0,2.646-2.646V114.646A2.646,2.646,0,0,0,186.146,112h-63.5A2.646,2.646,0,0,0,120,114.646v21.167A2.646,2.646,0,0,0,122.646,138.458Zm2.646-21.167H183.5v15.875H125.292Z" transform="translate(-21.417 -64.25)"/>
      <path id="Trazado_873605" data-name="Trazado 873605" d="M175.812,144H154.646a2.646,2.646,0,0,0,0,5.292h21.167a2.646,2.646,0,0,0,0-5.292Z" transform="translate(-42.833 -85.667)"/>
      <path id="Trazado_873606" data-name="Trazado 873606" d="M122.646,213.292h37.042a2.646,2.646,0,0,0,0-5.292H122.646a2.646,2.646,0,0,0,0,5.292Z" transform="translate(-21.417 -128.5)"/>
      <path id="Trazado_873607" data-name="Trazado 873607" d="M202.521,240H186.646a2.646,2.646,0,1,0,0,5.292h15.875a2.646,2.646,0,0,0,0-5.292Z" transform="translate(-64.25 -149.917)"/>
      <path id="Trazado_873608" data-name="Trazado 873608" d="M122.646,277.292h15.875a2.646,2.646,0,0,0,0-5.292H122.646a2.646,2.646,0,0,0,0,5.292Z" transform="translate(-21.417 -171.333)"/>
      <path id="Trazado_873609" data-name="Trazado 873609" d="M122.646,309.292h15.875a2.646,2.646,0,0,0,0-5.292H122.646a2.646,2.646,0,0,0,0,5.292Z" transform="translate(-21.417 -192.75)"/>
      <circle id="Elipse_11511" data-name="Elipse 11511" cx="2.785" cy="2.785" r="2.785" transform="translate(98.212 132.045)"/>
      <circle id="Elipse_11512" data-name="Elipse 11512" cx="2.785" cy="2.785" r="2.785" transform="translate(109.352 132.045)"/>
      <circle id="Elipse_11513" data-name="Elipse 11513" cx="2.785" cy="2.785" r="2.785" transform="translate(119.564 132.045)"/>
      <path id="Trazado_873610" data-name="Trazado 873610" d="M122.646,341.292h21.167a2.646,2.646,0,1,0,0-5.292H122.646a2.646,2.646,0,1,0,0,5.292Z" transform="translate(-21.417 -214.167)"/>
      <path id="Trazado_873611" data-name="Trazado 873611" d="M282.521,208H266.646A2.646,2.646,0,0,0,264,210.646v10.583a2.646,2.646,0,0,0,2.646,2.646h15.875a2.646,2.646,0,0,0,2.646-2.646V210.646A2.646,2.646,0,0,0,282.521,208Zm-2.646,10.583H269.292v-5.292h10.583Z" transform="translate(-117.792 -128.5)"/>
      <path id="Trazado_873612" data-name="Trazado 873612" d="M122.646,245.292h10.583a2.646,2.646,0,0,0,0-5.292H122.646a2.646,2.646,0,1,0,0,5.292Z" transform="translate(-21.417 -149.917)"/>
    </g>
  </g>
</svg>
