<svg xmlns="http://www.w3.org/2000/svg" width="85" height="85" viewBox="0 0 85 85">
  <g id="_56" data-name="56" transform="translate(-915.051 -3082)">
    <circle id="Elipse_11500" data-name="Elipse 11500" cx="42.5" cy="42.5" r="42.5" transform="translate(915.051 3082)" fill="#1169e3"/>
    <g id="boton-web" transform="translate(931.051 3098)">
      <g id="Grupo_1099946" data-name="Grupo 1099946" transform="translate(0.788 0.788)">
        <g id="Grupo_1099945" data-name="Grupo 1099945">
          <g id="Grupo_1099929" data-name="Grupo 1099929" transform="translate(18.309 36.617)">
            <g id="Grupo_1099928" data-name="Grupo 1099928">
              <circle id="Elipse_11521" data-name="Elipse 11521" cx="7.796" cy="7.796" r="7.796" fill="#60b7ff"/>
            </g>
            <path id="Trazado_874079" data-name="Trazado 874079" d="M209.111,358.576a7.8,7.8,0,0,1-7.751,12.807,7.8,7.8,0,1,0,7.751-12.807Z" transform="translate(-199.304 -358.313)" fill="#26a6fe"/>
          </g>
          <g id="Grupo_1099931" data-name="Grupo 1099931" transform="translate(0 36.617)">
            <g id="Grupo_1099930" data-name="Grupo 1099930">
              <circle id="Elipse_11522" data-name="Elipse 11522" cx="7.796" cy="7.796" r="7.796" fill="#fe73c5"/>
            </g>
            <path id="Trazado_874080" data-name="Trazado 874080" d="M34.826,358.576a7.8,7.8,0,0,1-7.75,12.807,7.8,7.8,0,1,0,7.75-12.807Z" transform="translate(-25.02 -358.313)" fill="#fe4fb7"/>
          </g>
          <g id="Grupo_1099932" data-name="Grupo 1099932">
            <circle id="Elipse_11523" data-name="Elipse 11523" cx="7.796" cy="7.796" r="7.796" fill="#05e39c"/>
            <path id="Trazado_874081" data-name="Trazado 874081" d="M34.826,10a7.8,7.8,0,0,1-7.75,12.807A7.8,7.8,0,1,0,34.826,10Z" transform="translate(-25.02 -9.742)" fill="#0ed290"/>
          </g>
          <g id="Grupo_1099933" data-name="Grupo 1099933" transform="translate(18.309)">
            <circle id="Elipse_11524" data-name="Elipse 11524" cx="7.796" cy="7.796" r="7.796" fill="#fe73c5"/>
            <path id="Trazado_874082" data-name="Trazado 874082" d="M209.111,10a7.8,7.8,0,0,1-7.751,12.807A7.8,7.8,0,1,0,209.111,10Z" transform="translate(-199.304 -9.742)" fill="#fe4fb7"/>
          </g>
          <g id="Grupo_1099935" data-name="Grupo 1099935" transform="translate(0 18.309)">
            <g id="Grupo_1099934" data-name="Grupo 1099934">
              <circle id="Elipse_11525" data-name="Elipse 11525" cx="7.796" cy="7.796" r="7.796" fill="#c2fae3"/>
            </g>
            <path id="Trazado_874083" data-name="Trazado 874083" d="M34.825,184.291a7.8,7.8,0,0,1-7.75,12.807,7.8,7.8,0,1,0,7.75-12.807Z" transform="translate(-25.019 -184.028)" fill="#9cf8d2"/>
            <path id="Trazado_874084" data-name="Trazado 874084" d="M62.188,219.3v6.736a.543.543,0,0,0,.852.447l4.881-3.368a.543.543,0,0,0,0-.894l-4.881-3.368A.543.543,0,0,0,62.188,219.3Z" transform="translate(-56.443 -214.876)" fill="#05e39c"/>
          </g>
          <g id="Grupo_1099937" data-name="Grupo 1099937" transform="translate(18.309 18.309)">
            <g id="Grupo_1099936" data-name="Grupo 1099936">
              <circle id="Elipse_11526" data-name="Elipse 11526" cx="7.796" cy="7.796" r="7.796" fill="#ffdff3"/>
            </g>
            <path id="Trazado_874085" data-name="Trazado 874085" d="M209.111,184.29a7.8,7.8,0,0,1-7.75,12.807,7.8,7.8,0,1,0,7.75-12.807Z" transform="translate(-199.305 -184.027)" fill="#ffceed"/>
            <path id="Trazado_874086" data-name="Trazado 874086" d="M233.293,233.836h-4.809a.543.543,0,0,1-.543-.543v-4.809a.543.543,0,0,1,.543-.543h4.809a.543.543,0,0,1,.543.543v4.809A.543.543,0,0,1,233.293,233.836Z" transform="translate(-223.092 -223.092)" fill="#fe73c5"/>
          </g>
          <g id="Grupo_1099941" data-name="Grupo 1099941" transform="translate(36.617 18.309)">
            <g id="Grupo_1099939" data-name="Grupo 1099939">
              <g id="Grupo_1099938" data-name="Grupo 1099938">
                <circle id="Elipse_11527" data-name="Elipse 11527" cx="7.796" cy="7.796" r="7.796" fill="#e5e1e5"/>
              </g>
            </g>
            <path id="Trazado_874087" data-name="Trazado 874087" d="M383.4,184.29a7.8,7.8,0,0,1-7.75,12.807,7.8,7.8,0,1,0,7.75-12.807Z" transform="translate(-373.59 -184.027)" fill="#d7d0d6"/>
            <g id="Grupo_1099940" data-name="Grupo 1099940" transform="translate(3.599 4.849)">
              <path id="Trazado_874088" data-name="Trazado 874088" d="M392.731,233.836h-1.853a.543.543,0,0,1-.543-.543v-4.809a.543.543,0,0,1,.543-.543h1.853a.543.543,0,0,1,.543.543v4.809A.543.543,0,0,1,392.731,233.836Z" transform="translate(-390.335 -227.941)" fill="#8b8089"/>
              <path id="Trazado_874089" data-name="Trazado 874089" d="M444.652,233.836H442.8a.543.543,0,0,1-.543-.543v-4.809a.543.543,0,0,1,.543-.543h1.853a.543.543,0,0,1,.543.543v4.809A.543.543,0,0,1,444.652,233.836Z" transform="translate(-436.802 -227.941)" fill="#8b8089"/>
            </g>
          </g>
          <g id="Grupo_1099942" data-name="Grupo 1099942" transform="translate(36.617)">
            <circle id="Elipse_11528" data-name="Elipse 11528" cx="7.796" cy="7.796" r="7.796" fill="#ffc344"/>
            <path id="Trazado_874090" data-name="Trazado 874090" d="M383.4,10a7.8,7.8,0,0,1-7.75,12.807A7.8,7.8,0,1,0,383.4,10Z" transform="translate(-373.59 -9.742)" fill="#f6ab31"/>
          </g>
          <g id="Grupo_1099944" data-name="Grupo 1099944" transform="translate(36.617 36.617)">
            <g id="Grupo_1099943" data-name="Grupo 1099943">
              <circle id="Elipse_11529" data-name="Elipse 11529" cx="7.796" cy="7.796" r="7.796" fill="#e5e1e5"/>
            </g>
            <path id="Trazado_874091" data-name="Trazado 874091" d="M383.4,358.576a7.8,7.8,0,0,1-7.75,12.807,7.8,7.8,0,1,0,7.75-12.807Z" transform="translate(-373.59 -358.313)" fill="#d7d0d6"/>
          </g>
        </g>
        <path id="Trazado_874092" data-name="Trazado 874092" d="M452.01,230.089a7.766,7.766,0,0,1-1.994,5.206H451.6a.543.543,0,0,0,.543-.543v-4.809a.54.54,0,0,0-.149-.372c.011.171.019.344.019.518Z" transform="translate(-403.53 -206.243)" fill="#7b7179"/>
      </g>
      <g id="Grupo_1099947" data-name="Grupo 1099947" transform="translate(0 0)">
        <path id="Trazado_874093" data-name="Trazado 874093" d="M221,397.974l-2.939-2.94a.788.788,0,0,0-1.114,1.114l2.383,2.382-2.382,2.382a.788.788,0,0,0,1.114,1.114L221,399.089a.788.788,0,0,0,0-1.114Z" transform="translate(-193.946 -353.33)"/>
        <path id="Trazado_874094" data-name="Trazado 874094" d="M260.259,395.035a.788.788,0,0,0-1.114,1.114l2.383,2.382-2.382,2.382a.788.788,0,0,0,1.114,1.114l2.939-2.939a.788.788,0,0,0,0-1.114Z" transform="translate(-231.716 -353.33)"/>
        <path id="Trazado_874095" data-name="Trazado 874095" d="M82.306,395.035a.788.788,0,0,0-1.114,0l-2.939,2.94a.788.788,0,0,0,0,1.114l2.939,2.939a.788.788,0,1,0,1.114-1.114l-2.382-2.382,2.383-2.382A.788.788,0,0,0,82.306,395.035Z" transform="translate(-69.826 -353.33)"/>
        <path id="Trazado_874096" data-name="Trazado 874096" d="M38.988,395.035l-2.939,2.94a.788.788,0,0,0,0,1.114l2.939,2.939a.788.788,0,1,0,1.114-1.114l-2.382-2.382,2.383-2.382a.788.788,0,1,0-1.114-1.114Z" transform="translate(-32.055 -353.33)"/>
        <path id="Trazado_874097" data-name="Trazado 874097" d="M43.638,50.18a.788.788,0,0,0-1.106.134l-3.953,5.04-2.75-2.75a.788.788,0,0,0-1.114,1.114L38.093,57.1a.788.788,0,0,0,.557.231H38.7a.788.788,0,0,0,.573-.3l4.5-5.739A.788.788,0,0,0,43.638,50.18Z" transform="translate(-30.862 -44.758)"/>
        <path id="Trazado_874098" data-name="Trazado 874098" d="M228.266,47.128a.788.788,0,0,0-1.114,0l-2.313,2.313-2.313-2.313a.788.788,0,0,0-1.114,1.114l2.313,2.313-2.313,2.313a.788.788,0,0,0,1.114,1.114l2.313-2.312,2.313,2.313a.788.788,0,1,0,1.114-1.114l-2.313-2.313,2.313-2.313A.788.788,0,0,0,228.266,47.128Z" transform="translate(-197.946 -41.971)"/>
        <path id="Trazado_874099" data-name="Trazado 874099" d="M423.574,38.371a.788.788,0,0,0,.788-.788V32.47a.788.788,0,0,0-1.576,0v5.113A.788.788,0,0,0,423.574,38.371Z" transform="translate(-378.373 -28.354)"/>
        <path id="Trazado_874100" data-name="Trazado 874100" d="M422.786,110.067a.788.788,0,1,0,1.576,0v-.877a.788.788,0,0,0-1.576,0Z" transform="translate(-378.373 -97.015)"/>
        <path id="Trazado_874101" data-name="Trazado 874101" d="M389.084,393.762a.788.788,0,0,0,0,1.114,3.558,3.558,0,1,1-5.032,0,.788.788,0,0,0-1.114-1.114,5.134,5.134,0,1,0,7.261,0A.788.788,0,0,0,389.084,393.762Z" transform="translate(-341.367 -352.192)"/>
        <path id="Trazado_874102" data-name="Trazado 874102" d="M423.574,384.135a.788.788,0,0,0,.788-.788v-4.722a.788.788,0,1,0-1.576,0v4.722A.788.788,0,0,0,423.574,384.135Z" transform="translate(-378.373 -338.146)"/>
        <path id="Trazado_874103" data-name="Trazado 874103" d="M182.87,348.571a8.584,8.584,0,1,0,8.584,8.584A8.594,8.594,0,0,0,182.87,348.571Zm0,15.592a7.008,7.008,0,1,1,7.008-7.008A7.016,7.016,0,0,1,182.87,364.163Z" transform="translate(-155.977 -311.954)"/>
        <path id="Trazado_874104" data-name="Trazado 874104" d="M8.584,0a8.584,8.584,0,1,0,8.584,8.584A8.594,8.594,0,0,0,8.584,0Zm0,15.592a7.008,7.008,0,1,1,7.008-7.008A7.016,7.016,0,0,1,8.584,15.592Z" transform="translate(0 0)"/>
        <path id="Trazado_874105" data-name="Trazado 874105" d="M182.87,0a8.584,8.584,0,1,0,8.584,8.584A8.594,8.594,0,0,0,182.87,0Zm0,15.592a7.008,7.008,0,1,1,7.008-7.008A7.016,7.016,0,0,1,182.87,15.592Z" transform="translate(-155.977 0)"/>
        <path id="Trazado_874106" data-name="Trazado 874106" d="M8.584,174.286a8.584,8.584,0,1,0,8.584,8.584A8.594,8.594,0,0,0,8.584,174.286Zm0,15.592a7.008,7.008,0,1,1,7.008-7.008A7.016,7.016,0,0,1,8.584,189.878Z" transform="translate(0 -155.977)"/>
        <path id="Trazado_874107" data-name="Trazado 874107" d="M357.155,174.286a8.584,8.584,0,1,0,8.584,8.584A8.594,8.594,0,0,0,357.155,174.286Zm0,15.592a7.008,7.008,0,1,1,7.008-7.008A7.016,7.016,0,0,1,357.155,189.878Z" transform="translate(-311.954 -155.977)"/>
        <path id="Trazado_874108" data-name="Trazado 874108" d="M357.155,348.571a8.584,8.584,0,1,0,8.584,8.584A8.594,8.594,0,0,0,357.155,348.571Zm0,15.592a7.008,7.008,0,1,1,7.008-7.008A7.016,7.016,0,0,1,357.155,364.163Z" transform="translate(-311.954 -311.954)"/>
        <path id="Trazado_874109" data-name="Trazado 874109" d="M61.657,214.866,56.776,211.5a1.331,1.331,0,0,0-2.087,1.1v6.735a1.33,1.33,0,0,0,2.087,1.1l4.881-3.368a1.331,1.331,0,0,0,0-2.191Zm-5.392,4v-5.8l4.206,2.9Z" transform="translate(-48.944 -189.069)"/>
        <path id="Trazado_874110" data-name="Trazado 874110" d="M226.581,227.912a1.333,1.333,0,0,0,1.331-1.331v-4.809a1.333,1.333,0,0,0-1.331-1.331h-4.809a1.333,1.333,0,0,0-1.331,1.331v4.809a1.333,1.333,0,0,0,1.331,1.331Zm-4.564-5.9h4.32v4.32h-4.32Z" transform="translate(-197.284 -197.284)"/>
        <path id="Trazado_874111" data-name="Trazado 874111" d="M386.018,220.44h-1.853a1.333,1.333,0,0,0-1.331,1.331v4.809a1.333,1.333,0,0,0,1.331,1.331h1.853a1.333,1.333,0,0,0,1.331-1.331v-4.809A1.333,1.333,0,0,0,386.018,220.44Zm-.245,5.9H384.41v-4.32h1.364Z" transform="translate(-342.618 -197.283)"/>
        <path id="Trazado_874112" data-name="Trazado 874112" d="M437.938,220.44h-1.853a1.333,1.333,0,0,0-1.331,1.331v4.809a1.333,1.333,0,0,0,1.331,1.331h1.853a1.333,1.333,0,0,0,1.331-1.331v-4.809A1.333,1.333,0,0,0,437.938,220.44Zm-.245,5.9H436.33v-4.32h1.364Z" transform="translate(-389.083 -197.283)"/>
        <path id="Trazado_874113" data-name="Trazado 874113" d="M184.743,174.286a8.556,8.556,0,0,0-8.342,6.56.788.788,0,0,0,1.532.37,7.008,7.008,0,1,1,0,3.306.788.788,0,1,0-1.532.37,8.584,8.584,0,1,0,8.342-10.608Z" transform="translate(-157.851 -155.977)"/>
        <path id="Trazado_874114" data-name="Trazado 874114" d="M357.155,17.168a8.584,8.584,0,1,0-4.926-15.612.788.788,0,1,0,.905,1.289,7.005,7.005,0,1,1-2.188,2.488.788.788,0,0,0-1.4-.732,8.583,8.583,0,0,0,7.6,12.566Z" transform="translate(-311.954 0)"/>
        <path id="Trazado_874115" data-name="Trazado 874115" d="M8.584,348.571a8.593,8.593,0,0,0-4.134,1.06.788.788,0,0,0,.76,1.38,7.006,7.006,0,1,1-2.443,2.233.788.788,0,0,0-1.307-.88,8.584,8.584,0,1,0,7.123-3.793Z" transform="translate(0 -311.954)"/>
      </g>
    </g>
  </g>
</svg>
