<svg xmlns="http://www.w3.org/2000/svg" width="85" height="85" viewBox="0 0 85 85">
  <g id="_58" data-name="58" transform="translate(-285.051 -3516)">
    <circle id="Elipse_11501" data-name="Elipse 11501" cx="42.5" cy="42.5" r="42.5" transform="translate(285.051 3516)" fill="#1169e3"/>
    <g id="boton-web_1_" data-name="boton-web (1)" transform="translate(298.229 3491.249)">
      <g id="Grupo_1099949" data-name="Grupo 1099949" transform="translate(1.15 43.717)">
        <path id="Trazado_874116" data-name="Trazado 874116" d="M190.129,424.032H170.458a4.6,4.6,0,0,1,4.6-4.6H185.53A4.6,4.6,0,0,1,190.129,424.032Z" transform="translate(-152.009 -377.251)" fill="#c1b0b5"/>
        <path id="Trazado_874117" data-name="Trazado 874117" d="M10,312.481v3.495a2.3,2.3,0,0,0,2.3,2.3H64.271a2.3,2.3,0,0,0,2.3-2.3v-3.495Z" transform="translate(-10 -282.596)" fill="#c1b0b5"/>
        <path id="Trazado_874118" data-name="Trazado 874118" d="M66.57,54.867a2.3,2.3,0,0,0-2.3-2.3H12.3a2.3,2.3,0,0,0-2.3,2.3V82.452H66.57Z" transform="translate(-10 -52.567)" fill="#9de3d1"/>
        <path id="Trazado_874119" data-name="Trazado 874119" d="M217.569,362.875h8.837v6.5h-8.837Z" transform="translate(-193.703 -327.196)" fill="#c1b0b5"/>
        <path id="Trazado_874120" data-name="Trazado 874120" d="M183.553,104.056h-8.431a5.744,5.744,0,0,1,0-11.488h8.431a5.744,5.744,0,0,1,0,11.488Z" transform="translate(-151.053 -87.969)" fill="#ffda8f"/>
        <path id="Trazado_874121" data-name="Trazado 874121" d="M323.747,152.033l-.893.893a.575.575,0,0,1-.97-.294l-1.3-6.544a.512.512,0,0,1,.6-.6l6.544,1.3a.575.575,0,0,1,.294.97l-.713.713,2.642,2.642a1.15,1.15,0,0,1,0,1.626l-1.935,1.935a1.15,1.15,0,0,1-1.626,0Z" transform="translate(-284.861 -134.792)" fill="#fff"/>
      </g>
      <g id="Grupo_1099950" data-name="Grupo 1099950" transform="translate(0 42.567)">
        <path id="Trazado_874122" data-name="Trazado 874122" d="M55.42,42.567H3.449A3.453,3.453,0,0,0,0,46.016V77.1a3.453,3.453,0,0,0,3.449,3.449H23.866V84.76A5.756,5.756,0,0,0,18.449,90.5a1.15,1.15,0,0,0,1.15,1.15H39.271a1.15,1.15,0,0,0,1.15-1.15A5.756,5.756,0,0,0,35,84.76V80.546H40.8a1.15,1.15,0,1,0,0-2.3H3.449A1.151,1.151,0,0,1,2.3,77.1V74.752H56.57V77.1a1.151,1.151,0,0,1-1.15,1.15H51.273a1.15,1.15,0,1,0,0,2.3H55.42A3.453,3.453,0,0,0,58.87,77.1V46.016a3.453,3.453,0,0,0-3.449-3.449Zm-17.5,46.781H20.946a3.455,3.455,0,0,1,3.252-2.3H34.671A3.455,3.455,0,0,1,37.924,89.348Zm-5.22-8.8v4.2H26.166v-4.2ZM2.3,72.452V46.016a1.151,1.151,0,0,1,1.15-1.15H55.42a1.151,1.151,0,0,1,1.15,1.15V72.452Z" transform="translate(0 -42.567)"/>
        <path id="Trazado_874123" data-name="Trazado 874123" d="M186.273,92.794a1.725,1.725,0,0,0-.978-2.807l-3.7-.737a6.9,6.9,0,0,0-6.889-6.682h-8.43a6.894,6.894,0,1,0,0,13.787h8.43a6.9,6.9,0,0,0,3.085-.731l.31,1.558a1.725,1.725,0,0,0,2.911.882l.08-.08,1.829,1.829a2.3,2.3,0,0,0,3.252,0l1.935-1.935a2.3,2.3,0,0,0,0-3.252ZM174.7,94.055h-8.43a4.594,4.594,0,1,1,0-9.188h8.43a4.6,4.6,0,0,1,4.544,3.915l-.5-.1a1.662,1.662,0,0,0-1.955,1.955l.518,2.6A4.593,4.593,0,0,1,174.7,94.055Zm9.841,4.132L181.9,95.545a1.15,1.15,0,0,0-1.626,0l-.132.132-.907-4.553,4.555.908a1.15,1.15,0,0,0,.045,1.579l2.642,2.642Z" transform="translate(-141.054 -77.968)"/>
        <path id="Trazado_874124" data-name="Trazado 874124" d="M218.917,222.482h-8.431a1.15,1.15,0,0,0,0,2.3h8.431a1.15,1.15,0,1,0,0-2.3Z" transform="translate(-185.267 -201.795)"/>
        <path id="Trazado_874125" data-name="Trazado 874125" d="M216.421,262.482h-5.937a1.15,1.15,0,1,0,0,2.3h5.937a1.15,1.15,0,1,0,0-2.3Z" transform="translate(-185.266 -237.196)"/>
        <path id="Trazado_874126" data-name="Trazado 874126" d="M232.216,132.524h-4.46a1.15,1.15,0,1,0,0,2.3h4.46a1.15,1.15,0,1,0,0-2.3Z" transform="translate(-200.552 -122.181)"/>
        <circle id="Elipse_11530" data-name="Elipse 11530" cx="1.15" cy="1.15" r="1.15" transform="translate(44.876 35.679)"/>
      </g>
    </g>
  </g>
</svg>
