<svg xmlns="http://www.w3.org/2000/svg" xmlns:xlink="http://www.w3.org/1999/xlink" width="295" height="173.58" viewBox="0 0 295 173.58">
  <defs>
    <clipPath id="clip-path">
      <rect id="Rectángulo_39311" data-name="Rectángulo 39311" width="194.04" height="169.1" transform="translate(0 0)" fill="none"/>
    </clipPath>
  </defs>
  <g id="_61" data-name="61" transform="translate(-1125.051 -3489)">
    <rect id="Rectángulo_401653" data-name="Rectángulo 401653" width="295" height="126" rx="8" transform="translate(1125.051 3489)" fill="#e6fbee"/>
    <g id="Grupo_1099860" data-name="Grupo 1099860" transform="translate(1175.051 3493.476)">
      <g id="Grupo_143425" data-name="Grupo 143425" transform="translate(0 0.004)" clip-path="url(#clip-path)">
        <path id="Trazado_159849" data-name="Trazado 159849" d="M689.55,170.459h82.637a3.058,3.058,0,0,1,3.058,3.058v146.25a3.058,3.058,0,0,1-3.058,3.058H689.55a3.058,3.058,0,0,1-3.058-3.058V173.517a3.058,3.058,0,0,1,3.058-3.058" transform="translate(-619.653 -153.863)" fill="#fff"/>
        <path id="Rectángulo_39295" data-name="Rectángulo 39295" d="M1.774-1.422H84.411a3.194,3.194,0,0,1,3.2,3.2v146.25a3.194,3.194,0,0,1-3.2,3.2H1.774a3.194,3.194,0,0,1-3.2-3.2V1.774a3.194,3.194,0,0,1,3.2-3.2ZM84.411,150.943a2.917,2.917,0,0,0,2.919-2.919V1.774a2.917,2.917,0,0,0-2.919-2.919H1.774A2.917,2.917,0,0,0-1.145,1.774v146.25a2.917,2.917,0,0,0,2.919,2.919Z" transform="translate(68.123 17.88)" fill="#231f1f"/>
        <path id="Trazado_159850" data-name="Trazado 159850" d="M715.4,197.483h77.463a3.058,3.058,0,0,1,3.058,3.058V341.528a3.058,3.058,0,0,1-3.058,3.058H715.4a3.058,3.058,0,0,1-3.058-3.058V200.541a3.058,3.058,0,0,1,3.058-3.058" transform="translate(-642.986 -178.256)" fill="#1169e3"/>
        <path id="Rectángulo_39296" data-name="Rectángulo 39296" d="M1.774-1.422H79.237a3.194,3.194,0,0,1,3.2,3.2V142.762a3.194,3.194,0,0,1-3.2,3.2H1.774a3.194,3.194,0,0,1-3.2-3.2V1.774a3.194,3.194,0,0,1,3.2-3.2Zm77.462,147.1a2.917,2.917,0,0,0,2.919-2.919V1.774a2.917,2.917,0,0,0-2.919-2.919H1.774A2.917,2.917,0,0,0-1.145,1.774V142.762a2.917,2.917,0,0,0,2.919,2.919Z" transform="translate(70.64 20.511)" fill="#231f1f"/>
        <path id="Trazado_159851" data-name="Trazado 159851" d="M1119.985,240.294a.729.729,0,1,1-.729-.729.729.729,0,0,1,.729.729" transform="translate(-1009.623 -216.24)" fill="#f4780e"/>
        <path id="Trazado_159852" data-name="Trazado 159852" d="M596.962,88.211H679.6a3.058,3.058,0,0,1,3.058,3.058v146.25a3.058,3.058,0,0,1-3.058,3.058H596.962a3.058,3.058,0,0,1-3.058-3.058V91.269a3.058,3.058,0,0,1,3.058-3.058" transform="translate(-536.079 -79.623)" fill="#fff"/>
        <path id="Rectángulo_39297" data-name="Rectángulo 39297" d="M1.774-1.422H84.411a3.194,3.194,0,0,1,3.2,3.2v146.25a3.194,3.194,0,0,1-3.2,3.2H1.774a3.194,3.194,0,0,1-3.2-3.2V1.774a3.194,3.194,0,0,1,3.2-3.2ZM84.411,150.943a2.917,2.917,0,0,0,2.919-2.919V1.774a2.917,2.917,0,0,0-2.919-2.919H1.774A2.917,2.917,0,0,0-1.145,1.774v146.25a2.917,2.917,0,0,0,2.919,2.919Z" transform="translate(59.108 9.872)" fill="#231f1f"/>
        <path id="Trazado_159853" data-name="Trazado 159853" d="M622.812,115.234h77.463a3.058,3.058,0,0,1,3.058,3.058V259.279a3.058,3.058,0,0,1-3.058,3.058H622.812a3.058,3.058,0,0,1-3.058-3.058V118.292a3.058,3.058,0,0,1,3.058-3.058" transform="translate(-559.412 -104.015)" fill="#f4780e"/>
        <path id="Rectángulo_39298" data-name="Rectángulo 39298" d="M1.774-1.422H79.237a3.194,3.194,0,0,1,3.2,3.2V142.762a3.194,3.194,0,0,1-3.2,3.2H1.774a3.194,3.194,0,0,1-3.2-3.2V1.774a3.194,3.194,0,0,1,3.2-3.2Zm77.462,147.1a2.917,2.917,0,0,0,2.919-2.919V1.774a2.917,2.917,0,0,0-2.919-2.919H1.774A2.917,2.917,0,0,0-1.145,1.774V142.762a2.917,2.917,0,0,0,2.919,2.919Z" transform="translate(61.625 12.503)" fill="#231f1f"/>
        <path id="Trazado_159854" data-name="Trazado 159854" d="M1027.4,158.046a.729.729,0,1,1-.729-.729.729.729,0,0,1,.729.729" transform="translate(-926.051 -142)" fill="#f4780e"/>
        <path id="Trazado_159855" data-name="Trazado 159855" d="M65.4,569.854v41.891a2.5,2.5,0,0,1-2.562,2.425H2.562A2.5,2.5,0,0,1,0,611.745V569.854a2.5,2.5,0,0,1,2.562-2.425h60.28a2.5,2.5,0,0,1,2.562,2.425" transform="translate(0 -512.182)" fill="#fff"/>
        <path id="Trazado_159856" data-name="Trazado 159856" d="M65.4,569.854v4.53H0v-4.53a2.5,2.5,0,0,1,2.562-2.425h60.28a2.5,2.5,0,0,1,2.562,2.425" transform="translate(0 -512.182)" fill="#f4780e"/>
        <path id="Trazado_159857" data-name="Trazado 159857" d="M609.526,592.9a1.093,1.093,0,1,1-1.093-1.1,1.1,1.1,0,0,1,1.093,1.1" transform="translate(-548.207 -534.18)" fill="#fff"/>
        <path id="Trazado_159858" data-name="Trazado 159858" d="M565.854,592.9a1.093,1.093,0,1,1-1.093-1.1,1.1,1.1,0,0,1,1.093,1.1" transform="translate(-508.787 -534.18)" fill="#fff"/>
        <path id="Trazado_159859" data-name="Trazado 159859" d="M519.191,592.9a1.093,1.093,0,1,1-1.093-1.1,1.1,1.1,0,0,1,1.093,1.1" transform="translate(-466.667 -534.18)" fill="#fff"/>
        <path id="Trazado_159860" data-name="Trazado 159860" d="M134.952,875.693H89.531c-1.526,0-2.818-1.656-3.03-3.881-.258-2.71,1.171-5.13,3.03-5.13h45.421c1.858,0,3.287,2.42,3.03,5.13-.212,2.225-1.5,3.881-3.03,3.881" transform="translate(-78.052 -782.299)" fill="#fff"/>
        <path id="Trazado_159861" data-name="Trazado 159861" d="M133.659,874.537H88.238a2.343,2.343,0,0,1-1.156-.311,3.246,3.246,0,0,1-.962-.848,4.752,4.752,0,0,1-.695-1.267,6.2,6.2,0,0,1-.356-1.581,6.6,6.6,0,0,1,.223-2.457,4.828,4.828,0,0,1,1.015-1.89,3.038,3.038,0,0,1,.886-.686,2.327,2.327,0,0,1,1.044-.251h45.421a2.326,2.326,0,0,1,1.044.251,3.037,3.037,0,0,1,.886.686,4.827,4.827,0,0,1,1.015,1.89,6.6,6.6,0,0,1,.223,2.457,6.2,6.2,0,0,1-.356,1.581,4.752,4.752,0,0,1-.695,1.267,3.246,3.246,0,0,1-.962.848A2.343,2.343,0,0,1,133.659,874.537Zm-45.421-9.011a2.331,2.331,0,0,0-1.724.845,4.548,4.548,0,0,0-.954,1.78,6.319,6.319,0,0,0-.213,2.352,5.232,5.232,0,0,0,.993,2.7,2.967,2.967,0,0,0,.878.777,2.067,2.067,0,0,0,1.019.276h45.421a2.067,2.067,0,0,0,1.019-.276,2.967,2.967,0,0,0,.878-.777,5.233,5.233,0,0,0,.993-2.7,6.32,6.32,0,0,0-.213-2.352,4.548,4.548,0,0,0-.954-1.78,2.33,2.33,0,0,0-1.724-.845Z" transform="translate(-76.759 -781.003)" fill="#231f1f"/>
        <path id="Trazado_159862" data-name="Trazado 159862" d="M145.675,901.688a1.061,1.061,0,1,1-1.061-1.061,1.061,1.061,0,0,1,1.061,1.061" transform="translate(-129.576 -812.939)" fill="#f4780e"/>
        <path id="Trazado_159863" data-name="Trazado 159863" d="M187.843,901.688a1.061,1.061,0,1,1-1.061-1.061,1.061,1.061,0,0,1,1.061,1.061" transform="translate(-167.638 -812.939)" fill="#f4780e"/>
        <path id="Trazado_159864" data-name="Trazado 159864" d="M230.011,901.688a1.061,1.061,0,1,1-1.061-1.061,1.061,1.061,0,0,1,1.061,1.061" transform="translate(-205.701 -812.939)" fill="#f4780e"/>
        <path id="Trazado_159865" data-name="Trazado 159865" d="M272.179,901.688a1.061,1.061,0,1,1-1.061-1.061,1.061,1.061,0,0,1,1.061,1.061" transform="translate(-243.763 -812.939)" fill="#f4780e"/>
        <path id="Trazado_159866" data-name="Trazado 159866" d="M314.347,901.688a1.061,1.061,0,1,1-1.061-1.061,1.061,1.061,0,0,1,1.061,1.061" transform="translate(-281.826 -812.939)" fill="#f4780e"/>
        <path id="Trazado_159867" data-name="Trazado 159867" d="M356.515,901.688a1.061,1.061,0,1,1-1.061-1.061,1.061,1.061,0,0,1,1.061,1.061" transform="translate(-319.888 -812.939)" fill="#f4780e"/>
        <path id="Trazado_159868" data-name="Trazado 159868" d="M398.683,901.688a1.061,1.061,0,1,1-1.061-1.061,1.061,1.061,0,0,1,1.061,1.061" transform="translate(-357.95 -812.939)" fill="#f4780e"/>
        <path id="Trazado_159869" data-name="Trazado 159869" d="M440.851,901.688a1.061,1.061,0,1,1-1.061-1.061,1.061,1.061,0,0,1,1.061,1.061" transform="translate(-396.013 -812.939)" fill="#f4780e"/>
        <path id="Trazado_159870" data-name="Trazado 159870" d="M483.019,901.688a1.061,1.061,0,1,1-1.061-1.061,1.061,1.061,0,0,1,1.061,1.061" transform="translate(-434.075 -812.939)" fill="#f4780e"/>
        <path id="Trazado_159871" data-name="Trazado 159871" d="M525.187,901.688a1.061,1.061,0,1,1-1.061-1.061,1.061,1.061,0,0,1,1.061,1.061" transform="translate(-472.137 -812.939)" fill="#f4780e"/>
        <path id="Trazado_159872" data-name="Trazado 159872" d="M301.3,749.747h-6.57a2.319,2.319,0,0,1-2.321-2.321v-7.138a.175.175,0,0,1,.176-.176h10.861a.176.176,0,0,1,.176.176v7.138a2.319,2.319,0,0,1-2.321,2.321Zm-8.54-9.284v6.963a1.968,1.968,0,0,0,1.97,1.97h6.57a1.968,1.968,0,0,0,1.97-1.97v-6.963Z" transform="translate(-263.942 -668.052)" fill="#f4780e"/>
        <path id="Trazado_159873" data-name="Trazado 159873" d="M292.588,680.83a.176.176,0,0,1-.176-.176v-3.469a3.136,3.136,0,0,1,3.138-3.138h4.935a3.136,3.136,0,0,1,3.138,3.138.176.176,0,0,1-.351,0,2.785,2.785,0,0,0-2.787-2.787H295.55a2.785,2.785,0,0,0-2.787,2.787v3.469A.176.176,0,0,1,292.588,680.83Z" transform="translate(-263.942 -608.42)" fill="#f4780e"/>
        <path id="Trazado_159874" data-name="Trazado 159874" d="M340.6,769a1.135,1.135,0,1,0-1.9.841V772.1h1.525v-2.253A1.133,1.133,0,0,0,340.6,769" transform="translate(-305.385 -693.105)" fill="#f4780e"/>
        <path id="Trazado_159875" data-name="Trazado 159875" d="M1386.592,598.778v41.891a2.5,2.5,0,0,1-2.562,2.425h-60.28a2.5,2.5,0,0,1-2.562-2.425V598.778a2.5,2.5,0,0,1,2.562-2.425h60.28a2.5,2.5,0,0,1,2.562,2.425" transform="translate(-1192.552 -538.29)" fill="#fff"/>
        <path id="Trazado_159876" data-name="Trazado 159876" d="M1386.592,598.778v4.53h-65.4v-4.53a2.5,2.5,0,0,1,2.562-2.425h60.28a2.5,2.5,0,0,1,2.562,2.425" transform="translate(-1192.552 -538.29)" fill="#f4780e"/>
        <path id="Trazado_159877" data-name="Trazado 159877" d="M1930.715,621.829a1.093,1.093,0,1,1-1.093-1.1,1.1,1.1,0,0,1,1.093,1.1" transform="translate(-1740.76 -560.288)" fill="#fff"/>
        <path id="Trazado_159878" data-name="Trazado 159878" d="M1887.043,621.829a1.093,1.093,0,1,1-1.093-1.1,1.1,1.1,0,0,1,1.093,1.1" transform="translate(-1701.34 -560.288)" fill="#fff"/>
        <path id="Trazado_159879" data-name="Trazado 159879" d="M1840.379,621.829a1.093,1.093,0,1,1-1.093-1.1,1.1,1.1,0,0,1,1.093,1.1" transform="translate(-1659.219 -560.288)" fill="#fff"/>
        <path id="Trazado_159880" data-name="Trazado 159880" d="M486.15,1.426h82.637a3.058,3.058,0,0,1,3.058,3.058v146.25a3.058,3.058,0,0,1-3.058,3.058H486.15a3.058,3.058,0,0,1-3.058-3.058V4.484a3.058,3.058,0,0,1,3.058-3.058" transform="translate(-436.056 -1.288)" fill="#fff"/>
        <path id="Rectángulo_39299" data-name="Rectángulo 39299" d="M1.774-1.422H84.411a3.194,3.194,0,0,1,3.2,3.2v146.25a3.194,3.194,0,0,1-3.2,3.2H1.774a3.194,3.194,0,0,1-3.2-3.2V1.774a3.194,3.194,0,0,1,3.2-3.2ZM84.411,150.943a2.917,2.917,0,0,0,2.919-2.919V1.774a2.917,2.917,0,0,0-2.919-2.919H1.774A2.917,2.917,0,0,0-1.145,1.774v146.25a2.917,2.917,0,0,0,2.919,2.919Z" transform="translate(48.319 1.422)" fill="#231f1f"/>
        <path id="Trazado_159881" data-name="Trazado 159881" d="M512,28.45h77.463a3.058,3.058,0,0,1,3.058,3.058V172.5a3.058,3.058,0,0,1-3.058,3.058H512a3.058,3.058,0,0,1-3.058-3.058V31.508A3.058,3.058,0,0,1,512,28.45" transform="translate(-459.39 -25.68)" fill="#fff"/>
        <path id="Rectángulo_39300" data-name="Rectángulo 39300" d="M1.774-1.422H79.237a3.194,3.194,0,0,1,3.2,3.2V142.762a3.194,3.194,0,0,1-3.2,3.2H1.774a3.194,3.194,0,0,1-3.2-3.2V1.774a3.194,3.194,0,0,1,3.2-3.2Zm77.462,147.1a2.917,2.917,0,0,0,2.919-2.919V1.774a2.917,2.917,0,0,0-2.919-2.919H1.774A2.917,2.917,0,0,0-1.145,1.774V142.762a2.917,2.917,0,0,0,2.919,2.919Z" transform="translate(50.836 4.053)" fill="#231f1f"/>
        <path id="Trazado_159882" data-name="Trazado 159882" d="M932.838,71.261a.729.729,0,1,1-.729-.729.729.729,0,0,1,.729.729" transform="translate(-840.697 -63.665)" fill="#f4780e"/>
        <path id="Trazado_159883" data-name="Trazado 159883" d="M1044.478,795.418v58.869a1.229,1.229,0,0,1-1.229,1.229H970.795a1.229,1.229,0,0,1-1.229-1.229V795.418a1.229,1.229,0,0,1,1.229-1.229h72.455a1.229,1.229,0,0,1,1.229,1.229" transform="translate(-875.165 -716.864)" fill="#fff"/>
        <path id="Rectángulo_39301" data-name="Rectángulo 39301" d="M-.067-1.435H72.388a1.36,1.36,0,0,1,.968.4,1.36,1.36,0,0,1,.4.968V58.8a1.368,1.368,0,0,1-1.368,1.368H-.067a1.36,1.36,0,0,1-.968-.4,1.36,1.36,0,0,1-.4-.968V-.067a1.36,1.36,0,0,1,.4-.968A1.36,1.36,0,0,1-.067-1.435ZM72.388,59.891A1.089,1.089,0,0,0,73.477,58.8V-.067a1.082,1.082,0,0,0-.319-.77,1.082,1.082,0,0,0-.77-.319H-.067a1.082,1.082,0,0,0-.77.319,1.082,1.082,0,0,0-.319.77V58.8a1.082,1.082,0,0,0,.319.77,1.082,1.082,0,0,0,.77.319Z" transform="translate(95.696 78.62)" fill="#231f1f"/>
        <path id="Trazado_159884" data-name="Trazado 159884" d="M1049.681,1036.486l9.849-13.807a4.2,4.2,0,0,1,6.537-.571l12.08,12.307,12.086-21.271a4.267,4.267,0,0,1,7.725.313l11.035,23.028Z" transform="translate(-947.48 -912.421)" fill="#fff"/>
        <path id="Trazado_159885" data-name="Trazado 159885" d="M1267.082,968.483a4.569,4.569,0,1,1-4.569-4.569,4.569,4.569,0,0,1,4.569,4.569" transform="translate(-1135.466 -870.064)" fill="#fff"/>
        <path id="Trazado_159886" data-name="Trazado 159886" d="M1107.7,1035.33h-59.312a.14.14,0,0,1-.114-.221l9.849-13.807a4.889,4.889,0,0,1,.758-.84,4.528,4.528,0,0,1,.884-.606,4.34,4.34,0,0,1,.969-.367,4.248,4.248,0,0,1,1.013-.123,4.368,4.368,0,0,1,3.126,1.348l11.951,12.175,11.994-21.11a5.07,5.07,0,0,1,.778-1.041,4.534,4.534,0,0,1,.947-.743,4.292,4.292,0,0,1,4.5.087,4.589,4.589,0,0,1,.983.844,5.146,5.146,0,0,1,.77,1.173l11.035,23.028a.14.14,0,0,1-.126.2Zm-59.041-.28h58.819l-10.939-22.828a4.864,4.864,0,0,0-.727-1.11,4.314,4.314,0,0,0-.922-.793,4.013,4.013,0,0,0-4.2-.082,4.257,4.257,0,0,0-.889.7,4.785,4.785,0,0,0-.735.983l-12.086,21.271a.14.14,0,0,1-.221.029l-12.08-12.307a4.259,4.259,0,0,0-1.386-.951,3.951,3.951,0,0,0-2.487-.2,4.058,4.058,0,0,0-.906.343,4.242,4.242,0,0,0-.829.568,4.6,4.6,0,0,0-.714.792Z" transform="translate(-946.184 -911.125)" fill="#231f1f"/>
        <path id="Trazado_159887" data-name="Trazado 159887" d="M1261.217,971.9a4.694,4.694,0,1,1,1.833-.37A4.68,4.68,0,0,1,1261.217,971.9Zm0-9.138a4.415,4.415,0,1,0,1.724.348A4.4,4.4,0,0,0,1261.217,962.758Z" transform="translate(-1134.17 -868.768)" fill="#231f1f"/>
        <path id="Elipse_5467" data-name="Elipse 5467" d="M3.807,0A3.808,3.808,0,0,1,5.289,7.315,3.808,3.808,0,0,1,2.325.3,3.783,3.783,0,0,1,3.807,0Zm0,7.334A3.528,3.528,0,0,0,5.18.557a3.528,3.528,0,0,0-2.746,6.5A3.505,3.505,0,0,0,3.807,7.334Z" transform="translate(156.539 82.845) rotate(-22.5)" fill="#231f1f"/>
        <path id="Línea_995" data-name="Línea 995" d="M-1.3,3.126a.14.14,0,0,1-.14-.14V-1.3a.14.14,0,0,1,.14-.14.14.14,0,0,1,.14.14V2.986A.14.14,0,0,1-1.3,3.126Z" transform="translate(162.809 83.982)" fill="#231f1f"/>
        <path id="Línea_996" data-name="Línea 996" d="M2.986-1.156H-1.3a.14.14,0,0,1-.14-.14.14.14,0,0,1,.14-.14H2.986a.14.14,0,0,1,.14.14A.14.14,0,0,1,2.986-1.156Z" transform="translate(160.667 86.123)" fill="#231f1f"/>
        <path id="Trazado_159888" data-name="Trazado 159888" d="M338.216,983.29v24.357c0,.6-.7,1.092-1.558,1.092h-56.29c-.861,0-1.559-.489-1.559-1.092V983.29c0-.6.7-1.093,1.559-1.093h56.29c.86,0,1.558.489,1.558,1.093" transform="translate(-251.663 -886.567)" fill="#fff"/>
        <path id="Trazado_159889" data-name="Trazado 159889" d="M279.072,980.761h56.29a2.071,2.071,0,0,1,1.182.345,1.3,1.3,0,0,1,.373.39.952.952,0,0,1,.143.5v24.358a.951.951,0,0,1-.143.5,1.3,1.3,0,0,1-.374.389,2.072,2.072,0,0,1-1.182.345h-56.29a2.073,2.073,0,0,1-1.182-.345,1.3,1.3,0,0,1-.374-.389.952.952,0,0,1-.143-.5V981.994a.952.952,0,0,1,.143-.5,1.3,1.3,0,0,1,.374-.39A2.073,2.073,0,0,1,279.072,980.761Zm56.29,26.542a1.792,1.792,0,0,0,1.022-.294.821.821,0,0,0,.4-.658V981.994a.822.822,0,0,0-.4-.658,1.791,1.791,0,0,0-1.022-.295h-56.29a1.792,1.792,0,0,0-1.022.295.822.822,0,0,0-.4.658v24.358a.821.821,0,0,0,.4.658,1.793,1.793,0,0,0,1.022.294Z" transform="translate(-250.367 -885.271)" fill="#231f1f"/>
        <path id="Trazado_159890" data-name="Trazado 159890" d="M338.216,983.29v3.78H278.809v-3.78c0-.6.7-1.093,1.559-1.093h56.29c.86,0,1.558.489,1.558,1.093" transform="translate(-251.663 -886.567)" fill="#f4780e"/>
        <path id="Trazado_159891" data-name="Trazado 159891" d="M849.72,1004.428a.6.6,0,1,1-.6-.6.6.6,0,0,1,.6.6" transform="translate(-765.911 -906.095)" fill="#fff"/>
        <path id="Trazado_159892" data-name="Trazado 159892" d="M793.438,1004.428a.6.6,0,1,1-.6-.6.6.6,0,0,1,.6.6" transform="translate(-715.109 -906.095)" fill="#fff"/>
        <path id="Trazado_159893" data-name="Trazado 159893" d="M821.579,1004.428a.6.6,0,1,1-.6-.6.6.6,0,0,1,.6.6" transform="translate(-740.51 -906.095)" fill="#fff"/>
        <path id="Trazado_159894" data-name="Trazado 159894" d="M329.115,1072.057a7.157,7.157,0,1,1-7.157-7.157,7.157,7.157,0,0,1,7.157,7.157" transform="translate(-284.15 -961.218)" fill="#f4780e"/>
        <path id="Trazado_159895" data-name="Trazado 159895" d="M373.513,1099.364a1.789,1.789,0,1,1-1.789-1.789,1.789,1.789,0,0,1,1.789,1.789" transform="translate(-333.916 -990.711)" fill="#fff"/>
        <path id="Trazado_159896" data-name="Trazado 159896" d="M359.131,1139.863a3.578,3.578,0,0,0-7.057,0Z" transform="translate(-317.795 -1026.19)" fill="#fff"/>
        <rect id="Rectángulo_39302" data-name="Rectángulo 39302" width="35.042" height="1.152" transform="translate(48.096 104.428)" fill="#f4780e"/>
        <rect id="Rectángulo_39303" data-name="Rectángulo 39303" width="35.042" height="1.152" transform="translate(48.096 108.541)" fill="#f4780e"/>
        <rect id="Rectángulo_39304" data-name="Rectángulo 39304" width="5.331" height="1.152" transform="translate(48.096 117.218)" fill="#f4780e"/>
        <rect id="Rectángulo_39305" data-name="Rectángulo 39305" width="5.331" height="1.152" transform="translate(54.881 117.218)" fill="#f4780e"/>
        <rect id="Rectángulo_39306" data-name="Rectángulo 39306" width="3.691" height="1.152" transform="translate(79.335 117.218)" fill="#f4780e"/>
        <rect id="Rectángulo_39307" data-name="Rectángulo 39307" width="15.955" height="1.152" transform="translate(62.001 117.218)" fill="#f4780e"/>
        <rect id="Rectángulo_39308" data-name="Rectángulo 39308" width="11.072" height="1.152" transform="translate(48.096 112.818)" fill="#f4780e"/>
        <rect id="Rectángulo_39309" data-name="Rectángulo 39309" width="14.389" height="1.152" transform="translate(60.473 112.818)" fill="#f4780e"/>
        <rect id="Rectángulo_39310" data-name="Rectángulo 39310" width="6.747" height="1.152" transform="translate(76.204 112.818)" fill="#f4780e"/>
        <path id="Trazado_159897" data-name="Trazado 159897" d="M573.478,71.759l-5.153-4.265-2.865,6.044-1.206-6.579-6.08,2.788,3.3-5.815-6.45-1.772,6.27-2.33-3.8-5.5,6.3,2.245.625-6.659,3.384,5.77,4.76-4.7-1.117,6.595,6.667-.54-5.095,4.334,5.454,3.872-6.689.045Z" transform="translate(-500.988 -45.051)" fill="#fff"/>
        <path id="Trazado_159898" data-name="Trazado 159898" d="M564.163,72.382h-.018a.14.14,0,0,1-.119-.113l-1.174-6.4-5.917,2.713a.14.14,0,0,1-.18-.2l3.216-5.659L553.695,61a.14.14,0,0,1-.012-.266l6.1-2.268-3.7-5.356a.14.14,0,0,1,.162-.211l6.132,2.185.609-6.481a.14.14,0,0,1,.26-.058l3.293,5.615,4.632-4.573a.14.14,0,0,1,.236.123l-1.087,6.418,6.488-.526a.14.14,0,0,1,.1.246l-4.958,4.218,5.308,3.768a.14.14,0,0,1-.08.254l-6.509.044,1.644,6.3a.14.14,0,0,1-.224.143l-5.015-4.15L564.289,72.3A.14.14,0,0,1,564.163,72.382Zm-1.206-6.859a.14.14,0,0,1,.138.115l1.128,6.153,2.68-5.652a.14.14,0,0,1,.215-.048l4.819,3.988-1.58-6.053a.14.14,0,0,1,.134-.175l6.255-.043-5.1-3.621a.14.14,0,0,1-.01-.22l4.765-4.053-6.235.505a.14.14,0,0,1-.149-.163l1.044-6.168-4.452,4.395a.14.14,0,0,1-.219-.029l-3.164-5.4-.585,6.228a.14.14,0,0,1-.186.119l-5.893-2.1,3.555,5.147a.14.14,0,0,1-.066.21l-5.864,2.179,6.032,1.658a.14.14,0,0,1,.084.2l-3.091,5.439,5.686-2.607A.14.14,0,0,1,562.957,65.523Z" transform="translate(-499.692 -43.756)" fill="#231f1f"/>
        <path id="Trazado_159899" data-name="Trazado 159899" d="M556.45,1292.737a4.653,4.653,0,0,0-2.336.668,6.2,6.2,0,0,0-2.145,7.857c.636,1.361,1.362,2.911,2.158,4.607a13.711,13.711,0,0,0,4.882,5.733,11.628,11.628,0,0,0,6.372,1.9h.1a11.6,11.6,0,0,0,6.257-1.939,13.638,13.638,0,0,0,4.825-5.763,2.265,2.265,0,0,1,1.972-1.435,2.21,2.21,0,0,1,2.1,1.2l1.612,2.749a13.33,13.33,0,0,0,5.042,5,11.511,11.511,0,0,0,6.186,1.41,11.691,11.691,0,0,0,6.018-2.112,13.724,13.724,0,0,0,4.54-5.551l.754-1.64a2.265,2.265,0,0,1,1.97-1.431,2.21,2.21,0,0,1,2.1,1.192l3.923,6.656a4.8,4.8,0,0,0,7.141,1.634,6.291,6.291,0,0,0,1.425-8.065l-3.923-6.656a13.321,13.321,0,0,0-5.045-4.983,11.511,11.511,0,0,0-6.182-1.4,11.692,11.692,0,0,0-6.011,2.116,13.727,13.727,0,0,0-4.534,5.547l-.754,1.64a2.263,2.263,0,0,1-1.972,1.431,2.211,2.211,0,0,1-2.1-1.2l-1.612-2.749a13.328,13.328,0,0,0-5.047-5,11.5,11.5,0,0,0-6.191-1.407,11.693,11.693,0,0,0-6.021,2.121,13.73,13.73,0,0,0-4.537,5.563,2.248,2.248,0,0,1-4.19.012c-.793-1.689-1.516-3.232-2.148-4.587a5.111,5.111,0,0,0-4.623-3.114" transform="translate(-497.688 -1166.517)" fill="#fff"/>
        <path id="Trazado_159900" data-name="Trazado 159900" d="M605.551,1290.908a11.557,11.557,0,0,1,2.87.363,11.844,11.844,0,0,1,2.719,1.072,13.464,13.464,0,0,1,5.1,5.035l3.923,6.656a6.38,6.38,0,0,1,.793,2.188,6.681,6.681,0,0,1-.01,2.278,6.551,6.551,0,0,1-.291,1.091,6.218,6.218,0,0,1-.475,1.016,5.619,5.619,0,0,1-1.479,1.674,4.844,4.844,0,0,1-2.922,1,4.755,4.755,0,0,1-1.273-.175,4.966,4.966,0,0,1-1.2-.514,5.321,5.321,0,0,1-1.069-.838,5.864,5.864,0,0,1-.879-1.147l-3.923-6.656a2.286,2.286,0,0,0-.951-.924,2.008,2.008,0,0,0-.892-.2c-.042,0-.084,0-.125,0a2.092,2.092,0,0,0-.91.268,2.32,2.32,0,0,0-.941,1.083l-.754,1.639a13.86,13.86,0,0,1-4.587,5.608,11.829,11.829,0,0,1-6.091,2.137c-.217.013-.438.019-.655.019a11.543,11.543,0,0,1-2.879-.366,11.848,11.848,0,0,1-2.726-1.079,13.471,13.471,0,0,1-5.1-5.052l-1.612-2.749a2.286,2.286,0,0,0-.951-.928,2.006,2.006,0,0,0-.894-.2c-.042,0-.084,0-.125,0a2.092,2.092,0,0,0-.911.268,2.318,2.318,0,0,0-.942,1.086,13.775,13.775,0,0,1-4.875,5.822,11.744,11.744,0,0,1-6.332,1.962h-.132a11.773,11.773,0,0,1-6.413-1.922,13.851,13.851,0,0,1-4.932-5.791c-.817-1.741-1.543-3.291-2.158-4.607a6.509,6.509,0,0,1-.592-2.266,6.653,6.653,0,0,1,.215-2.265,6.412,6.412,0,0,1,.388-1.052,6.04,6.04,0,0,1,.564-.957,5.422,5.422,0,0,1,1.624-1.5,4.947,4.947,0,0,1,1.185-.511,4.708,4.708,0,0,1,1.22-.176h.054a4.874,4.874,0,0,1,2.71.838,5.436,5.436,0,0,1,1.123,1,6.025,6.025,0,0,1,.865,1.354c.621,1.33,1.344,2.873,2.148,4.587a2.315,2.315,0,0,0,1,1.113,2.092,2.092,0,0,0,.966.232h.007a2.1,2.1,0,0,0,.966-.236,2.3,2.3,0,0,0,1-1.121,13.87,13.87,0,0,1,4.584-5.619,11.829,11.829,0,0,1,6.093-2.146c.221-.013.446-.02.668-.02a11.537,11.537,0,0,1,2.875.366,11.855,11.855,0,0,1,2.723,1.077,13.468,13.468,0,0,1,5.1,5.054l1.612,2.749a2.286,2.286,0,0,0,.952.928,2.01,2.01,0,0,0,.894.2c.041,0,.082,0,.122,0a2.092,2.092,0,0,0,.911-.267,2.32,2.32,0,0,0,.943-1.084l.754-1.639a13.867,13.867,0,0,1,4.581-5.6,11.83,11.83,0,0,1,6.083-2.141C605.1,1290.915,605.329,1290.908,605.551,1290.908ZM615.777,1313a4.565,4.565,0,0,0,2.755-.942,5.339,5.339,0,0,0,1.406-1.591,6.082,6.082,0,0,0,.732-2.015,6.4,6.4,0,0,0,.009-2.183,6.1,6.1,0,0,0-.758-2.093L616,1297.52a13.183,13.183,0,0,0-4.992-4.931,11.567,11.567,0,0,0-2.654-1.047,11.278,11.278,0,0,0-2.8-.355c-.217,0-.436.006-.652.019a11.55,11.55,0,0,0-5.939,2.091,13.587,13.587,0,0,0-4.487,5.491l-.754,1.639a2.591,2.591,0,0,1-1.058,1.21,2.371,2.371,0,0,1-1.033.3c-.046,0-.092,0-.138,0a2.287,2.287,0,0,1-1.018-.233,2.558,2.558,0,0,1-1.07-1.037l-1.612-2.749a13.189,13.189,0,0,0-4.994-4.95,11.574,11.574,0,0,0-2.659-1.052,11.258,11.258,0,0,0-2.806-.357c-.216,0-.436.006-.652.019a11.551,11.551,0,0,0-5.949,2.1,13.59,13.59,0,0,0-4.49,5.507,2.572,2.572,0,0,1-1.119,1.251,2.377,2.377,0,0,1-1.1.269h-.008a2.374,2.374,0,0,1-1.1-.264,2.589,2.589,0,0,1-1.126-1.242c-.8-1.714-1.527-3.257-2.149-4.588a5.748,5.748,0,0,0-.824-1.291,5.165,5.165,0,0,0-1.065-.952,4.6,4.6,0,0,0-2.555-.791h-.051a4.422,4.422,0,0,0-1.148.166,4.669,4.669,0,0,0-1.118.483,5.14,5.14,0,0,0-1.541,1.42,5.915,5.915,0,0,0-.909,1.919,6.373,6.373,0,0,0-.206,2.17,6.233,6.233,0,0,0,.566,2.169c.614,1.315,1.34,2.865,2.158,4.607a13.571,13.571,0,0,0,4.831,5.675,11.493,11.493,0,0,0,6.261,1.878h.129a11.466,11.466,0,0,0,6.182-1.916,13.5,13.5,0,0,0,4.774-5.7,2.594,2.594,0,0,1,1.057-1.212,2.375,2.375,0,0,1,1.034-.3c.047,0,.094,0,.141,0a2.283,2.283,0,0,1,1.017.233,2.56,2.56,0,0,1,1.069,1.037l1.612,2.749a13.193,13.193,0,0,0,4.989,4.948,11.571,11.571,0,0,0,2.662,1.054,11.274,11.274,0,0,0,2.81.357c.212,0,.427-.006.639-.018a11.552,11.552,0,0,0,5.947-2.088,13.585,13.585,0,0,0,4.494-5.5l.754-1.639a2.59,2.59,0,0,1,1.057-1.209,2.37,2.37,0,0,1,1.032-.3c.047,0,.094,0,.141,0a2.283,2.283,0,0,1,1.015.232,2.558,2.558,0,0,1,1.069,1.033l3.923,6.656a5.575,5.575,0,0,0,.836,1.092,5.039,5.039,0,0,0,1.013.794A4.584,4.584,0,0,0,615.777,1313Z" transform="translate(-496.39 -1165.221)" fill="#231f1f"/>
        <path id="Trazado_159901" data-name="Trazado 159901" d="M285.327,303.17a22.444,22.444,0,0,0,20.756,7.193,18.5,18.5,0,0,1,3.4-.524,13.069,13.069,0,0,1,5.178,1.464l4.249,1.868c1.8.792,3.816,1.6,5.679.962a2.4,2.4,0,0,0,1.608-1.86c.076-1.066-.952-1.43-1.691-1.955-2.491-1.77-4.973-3.533-7.562-5.16a121.027,121.027,0,0,0-16.181-8.535,9.957,9.957,0,0,0-6.411-.9,16.588,16.588,0,0,0-6.465,3.092c-1.371,1.013-2.752,2.662-2.556,4.355" transform="translate(-257.53 -266.753)" fill="#f49a89"/>
        <path id="Trazado_159902" data-name="Trazado 159902" d="M294.948,294.09h0a9.1,9.1,0,0,1,2.273.295,15.056,15.056,0,0,1,2.3.814c2.788,1.21,5.568,2.545,8.262,3.966s5.361,2.96,7.938,4.579c2.6,1.635,5.126,3.429,7.568,5.165.142.1.3.2.452.293a4.222,4.222,0,0,1,.909.681,1.413,1.413,0,0,1,.388,1.1,1.792,1.792,0,0,1-.184.659,2.442,2.442,0,0,1-.4.573,2.81,2.81,0,0,1-1.123.75,4.577,4.577,0,0,1-1.48.236,7.341,7.341,0,0,1-2.2-.38,20.65,20.65,0,0,1-2.1-.823l-4.249-1.868a26.174,26.174,0,0,0-2.51-1,8.479,8.479,0,0,0-2.594-.453h-.018a12.991,12.991,0,0,0-2.6.365c-.253.053-.514.108-.772.157a21.18,21.18,0,0,1-3.973.373,22.463,22.463,0,0,1-4.74-.511,23.136,23.136,0,0,1-4.535-1.486,22.643,22.643,0,0,1-4.126-2.39,21.278,21.278,0,0,1-3.513-3.224.14.14,0,0,1-.033-.076,3.228,3.228,0,0,1,.129-1.309,4.731,4.731,0,0,1,.584-1.217,7.036,7.036,0,0,1,.878-1.074,8.71,8.71,0,0,1,1.022-.884c.5-.373,1.011-.718,1.5-1.026.532-.332,1.067-.632,1.59-.891a15.311,15.311,0,0,1,1.673-.712,12.908,12.908,0,0,1,1.753-.488A9.634,9.634,0,0,1,294.948,294.09Zm26.906,18.836a4.3,4.3,0,0,0,1.39-.221,2.521,2.521,0,0,0,1.007-.675,2.163,2.163,0,0,0,.351-.507,1.515,1.515,0,0,0,.156-.556,1.133,1.133,0,0,0-.316-.9,4.023,4.023,0,0,0-.849-.632c-.156-.1-.318-.2-.467-.3-2.439-1.733-4.961-3.525-7.555-5.156-2.571-1.615-5.235-3.152-7.92-4.568s-5.461-2.749-8.242-3.957a14.793,14.793,0,0,0-2.256-.8,8.828,8.828,0,0,0-2.2-.286h0a9.357,9.357,0,0,0-1.868.195,12.623,12.623,0,0,0-1.715.477,15.023,15.023,0,0,0-1.642.7c-.515.255-1.042.551-1.566.878-.487.3-.987.645-1.486,1.014a8.436,8.436,0,0,0-.989.855,6.758,6.758,0,0,0-.843,1.031,4.45,4.45,0,0,0-.55,1.144,2.965,2.965,0,0,0-.123,1.153,21.008,21.008,0,0,0,3.438,3.148,22.367,22.367,0,0,0,4.075,2.361,22.859,22.859,0,0,0,4.48,1.468,22.184,22.184,0,0,0,4.681.5,20.9,20.9,0,0,0,3.921-.368c.255-.049.515-.1.767-.156a13.2,13.2,0,0,1,2.655-.371h.018a8.751,8.751,0,0,1,2.68.467,26.407,26.407,0,0,1,2.537,1.009l4.249,1.868a20.415,20.415,0,0,0,2.075.812A7.07,7.07,0,0,0,321.855,312.927Z" transform="translate(-256.235 -265.457)" fill="#231f1f"/>
        <path id="Trazado_159903" data-name="Trazado 159903" d="M528.227,413.039l-.227,44.1a1.978,1.978,0,0,1-1.988,1.967l-71.449-.367a1.978,1.978,0,0,1-1.968-1.988l.227-44.1a1.979,1.979,0,0,1,1.989-1.968l71.449.367a1.979,1.979,0,0,1,1.968,1.989" transform="translate(-408.528 -370.698)" fill="#1169e3"/>
        <path id="Trazado_159904" data-name="Trazado 159904" d="M453.172,408.88h.011l71.449.367a2.152,2.152,0,0,1,2.143,2.165l-.227,44.1a2.152,2.152,0,0,1-2.165,2.142l-71.449-.367a2.152,2.152,0,0,1-2.143-2.164l.227-44.1a2.152,2.152,0,0,1,2.154-2.143ZM524.394,457.3a1.8,1.8,0,0,0,1.8-1.793l.227-44.1a1.8,1.8,0,0,0-1.794-1.812l-71.458-.367a1.8,1.8,0,0,0-1.8,1.794l-.227,44.1a1.8,1.8,0,0,0,1.794,1.811l71.449.367Z" transform="translate(-406.901 -369.07)" fill="#f4780e"/>
        <path id="Trazado_159905" data-name="Trazado 159905" d="M530.108,413.039l-.024,4.646-75.405-.388.024-4.646a1.979,1.979,0,0,1,1.989-1.968l71.449.367a1.978,1.978,0,0,1,1.968,1.989" transform="translate(-410.41 -370.698)" fill="#fff"/>
        <path id="Trazado_159906" data-name="Trazado 159906" d="M455.385,409.247h.011l71.449.367a2.117,2.117,0,0,1,2.107,2.129l-.024,4.646a.14.14,0,0,1-.141.139l-75.405-.388a.14.14,0,0,1-.139-.14l.024-4.646a2.117,2.117,0,0,1,2.118-2.107Zm73.264,7,.023-4.506a1.839,1.839,0,0,0-1.829-1.848l-71.458-.367a1.839,1.839,0,0,0-1.839,1.829l-.023,4.506Z" transform="translate(-409.114 -369.402)" fill="#231f1f"/>
        <path id="Trazado_159907" data-name="Trazado 159907" d="M729.345,567.351a10.978,10.978,0,1,1-10.921-11.034,10.978,10.978,0,0,1,10.921,11.034" transform="translate(-638.515 -502.152)" fill="#fff"/>
        <path id="Trazado_159908" data-name="Trazado 159908" d="M792.792,602.01l6.321,5.187a1.394,1.394,0,0,1,0,2.154l-6.374,5.242a1.394,1.394,0,0,1-2.279-1.084l.054-10.429a1.394,1.394,0,0,1,2.278-1.07" transform="translate(-713.498 -543.108)" fill="#f4780e"/>
        <path id="Trazado_159909" data-name="Trazado 159909" d="M1177.449,442.157h0a.9.9,0,0,1,0-1.794h0a.9.9,0,0,1,0,1.794Zm0-1.514a.617.617,0,0,0,0,1.235h0a.617.617,0,0,0,0-1.235Z" transform="translate(-1061.999 -397.488)" fill="#231f1f"/>
        <path id="Trazado_159910" data-name="Trazado 159910" d="M1106.011,441.79h0a.9.9,0,0,1,0-1.794h0a.9.9,0,0,1,0,1.794Zm0-1.514a.617.617,0,0,0,0,1.235h0a.617.617,0,0,0,0-1.235Z" transform="translate(-997.516 -397.157)" fill="#231f1f"/>
        <path id="Trazado_159911" data-name="Trazado 159911" d="M1141.729,441.974h0a.9.9,0,0,1,0-1.794h0a.9.9,0,0,1,0,1.794Zm0-1.514a.617.617,0,0,0,0,1.235h0a.617.617,0,0,0,0-1.235Z" transform="translate(-1029.757 -397.323)" fill="#231f1f"/>
        <path id="Trazado_159912" data-name="Trazado 159912" d="M483.98,401.4l-9.824-3.839a2.426,2.426,0,1,1,1.808-4.5l8.566,2.434Z" transform="translate(-426.596 -354.621)" fill="#f49a89"/>
        <path id="Trazado_159913" data-name="Trazado 159913" d="M413.5,413.875l-9.9-3.616a2.426,2.426,0,1,1,1.808-4.5l8.566,2.434Z" transform="translate(-362.909 -366.085)" fill="#f49a89"/>
        <path id="Trazado_159914" data-name="Trazado 159914" d="M367.5,429.281l-8.277-3.5a2.59,2.59,0,0,1-1.183-3.007,1.944,1.944,0,0,1,2.684-1.5l7.11,2.434Z" transform="translate(-323.092 -380.096)" fill="#f49a89"/>
        <path id="Trazado_159915" data-name="Trazado 159915" d="M482.682,400.242a.14.14,0,0,1-.051-.01l-9.824-3.839a2.566,2.566,0,1,1,1.9-4.765l8.558,2.432a.14.14,0,0,1,.1.147l-.55,5.908a.14.14,0,0,1-.139.127Zm-8.94-8.526a2.287,2.287,0,0,0-.833,4.417l9.652,3.772.522-5.608-8.454-2.4-.015-.005A2.274,2.274,0,0,0,473.742,391.716Z" transform="translate(-425.299 -353.325)" fill="#231f1f"/>
        <path id="Trazado_159916" data-name="Trazado 159916" d="M412.2,412.719a.14.14,0,0,1-.048-.009l-9.9-3.616h0a2.566,2.566,0,1,1,1.9-4.765l8.558,2.432a.14.14,0,0,1,.1.146l-.475,5.685a.14.14,0,0,1-.139.128Zm-9.85-3.887,9.726,3.553.45-5.388-8.455-2.4-.015-.005a2.274,2.274,0,0,0-1.572-.063,2.3,2.3,0,0,0-.629.316,2.287,2.287,0,0,0,.5,3.99Z" transform="translate(-361.612 -364.789)" fill="#231f1f"/>
        <path id="Trazado_159917" data-name="Trazado 159917" d="M366.205,428.125a.14.14,0,0,1-.054-.011l-8.277-3.5-.005,0a2.352,2.352,0,0,1-1.157-1.3,3.015,3.015,0,0,1-.1-1.874,2.568,2.568,0,0,1,.79-1.3,2.054,2.054,0,0,1,.595-.36,1.827,1.827,0,0,1,1.489.068l7.1,2.431a.14.14,0,0,1,.094.141l-.334,5.567a.14.14,0,0,1-.139.131Zm-8.22-3.766,8.092,3.421.316-5.264-7.009-2.4-.017-.007a1.547,1.547,0,0,0-1.272-.062,1.778,1.778,0,0,0-.514.311,2.29,2.29,0,0,0-.7,1.158A2.452,2.452,0,0,0,357.985,424.359Z" transform="translate(-321.796 -378.801)" fill="#231f1f"/>
        <path id="Trazado_159918" data-name="Trazado 159918" d="M26.731,261.587c3.289.436,4.491.408,7.6-.747,4.061-1.509,4.3-.665,7.679,2.182,1.169.986,7.045,5.354,6.828.856a5,5,0,0,0-1.015-2.44,30.353,30.353,0,0,0-4.136-4.831A64.594,64.594,0,0,0,51.48,263.5c.712.534,1.577,1.085,2.448.658a1.7,1.7,0,0,0,.852-1.046,3.9,3.9,0,0,0-.4-2.692,21.393,21.393,0,0,0-5.358-7.522l7.913,8.517c1.011,1.088,2.46,2.281,3.815,1.552a2.08,2.08,0,0,0,1.006-1.36,5.04,5.04,0,0,0-.632-3.289,48.9,48.9,0,0,0-5.476-9.295,132.28,132.28,0,0,1,10.8,11.478,13.056,13.056,0,0,0,2.974,2.906,5.143,5.143,0,0,0,1.424.61,2.092,2.092,0,0,0,2.529-2.57,11.81,11.81,0,0,0-1.953-3.653,134.931,134.931,0,0,0-10.468-12.778,14.153,14.153,0,0,0-4.825-3.807c-3.755-2.107-5.812-1.351-9.4-.831-9.565,1.387-11.557.764-21,2.824L2.268,249.745l9.892,15.938Z" transform="translate(-2.047 -216.458)" fill="#f49a89"/>
        <path id="Trazado_159919" data-name="Trazado 159919" d="M46.17,264.718a4.244,4.244,0,0,1-1.537-.363A11.811,11.811,0,0,1,43,263.52a20.529,20.529,0,0,1-2.381-1.688c-.379-.319-.723-.618-1.027-.882a16.255,16.255,0,0,0-1.9-1.508,3.461,3.461,0,0,0-.8-.373,2.857,2.857,0,0,0-.854-.124,5.25,5.25,0,0,0-1.256.179,16.209,16.209,0,0,0-1.709.55,19.1,19.1,0,0,1-2.508.781,9.592,9.592,0,0,1-2.134.234,23.394,23.394,0,0,1-3-.257L10.9,264.521a.14.14,0,0,1-.157-.061L.854,248.523a.14.14,0,0,1,.081-.208L24.4,241.769l.008,0c2.609-.569,4.809-.97,6.923-1.261,1.905-.262,3.567-.411,5.327-.569,2.324-.208,4.958-.444,8.76-1,.479-.069.929-.143,1.363-.214a20.053,20.053,0,0,1,3.231-.358,8.467,8.467,0,0,1,2.279.3,11.685,11.685,0,0,1,2.609,1.112,13.029,13.029,0,0,1,2.769,1.75,20.032,20.032,0,0,1,1.9,1.882l.189.2c1.866,2.013,3.695,4.111,5.435,6.235s3.437,4.33,5.043,6.556a18.158,18.158,0,0,1,1.155,1.77,8.329,8.329,0,0,1,.82,1.929,2.21,2.21,0,0,1,.029,1.042,2.248,2.248,0,0,1-.414.893,2.278,2.278,0,0,1-.764.637,2.162,2.162,0,0,1-.993.24,2.251,2.251,0,0,1-.556-.071,5.313,5.313,0,0,1-1.463-.626,12.689,12.689,0,0,1-2.91-2.818l-.1-.118c-1.674-2.007-3.432-3.99-5.223-5.894-1.421-1.51-2.892-3-4.388-4.448.677.964,1.358,2.033,2.033,3.2.885,1.524,1.746,3.189,2.489,4.815a9.25,9.25,0,0,1,.607,1.62,3.658,3.658,0,0,1,.034,1.76,2.22,2.22,0,0,1-1.076,1.451,1.971,1.971,0,0,1-.943.241,2.417,2.417,0,0,1-.851-.166,3.955,3.955,0,0,1-.8-.425,8.135,8.135,0,0,1-1.387-1.229l-3.979-4.282q.215.341.419.691a22.762,22.762,0,0,1,1.236,2.446,6.763,6.763,0,0,1,.45,1.345,2.905,2.905,0,0,1-.049,1.443,1.986,1.986,0,0,1-.344.659,1.692,1.692,0,0,1-.58.471,1.6,1.6,0,0,1-.712.167,3.333,3.333,0,0,1-1.882-.838c-1.564-1.173-3.085-2.426-4.543-3.742.393.5.753.995,1.086,1.492a8.782,8.782,0,0,1,.687,1.182,3.588,3.588,0,0,1,.352,1.328,3.513,3.513,0,0,1-.086,1.05,1.562,1.562,0,0,1-.364.691A1.4,1.4,0,0,1,46.17,264.718Zm-10.122-6.052a3.13,3.13,0,0,1,.936.137,3.735,3.735,0,0,1,.861.4,16.408,16.408,0,0,1,1.934,1.535c.3.263.647.561,1.024.879a20.222,20.222,0,0,0,2.345,1.662,11.53,11.53,0,0,0,1.589.816,3.977,3.977,0,0,0,1.432.342,1.443,1.443,0,0,0,.488-.077.952.952,0,0,0,.371-.239,2.062,2.062,0,0,0,.373-1.534,4.9,4.9,0,0,0-.992-2.369,27.046,27.046,0,0,0-2.9-3.576c-.411-.4-.822-.821-1.222-1.236a.14.14,0,0,1,.2-.2c.441.43.841.834,1.223,1.237a64.662,64.662,0,0,0,6.557,5.643,3.105,3.105,0,0,0,1.714.782,1.309,1.309,0,0,0,.589-.138,1.568,1.568,0,0,0,.78-.961,2.633,2.633,0,0,0,.042-1.307,6.509,6.509,0,0,0-.433-1.289,22.485,22.485,0,0,0-1.22-2.416,22.18,22.18,0,0,0-1.524-2.28L47.628,251.7a.14.14,0,0,1,.194-.2A19.146,19.146,0,0,1,50.43,254.3l5.316,5.722a7.865,7.865,0,0,0,1.339,1.188,3.678,3.678,0,0,0,.745.4,2.138,2.138,0,0,0,.753.148,1.694,1.694,0,0,0,.81-.207,1.94,1.94,0,0,0,.937-1.27,3.386,3.386,0,0,0-.034-1.628,9.011,9.011,0,0,0-.59-1.57c-.74-1.618-1.6-3.274-2.477-4.79a39.514,39.514,0,0,0-2.982-4.476.14.14,0,0,1,.206-.188c1.9,1.8,3.781,3.676,5.577,5.584s3.557,3.9,5.234,5.906l.1.118A12.482,12.482,0,0,0,68.2,261.99a5.03,5.03,0,0,0,1.385.593,1.971,1.971,0,0,0,.487.062,1.885,1.885,0,0,0,.866-.21,2,2,0,0,0,.67-.559,1.967,1.967,0,0,0,.362-.781,1.933,1.933,0,0,0-.026-.912,8.057,8.057,0,0,0-.793-1.864,19.019,19.019,0,0,0-1.138-1.743c-1.6-2.221-3.3-4.422-5.033-6.543s-3.562-4.214-5.424-6.222l-.189-.2a13.53,13.53,0,0,0-4.594-3.572l-.008,0a11.419,11.419,0,0,0-2.551-1.088,8.191,8.191,0,0,0-2.205-.295,19.859,19.859,0,0,0-3.186.354c-.436.071-.887.145-1.368.215-3.81.553-6.448.789-8.775,1-1.756.157-3.415.306-5.314.567-2.106.29-4.3.689-6.9,1.256L1.189,248.534l9.739,15.69L25.4,260.156a.14.14,0,0,1,.056,0,23.337,23.337,0,0,0,2.987.258,9.318,9.318,0,0,0,2.074-.228,18.83,18.83,0,0,0,2.472-.77,16.472,16.472,0,0,1,1.739-.56A5.515,5.515,0,0,1,36.048,258.666Z" transform="translate(-0.751 -215.162)" fill="#231f1f"/>
        <path id="Trazado_159920" data-name="Trazado 159920" d="M1438.134,15.7a41.772,41.772,0,0,0-3.39,9.767c-.353,1.66-.262,3.929,1.37,4.393,1.213.345,2.388-.653,3.109-1.687s1.351-2.262,2.516-2.744c2.842,3.5,7.789,4.951,12.068,5.613,1.85.286,5.019.974,6.828.275,2.674-1.034,1.186-2.856-.149-4.677a106.7,106.7,0,0,0-9.232-10.826,34.791,34.791,0,0,0-3.957-4.131c-1.752-1.311-3.616-2.465-5.483-3.6-1.465-.893-2.5-2.125-4.453-1.614-.333.087-.652.228-.991.292-1.423.268-2.773-.86-4.221-.823-1.364.035-2.174,1.13-2.842,2.177-.888,1.39-1.634,2.874-2.412,4.337a45.2,45.2,0,0,0-4,10.437,2.691,2.691,0,0,0-.094,1.267c.3,1.245,2.039,1.458,2.993.931a4.5,4.5,0,0,0,1.49-1.672l5.939-9.487c-1.164,1.767-2.262,3.582-3.264,5.446a11.885,11.885,0,0,0-1.743,5.375,2.055,2.055,0,0,0,.456,1.477,1.759,1.759,0,0,0,1.706.325,4.817,4.817,0,0,0,2.679-2.436c1.641-2.848,3.3-5.639,5.074-8.414" transform="translate(-1284.235 -5.354)" fill="#f49a89"/>
        <path id="Trazado_159921" data-name="Trazado 159921" d="M1430.919,4.5a5.845,5.845,0,0,1,1.918.445,5.455,5.455,0,0,0,1.78.421,2.3,2.3,0,0,0,.426-.039,4.3,4.3,0,0,0,.564-.161c.135-.045.275-.092.417-.129a3.66,3.66,0,0,1,.921-.124,4.732,4.732,0,0,1,2.762,1.166c.281.2.572.4.879.589,1.9,1.16,3.755,2.31,5.494,3.61a11.616,11.616,0,0,1,1.421,1.277c.434.453.849.938,1.25,1.406.415.485.845.987,1.3,1.462a106.406,106.406,0,0,1,9.244,10.84l.162.221A13.88,13.88,0,0,1,1460.6,27.2a3.3,3.3,0,0,1,.315.83,1.636,1.636,0,0,1-.014.8,1.562,1.562,0,0,1-.486.733,3.432,3.432,0,0,1-1.034.588,4.46,4.46,0,0,1-.982.243,8.081,8.081,0,0,1-1.111.07,25.231,25.231,0,0,1-4-.447c-.289-.049-.563-.094-.811-.133-1.17-.181-2.282-.405-3.3-.667a24.449,24.449,0,0,1-3.3-1.085,16.672,16.672,0,0,1-3.038-1.624,12.8,12.8,0,0,1-1.339-1.053A11.2,11.2,0,0,1,1440.4,24.3a2.75,2.75,0,0,0-.531.325,3.894,3.894,0,0,0-.535.508,11.25,11.25,0,0,0-.917,1.26c-.122.186-.249.378-.377.561a5.4,5.4,0,0,1-1.185,1.245,2.615,2.615,0,0,1-1.541.571,1.958,1.958,0,0,1-.536-.075,1.93,1.93,0,0,1-1.025-.7,2.909,2.909,0,0,1-.5-1.154,5.488,5.488,0,0,1-.108-1.358,7.88,7.88,0,0,1,.167-1.346,41.911,41.911,0,0,1,2.5-7.851c-1.192,1.918-2.447,4.027-3.928,6.6a7.094,7.094,0,0,1-1.146,1.528,3.721,3.721,0,0,1-1.617.972,2.446,2.446,0,0,1-.643.088,1.94,1.94,0,0,1-.643-.1,1.441,1.441,0,0,1-.555-.345,2.134,2.134,0,0,1-.5-1.576,8.423,8.423,0,0,1,.553-2.831c.14-.389.3-.77.466-1.133l-1.693,2.7a9.042,9.042,0,0,1-.658.953,3.071,3.071,0,0,1-.883.766,2.525,2.525,0,0,1-1.2.287,2.715,2.715,0,0,1-.64-.075,2.2,2.2,0,0,1-.591-.233,1.574,1.574,0,0,1-.763-1,2.787,2.787,0,0,1,.095-1.334,45.208,45.208,0,0,1,1.679-5.358,45.883,45.883,0,0,1,2.329-5.111c.143-.269.287-.543.427-.808.621-1.18,1.263-2.4,1.991-3.539a7.152,7.152,0,0,1,1.185-1.5,3.029,3.029,0,0,1,.793-.525,2.554,2.554,0,0,1,.979-.22Zm3.7,1.145a5.744,5.744,0,0,1-1.873-.437,5.639,5.639,0,0,0-1.825-.429h-.066a2.415,2.415,0,0,0-1.593.673,6.907,6.907,0,0,0-1.136,1.439c-.722,1.13-1.361,2.345-1.979,3.519-.14.265-.284.539-.427.809a45.614,45.614,0,0,0-2.315,5.08,44.967,44.967,0,0,0-1.668,5.325,2.566,2.566,0,0,0-.094,1.2,1.254,1.254,0,0,0,.234.484,1.407,1.407,0,0,0,.4.34,2.194,2.194,0,0,0,1.09.27,2.244,2.244,0,0,0,1.067-.252,2.8,2.8,0,0,0,.8-.7,8.849,8.849,0,0,0,.637-.925l4.027-6.432c.594-1,1.238-2.031,1.914-3.057a.14.14,0,0,1,.235.151l-1.91,3.051c-.473.8-.926,1.6-1.349,2.387a19.614,19.614,0,0,0-1.19,2.572,8.148,8.148,0,0,0-.537,2.737,1.879,1.879,0,0,0,.416,1.379,1.164,1.164,0,0,0,.449.278,1.664,1.664,0,0,0,.551.088,2.169,2.169,0,0,0,.57-.078,3.053,3.053,0,0,0,.8-.351,4.015,4.015,0,0,0,.7-.551,6.81,6.81,0,0,0,1.1-1.468c1.963-3.406,3.529-6,5.078-8.42a.14.14,0,0,1,.243.137,41.616,41.616,0,0,0-3.379,9.734,7.573,7.573,0,0,0-.162,1.3,5.212,5.212,0,0,0,.1,1.289,2.635,2.635,0,0,0,.452,1.044,1.657,1.657,0,0,0,.88.6,1.68,1.68,0,0,0,.46.064,2.344,2.344,0,0,0,1.376-.517,5.117,5.117,0,0,0,1.121-1.18c.126-.18.251-.371.373-.555a5.342,5.342,0,0,1,2.2-2.239.14.14,0,0,1,.162.041,10.855,10.855,0,0,0,1.144,1.2,12.519,12.519,0,0,0,1.309,1.03,16.4,16.4,0,0,0,2.987,1.6,24.163,24.163,0,0,0,3.263,1.072c1.014.259,2.116.482,3.278.661.25.039.524.085.815.133a25.015,25.015,0,0,0,3.949.444,7.8,7.8,0,0,0,1.073-.067,4.18,4.18,0,0,0,.92-.227,3.155,3.155,0,0,0,.95-.537,1.271,1.271,0,0,0,.4-.6,1.344,1.344,0,0,0,.009-.665,3.038,3.038,0,0,0-.29-.759,13.724,13.724,0,0,0-1.12-1.679l-.163-.221a106.149,106.149,0,0,0-9.22-10.812c-.464-.482-.9-.986-1.314-1.475-.4-.466-.811-.947-1.24-1.394a11.344,11.344,0,0,0-1.386-1.247c-1.729-1.293-3.575-2.439-5.472-3.6-.315-.192-.609-.4-.894-.6a9.323,9.323,0,0,0-1.239-.78,3.016,3.016,0,0,0-1.362-.335,3.335,3.335,0,0,0-.85.115c-.133.035-.268.08-.4.124a4.575,4.575,0,0,1-.6.171A2.586,2.586,0,0,1,1434.618,5.64Z" transform="translate(-1282.936 -4.058)" fill="#231f1f"/>
        <path id="Trazado_159922" data-name="Trazado 159922" d="M1392.561,66.569l-19.469,8.3-5.07-9.185-.483-.875-1.3-2.361-.194-.351c-2.33-.27-4.079.509-6.4.644-2.561.15-5.118-.316-7.68-.168-2.735.159-5.388.986-8.107,1.331s-5.689.132-7.859-1.54a2.164,2.164,0,0,1-.759-.9c-.322-.858.343-1.772,1.079-2.316q.122-.09.247-.173c2.5-1.682,5.8-1.481,8.828-2.023a10.332,10.332,0,0,0,3.27-1.085c2.437-1.365,3.849-3.9,5.357-6.165.093-.142.188-.281.283-.42a9.368,9.368,0,0,0,.748-1.284l0,0a7.215,7.215,0,0,0,.659-3.557v-.006c-.03-.875-.144-1.824-.239-2.94-.007-.076-.013-.15-.019-.226a6.191,6.191,0,0,0-.1-.8c-.021-.1-.047-.194-.077-.289-.021-.062-.045-.124-.071-.183a1.683,1.683,0,0,0-.09-.177c-.017-.028-.035-.056-.053-.084s-.036-.051-.054-.075l0-.005a1.774,1.774,0,0,0-.128-.149c-.023-.024-.046-.048-.07-.07s-.048-.045-.073-.066-.048-.042-.074-.062l-.006,0-.074-.057,0,0-.078-.055h0c-.063-.044-.128-.087-.2-.126l-.015-.009-.059-.036c-.075-.044-.15-.086-.226-.127l-.11-.059-.558-.3-.876-.479c-.664-.365-1.323-.727-1.984-1.081l-.283-.151-.281-.149c-.137-.072-.273-.144-.411-.215l-.009,0c-.114-.059-.227-.118-.342-.176l-.1-.052-.144-.073-.266-.133-.167-.082c-.1-.052-.208-.1-.313-.153l-.143-.069-.03-.014c-.132-.064-.264-.126-.4-.188q-.494-.229-1-.447l-.228-.1q-.374-.157-.756-.306c-.926,1.065-1.828,2.124-2.751,3.153l-.031.035q-.385.426-.773.846l0,0a34.257,34.257,0,0,1-4.193,3.889c-.168.129-.341.258-.519.383-1.306.927-2.835,1.688-4.339,1.261a1.6,1.6,0,0,1-1-.693,1.2,1.2,0,0,1-.14-.527,2.64,2.64,0,0,1,.216-1.043,15.71,15.71,0,0,1,2.848-4.242c2.144-2.543,7.475-9.4,8.583-9.664a8.19,8.19,0,0,1,3.387.136l.193.037h0q.278.052.554.107c.118.023.236.046.353.07l.368.074c.053.01.106.021.159.033l.553.115.654.141.03.007.635.143q.33.075.659.153l.637.152.086.021.59.146c.218.054.437.11.654.166l.653.171c.218.058.435.117.653.177q1.628.445,3.241.95c8.379,4.378,15.476,10.647,22.006,17.753l.466.644h0Z" transform="translate(-1202.177 -25.21)" fill="#f49a89"/>
        <path id="Trazado_159923" data-name="Trazado 159923" d="M1371.8,73.71a.14.14,0,0,1-.122-.072l-5.553-10.06-1.3-2.361-.16-.288a12.361,12.361,0,0,0-3.743.3,20.115,20.115,0,0,1-2.562.357,32.224,32.224,0,0,1-3.863-.084,32.185,32.185,0,0,0-3.817-.084,33.469,33.469,0,0,0-4.685.724c-1.114.226-2.265.461-3.412.606a14.713,14.713,0,0,1-4.175-.015,9.482,9.482,0,0,1-1.992-.54,7.472,7.472,0,0,1-1.8-1.013,2.315,2.315,0,0,1-.8-.961,1.467,1.467,0,0,1-.078-.715,1.983,1.983,0,0,1,.229-.676,3.438,3.438,0,0,1,.977-1.086c.082-.061.167-.12.252-.177h0a7.507,7.507,0,0,1,1.445-.753,10.557,10.557,0,0,1,1.556-.472,28.872,28.872,0,0,1,3.29-.481c.857-.092,1.743-.187,2.591-.339a10.086,10.086,0,0,0,3.226-1.069,8.176,8.176,0,0,0,1.427-1.02,11.4,11.4,0,0,0,1.216-1.264A30.491,30.491,0,0,0,1352,49.246c.2-.3.4-.616.6-.918.082-.125.172-.259.284-.422a9.153,9.153,0,0,0,.738-1.265l.005-.01a6.541,6.541,0,0,0,.547-1.727,8.607,8.607,0,0,0,.095-1.757s0,0,0,0v0c-.021-.6-.083-1.259-.149-1.953-.03-.313-.06-.636-.09-.977-.007-.074-.012-.146-.019-.227a5.969,5.969,0,0,0-.1-.78,2.77,2.77,0,0,0-.073-.274c-.021-.061-.043-.119-.067-.171h0a1.469,1.469,0,0,0-.082-.161c-.016-.026-.032-.052-.049-.078l-.046-.064,0,0-.005-.006a1.641,1.641,0,0,0-.117-.137c-.02-.02-.042-.043-.063-.062l0,0c-.019-.019-.04-.038-.067-.061l0,0-.063-.053-.005,0,0,0-.038-.029-.03-.023-.008-.005-.074-.052-.008-.006c-.06-.042-.12-.081-.181-.117l-.006,0,0,0-.008,0-.057-.034h0c-.074-.044-.149-.085-.221-.125l-.068-.036-.042-.023-.551-.3-.008,0h0l-.035-.019-.841-.459-.137-.075c-.605-.332-1.231-.676-1.846-1.005h0l-.265-.142-.016-.009h0l-.2-.1-.083-.044c-.127-.067-.27-.142-.409-.214l0,0-.006,0c-.12-.063-.232-.12-.34-.175l0,0-.093-.048,0,0h0l-.037-.019-.106-.053h0l-.264-.133h0l-.165-.081h0c-.091-.045-.2-.1-.311-.152h0l-.139-.067h0l0,0-.017-.008-.008,0c-.124-.06-.248-.118-.4-.187-.334-.155-.669-.3-1-.446l-.169-.072L1345,33.8h0c-.235-.1-.452-.187-.661-.269l-.71.82c-.646.747-1.313,1.519-1.978,2.26l-.031.035c-.271.3-.525.578-.775.848h0a34.147,34.147,0,0,1-4.21,3.9c-.191.146-.362.273-.523.386a8.566,8.566,0,0,1-2.13,1.156,4.5,4.5,0,0,1-1.151.244,3.434,3.434,0,0,1-1.177-.118,1.751,1.751,0,0,1-1.08-.761,1.341,1.341,0,0,1-.157-.588,2.736,2.736,0,0,1,.225-1.1,10.518,10.518,0,0,1,1.26-2.259c.51-.717,1.095-1.411,1.611-2.023.475-.564,1.1-1.328,1.818-2.212,1.211-1.488,2.719-3.339,3.994-4.8.7-.8,1.258-1.4,1.71-1.844a3.261,3.261,0,0,1,1.137-.857,8.284,8.284,0,0,1,3.445.134l.183.035.02,0,.546.105a.14.14,0,0,1-.054.274l-.547-.106h-.008l-.192-.037h0a15.1,15.1,0,0,0-1.682-.243,5.408,5.408,0,0,0-1.647.106c-.1.024-.364.157-1.006.785-.446.436-1,1.034-1.695,1.828-1.271,1.454-2.777,3.3-3.987,4.789-.721.885-1.344,1.65-1.821,2.216-.513.608-1.094,1.3-1.6,2.005a10.248,10.248,0,0,0-1.227,2.2,2.471,2.471,0,0,0-.206.986,1.055,1.055,0,0,0,.123.466,1.483,1.483,0,0,0,.911.626,3.153,3.153,0,0,0,1.08.108,4.218,4.218,0,0,0,1.079-.229,8.3,8.3,0,0,0,2.06-1.12h0c.158-.111.326-.235.514-.379a33.874,33.874,0,0,0,4.176-3.873h0c.249-.268.5-.544.771-.844l.031-.035c.663-.739,1.33-1.51,1.974-2.256.253-.293.515-.6.775-.9a.14.14,0,0,1,.156-.039c.239.093.488.194.759.308h0l.059.025.17.072c.331.142.669.293,1,.449.147.068.271.126.4.187l.031.015h0l.143.069c.114.054.222.108.313.153l.168.083h0l.266.133.109.055.036.018,0,0,.1.051c.108.054.218.111.337.173l.017.009c.14.072.282.147.408.213l.083.044.2.1.016.009.266.142h0c.616.33,1.243.674,1.849,1.007l.137.075.84.459.035.019h0l.008,0,.55.3.043.023.067.036h0c.071.039.152.083.229.13l.057.034.021.013c.064.038.128.08.191.124l.02.014.063.045.016.011.035.027.034.026h0l.009.007c.021.017.05.04.078.066s.054.048.076.069.055.053.076.075h0a1.935,1.935,0,0,1,.134.155l.013.017,0,0c.017.024.035.048.052.073s.039.059.057.089v0a1.753,1.753,0,0,1,.1.191c.026.06.052.125.076.194v0a3.02,3.02,0,0,1,.081.3,6.252,6.252,0,0,1,.1.817c.006.08.012.152.018.224.029.34.06.663.09.975.067.7.129,1.36.15,1.973,0,0,0,0,0,0v0a8.878,8.878,0,0,1-.1,1.811,6.814,6.814,0,0,1-.574,1.808l-.005.011a9.421,9.421,0,0,1-.756,1.3c-.11.162-.2.294-.281.418h0c-.2.3-.4.614-.6.916-1.309,2.013-2.662,4.094-4.8,5.293a10.351,10.351,0,0,1-3.313,1.1c-.857.154-1.748.249-2.61.342a28.661,28.661,0,0,0-3.258.475,10.282,10.282,0,0,0-1.516.46,7.244,7.244,0,0,0-1.392.725h0c-.081.054-.162.111-.241.169a3.15,3.15,0,0,0-.9.994,1.707,1.707,0,0,0-.2.58,1.188,1.188,0,0,0,.063.58,2.064,2.064,0,0,0,.713.838,7.2,7.2,0,0,0,1.728.975,9.2,9.2,0,0,0,1.933.524,14.436,14.436,0,0,0,4.095.013c1.137-.144,2.283-.377,3.392-.6a33.686,33.686,0,0,1,4.725-.729,32.4,32.4,0,0,1,3.851.085,32.021,32.021,0,0,0,3.83.083,19.9,19.9,0,0,0,2.527-.353c.637-.118,1.238-.229,1.876-.294a9.154,9.154,0,0,1,2.022,0,.139.139,0,0,1,.106.071l.194.351,1.787,3.236,5.009,9.074,19.192-8.179L1378.624,48.04a.144.144,0,0,1-.02-.039l-.194-.6a.14.14,0,0,1,.266-.086l.187.578,12.516,17.3a.139.139,0,0,1-.058.211l-19.469,8.3A.14.14,0,0,1,1371.8,73.71Z" transform="translate(-1200.882 -23.914)" fill="#231f1f"/>
        <path id="Trazado_159924" data-name="Trazado 159924" d="M905.416,198.18l-47.146.344a8,8,0,0,1-8.058-7.941h0a8,8,0,0,1,7.941-8.058l47.146-.344a8,8,0,1,1,.117,16" transform="translate(-767.432 -164.443)" fill="#fff"/>
        <path id="Trazado_159925" data-name="Trazado 159925" d="M1376,223.128a2.682,2.682,0,0,1,2.272,1.251A2.685,2.685,0,0,1,1376,228.5a2.681,2.681,0,0,1-2.272-1.251,2.685,2.685,0,0,1,2.267-4.118Zm0,5.09a2.405,2.405,0,0,0,1.141-4.521,2.4,2.4,0,0,0-2.427.083,2.406,2.406,0,0,0,.141,4.149A2.422,2.422,0,0,0,1376,228.218Z" transform="translate(-1239.605 -201.404)" fill="#231f1f"/>
        <path id="Línea_997" data-name="Línea 997" d="M.8,2.153a.14.14,0,0,1-.118-.065L-1.414-1.221a.14.14,0,0,1,.044-.193.14.14,0,0,1,.193.044L.913,1.939A.14.14,0,0,1,.8,2.153Z" transform="translate(139.051 27.856)" fill="#231f1f"/>
        <path id="Trazado_159926" data-name="Trazado 159926" d="M1356.046,216.111a5.715,5.715,0,0,1-1.256-.141,5.657,5.657,0,0,1-2.886-1.646,5.7,5.7,0,0,1-1.458-2.892,5.686,5.686,0,0,1,5.589-6.689,5.716,5.716,0,0,1,1.256.141,5.657,5.657,0,0,1,2.886,1.646,5.7,5.7,0,0,1,1.458,2.892,5.686,5.686,0,0,1-5.59,6.689Zm-.01-11.088a5.358,5.358,0,0,0-1.785.306,5.405,5.405,0,0,0,1.795,10.5,5.361,5.361,0,0,0,1.785-.306,5.405,5.405,0,0,0-1.795-10.5Z" transform="translate(-1218.881 -184.809)" fill="#231f1f"/>
        <path id="Trazado_159927" data-name="Trazado 159927" d="M856.915,197.369a8.193,8.193,0,0,1-1.631-.164,8.1,8.1,0,0,1-2.9-1.213,8.16,8.16,0,0,1-2.951-3.553,8.1,8.1,0,0,1-.481-1.519,8.2,8.2,0,0,1-.176-1.632h0a8.193,8.193,0,0,1,.153-1.641,8.1,8.1,0,0,1,1.2-2.92,8.163,8.163,0,0,1,3.559-2.975,8.1,8.1,0,0,1,1.525-.486,8.2,8.2,0,0,1,1.639-.177L904,180.745h.061a8.194,8.194,0,0,1,1.631.164,8.1,8.1,0,0,1,2.9,1.213,8.164,8.164,0,0,1,2.951,3.553,8.1,8.1,0,0,1,.481,1.519,8.218,8.218,0,0,1,.022,3.273,8.1,8.1,0,0,1-1.2,2.92,8.162,8.162,0,0,1-3.56,2.975,8.094,8.094,0,0,1-1.524.485,8.2,8.2,0,0,1-1.639.177l-47.146.344Zm-7.859-8.082a7.915,7.915,0,0,0,.17,1.576,7.818,7.818,0,0,0,1.193,2.792,7.884,7.884,0,0,0,3.452,2.823,7.822,7.822,0,0,0,1.468.453,7.912,7.912,0,0,0,1.575.158h.059l47.146-.344a7.919,7.919,0,0,0,1.583-.171,7.818,7.818,0,0,0,2.8-1.2,7.883,7.883,0,0,0,2.823-3.479,7.827,7.827,0,0,0,.447-1.479,7.94,7.94,0,0,0-.022-3.162,7.816,7.816,0,0,0-1.193-2.792,7.882,7.882,0,0,0-3.452-2.823,7.818,7.818,0,0,0-1.468-.453,7.912,7.912,0,0,0-1.575-.158H904l-47.146.344a7.919,7.919,0,0,0-1.583.171,7.817,7.817,0,0,0-2.8,1.2,7.881,7.881,0,0,0-2.823,3.479,7.818,7.818,0,0,0-.447,1.478,7.9,7.9,0,0,0-.148,1.585Z" transform="translate(-766.136 -163.148)" fill="#231f1f"/>
        <path id="Trazado_159928" data-name="Trazado 159928" d="M1689.838,378.846l-5,3.295-1.824-3.3Z" transform="translate(-1519.15 -341.952)" fill="#f4780e"/>
      </g>
    </g>
  </g>
</svg>
