<svg xmlns="http://www.w3.org/2000/svg" width="400.025" height="307.756" viewBox="0 0 400.025 307.756">
  <g id="Grupo_1099906" data-name="Grupo 1099906" transform="translate(-1019.975 -4388.244)">
    <rect id="ui-ux-representations-with-smartphone" width="400" height="307.756" rx="153.878" transform="translate(1019.975 4388.244)" fill="#a0f2c0"/>
    <g id="Grupo_1099905" data-name="Grupo 1099905" transform="translate(1026.151 4400.41)">
      <path id="Trazado_160038" data-name="Trazado 160038" d="M56.494,341.387C37.609,324.9,24.539,305.363,15.277,282.009a257.093,257.093,0,0,1-13.85-47.1C-.3,225.4-.8,215.465,1.9,206.191c3.776-12.928,13.852-23.7,26.229-29.009,23.8-10.213,47.084.308,64.7,16.931,15.233,14.376,27.812,34.559,48.428,38.256,2.974.533,6.215.638,8.83-.875,3.57-2.065,4.955-6.492,5.573-10.57,2.507-16.549-2.642-33.271-2.708-50.008-.02-5.243.637-10.91,4.183-14.772,4.07-4.432,10.784-5.207,16.774-4.634,21.924,2.1,40.045,17.852,54.24,34.691s26.466,35.833,44.358,48.675c3.846,2.76,9,5.249,13.085,2.85a10.159,10.159,0,0,0,3.809-4.7c4.073-8.9,1.557-19.214,1.147-28.989s3.116-21.585,12.618-23.916c10.793-2.648,22.429,10.5,29.933,16.775,16.168,13.515,26.313,35.993,35.485,54.526,9.978,20.162,18.038,41.351,22.859,63.355,2.187,9.983,3.687,20.505.837,30.319s-11.1,18.7-21.3,19.322c-10.33.625-19.1-6.826-28.194-11.768s-22.7-6.364-27.825,2.626c-2.195,3.85-2.08,8.532-2.855,12.895-3.453,19.434-25.577,31.2-45.212,29.182S230.243,383,215.9,369.436s-27.258-28.943-43.873-39.6c-8.893-5.7-20.457-9.928-29.777-4.953-9.769,5.215-12.486,17.921-19.99,26.065-8.335,9.046-22.141,11.49-34.113,8.668s-22.392-10.14-31.658-18.229" transform="translate(0 -125.777)" fill="#13de61"/>
      <path id="Trazado_160039" data-name="Trazado 160039" d="M1122.812,860.014l-1.229.73L1061.8,903.617l17.282,10.906a21,21,0,0,0,22.8-.252l43.793-29.01Z" transform="translate(-931.202 -714.727)" fill="#f9c6b7"/>
      <path id="Trazado_160040" data-name="Trazado 160040" d="M864.3,674.711c-17.667-11.334-36.2-4.066-55.2,13.077l-27.261,13.7,35.164,32.218Z" transform="translate(-602.533 -556.193)" fill="#5e3552"/>
      <path id="Rectángulo_39345" data-name="Rectángulo 39345" d="M1.564-2.154H-1.79a.364.364,0,0,0-.364.364V45.3a.364.364,0,0,0,.364.364H1.564a.364.364,0,0,0,.364-.364V-1.79A.364.364,0,0,0,1.564-2.154Zm-2.99.728H1.2V44.939H-1.426Z" transform="translate(105.937 24.358)" fill="#b4daef"/>
      <path id="Trazado_160041" data-name="Trazado 160041" d="M853.119,1432.686l-1.33,7.467H738.617l26.928-44.206Z" transform="translate(-584.049 -1160.121)" fill="#231f20"/>
      <path id="Trazado_160042" data-name="Trazado 160042" d="M192.78,1315.543l6.27,39.757a18.484,18.484,0,0,1-20.1,21.32,53.762,53.762,0,0,1-13.955-3.714l-11.111-57.031Z" transform="translate(168.571 -1093.301)" fill="#f9c6b7"/>
      <path id="Trazado_160043" data-name="Trazado 160043" d="M1732.22,538.345a39.748,39.748,0,0,1-5.887-6.972,80,80,0,0,1-4.872-8.033l-8.313-15c-4.434,2.114-9.6,2.923-14.494,3.4a2.676,2.676,0,0,1-1.73-.233,1.894,1.894,0,0,1-.282-2.576,5.5,5.5,0,0,1,2.31-1.67l10.642-5.143c-4.127-.863-7.2-3.115-10.785-5.327-3.236-1.993-6.385-4.911-6.7-8.7a1.074,1.074,0,0,1,1.186-1.4c2.632-.139,5.161.936,7.557,2.033q6.769,3.1,13.311,6.662a62.059,62.059,0,0,0-7.656-6.87c-2.971-2.3-5.79-5.077-7-8.635a1.3,1.3,0,0,1-.067-.915,1.146,1.146,0,0,1,.635-.54c1.792-.783,3.846.091,5.555,1.042a55.509,55.509,0,0,1,13.541,10.577,58.6,58.6,0,0,1-7.493-10.492,6.31,6.31,0,0,1-.894-2.515,2.319,2.319,0,0,1,1.14-2.262,3.255,3.255,0,0,1,2.938.564c5.232,3.115,8.98,8.153,12.587,13.059l27.594,32.853Z" transform="translate(-1647.047 -394.424)" fill="#f9c6b7"/>
      <path id="Trazado_160044" data-name="Trazado 160044" d="M540.335,722.834l19.07,7.395-.947,62.467L515.81,837.528,504.521,861.57,413.2,819.244l28.592-46.7c4.867-16.959,7.386-23.087,17.362-38.6l37.974-32.389,11.957,6.649Z" transform="translate(-235.36 -583.038)" fill="#5e3552"/>
      <path id="Trazado_160045" data-name="Trazado 160045" d="M844.137,824.376a.364.364,0,0,0,.349-.264c.978-3.408,1.77-6.057,2.493-8.337.821-2.588,1.6-4.844,2.378-6.894a90.113,90.113,0,0,1,5.856-12.452,58.2,58.2,0,0,1,6.512-9.336,59.343,59.343,0,0,1,8.2-7.9l18.951-15.052a.364.364,0,0,0-.453-.57L869.47,778.618a60.073,60.073,0,0,0-8.3,8,58.923,58.923,0,0,0-6.594,9.453,90.792,90.792,0,0,0-5.9,12.549c-.784,2.063-1.567,4.331-2.392,6.933-.725,2.286-1.519,4.941-2.5,8.356a.364.364,0,0,0,.35.464Z" transform="translate(-637.705 -634.507)" fill="#231f20"/>
      <path id="Trazado_160046" data-name="Trazado 160046" d="M183.349,871.276c17.617,2.89,29.618,13.572,31.459,38.971l9.035,39.576-43.2.466L173.5,929.31Z" transform="translate(140.696 -724.086)" fill="#5e3552"/>
      <path id="Trazado_160047" data-name="Trazado 160047" d="M300.972,353.495a25.443,25.443,0,0,0,8.536.625,84.144,84.144,0,0,0,29.593-8.566,33.1,33.1,0,0,0,14.273-13.3c5.728-10.369,3.36-23.28-4.35-32.2a32.327,32.327,0,0,0-27.037-10.6c-10.389,1-15.955,10.311-19.929,18.918q-2.086,4.516-4,9.11c-1.129,2.711-2.025,5.481-3.206,8.193-3.867,8.884-6.1,24.65,6.118,27.827" transform="translate(-11.992 -240.432)" fill="#f9c6b7"/>
      <path id="Trazado_160048" data-name="Trazado 160048" d="M463.738,620.765,444.456,655.69c-23.939,6.442-36.739,3.561-31.25-14.628,4.458-2.466,8.286-9.367,11.968-17.287Z" transform="translate(-139.481 -515.895)" fill="#f9c6b7"/>
      <path id="Rectángulo_39346" data-name="Rectángulo 39346" d="M145.768-2.154H6.9A9.05,9.05,0,0,0-2.154,6.9V269.185A9.05,9.05,0,0,0,6.9,278.242H145.768a9.05,9.05,0,0,0,9.057-9.057V6.9a9.05,9.05,0,0,0-9.057-9.057ZM6.9,277.514a8.322,8.322,0,0,1-8.33-8.33V6.9A8.322,8.322,0,0,1,6.9-1.426H145.768A8.322,8.322,0,0,1,154.1,6.9V269.185a8.322,8.322,0,0,1-8.33,8.33Z" transform="translate(109.291 2.154)" fill="#f57c00"/>
      <path id="Rectángulo_39347" data-name="Rectángulo 39347" d="M141.686-2.154H6.663A8.81,8.81,0,0,0-2.154,6.663V261.69a8.809,8.809,0,0,0,8.817,8.817H141.686a8.81,8.81,0,0,0,8.817-8.817V6.663a8.81,8.81,0,0,0-8.817-8.817ZM6.663,269.779a8.082,8.082,0,0,1-8.089-8.089V6.663A8.082,8.082,0,0,1,6.663-1.426H141.686a8.082,8.082,0,0,1,8.089,8.089V261.69a8.082,8.082,0,0,1-8.089,8.089Z" transform="translate(111.451 6.021)" fill="#f57c00"/>
      <path id="Trazado_160049" data-name="Trazado 160049" d="M1197.14,64.849a4.987,4.987,0,1,0,4.987-4.987,4.987,4.987,0,0,0-4.987,4.987" transform="translate(-1015.503 -49.748)" fill="#231f20"/>
      <path id="Trazado_160050" data-name="Trazado 160050" d="M426.662,1316.029,356.844,1271.5l8.172-24.4,60.9,26.258Z" transform="translate(-93.097 -1036.423)" fill="#f9c6b7"/>
      <path id="Trazado_160051" data-name="Trazado 160051" d="M1459.606,796.935l-52.651-45.416-22.069,16.962,45.427,44.97Z" transform="translate(-1299.712 -624.56)" fill="#f9c6b7"/>
      <path id="Trazado_160052" data-name="Trazado 160052" d="M540.983,459.384a.364.364,0,0,0,.358-.432c-.225-1.185-.463-2.163-.654-2.948-.333-1.365-.552-2.267-.284-2.593.341-.414,1.782-.379,4.114-.272a.364.364,0,0,0,.321-.164l4.322-6.612a.364.364,0,1,0-.609-.4l-4.208,6.438a27.662,27.662,0,0,0-2.893-.037,3.957,3.957,0,0,0-.947.16,1.383,1.383,0,0,0-.662.423,1.719,1.719,0,0,0-.262,1.314,17.064,17.064,0,0,0,.4,1.914c.189.777.425,1.745.646,2.911A.364.364,0,0,0,540.983,459.384Z" transform="translate(-246.519 -370.488)" fill="#231f20"/>
      <path id="Trazado_160053" data-name="Trazado 160053" d="M554.924,552.636a6.377,6.377,0,0,0,2.169-.4,10.245,10.245,0,0,0,2.866-1.673A.364.364,0,0,0,559.5,550a9.525,9.525,0,0,1-2.659,1.557,5.479,5.479,0,0,1-2.412.328,5.626,5.626,0,0,1-2.252-.753,9.645,9.645,0,0,1-2.159-1.762.364.364,0,0,0-.529.5,10.368,10.368,0,0,0,2.326,1.893,6.347,6.347,0,0,0,2.543.846Q554.642,552.637,554.924,552.636Z" transform="translate(-259.059 -456.466)" fill="#231f20"/>
      <path id="Trazado_160054" data-name="Trazado 160054" d="M489.691,478.763c-.422,1.107-.272,2.193.336,2.425s1.443-.478,1.865-1.585.272-2.193-.336-2.425-1.443.478-1.865,1.585" transform="translate(-180.969 -396.529)" fill="#231f20"/>
      <path id="Trazado_160055" data-name="Trazado 160055" d="M583.6,434.75c-.422,1.107-.272,2.193.336,2.425s1.443-.478,1.865-1.585.272-2.193-.336-2.425-1.443.478-1.865,1.585" transform="translate(-290.742 -359.951)" fill="#231f20"/>
      <path id="Trazado_160056" data-name="Trazado 160056" d="M450.9,422.554c-.857-.86-2.5-2.512-1.392-3.755.7-.784,2.051-.6,2.937-.316a18.118,18.118,0,0,1,7.874,6.572,3.435,3.435,0,0,1,.467,1.579,1.659,1.659,0,0,1-.716,1.421c-1.453.885-3.4-1.05-4.506-1.793a30.41,30.41,0,0,1-4.664-3.707" transform="translate(-142.816 -347.582)" fill="#231f20"/>
      <path id="Trazado_160057" data-name="Trazado 160057" d="M553.3,374.858c-.569-.541-1.089-1.1-.888-1.913a2.686,2.686,0,0,1,1.5-1.692c1.621-.522,3.841,1.438,4.961,2.313a12.488,12.488,0,0,1,3.385,3.543,2.968,2.968,0,0,1,.444,1.421,1.47,1.47,0,0,1-.681,1.279c-1.381.8-3.231-.945-4.284-1.614a28.707,28.707,0,0,1-4.434-3.336" transform="translate(-262.162 -308.462)" fill="#231f20"/>
      <path id="Trazado_160058" data-name="Trazado 160058" d="M283.433,293.845c-1.812.066-3.179-1.873-3.187-3.686a10.266,10.266,0,0,1,1.851-5.043l7.452-12.734c-.216-1.244-1.744-2.274-2.942-2.673-3.091-1.029-6.672.256-9.645-1.077-3.228-1.447-4.557-5.423-7.514-7.364-3.267-2.144-7.871-1.4-11.02-3.712a6.718,6.718,0,0,1,4.584-12.1c.012-2.247,1.835-4.109,3.841-5.122a11.924,11.924,0,0,1,10.361-.105c1.941.931,3.69,2.416,5.825,2.695,1.653.216,3.3-.331,4.97-.4a8.884,8.884,0,0,1,6.479,2.455c2.259,2.183,3.209,5.424,5.34,7.732,2.831,3.066,7.462,4.188,9.825,7.627a8.226,8.226,0,0,1-.217,9.364c3.065,1.317,4.34,4.682,4.264,8.018s-1.619,6.473-3.513,9.22c-3.81,5.527-6.706,10.764-12.681,14.242-3.348,1.949-6.915,3.691-9.566,6.516-1.785,1.9-3.073,4.216-4.758,6.207a3.081,3.081,0,0,1-1.566,1.156,2.268,2.268,0,0,1-2.419-1.648,6.323,6.323,0,0,1,.043-3.172,96.814,96.814,0,0,1,4.629-16.3" transform="translate(36.946 -198.701)" fill="#231f20"/>
      <path id="Trazado_160059" data-name="Trazado 160059" d="M1079.042,207.421h99.565a15.64,15.64,0,0,0,15.64-15.639v-2.657a15.64,15.64,0,0,0-15.64-15.64h-99.565a15.64,15.64,0,0,0-15.64,15.64v2.657a15.639,15.639,0,0,0,15.64,15.639" transform="translate(-980.043 -144.176)" fill="#159a43"/>
      <path id="Trazado_160060" data-name="Trazado 160060" d="M712.624,304.661h18.253a15.988,15.988,0,0,0,15.988-15.988v-1.96a15.988,15.988,0,0,0-15.988-15.988H712.624a15.988,15.988,0,0,0-15.988,15.988v1.96a15.988,15.988,0,0,0,15.988,15.988" transform="translate(-470.702 -224.989)" fill="#1169e3"/>
      <path id="Trazado_160079" data-name="Trazado 160079" d="M66.748,0H0V61.314H66.748Z" transform="translate(166.971 85.733)" fill="#0c6e30"/>
      <path id="Trazado_160061" data-name="Trazado 160061" d="M895.508,1062.6h64.7a23.074,23.074,0,0,0,23.074-23.074v-2.07a23.074,23.074,0,0,0-23.074-23.074h-64.7a23.074,23.074,0,0,0-23.074,23.074v2.07a23.074,23.074,0,0,0,23.074,23.074" transform="translate(-736.815 -843.013)" fill="#0c6e30"/>
      <path id="Trazado_160062" data-name="Trazado 160062" d="M1080.746,582.3a9.185,9.185,0,1,0,9.185-9.185,9.185,9.185,0,0,0-9.185,9.185" transform="translate(-887.843 -476.292)" fill="#fff"/>
      <path id="Trazado_160063" data-name="Trazado 160063" d="M1029.936,714.178a17.855,17.855,0,0,1,35.537,0Z" transform="translate(-845.616 -580.145)" fill="#fff"/>
      <path id="Rectángulo_39349" data-name="Rectángulo 39349" d="M107.793-2.154H13.488a15.756,15.756,0,0,0-3.152.318A15.558,15.558,0,0,0,4.742.518,15.686,15.686,0,0,0-.924,7.4a15.566,15.566,0,0,0-.912,2.937,15.756,15.756,0,0,0-.318,3.152v3.381a15.756,15.756,0,0,0,.318,3.152A15.558,15.558,0,0,0,.518,25.614,15.686,15.686,0,0,0,7.4,31.281a15.565,15.565,0,0,0,2.937.912,15.755,15.755,0,0,0,3.152.318h94.305a15.755,15.755,0,0,0,3.152-.318,15.558,15.558,0,0,0,5.594-2.354,15.686,15.686,0,0,0,5.667-6.881,15.565,15.565,0,0,0,.912-2.937,15.755,15.755,0,0,0,.318-3.152V13.488a15.755,15.755,0,0,0-.318-3.152,15.557,15.557,0,0,0-2.354-5.594,15.686,15.686,0,0,0-6.881-5.667,15.565,15.565,0,0,0-2.937-.912A15.756,15.756,0,0,0,107.793-2.154ZM13.488,31.782a15.026,15.026,0,0,1-3.006-.3A14.831,14.831,0,0,1,5.15,29.235a14.958,14.958,0,0,1-5.4-6.562,14.838,14.838,0,0,1-.869-2.8,15.027,15.027,0,0,1-.3-3.006V13.488a15.027,15.027,0,0,1,.3-3.006A14.83,14.83,0,0,1,1.121,5.15a14.958,14.958,0,0,1,6.562-5.4,14.837,14.837,0,0,1,2.8-.869,15.026,15.026,0,0,1,3.006-.3h94.305a15.026,15.026,0,0,1,3.006.3,14.83,14.83,0,0,1,5.332,2.244,14.958,14.958,0,0,1,5.4,6.562,14.838,14.838,0,0,1,.869,2.8,15.027,15.027,0,0,1,.3,3.006v3.381a15.027,15.027,0,0,1-.3,3.006,14.831,14.831,0,0,1-2.244,5.332,14.958,14.958,0,0,1-6.562,5.4,14.837,14.837,0,0,1-2.8.869,15.026,15.026,0,0,1-3.006.3Z" transform="translate(21.752 81.612)" fill="#ffd99d"/>
      <path id="Trazado_160064" data-name="Trazado 160064" d="M1549.652,525.93l-1.414,4.351h-4.575a1.255,1.255,0,0,0-.738,2.27l3.7,2.689-1.414,4.351a1.255,1.255,0,0,0,1.931,1.4l3.7-2.689,3.7,2.689a1.255,1.255,0,0,0,1.931-1.4l-1.414-4.351,3.7-2.689a1.255,1.255,0,0,0-.737-2.27h-4.575l-1.414-4.351a1.255,1.255,0,0,0-2.387,0" transform="translate(-1426.002 -436.36)" fill="#ffd99d"/>
      <path id="Trazado_160065" data-name="Trazado 160065" d="M1686.383,525.93l-1.414,4.351h-4.575a1.255,1.255,0,0,0-.738,2.27l3.7,2.689-1.414,4.351a1.255,1.255,0,0,0,1.931,1.4l3.7-2.689,3.7,2.689a1.255,1.255,0,0,0,1.931-1.4l-1.414-4.351,3.7-2.689a1.255,1.255,0,0,0-.737-2.27h-4.575l-1.414-4.351a1.255,1.255,0,0,0-2.387,0" transform="translate(-1585.832 -436.36)" fill="#ffd99d"/>
      <path id="Trazado_160066" data-name="Trazado 160066" d="M1802.717,525.93l-1.414,4.351h-4.575a1.255,1.255,0,0,0-.738,2.27l3.7,2.689-1.414,4.351a1.255,1.255,0,0,0,1.931,1.4l3.7-2.689,3.7,2.689a1.255,1.255,0,0,0,1.931-1.4l-1.414-4.351,3.7-2.689a1.255,1.255,0,0,0-.738-2.27h-4.575l-1.414-4.351a1.255,1.255,0,0,0-2.387,0" transform="translate(-1721.819 -436.36)" fill="#ffd99d"/>
      <path id="Trazado_160067" data-name="Trazado 160067" d="M1927.187,525.93l-1.414,4.351H1921.2a1.255,1.255,0,0,0-.737,2.27l3.7,2.689-1.414,4.351a1.255,1.255,0,0,0,1.931,1.4l3.7-2.689,3.7,2.689a1.255,1.255,0,0,0,1.931-1.4l-1.414-4.351,3.7-2.689a1.255,1.255,0,0,0-.738-2.27h-4.575l-1.414-4.351a1.255,1.255,0,0,0-2.387,0" transform="translate(-1867.316 -436.36)" fill="#ffd99d"/>
      <path id="Trazado_160068" data-name="Trazado 160068" d="M2054.381,525.93l-1.414,4.351h-4.575a1.255,1.255,0,0,0-.738,2.27l3.7,2.689-1.414,4.351a1.255,1.255,0,0,0,1.931,1.4l3.7-2.689,3.7,2.689a1.255,1.255,0,0,0,1.931-1.4l-1.414-4.351,3.7-2.689a1.255,1.255,0,0,0-.738-2.27h-4.575l-1.414-4.351a1.255,1.255,0,0,0-2.387,0" transform="translate(-2015.998 -436.36)" fill="#ffd99d"/>
      <path id="Trazado_160069" data-name="Trazado 160069" d="M295.8,523.31a12.952,12.952,0,1,0,12.952-12.952A12.952,12.952,0,0,0,295.8,523.31" transform="translate(22.175 -424.14)" fill="#f9c6b7"/>
      <path id="Trazado_160070" data-name="Trazado 160070" d="M315.806,540a.364.364,0,0,0,.364-.364,8.906,8.906,0,1,1,17.812,0,.364.364,0,1,0,.728,0,9.59,9.59,0,0,0-1.646-5.387,9.662,9.662,0,0,0-4.238-3.49,9.621,9.621,0,0,0-9.137.888,9.66,9.66,0,0,0-3.49,4.238,9.573,9.573,0,0,0-.757,3.75A.364.364,0,0,0,315.806,540Z" transform="translate(5.85 -440.464)" fill="#231f20"/>
      <path id="Trazado_160071" data-name="Trazado 160071" d="M1723.13,526.263a4.623,4.623,0,0,0-3.589-3.636l-22.4-8.564c-1.416-.541-3.133-1.047-4.342-.132-1.977,1.5-.359,4.641,1.474,6.312a38.733,38.733,0,0,0,11.182,7.118,6.151,6.151,0,0,1,2.618,1.607,6.064,6.064,0,0,1,.911,3.286c.615,6.774,2.779,13.6,7.3,18.685,2.873,3.228,16.752,12.145,15.936,2.583-.367-4.3-2.9-9.069-4.289-13.144Z" transform="translate(-1624.229 -426.689)" fill="#f9c6b7"/>
      <path id="Trazado_160072" data-name="Trazado 160072" d="M1809.032,549.513a.364.364,0,0,0,.272-.606,26.888,26.888,0,0,1-5.046-8.592,38.448,38.448,0,0,1-2.165-9.883l-.009-.1a12.811,12.811,0,0,0-.237-1.732,3.738,3.738,0,0,0-1.97-2.659,12.592,12.592,0,0,0-1.391-.645l-.145-.06a38.369,38.369,0,0,1-11.077-7.05,8.2,8.2,0,0,1-1.618-2.052,4.4,4.4,0,0,1-.639-2.236,1.991,1.991,0,0,1,.2-.8,1.882,1.882,0,0,1,.559-.66,2.482,2.482,0,0,1,1.835-.409,8.976,8.976,0,0,1,2.149.587l10.437,4.574a.364.364,0,1,0,.292-.666l-10.445-4.578-.016-.007a9.655,9.655,0,0,0-2.341-.634,3.975,3.975,0,0,0-1.215.044,2.8,2.8,0,0,0-1.135.508,2.6,2.6,0,0,0-.771.915,2.708,2.708,0,0,0-.274,1.1,5.105,5.105,0,0,0,.728,2.62,8.942,8.942,0,0,0,1.765,2.24,39.1,39.1,0,0,0,11.288,7.184l.146.061a3.991,3.991,0,0,1,3.151,4.429l.009.1a39.172,39.172,0,0,0,2.207,10.071,27.621,27.621,0,0,0,5.185,8.823A.363.363,0,0,0,1809.032,549.513Z" transform="translate(-1716.975 -424.901)" fill="#231f20"/>
      <path id="Trazado_160073" data-name="Trazado 160073" d="M758.559,1082.19l-16.683-24.167c-1.823-2.641-3.706-5.342-6.353-7.157-2.854-1.957-6.339-2.708-9.727-3.419-3.577-.75-25.177-7.153-25.053-2.246.085,3.377,6.336,4.569,8.59,5.091,4.58,1.059,9.238,2.133,13.272,4.661a152.338,152.338,0,0,0-20.491-5.09,8.282,8.282,0,0,0-3.4-.089,2.6,2.6,0,0,0-1.014,4.821,8.609,8.609,0,0,0,2.714,1.192l19.047,5.854c-6.137-1.758-11.726-2.848-17.968-4.185-1.84-.395-3.828-.757-5.548.005a2.333,2.333,0,0,0-1.411,1.442,2.661,2.661,0,0,0,1.351,2.543,16.685,16.685,0,0,0,5.5,2.261l15.785,4.378a113.147,113.147,0,0,0-18.654-3.111c-1.53-.1-3.549.232-3.786,1.747-.226,1.444,1.428,2.394,2.8,2.884a192.43,192.43,0,0,0,22.263,6.447c7.37,11.6,13.769,19.85,25.99,26.129Z" transform="translate(-482.032 -867.104)" fill="#f9c6b7"/>
      <path id="Trazado_160074" data-name="Trazado 160074" d="M1257,234.88a.364.364,0,0,0,.275-.6,50.526,50.526,0,0,0-12.05-10.185,12.2,12.2,0,0,0-1.965-.961,8.762,8.762,0,0,0-2.141-.537,3.738,3.738,0,0,0-3.717,1.426,5.952,5.952,0,0,0-.819,2.51,8.133,8.133,0,0,1-.392,1.648,3.747,3.747,0,0,1-1.1,1.505,5.007,5.007,0,0,1-1.7.914,7.04,7.04,0,0,1-4.077.023,12.334,12.334,0,0,1-2.792-1.282c-.9-.538-1.776-1.169-2.628-1.78-.587-.421-1.194-.856-1.8-1.26a18,18,0,0,0-4.27-2.053,17.353,17.353,0,0,0-2.324-.59,14.958,14.958,0,0,0-2.34-.238,10.607,10.607,0,0,0-4.4.779,7.665,7.665,0,0,0-3.409,2.8,15.1,15.1,0,0,0-.88,1.559,9.285,9.285,0,0,1-1.331,2.114,4.678,4.678,0,0,1-1.108.892,4.854,4.854,0,0,1-1.272.5,7.434,7.434,0,0,1-2.929.05,15.092,15.092,0,0,1-3.156-.912,26.031,26.031,0,0,1-3-1.442l-12.337-6.874a33.52,33.52,0,0,0-3.158-1.609,11.074,11.074,0,0,0-3.45-.908,6.987,6.987,0,0,0-3.616.685,5.486,5.486,0,0,0-1.486,1.066,4.475,4.475,0,0,0-1,1.547,8.613,8.613,0,0,0-.393,1.685,5.6,5.6,0,0,1-.578,2,3.146,3.146,0,0,1-2.326,1.4,6.362,6.362,0,0,1-3.089-.378,21.573,21.573,0,0,1-2.241-1.062,13.723,13.723,0,0,0-3.777-1.513.364.364,0,0,0-.133.715,12.986,12.986,0,0,1,3.574,1.443,22.1,22.1,0,0,0,2.318,1.1,7.4,7.4,0,0,0,1.7.424,6.456,6.456,0,0,0,1.758-.006,4.5,4.5,0,0,0,1.617-.544,3.4,3.4,0,0,0,1.228-1.206,6.228,6.228,0,0,0,.671-2.256,7.943,7.943,0,0,1,.355-1.544,3.748,3.748,0,0,1,.837-1.3,4.759,4.759,0,0,1,1.29-.923,6.014,6.014,0,0,1,1.573-.521,6.318,6.318,0,0,1,1.661-.091,10.368,10.368,0,0,1,3.224.853,31.883,31.883,0,0,1,3.087,1.574l12.338,6.874a26.741,26.741,0,0,0,3.081,1.482,15.808,15.808,0,0,0,3.31.954,8.151,8.151,0,0,0,3.217-.061,5.4,5.4,0,0,0,2.743-1.61,9.988,9.988,0,0,0,1.442-2.274,14.543,14.543,0,0,1,.836-1.484,6.949,6.949,0,0,1,3.092-2.536,9.888,9.888,0,0,1,4.1-.721,14.224,14.224,0,0,1,2.225.227,16.612,16.612,0,0,1,2.226.565,17.269,17.269,0,0,1,4.1,1.969c.6.4,1.2.828,1.782,1.245a19.655,19.655,0,0,0,5.634,3.167,7.785,7.785,0,0,0,4.508-.027,5.729,5.729,0,0,0,1.95-1.049,4.465,4.465,0,0,0,1.306-1.8,8.8,8.8,0,0,0,.432-1.795,5.336,5.336,0,0,1,.7-2.215,2.533,2.533,0,0,1,1.291-.971,4.072,4.072,0,0,1,1.75-.147,8.039,8.039,0,0,1,1.961.494,11.46,11.46,0,0,1,1.846.9,49.795,49.795,0,0,1,11.875,10.038A.364.364,0,0,0,1257,234.88Z" transform="translate(-1058.433 -183.124)" fill="#b4daef"/>
      <path id="Trazado_160075" data-name="Trazado 160075" d="M1237.907,1401.138h92.706a16.276,16.276,0,0,0,16.276-16.276h0a16.276,16.276,0,0,0-16.276-16.276h-92.706a16.276,16.276,0,0,0-16.276,16.276h0a16.276,16.276,0,0,0,16.276,16.276" transform="translate(-1159.417 -1137.382)" fill="#159a43"/>
      <path id="Trazado_160076" data-name="Trazado 160076" d="M1369.747,1448.122h.105a6.009,6.009,0,0,0,4.3-1.669,10.069,10.069,0,0,0,1.339-1.824,11.18,11.18,0,0,1,1.033-1.477,6.06,6.06,0,0,1,3.844-1.936,9.008,9.008,0,0,1,4.519.6,14.823,14.823,0,0,1,3.889,2.434,46.052,46.052,0,0,1,3.414,3.272.364.364,0,0,0,.522-.507,46.569,46.569,0,0,0-3.47-3.324,15.532,15.532,0,0,0-4.081-2.55,9.75,9.75,0,0,0-4.89-.647,7.6,7.6,0,0,0-2.344.695,6.209,6.209,0,0,0-1.951,1.483,11.905,11.905,0,0,0-1.1,1.572,9.4,9.4,0,0,1-1.238,1.7,4.682,4.682,0,0,1-1.723,1.094,6.233,6.233,0,0,1-2.073.36h-.1a9.585,9.585,0,0,1-4.217-1.049,28.629,28.629,0,0,1-3.89-2.525,30.937,30.937,0,0,0-3.751-2.464,10.7,10.7,0,0,0-4.612-1.257,7.119,7.119,0,0,0-2.329.311,5.526,5.526,0,0,0-2.049,1.164,10.992,10.992,0,0,0-1.745,2.237,6,6,0,0,1-2.634,2.684,3.119,3.119,0,0,1-1.337.183,4.917,4.917,0,0,1-1.389-.326,16.351,16.351,0,0,1-2.787-1.5l-.132-.083a34.815,34.815,0,0,0-9.209-4.033,4.1,4.1,0,0,0-2.212-.155,2.836,2.836,0,0,0-1.369.912,9.285,9.285,0,0,0-.91,1.325,10.111,10.111,0,0,1-.753,1.128,4.779,4.779,0,0,1-3.235,1.643,8.233,8.233,0,0,1-3.911-.541,23.587,23.587,0,0,1-4.225-2.382c-.9-.593-1.833-1.206-2.8-1.727a6.476,6.476,0,0,0-1.522-.62,2.948,2.948,0,0,0-1.691.037,4.32,4.32,0,0,0-2.2,2.514,12.079,12.079,0,0,1-.617,1.137,3.259,3.259,0,0,1-.764.864,2.976,2.976,0,0,1-2.258.473,10.622,10.622,0,0,1-2.6-.778l-10.7-4.424a.364.364,0,1,0-.278.672l10.7,4.424a11.289,11.289,0,0,0,2.787.828,4.623,4.623,0,0,0,1.443-.026,3.227,3.227,0,0,0,1.344-.587,6,6,0,0,0,1.6-2.258,8.8,8.8,0,0,1,.771-1.353,2.145,2.145,0,0,1,1.019-.8,2.21,2.21,0,0,1,1.278-.017,5.792,5.792,0,0,1,1.351.554c.942.505,1.86,1.109,2.748,1.693a24.135,24.135,0,0,0,4.359,2.452,8.977,8.977,0,0,0,4.264.586,5.49,5.49,0,0,0,3.712-1.906,10.641,10.641,0,0,0,.811-1.21c.522-.862,1.016-1.677,1.855-1.914a3.507,3.507,0,0,1,1.822.156,34.067,34.067,0,0,1,9.016,3.949l.132.082a17.167,17.167,0,0,0,2.916,1.568,4.489,4.489,0,0,0,3.236.144,6.614,6.614,0,0,0,2.99-2.969,10.486,10.486,0,0,1,1.623-2.094,4.8,4.8,0,0,1,1.781-1.01,6.4,6.4,0,0,1,2.091-.277,9.961,9.961,0,0,1,4.29,1.174,30.379,30.379,0,0,1,3.661,2.408,29.164,29.164,0,0,0,3.991,2.587A10.327,10.327,0,0,0,1369.747,1448.122Z" transform="translate(-1216.455 -1196.812)" fill="#231f20"/>
      <path id="Trazado_160077" data-name="Trazado 160077" d="M544.167,663.7l18.925.939-22.774,5.457Z" transform="translate(-260.522 -551.574)" fill="#f4a592"/>
      <path id="Línea_1005" data-name="Línea 1005" d="M-1.79,11.965a.364.364,0,0,0,.343-.242L3.326-1.668a.364.364,0,0,0-.221-.465.364.364,0,0,0-.465.221L-2.133,11.479a.364.364,0,0,0,.221.465A.363.363,0,0,0-1.79,11.965Z" transform="translate(326.048 91.885)" fill="#231f20"/>
      <path id="Línea_1006" data-name="Línea 1006" d="M4.007,19.944a.364.364,0,0,0,.351-.459l-5.8-21.37a.364.364,0,0,0-.446-.256.364.364,0,0,0-.256.446l5.8,21.37A.364.364,0,0,0,4.007,19.944Z" transform="translate(313.967 195.463)" fill="#231f20"/>
      <path id="Línea_1007" data-name="Línea 1007" d="M14.361,6.914a.364.364,0,0,0,.167-.687L-1.623-2.113a.364.364,0,0,0-.49.156.364.364,0,0,0,.156.49l16.151,8.34A.362.362,0,0,0,14.361,6.914Z" transform="translate(325.835 234.946)" fill="#231f20"/>
      <path id="Trazado_160078" data-name="Trazado 160078" d="M1609.771,896h111.561a1.529,1.529,0,0,0,1.529-1.529v-75.92a1.529,1.529,0,0,0-1.529-1.529H1609.771a1.529,1.529,0,0,0-1.529,1.529v75.92a1.529,1.529,0,0,0,1.529,1.529" transform="translate(-1600.699 -678.998)" fill="#9fc3f4"/>
      <path id="Rectángulo_39350" data-name="Rectángulo 39350" d="M.364,2.736H2.025a.364.364,0,0,0,.364-.364V.364A.364.364,0,0,0,2.025,0H.364A.364.364,0,0,0,0,.364V2.372A.364.364,0,0,0,.364,2.736Zm1.3-.728H.728V.728h.934Z" transform="translate(118.065 146.044) rotate(-179.825)" fill="#b4daef"/>
      <path id="Rectángulo_39351" data-name="Rectángulo 39351" d="M.364,2.736H4.092a.364.364,0,0,0,.364-.364V.364A.364.364,0,0,0,4.092,0H.364A.364.364,0,0,0,0,.364V2.372A.364.364,0,0,0,.364,2.736Zm3.364-.728h-3V.728h3Z" transform="translate(114.872 146.034) rotate(-179.826)" fill="#b4daef"/>
      <path id="Rectángulo_39352" data-name="Rectángulo 39352" d="M.364,2.736h5.49a.364.364,0,0,0,.364-.364V.364A.364.364,0,0,0,5.853,0H.364A.364.364,0,0,0,0,.364V2.372A.364.364,0,0,0,.364,2.736ZM5.49,2.008H.728V.728H5.49Z" transform="translate(109.234 146.017) rotate(-179.825)" fill="#b4daef"/>
      <path id="Rectángulo_39353" data-name="Rectángulo 39353" d="M.364,2.736H6.3a.364.364,0,0,0,.364-.364V.364A.364.364,0,0,0,6.3,0H.364A.364.364,0,0,0,0,.364V2.372A.364.364,0,0,0,.364,2.736Zm5.574-.728H.728V.728H5.938Z" transform="translate(79.483 145.926) rotate(-179.826)" fill="#b4daef"/>
      <path id="Rectángulo_39354" data-name="Rectángulo 39354" d="M.364,2.736H11.136a.364.364,0,0,0,.364-.364V.364A.364.364,0,0,0,11.136,0H.364A.364.364,0,0,0,0,.364V2.372A.364.364,0,0,0,.364,2.736Zm10.408-.728H.728V.728H10.772Z" transform="matrix(-1, -0.003, 0.003, -1, 97.805, 145.982)" fill="#b4daef"/>
      <path id="Rectángulo_39355" data-name="Rectángulo 39355" d="M.364,2.736H4.142a.364.364,0,0,0,.364-.364V.364A.364.364,0,0,0,4.142,0H.364A.364.364,0,0,0,0,.364V2.372A.364.364,0,0,0,.364,2.736Zm3.414-.728H.728V.728H3.778Z" transform="matrix(-1, -0.003, 0.003, -1, 102.791, 145.997)" fill="#b4daef"/>
      <path id="Rectángulo_39356" data-name="Rectángulo 39356" d="M.364,2.736H4.142a.364.364,0,0,0,.364-.364V.364A.364.364,0,0,0,4.142,0H.364A.364.364,0,0,0,0,.364V2.372A.364.364,0,0,0,.364,2.736Zm3.414-.728H.728V.728H3.778Z" transform="matrix(-1, -0.003, 0.003, -1, 85.07, 145.943)" fill="#b4daef"/>
      <path id="Rectángulo_39357" data-name="Rectángulo 39357" d="M.364,2.736H2.9a.364.364,0,0,0,.364-.364V.364A.364.364,0,0,0,2.9,0H.364A.364.364,0,0,0,0,.364V2.372A.364.364,0,0,0,.364,2.736Zm2.17-.728H.728V.728H2.534Z" transform="matrix(-1, -0.003, 0.003, -1, 44.5, 145.82)" fill="#b4daef"/>
      <path id="Rectángulo_39358" data-name="Rectángulo 39358" d="M.364,2.736H17.83a.364.364,0,0,0,.364-.364V.364A.364.364,0,0,0,17.83,0H.364A.364.364,0,0,0,0,.364V2.372A.364.364,0,0,0,.364,2.736Zm17.1-.728H.728V.728H17.466Z" transform="translate(40.322 145.807) rotate(-179.825)" fill="#b4daef"/>
      <path id="Rectángulo_39359" data-name="Rectángulo 39359" d="M.364,2.736h9.664a.364.364,0,0,0,.364-.364V.364A.364.364,0,0,0,10.028,0H.364A.364.364,0,0,0,0,.364V2.372A.364.364,0,0,0,.364,2.736Zm9.3-.728H.728V.728H9.664Z" transform="translate(55.825 145.854) rotate(-179.826)" fill="#b4daef"/>
      <path id="Rectángulo_39360" data-name="Rectángulo 39360" d="M.364,2.736H12.819a.364.364,0,0,0,.364-.364V.364A.364.364,0,0,0,12.819,0H.364A.364.364,0,0,0,0,.364V2.372A.364.364,0,0,0,.364,2.736Zm12.091-.728H.728V.728H12.455Z" transform="matrix(-1, -0.003, 0.003, -1, 71.351, 145.902)" fill="#b4daef"/>
      <path id="Rectángulo_39361" data-name="Rectángulo 39361" d="M.364,2.736H2.025a.364.364,0,0,0,.364-.364V.364A.364.364,0,0,0,2.025,0H.364A.364.364,0,0,0,0,.364V2.372A.364.364,0,0,0,.364,2.736Zm1.3-.728H.728V.728h.934Z" transform="translate(118.049 151.213) rotate(-179.825)" fill="#b4daef"/>
      <path id="Rectángulo_39362" data-name="Rectángulo 39362" d="M.364,2.736h9.667a.364.364,0,0,0,.364-.364V.364A.364.364,0,0,0,10.031,0H.364A.364.364,0,0,0,0,.364V2.372A.364.364,0,0,0,.364,2.736Zm9.3-.728H.728V.728h8.94Z" transform="matrix(-1, -0.003, 0.003, -1, 114.856, 151.203)" fill="#b4daef"/>
      <path id="Rectángulo_39363" data-name="Rectángulo 39363" d="M.364,2.736H21.557a.364.364,0,0,0,.364-.364V.364A.364.364,0,0,0,21.557,0H.364A.364.364,0,0,0,0,.364V2.372A.364.364,0,0,0,.364,2.736Zm20.829-.728H.728V.728H21.193Z" transform="matrix(-1, -0.003, 0.003, -1, 94.722, 151.142)" fill="#b4daef"/>
      <path id="Rectángulo_39364" data-name="Rectángulo 39364" d="M.364,2.736H6.407a.364.364,0,0,0,.364-.364V.364A.364.364,0,0,0,6.407,0H.364A.364.364,0,0,0,0,.364V2.372A.364.364,0,0,0,.364,2.736Zm5.679-.728H.728V.728H6.043Z" transform="translate(102.776 151.167) rotate(-179.825)" fill="#b4daef"/>
      <path id="Rectángulo_39365" data-name="Rectángulo 39365" d="M.364,2.736H37.433a.364.364,0,0,0,.364-.364V.364A.364.364,0,0,0,37.433,0H.364A.364.364,0,0,0,0,.364V2.372A.364.364,0,0,0,.364,2.736Zm36.705-.728H.728V.728H37.069Z" transform="translate(71.334 151.07) rotate(-179.826)" fill="#b4daef"/>
      <path id="Rectángulo_39366" data-name="Rectángulo 39366" d="M.364,2.736H2.025a.364.364,0,0,0,.364-.364V.364A.364.364,0,0,0,2.025,0H.364A.364.364,0,0,0,0,.364V2.372A.364.364,0,0,0,.364,2.736Zm1.3-.728H.728V.728h.934Z" transform="translate(118.033 156.433) rotate(-179.825)" fill="#b4daef"/>
      <path id="Rectángulo_39367" data-name="Rectángulo 39367" d="M.364,2.736H5.2a.364.364,0,0,0,.364-.364V.364A.364.364,0,0,0,5.2,0H.364A.364.364,0,0,0,0,.364V2.372A.364.364,0,0,0,.364,2.736Zm4.47-.728H.728V.728H4.834Z" transform="translate(114.84 156.424) rotate(-179.826)" fill="#b4daef"/>
      <path id="Rectángulo_39368" data-name="Rectángulo 39368" d="M.364,2.736H12.8a.364.364,0,0,0,.364-.364V.364A.364.364,0,0,0,12.8,0H.364A.364.364,0,0,0,0,.364V2.372A.364.364,0,0,0,.364,2.736Zm12.071-.728H.728V.728H12.434Z" transform="translate(89.872 156.348) rotate(-179.826)" fill="#b4daef"/>
      <path id="Rectángulo_39369" data-name="Rectángulo 39369" d="M.364,2.736H3.588a.364.364,0,0,0,.364-.364V.364A.364.364,0,0,0,3.588,0H.364A.364.364,0,0,0,0,.364V2.372A.364.364,0,0,0,.364,2.736Zm2.861-.728H.728V.728h2.5Z" transform="matrix(-1, -0.003, 0.003, -1, 94.705, 156.362)" fill="#b4daef"/>
      <path id="Rectángulo_39370" data-name="Rectángulo 39370" d="M.364,2.736H11.941a.364.364,0,0,0,.364-.364V.364A.364.364,0,0,0,11.941,0H.364A.364.364,0,0,0,0,.364V2.372A.364.364,0,0,0,.364,2.736Zm11.213-.728H.728V.728h10.85Z" transform="matrix(-1, -0.003, 0.003, -1, 108.293, 156.404)" fill="#b4daef"/>
      <path id="Rectángulo_39371" data-name="Rectángulo 39371" d="M.364,2.736H13a.364.364,0,0,0,.364-.364V.364A.364.364,0,0,0,13,0H.364A.364.364,0,0,0,0,.364V2.372A.364.364,0,0,0,.364,2.736Zm12.271-.728H.728V.728H12.634Z" transform="translate(61.985 156.263) rotate(-179.825)" fill="#b4daef"/>
      <path id="Rectángulo_39372" data-name="Rectángulo 39372" d="M.364,2.736H5.548a.364.364,0,0,0,.364-.364V.364A.364.364,0,0,0,5.548,0H.364A.364.364,0,0,0,0,.364V2.372A.364.364,0,0,0,.364,2.736Zm4.821-.728H.728V.728H5.185Z" transform="translate(75.927 156.305) rotate(-179.824)" fill="#b4daef"/>
      <path id="Rectángulo_39373" data-name="Rectángulo 39373" d="M.364,2.736H5.548a.364.364,0,0,0,.364-.364V.364A.364.364,0,0,0,5.548,0H.364A.364.364,0,0,0,0,.364V2.372A.364.364,0,0,0,.364,2.736Zm4.821-.728H.728V.728H5.185Z" transform="translate(68.901 156.284) rotate(-179.824)" fill="#b4daef"/>
      <path id="Rectángulo_39374" data-name="Rectángulo 39374" d="M.364,2.736H2.025a.364.364,0,0,0,.364-.364V.364A.364.364,0,0,0,2.025,0H.364A.364.364,0,0,0,0,.364V2.372A.364.364,0,0,0,.364,2.736Zm1.3-.728H.728V.728h.934Z" transform="translate(118 167.342) rotate(-179.825)" fill="#b4daef"/>
      <path id="Rectángulo_39375" data-name="Rectángulo 39375" d="M.364,2.736h9.667a.364.364,0,0,0,.364-.364V.364A.364.364,0,0,0,10.031,0H.364A.364.364,0,0,0,0,.364V2.372A.364.364,0,0,0,.364,2.736Zm9.3-.728H.728V.728h8.94Z" transform="matrix(-1, -0.003, 0.003, -1, 114.807, 167.332)" fill="#b4daef"/>
      <path id="Rectángulo_39376" data-name="Rectángulo 39376" d="M.364,2.736h9.667a.364.364,0,0,0,.364-.364V.364A.364.364,0,0,0,10.031,0H.364A.364.364,0,0,0,0,.364V2.372A.364.364,0,0,0,.364,2.736Zm9.3-.728H.728V.728h8.94Z" transform="matrix(-1, -0.003, 0.003, -1, 83.147, 167.236)" fill="#b4daef"/>
      <path id="Rectángulo_39377" data-name="Rectángulo 39377" d="M.364,2.736h9.667a.364.364,0,0,0,.364-.364V.364A.364.364,0,0,0,10.031,0H.364A.364.364,0,0,0,0,.364V2.372A.364.364,0,0,0,.364,2.736Zm9.3-.728H.728V.728h8.94Z" transform="matrix(-1, -0.003, 0.003, -1, 94.673, 167.271)" fill="#b4daef"/>
      <path id="Rectángulo_39378" data-name="Rectángulo 39378" d="M.364,2.736H6.407a.364.364,0,0,0,.364-.364V.364A.364.364,0,0,0,6.407,0H.364A.364.364,0,0,0,0,.364V2.372A.364.364,0,0,0,.364,2.736Zm5.679-.728H.728V.728H6.043Z" transform="translate(102.726 167.296) rotate(-179.825)" fill="#b4daef"/>
      <path id="Rectángulo_39379" data-name="Rectángulo 39379" d="M.364,2.736H2.025a.364.364,0,0,0,.364-.364V.364A.364.364,0,0,0,2.025,0H.364A.364.364,0,0,0,0,.364V2.372A.364.364,0,0,0,.364,2.736Zm1.3-.728H.728V.728h.934Z" transform="translate(109.052 197.723) rotate(-179.825)" fill="#b4daef"/>
      <path id="Rectángulo_39380" data-name="Rectángulo 39380" d="M.364,2.736h9.667a.364.364,0,0,0,.364-.364V.364A.364.364,0,0,0,10.031,0H.364A.364.364,0,0,0,0,.364V2.372A.364.364,0,0,0,.364,2.736Zm9.3-.728H.728V.728h8.94Z" transform="matrix(-1, -0.003, 0.003, -1, 105.858, 197.714)" fill="#b4daef"/>
      <path id="Rectángulo_39381" data-name="Rectángulo 39381" d="M.364,2.736h9.667a.364.364,0,0,0,.364-.364V.364A.364.364,0,0,0,10.031,0H.364A.364.364,0,0,0,0,.364V2.372A.364.364,0,0,0,.364,2.736Zm9.3-.728H.728V.728h8.94Z" transform="matrix(-1, -0.003, 0.003, -1, 74.199, 197.617)" fill="#b4daef"/>
      <path id="Rectángulo_39382" data-name="Rectángulo 39382" d="M.364,2.736h9.667a.364.364,0,0,0,.364-.364V.364A.364.364,0,0,0,10.031,0H.364A.364.364,0,0,0,0,.364V2.372A.364.364,0,0,0,.364,2.736Zm9.3-.728H.728V.728h8.94Z" transform="matrix(-1, -0.003, 0.003, -1, 85.724, 197.652)" fill="#b4daef"/>
      <path id="Rectángulo_39383" data-name="Rectángulo 39383" d="M.364,2.736H6.407a.364.364,0,0,0,.364-.364V.364A.364.364,0,0,0,6.407,0H.364A.364.364,0,0,0,0,.364V2.372A.364.364,0,0,0,.364,2.736Zm5.679-.728H.728V.728H6.043Z" transform="translate(93.777 197.677) rotate(-179.825)" fill="#b4daef"/>
      <path id="Rectángulo_39384" data-name="Rectángulo 39384" d="M.364,2.736h16.03a.364.364,0,0,0,.364-.364V.364A.364.364,0,0,0,16.394,0H.364A.364.364,0,0,0,0,.364V2.372A.364.364,0,0,0,.364,2.736ZM16.03,2.008H.728V.728h15.3Z" transform="translate(29.872 197.482) rotate(-179.826)" fill="#b4daef"/>
      <path id="Rectángulo_39385" data-name="Rectángulo 39385" d="M.364,2.736h16.03a.364.364,0,0,0,.364-.364V.364A.364.364,0,0,0,16.394,0H.364A.364.364,0,0,0,0,.364V2.372A.364.364,0,0,0,.364,2.736ZM16.03,2.008H.728V.728h15.3Z" transform="translate(48.983 197.54) rotate(-179.826)" fill="#b4daef"/>
      <path id="Rectángulo_39386" data-name="Rectángulo 39386" d="M.364,2.736H10.384a.364.364,0,0,0,.364-.364V.364A.364.364,0,0,0,10.384,0H.364A.364.364,0,0,0,0,.364V2.372A.364.364,0,0,0,.364,2.736Zm9.657-.728H.728V.728h9.293Z" transform="translate(62.337 197.581) rotate(-179.825)" fill="#b4daef"/>
      <path id="Rectángulo_39387" data-name="Rectángulo 39387" d="M.364,2.736H2.025a.364.364,0,0,0,.364-.364V.364A.364.364,0,0,0,2.025,0H.364A.364.364,0,0,0,0,.364V2.372A.364.364,0,0,0,.364,2.736Zm1.3-.728H.728V.728h.934Z" transform="translate(117.984 172.512) rotate(-179.825)" fill="#b4daef"/>
      <path id="Rectángulo_39388" data-name="Rectángulo 39388" d="M.364,2.736H2.781a.364.364,0,0,0,.364-.364V.364A.364.364,0,0,0,2.781,0H.364A.364.364,0,0,0,0,.364V2.372A.364.364,0,0,0,.364,2.736Zm2.053-.728H.728V.728H2.417Z" transform="translate(114.791 172.502) rotate(-179.824)" fill="#b4daef"/>
      <path id="Rectángulo_39389" data-name="Rectángulo 39389" d="M.364,2.736h9.667a.364.364,0,0,0,.364-.364V.364A.364.364,0,0,0,10.031,0H.364A.364.364,0,0,0,0,.364V2.372A.364.364,0,0,0,.364,2.736Zm9.3-.728H.728V.728h8.94Z" transform="matrix(-1, -0.003, 0.003, -1, 87.36, 172.418)" fill="#b4daef"/>
      <path id="Rectángulo_39390" data-name="Rectángulo 39390" d="M.364,2.736H14.006a.364.364,0,0,0,.364-.364V.364A.364.364,0,0,0,14.006,0H.364A.364.364,0,0,0,0,.364V2.372A.364.364,0,0,0,.364,2.736Zm13.279-.728H.728V.728H13.643Z" transform="translate(102.558 172.465) rotate(-179.825)" fill="#b4daef"/>
      <path id="Rectángulo_39391" data-name="Rectángulo 39391" d="M.364,2.736H6.407a.364.364,0,0,0,.364-.364V.364A.364.364,0,0,0,6.407,0H.364A.364.364,0,0,0,0,.364V2.372A.364.364,0,0,0,.364,2.736Zm5.679-.728H.728V.728H6.043Z" transform="translate(110.628 172.489) rotate(-179.825)" fill="#b4daef"/>
      <path id="Rectángulo_39392" data-name="Rectángulo 39392" d="M.364,2.736H2.025a.364.364,0,0,0,.364-.364V.364A.364.364,0,0,0,2.025,0H.364A.364.364,0,0,0,0,.364V2.372A.364.364,0,0,0,.364,2.736Zm1.3-.728H.728V.728h.934Z" transform="translate(117.969 177.732) rotate(-179.825)" fill="#b4daef"/>
      <path id="Rectángulo_39393" data-name="Rectángulo 39393" d="M.364,2.736h9.667a.364.364,0,0,0,.364-.364V.364A.364.364,0,0,0,10.031,0H.364A.364.364,0,0,0,0,.364V2.372A.364.364,0,0,0,.364,2.736Zm9.3-.728H.728V.728h8.94Z" transform="matrix(-1, -0.003, 0.003, -1, 114.775, 177.722)" fill="#b4daef"/>
      <path id="Rectángulo_39394" data-name="Rectángulo 39394" d="M.364,2.736h8.1a.364.364,0,0,0,.364-.364V.364A.364.364,0,0,0,8.468,0H.364A.364.364,0,0,0,0,.364V2.372A.364.364,0,0,0,.364,2.736ZM8.1,2.008H.728V.728H8.1Z" transform="translate(84.269 177.629) rotate(-179.826)" fill="#b4daef"/>
      <path id="Rectángulo_39395" data-name="Rectángulo 39395" d="M.364,2.736h5.32a.364.364,0,0,0,.364-.364V.364A.364.364,0,0,0,5.684,0H.364A.364.364,0,0,0,0,.364V2.372A.364.364,0,0,0,.364,2.736ZM5.32,2.008H.728V.728H5.32Z" transform="translate(97.693 177.67) rotate(-179.825)" fill="#b4daef"/>
      <path id="Rectángulo_39396" data-name="Rectángulo 39396" d="M.364,2.736h5.32a.364.364,0,0,0,.364-.364V.364A.364.364,0,0,0,5.684,0H.364A.364.364,0,0,0,0,.364V2.372A.364.364,0,0,0,.364,2.736ZM5.32,2.008H.728V.728H5.32Z" transform="translate(90.992 177.65) rotate(-179.825)" fill="#b4daef"/>
      <path id="Rectángulo_39397" data-name="Rectángulo 39397" d="M.364,2.736H3.21a.364.364,0,0,0,.364-.364V.364A.364.364,0,0,0,3.21,0H.364A.364.364,0,0,0,0,.364V2.372A.364.364,0,0,0,.364,2.736Zm2.483-.728H.728V.728H2.846Z" transform="matrix(-1, -0.003, 0.003, -1, 102.694, 177.685)" fill="#b4daef"/>
      <path id="Rectángulo_39398" data-name="Rectángulo 39398" d="M.364,2.736H10.992a.364.364,0,0,0,.364-.364V.364A.364.364,0,0,0,10.992,0H.364A.364.364,0,0,0,0,.364V2.372A.364.364,0,0,0,.364,2.736Zm10.264-.728H.728V.728h9.9Z" transform="translate(25.225 177.449) rotate(-179.825)" fill="#b4daef"/>
      <path id="Rectángulo_39399" data-name="Rectángulo 39399" d="M.364,2.736H2.025a.364.364,0,0,0,.364-.364V.364A.364.364,0,0,0,2.025,0H.364A.364.364,0,0,0,0,.364V2.372A.364.364,0,0,0,.364,2.736Zm1.3-.728H.728V.728h.934Z" transform="translate(117.953 182.901) rotate(-179.825)" fill="#b4daef"/>
      <path id="Rectángulo_39400" data-name="Rectángulo 39400" d="M.364,2.736h9.668a.364.364,0,0,0,.364-.364V.364A.364.364,0,0,0,10.031,0H.364A.364.364,0,0,0,0,.364V2.372A.364.364,0,0,0,.364,2.736Zm9.3-.728H.728V.728h8.94Z" transform="matrix(-1, -0.003, 0.003, -1, 114.76, 182.891)" fill="#b4daef"/>
      <path id="Rectángulo_39401" data-name="Rectángulo 39401" d="M.364,2.736H22.817a.364.364,0,0,0,.364-.364V.364A.364.364,0,0,0,22.817,0H.364A.364.364,0,0,0,0,.364V2.372A.364.364,0,0,0,.364,2.736Zm22.089-.728H.728V.728H22.453Z" transform="translate(94.625 182.83) rotate(-179.825)" fill="#b4daef"/>
      <path id="Rectángulo_39402" data-name="Rectángulo 39402" d="M.364,2.736H6.407a.364.364,0,0,0,.364-.364V.364A.364.364,0,0,0,6.407,0H.364A.364.364,0,0,0,0,.364V2.372A.364.364,0,0,0,.364,2.736Zm5.68-.728H.728V.728H6.043Z" transform="translate(102.679 182.854) rotate(-179.825)" fill="#b4daef"/>
      <path id="Rectángulo_39403" data-name="Rectángulo 39403" d="M.364,2.736H2.025a.364.364,0,0,0,.364-.364V.364A.364.364,0,0,0,2.025,0H.364A.364.364,0,0,0,0,.364V2.372A.364.364,0,0,0,.364,2.736Zm1.3-.728H.728V.728h.934Z" transform="translate(108.889 193.433) rotate(-179.825)" fill="#b4daef"/>
      <path id="Rectángulo_39404" data-name="Rectángulo 39404" d="M.364,2.736h9.667a.364.364,0,0,0,.364-.364V.364A.364.364,0,0,0,10.031,0H.364A.364.364,0,0,0,0,.364V2.372A.364.364,0,0,0,.364,2.736Zm9.3-.728H.728V.728h8.94Z" transform="matrix(-1, -0.003, 0.003, -1, 105.697, 193.424)" fill="#b4daef"/>
      <path id="Rectángulo_39405" data-name="Rectángulo 39405" d="M.364,2.736H5.2a.364.364,0,0,0,.364-.364V.364A.364.364,0,0,0,5.2,0H.364A.364.364,0,0,0,0,.364V2.372A.364.364,0,0,0,.364,2.736Zm4.47-.728H.728V.728H4.834Z" transform="translate(74.036 193.327) rotate(-179.826)" fill="#b4daef"/>
      <path id="Rectángulo_39406" data-name="Rectángulo 39406" d="M.364,2.736h9.667a.364.364,0,0,0,.364-.364V.364A.364.364,0,0,0,10.031,0H.364A.364.364,0,0,0,0,.364V2.372A.364.364,0,0,0,.364,2.736Zm9.3-.728H.728V.728h8.94Z" transform="matrix(-1, -0.003, 0.003, -1, 85.562, 193.362)" fill="#b4daef"/>
      <path id="Rectángulo_39407" data-name="Rectángulo 39407" d="M.364,2.736H6.407a.364.364,0,0,0,.364-.364V.364A.364.364,0,0,0,6.407,0H.364A.364.364,0,0,0,0,.364V2.372A.364.364,0,0,0,.364,2.736Zm5.679-.728H.728V.728H6.043Z" transform="translate(93.616 193.387) rotate(-179.825)" fill="#b4daef"/>
      <path id="Rectángulo_39408" data-name="Rectángulo 39408" d="M.364,2.736H14.517a.364.364,0,0,0,.364-.364V.364A.364.364,0,0,0,14.517,0H.364A.364.364,0,0,0,0,.364V2.372A.364.364,0,0,0,.364,2.736Zm13.789-.728H.728V.728H14.153Z" transform="translate(46.524 193.244) rotate(-179.826)" fill="#b4daef"/>
      <path id="Rectángulo_39409" data-name="Rectángulo 39409" d="M.364,2.736h11.41a.364.364,0,0,0,.364-.364V.364A.364.364,0,0,0,11.774,0H.364A.364.364,0,0,0,0,.364V2.372A.364.364,0,0,0,.364,2.736ZM11.41,2.008H.728V.728H11.41Z" transform="translate(59.67 193.284) rotate(-179.825)" fill="#b4daef"/>
      <path id="Rectángulo_39410" data-name="Rectángulo 39410" d="M.364,2.736H6.627a.364.364,0,0,0,.364-.364V.364A.364.364,0,0,0,6.627,0H.364A.364.364,0,0,0,0,.364V2.372A.364.364,0,0,0,.364,2.736Zm5.9-.728H.728V.728H6.263Z" transform="translate(67.862 193.309) rotate(-179.825)" fill="#b4daef"/>
      <path id="Rectángulo_39411" data-name="Rectángulo 39411" d="M.364,2.736H2.025a.364.364,0,0,0,.364-.364V.364A.364.364,0,0,0,2.025,0H.364A.364.364,0,0,0,0,.364V2.372A.364.364,0,0,0,.364,2.736Zm1.3-.728H.728V.728h.934Z" transform="translate(111.408 161.868) rotate(-179.825)" fill="#b4daef"/>
      <path id="Rectángulo_39412" data-name="Rectángulo 39412" d="M.364,2.736H7.548a.364.364,0,0,0,.364-.364V.364A.364.364,0,0,0,7.548,0H.364A.364.364,0,0,0,0,.364V2.372A.364.364,0,0,0,.364,2.736Zm6.82-.728H.728V.728H7.184Z" transform="matrix(-1, -0.003, 0.003, -1, 108.214, 161.858)" fill="#b4daef"/>
      <path id="Rectángulo_39413" data-name="Rectángulo 39413" d="M.364,2.736h9.667a.364.364,0,0,0,.364-.364V.364A.364.364,0,0,0,10.031,0H.364A.364.364,0,0,0,0,.364V2.372A.364.364,0,0,0,.364,2.736Zm9.3-.728H.728V.728h8.94Z" transform="matrix(-1, -0.003, 0.003, -1, 91.66, 161.808)" fill="#b4daef"/>
      <path id="Rectángulo_39414" data-name="Rectángulo 39414" d="M.364,2.736h6.6a.364.364,0,0,0,.364-.364V.364A.364.364,0,0,0,6.968,0H.364A.364.364,0,0,0,0,.364V2.372A.364.364,0,0,0,.364,2.736ZM6.6,2.008H.728V.728H6.6Z" transform="translate(99.608 161.832) rotate(-179.826)" fill="#b4daef"/>
      <path id="Rectángulo_39415" data-name="Rectángulo 39415" d="M.364,2.736H2.025a.364.364,0,0,0,.364-.364V.364A.364.364,0,0,0,2.025,0H.364A.364.364,0,0,0,0,.364V2.372A.364.364,0,0,0,.364,2.736Zm1.3-.728H.728V.728h.934Z" transform="translate(117.893 202.586) rotate(-179.825)" fill="#b4daef"/>
      <path id="Rectángulo_39416" data-name="Rectángulo 39416" d="M.364,2.736H5.2a.364.364,0,0,0,.364-.364V.364A.364.364,0,0,0,5.2,0H.364A.364.364,0,0,0,0,.364V2.372A.364.364,0,0,0,.364,2.736Zm4.47-.728H.728V.728H4.834Z" transform="matrix(-1, -0.003, 0.003, -1, 114.7, 202.577)" fill="#b4daef"/>
      <path id="Rectángulo_39417" data-name="Rectángulo 39417" d="M.364,2.736H12.8a.364.364,0,0,0,.364-.364V.364A.364.364,0,0,0,12.8,0H.364A.364.364,0,0,0,0,.364V2.372A.364.364,0,0,0,.364,2.736Zm12.071-.728H.728V.728H12.434Z" transform="translate(89.732 202.501) rotate(-179.826)" fill="#b4daef"/>
      <path id="Rectángulo_39418" data-name="Rectángulo 39418" d="M.364,2.736H3.588a.364.364,0,0,0,.364-.364V.364A.364.364,0,0,0,3.588,0H.364A.364.364,0,0,0,0,.364V2.372A.364.364,0,0,0,.364,2.736Zm2.861-.728H.728V.728h2.5Z" transform="translate(94.565 202.515) rotate(-179.826)" fill="#b4daef"/>
      <path id="Rectángulo_39419" data-name="Rectángulo 39419" d="M.364,2.736H11.941a.364.364,0,0,0,.364-.364V.364A.364.364,0,0,0,11.941,0H.364A.364.364,0,0,0,0,.364V2.372A.364.364,0,0,0,.364,2.736Zm11.213-.728H.728V.728h10.85Z" transform="translate(108.153 202.557) rotate(-179.825)" fill="#b4daef"/>
      <path id="Rectángulo_39420" data-name="Rectángulo 39420" d="M.364,2.736H13a.364.364,0,0,0,.364-.364V.364A.364.364,0,0,0,13,0H.364A.364.364,0,0,0,0,.364V2.372A.364.364,0,0,0,.364,2.736Zm12.271-.728H.728V.728H12.634Z" transform="translate(61.844 202.416) rotate(-179.825)" fill="#b4daef"/>
      <path id="Rectángulo_39421" data-name="Rectángulo 39421" d="M.364,2.736H5.548a.364.364,0,0,0,.364-.364V.364A.364.364,0,0,0,5.548,0H.364A.364.364,0,0,0,0,.364V2.372A.364.364,0,0,0,.364,2.736Zm4.821-.728H.728V.728H5.185Z" transform="translate(75.787 202.459) rotate(-179.824)" fill="#b4daef"/>
      <path id="Rectángulo_39422" data-name="Rectángulo 39422" d="M.364,2.736H5.548a.364.364,0,0,0,.364-.364V.364A.364.364,0,0,0,5.548,0H.364A.364.364,0,0,0,0,.364V2.372A.364.364,0,0,0,.364,2.736Zm4.821-.728H.728V.728H5.185Z" transform="translate(68.76 202.437) rotate(-179.824)" fill="#b4daef"/>
      <path id="Rectángulo_39423" data-name="Rectángulo 39423" d="M.364,2.736H2.025a.364.364,0,0,0,.364-.364V.364A.364.364,0,0,0,2.025,0H.364A.364.364,0,0,0,0,.364V2.372A.364.364,0,0,0,.364,2.736Zm1.3-.728H.728V.728h.934Z" transform="translate(117.865 211.655) rotate(-179.825)" fill="#b4daef"/>
      <path id="Rectángulo_39424" data-name="Rectángulo 39424" d="M.364,2.736h9.667a.364.364,0,0,0,.364-.364V.364A.364.364,0,0,0,10.031,0H.364A.364.364,0,0,0,0,.364V2.372A.364.364,0,0,0,.364,2.736Zm9.3-.728H.728V.728h8.94Z" transform="matrix(-1, -0.003, 0.003, -1, 114.672, 211.645)" fill="#b4daef"/>
      <path id="Rectángulo_39425" data-name="Rectángulo 39425" d="M.364,2.736h9.667a.364.364,0,0,0,.364-.364V.364A.364.364,0,0,0,10.031,0H.364A.364.364,0,0,0,0,.364V2.372A.364.364,0,0,0,.364,2.736Zm9.3-.728H.728V.728h8.94Z" transform="matrix(-1, -0.003, 0.003, -1, 83.012, 211.549)" fill="#b4daef"/>
      <path id="Rectángulo_39426" data-name="Rectángulo 39426" d="M.364,2.736h9.667a.364.364,0,0,0,.364-.364V.364A.364.364,0,0,0,10.031,0H.364A.364.364,0,0,0,0,.364V2.372A.364.364,0,0,0,.364,2.736Zm9.3-.728H.728V.728h8.94Z" transform="matrix(-1, -0.003, 0.003, -1, 94.538, 211.584)" fill="#b4daef"/>
      <path id="Rectángulo_39427" data-name="Rectángulo 39427" d="M.364,2.736H6.407a.364.364,0,0,0,.364-.364V.364A.364.364,0,0,0,6.407,0H.364A.364.364,0,0,0,0,.364V2.372A.364.364,0,0,0,.364,2.736Zm5.679-.728H.728V.728H6.043Z" transform="translate(102.592 211.608) rotate(-179.825)" fill="#b4daef"/>
      <path id="Rectángulo_39428" data-name="Rectángulo 39428" d="M.364,2.736H6.407a.364.364,0,0,0,.364-.364V.364A.364.364,0,0,0,6.407,0H.364A.364.364,0,0,0,0,.364V2.372A.364.364,0,0,0,.364,2.736Zm5.679-.728H.728V.728H6.043Z" transform="translate(20.537 211.358) rotate(-179.825)" fill="#b4daef"/>
      <path id="Rectángulo_39429" data-name="Rectángulo 39429" d="M.364,2.736h16.03a.364.364,0,0,0,.364-.364V.364A.364.364,0,0,0,16.394,0H.364A.364.364,0,0,0,0,.364V2.372A.364.364,0,0,0,.364,2.736ZM16.03,2.008H.728V.728h15.3Z" transform="translate(38.685 211.414) rotate(-179.826)" fill="#b4daef"/>
      <path id="Rectángulo_39430" data-name="Rectángulo 39430" d="M.364,2.736h16.03a.364.364,0,0,0,.364-.364V.364A.364.364,0,0,0,16.394,0H.364A.364.364,0,0,0,0,.364V2.372A.364.364,0,0,0,.364,2.736ZM16.03,2.008H.728V.728h15.3Z" transform="translate(57.796 211.472) rotate(-179.826)" fill="#b4daef"/>
      <path id="Rectángulo_39431" data-name="Rectángulo 39431" d="M.364,2.736H10.384a.364.364,0,0,0,.364-.364V.364A.364.364,0,0,0,10.384,0H.364A.364.364,0,0,0,0,.364V2.372A.364.364,0,0,0,.364,2.736Zm9.657-.728H.728V.728h9.293Z" transform="translate(71.15 211.513) rotate(-179.825)" fill="#b4daef"/>
      <path id="Rectángulo_39432" data-name="Rectángulo 39432" d="M.364,2.736H2.025a.364.364,0,0,0,.364-.364V.364A.364.364,0,0,0,2.025,0H.364A.364.364,0,0,0,0,.364V2.372A.364.364,0,0,0,.364,2.736Zm1.3-.728H.728V.728h.934Z" transform="translate(117.878 207.237) rotate(-179.825)" fill="#b4daef"/>
      <path id="Rectángulo_39433" data-name="Rectángulo 39433" d="M.364,2.736H7.548a.364.364,0,0,0,.364-.364V.364A.364.364,0,0,0,7.548,0H.364A.364.364,0,0,0,0,.364V2.372A.364.364,0,0,0,.364,2.736Zm6.82-.728H.728V.728H7.184Z" transform="translate(114.685 207.227) rotate(-179.825)" fill="#b4daef"/>
      <path id="Rectángulo_39434" data-name="Rectángulo 39434" d="M.364,2.736h9.667a.364.364,0,0,0,.364-.364V.364A.364.364,0,0,0,10.031,0H.364A.364.364,0,0,0,0,.364V2.372A.364.364,0,0,0,.364,2.736Zm9.3-.728H.728V.728h8.94Z" transform="matrix(-1, -0.003, 0.003, -1, 98.13, 207.176)" fill="#b4daef"/>
      <path id="Rectángulo_39435" data-name="Rectángulo 39435" d="M.364,2.736h6.6a.364.364,0,0,0,.364-.364V.364A.364.364,0,0,0,6.969,0H.364A.364.364,0,0,0,0,.364V2.372A.364.364,0,0,0,.364,2.736ZM6.6,2.008H.728V.728H6.6Z" transform="translate(106.08 207.201) rotate(-179.826)" fill="#b4daef"/>
      <path id="Rectángulo_39436" data-name="Rectángulo 39436" d="M.364,2.736H2.025a.364.364,0,0,0,.364-.364V.364A.364.364,0,0,0,2.025,0H.364A.364.364,0,0,0,0,.364V2.372A.364.364,0,0,0,.364,2.736Zm1.3-.728H.728V.728h.934Z" transform="translate(117.938 187.642) rotate(-179.825)" fill="#b4daef"/>
      <path id="Rectángulo_39437" data-name="Rectángulo 39437" d="M.364,2.736h9.667a.364.364,0,0,0,.364-.364V.364A.364.364,0,0,0,10.031,0H.364A.364.364,0,0,0,0,.364V2.372A.364.364,0,0,0,.364,2.736Zm9.3-.728H.728V.728h8.94Z" transform="matrix(-1, -0.003, 0.003, -1, 114.745, 187.632)" fill="#b4daef"/>
      <path id="Rectángulo_39438" data-name="Rectángulo 39438" d="M.364,2.736h9.667a.364.364,0,0,0,.364-.364V.364A.364.364,0,0,0,10.031,0H.364A.364.364,0,0,0,0,.364V2.372A.364.364,0,0,0,.364,2.736Zm9.3-.728H.728V.728h8.94Z" transform="matrix(-1, -0.003, 0.003, -1, 94.611, 187.571)" fill="#b4daef"/>
      <path id="Rectángulo_39439" data-name="Rectángulo 39439" d="M.364,2.736H6.407a.364.364,0,0,0,.364-.364V.364A.364.364,0,0,0,6.407,0H.364A.364.364,0,0,0,0,.364V2.372A.364.364,0,0,0,.364,2.736Zm5.679-.728H.728V.728H6.043Z" transform="translate(102.664 187.595) rotate(-179.825)" fill="#b4daef"/>
    </g>
  </g>
</svg>
