<svg xmlns="http://www.w3.org/2000/svg" xmlns:xlink="http://www.w3.org/1999/xlink" width="505" height="392" viewBox="0 0 505 392">
  <defs>
    <clipPath id="clip-path">
      <rect id="Rectángulo_401742" data-name="Rectángulo 401742" width="505" height="392" transform="translate(915.051 699)" fill="#2b5cf9"/>
    </clipPath>
    <clipPath id="clip-path-2">
      <rect id="Rectángulo_375774" data-name="Rectángulo 375774" width="396.597" height="390.806" fill="none"/>
    </clipPath>
    <clipPath id="clip-path-4">
      <rect id="Rectángulo_375764" data-name="Rectángulo 375764" width="141.694" height="58.29" fill="none"/>
    </clipPath>
    <clipPath id="clip-path-5">
      <rect id="Rectángulo_375765" data-name="Rectángulo 375765" width="102.831" height="50.049" fill="none"/>
    </clipPath>
    <clipPath id="clip-path-6">
      <rect id="Rectángulo_375766" data-name="Rectángulo 375766" width="15.2" height="3.674" fill="none"/>
    </clipPath>
    <clipPath id="clip-path-7">
      <rect id="Rectángulo_375767" data-name="Rectángulo 375767" width="53.21" height="18.771" fill="none"/>
    </clipPath>
    <clipPath id="clip-path-8">
      <rect id="Rectángulo_375770" data-name="Rectángulo 375770" width="6.613" height="68.823" fill="none"/>
    </clipPath>
  </defs>
  <g id="_17" data-name="17" transform="translate(-915.051 -699)">
    <rect id="Rectángulo_401743" data-name="Rectángulo 401743" width="483" height="366" rx="10" transform="translate(926.051 714)" fill="#e6f0fc"/>
    <g id="Enmascarar_grupo_1098677" data-name="Enmascarar grupo 1098677" clip-path="url(#clip-path)">
      <rect id="Rectángulo_401666" data-name="Rectángulo 401666" width="505" height="234" rx="117" transform="translate(915.051 857)" fill="#2b5cf9"/>
      <rect id="Rectángulo_401739" data-name="Rectángulo 401739" width="188" height="194" rx="94" transform="translate(1206.051 701)" fill="#9fc3f4"/>
      <path id="Rectángulo_401740" data-name="Rectángulo 401740" d="M94,30A64.072,64.072,0,0,0,30,94v6a64,64,0,0,0,128,0V94A64.072,64.072,0,0,0,94,30M94,0a94,94,0,0,1,94,94v6A94,94,0,0,1,0,100V94A94,94,0,0,1,94,0Z" transform="translate(837.051 980)" fill="#fff"/>
      <path id="Rectángulo_401741" data-name="Rectángulo 401741" d="M94,30A64.072,64.072,0,0,0,30,94v6a64,64,0,0,0,128,0V94A64.072,64.072,0,0,0,94,30M94,0a94,94,0,0,1,94,94v6A94,94,0,0,1,0,100V94A94,94,0,0,1,94,0Z" transform="translate(1287.051 734)" fill="#fff"/>
      <g id="Grupo_1072656" data-name="Grupo 1072656" transform="translate(969.051 699.194)">
        <g id="Grupo_1071867" data-name="Grupo 1071867" clip-path="url(#clip-path-2)">
          <g id="Grupo_1071866" data-name="Grupo 1071866">
            <g id="Grupo_1071865" data-name="Grupo 1071865" clip-path="url(#clip-path-2)">
              <path id="Trazado_818778" data-name="Trazado 818778" d="M14.2,144.883c.408-15.544,2.645-88.392,2.675-88.391,86.845,3.207,152.757,18.86,152.757,37.686,0,14.736-41.091,67.545-99.585,56.428v-1.873c-17.2-1.861-36-3.178-55.847-3.85" transform="translate(215.387 -10.453)" fill="#b5a392"/>
              <g id="Grupo_1071852" data-name="Grupo 1071852" transform="translate(230.684 83.389)" opacity="0.15">
                <g id="Grupo_1071851" data-name="Grupo 1071851">
                  <g id="Grupo_1071850" data-name="Grupo 1071850" clip-path="url(#clip-path-4)">
                    <path id="Trazado_818779" data-name="Trazado 818779" d="M84.471,159.086v-1.873c-16.885-1.826-35.309-3.125-54.753-3.808.739-24.483,1.563-51.084,1.581-51.084,64.211,2.372,116.969,11.546,140.113,23.777-16.461,19.245-47.8,40.425-86.941,32.987" transform="translate(-29.718 -102.322)" fill="#2d2d30"/>
                  </g>
                </g>
              </g>
              <path id="Trazado_818780" data-name="Trazado 818780" d="M111.608,96.909h50.106a2.043,2.043,0,0,0,2.043-2.044V32.223a2.043,2.043,0,0,0-2.043-2.044H111.608a2.044,2.044,0,0,0-2.044,2.044V94.865a2.044,2.044,0,0,0,2.044,2.044" transform="translate(143.549 -5.584)" fill="#111"/>
              <path id="Trazado_818781" data-name="Trazado 818781" d="M154.811,49.989V39.7a10.293,10.293,0,1,1-10.293,10.293Z" transform="translate(113.715 -7.345)" fill="#f6eee3"/>
              <path id="Trazado_818782" data-name="Trazado 818782" d="M159.539,46.939a8.8,8.8,0,0,1,8.8-8.8v8.8Z" transform="translate(98.244 -7.058)" fill="#949af8"/>
              <path id="Trazado_818783" data-name="Trazado 818783" d="M117.811,42.9h16.521a.407.407,0,0,0,0-.815H117.811a.407.407,0,1,0,0,.815" transform="translate(166.178 -7.787)" fill="#f6eee3"/>
              <path id="Trazado_818784" data-name="Trazado 818784" d="M143.184,99.833h13.787a.407.407,0,0,0,0-.815H143.184a.407.407,0,1,0,0,.815" transform="translate(122.859 -18.321)" fill="#f6eee3"/>
              <path id="Trazado_818785" data-name="Trazado 818785" d="M117.81,55.295h14.816a.407.407,0,0,0,0-.815H117.81a.407.407,0,0,0,0,.815" transform="translate(167.883 -10.081)" fill="#f6eee3"/>
              <path id="Trazado_818786" data-name="Trazado 818786" d="M117.81,65.271h18.937a.407.407,0,0,0,0-.815H117.81a.407.407,0,0,0,0,.815" transform="translate(163.763 -11.926)" fill="#f6eee3"/>
              <path id="Trazado_818787" data-name="Trazado 818787" d="M117.811,75.347h34.466a.407.407,0,0,0,0-.815H117.811a.407.407,0,1,0,0,.815" transform="translate(148.233 -13.791)" fill="#f6eee3"/>
              <path id="Trazado_818788" data-name="Trazado 818788" d="M117.811,86.238h34.466a.407.407,0,0,0,0-.815H117.811a.407.407,0,1,0,0,.815" transform="translate(148.233 -15.806)" fill="#f6eee3"/>
              <path id="Trazado_818789" data-name="Trazado 818789" d="M190.443,137.334a1.222,1.222,0,0,0,.846-2.1L152.563,98.114a1.562,1.562,0,0,0-2.364.238l-8.12,11.752L111.951,71.416a1.561,1.561,0,0,0-2.693.411L104.165,85.4,75.52,50.2a1.223,1.223,0,1,0-1.9,1.544l29.618,36.4a1.561,1.561,0,0,0,2.672-.438l5.08-13.536,29.9,38.394a1.6,1.6,0,0,0,1.276.6,1.569,1.569,0,0,0,1.24-.674L151.62,100.6l37.977,36.4a1.217,1.217,0,0,0,.846.34" transform="translate(145.154 -9.205)" fill="#5c69ab"/>
              <path id="Trazado_818790" data-name="Trazado 818790" d="M207.52,59.98a1.115,1.115,0,0,0,.147-.009,1.221,1.221,0,0,0,1.068-1.359l-1.065-8.9,8.628,2.83a1.223,1.223,0,1,0,.762-2.323l-9.946-3.262a1.56,1.56,0,0,0-2.036,1.668l1.23,10.278a1.221,1.221,0,0,0,1.212,1.077" transform="translate(11.572 -8.674)" fill="#5c69ab"/>
              <path id="Trazado_818791" data-name="Trazado 818791" d="M87.043,118.434h33.018a2.25,2.25,0,0,0,2.25-2.251V87.358a2.25,2.25,0,0,0-2.25-2.25H87.043a2.251,2.251,0,0,0-2.251,2.25v28.825a2.251,2.251,0,0,0,2.251,2.251" transform="translate(205.183 -15.748)" fill="#5c69ab"/>
              <path id="Trazado_818792" data-name="Trazado 818792" d="M86.949,118.749h33.018a2.661,2.661,0,0,0,2.658-2.658V87.266a2.662,2.662,0,0,0-2.658-2.658H86.949a2.661,2.661,0,0,0-2.658,2.658v28.825a2.661,2.661,0,0,0,2.658,2.658m33.018-33.326a1.846,1.846,0,0,1,1.843,1.843v28.825a1.845,1.845,0,0,1-1.843,1.843H86.949a1.844,1.844,0,0,1-1.843-1.843V87.266a1.845,1.845,0,0,1,1.843-1.843Z" transform="translate(205.277 -15.655)" fill="#5c69ab"/>
              <path id="Trazado_818793" data-name="Trazado 818793" d="M94.554,111.024h21.458a1.234,1.234,0,0,0,1.235-1.235V95.313a1.234,1.234,0,0,0-1.235-1.234H94.554a1.234,1.234,0,0,0-1.234,1.234v14.476a1.234,1.234,0,0,0,1.234,1.235" transform="translate(203.297 -17.408)" fill="#f6eee3"/>
              <path id="Trazado_818794" data-name="Trazado 818794" d="M116.846,113.7a.407.407,0,0,0,.262-.72l-11.654-9.754a.407.407,0,0,0-.517,0l-11.964,9.641a.408.408,0,0,0,.512.635l11.7-9.432,11.4,9.539a.4.4,0,0,0,.261.1" transform="translate(203.698 -19.083)" fill="#5c69ab"/>
              <path id="Trazado_818795" data-name="Trazado 818795" d="M116.939,94.523l-8.991,7.156a4.5,4.5,0,0,1-5.626-.014l-9-7.238" transform="translate(203.606 -17.472)" fill="#f6eee3"/>
              <path id="Trazado_818796" data-name="Trazado 818796" d="M105.051,102.981a4.9,4.9,0,0,0,3.058-1.076l8.991-7.157a.407.407,0,1,0-.508-.637l-8.991,7.156a4.073,4.073,0,0,1-5.116-.012l-9-7.238a.407.407,0,1,0-.511.635l9,7.238a4.9,4.9,0,0,0,3.077,1.091" transform="translate(203.698 -17.38)" fill="#5c69ab"/>
              <path id="Trazado_818797" data-name="Trazado 818797" d="M325.292,94.651c0-16.167,48.6-29.993,117.333-35.608.279-.023.435,64.625.417,84.119-20.195,1.633-38.66,3.976-54.686,6.878-38.36-9.661-63.064-43.964-63.064-55.389" transform="translate(-311.549 -10.925)" fill="#b5a392"/>
              <g id="Grupo_1071855" data-name="Grupo 1071855" transform="translate(28.594 89.066)" opacity="0.15">
                <g id="Grupo_1071854" data-name="Grupo 1071854">
                  <g id="Grupo_1071853" data-name="Grupo 1071853" clip-path="url(#clip-path-5)">
                    <path id="Trazado_818798" data-name="Trazado 818798" d="M325.378,129.871c19.412-9.37,56.429-16.82,102.482-20.583.161-.013.28,21.322.349,43.175-20.168,1.634-38.61,3.975-54.618,6.873-20.567-5.18-37.2-17.443-48.213-29.466" transform="translate(-325.379 -109.288)" fill="#2d2d30"/>
                  </g>
                </g>
              </g>
              <path id="Trazado_818799" data-name="Trazado 818799" d="M356.051,124.12h29.2a2.043,2.043,0,0,0,2.043-2.043v-29.2a2.044,2.044,0,0,0-2.043-2.045h-29.2a2.045,2.045,0,0,0-2.044,2.045v29.2a2.043,2.043,0,0,0,2.044,2.043" transform="translate(-279.205 -16.806)" fill="#111"/>
              <path id="Trazado_818800" data-name="Trazado 818800" d="M372.8,118.172a.778.778,0,0,0,.541-.219.8.8,0,0,0,.245-.574v-9.461h9.479a.779.779,0,0,0,.559-.238.763.763,0,0,0,.217-.56,10.669,10.669,0,1,0-11.07,11.051h.03m.378-11.069h-.407v10.276a9.981,9.981,0,0,1-7.059-3.438,9.854,9.854,0,1,1,17.313-6.793Z" transform="translate(-282.679 -17.919)" fill="#f6eee3"/>
              <path id="Trazado_818801" data-name="Trazado 818801" d="M360.006,123.676h.033A11.515,11.515,0,0,0,371.014,112.7a.836.836,0,0,0-.235-.618.867.867,0,0,0-.62-.265h-10.15a.85.85,0,0,0-.85.849V122.82a.863.863,0,0,0,.264.619.839.839,0,0,0,.584.237m10.152-11.041.041.034a10.7,10.7,0,0,1-10.192,10.192l-.034-10.192Z" transform="translate(-267.12 -20.69)" fill="#949af8"/>
              <path id="Trazado_818802" data-name="Trazado 818802" d="M391.441,88.63h46.787a2.25,2.25,0,0,0,2.251-2.251V43.886a2.251,2.251,0,0,0-2.251-2.251H391.441a2.251,2.251,0,0,0-2.251,2.251V86.379a2.251,2.251,0,0,0,2.251,2.251" transform="translate(-361.06 -7.704)" fill="#5c69ab"/>
              <path id="Trazado_818803" data-name="Trazado 818803" d="M391.347,88.946h46.788a2.661,2.661,0,0,0,2.658-2.658V43.794a2.661,2.661,0,0,0-2.658-2.658H391.347a2.661,2.661,0,0,0-2.658,2.658V86.288a2.661,2.661,0,0,0,2.658,2.658m46.788-47a1.846,1.846,0,0,1,1.844,1.843V86.288a1.846,1.846,0,0,1-1.844,1.843H391.347a1.846,1.846,0,0,1-1.843-1.843V43.794a1.846,1.846,0,0,1,1.843-1.843Z" transform="translate(-360.966 -7.611)" fill="#5c69ab"/>
              <path id="Trazado_818804" data-name="Trazado 818804" d="M402.249,67.062a15,15,0,1,0,15-15,15,15,0,0,0-15,15" transform="translate(-363.476 -9.633)" fill="#f6eee3"/>
              <path id="Trazado_818805" data-name="Trazado 818805" d="M420.564,68.884h5.566v-8.77a.408.408,0,0,0-.815,0v7.955h-4.751a.407.407,0,1,0,0,.815" transform="translate(-371.948 -11.048)" fill="#5c69ab"/>
              <path id="Trazado_818806" data-name="Trazado 818806" d="M319.867,105.806a10.486,10.486,0,1,0,10.485-10.485,10.486,10.486,0,0,0-10.485,10.485" transform="translate(-204.923 -17.637)" fill="#949af8"/>
              <path id="Trazado_818807" data-name="Trazado 818807" d="M337.5,109.377a.992.992,0,0,0,.7-.289l3.742-3.743a.407.407,0,1,0-.576-.576l-3.742,3.742a.179.179,0,0,1-.253,0l-9.8-9.8a.407.407,0,1,0-.576.576l9.8,9.8a.993.993,0,0,0,.7.29" transform="translate(-211.857 -18.242)" fill="#111"/>
              <path id="Trazado_818808" data-name="Trazado 818808" d="M369.333,38.375a2.876,2.876,0,0,1,2.872,2.873V60.915a2.875,2.875,0,0,1-2.872,2.872h-5.249a4.108,4.108,0,0,0-4.1,4.1v4.667a1.4,1.4,0,0,1-2.388.989l-8.557-8.557a4.132,4.132,0,0,0-2.9-1.2H335.608a2.876,2.876,0,0,1-2.874-2.872V41.248a2.876,2.876,0,0,1,2.874-2.873Z" transform="translate(-246.776 -7.101)" fill="#949af8"/>
              <path id="Trazado_818809" data-name="Trazado 818809" d="M345.518,57.082a2.761,2.761,0,1,0-2.761-2.761,2.765,2.765,0,0,0,2.761,2.761m0-4.707a1.946,1.946,0,1,1-1.946,1.946,1.949,1.949,0,0,1,1.946-1.946" transform="translate(-231.019 -9.54)" fill="#111"/>
              <path id="Trazado_818810" data-name="Trazado 818810" d="M356.268,57.082a2.761,2.761,0,1,0-2.761-2.761,2.765,2.765,0,0,0,2.761,2.761m0-4.707a1.946,1.946,0,1,1-1.946,1.946,1.949,1.949,0,0,1,1.946-1.946" transform="translate(-250.53 -9.54)" fill="#111"/>
              <path id="Trazado_818811" data-name="Trazado 818811" d="M366.9,57.082a2.761,2.761,0,1,0-2.762-2.761,2.764,2.764,0,0,0,2.762,2.761m0-4.707a1.946,1.946,0,1,1-1.947,1.946,1.949,1.949,0,0,1,1.947-1.946" transform="translate(-269.82 -9.54)" fill="#111"/>
              <path id="Trazado_818812" data-name="Trazado 818812" d="M77.733,61.383A1.668,1.668,0,0,1,79.4,63.049v11.4a1.668,1.668,0,0,1-1.667,1.666h-6.1a2.4,2.4,0,0,0-1.683.7l-4.962,4.962a.811.811,0,0,1-1.385-.573V78.5a2.382,2.382,0,0,0-2.379-2.38H58.176a1.668,1.668,0,0,1-1.666-1.666v-11.4a1.668,1.668,0,0,1,1.666-1.666Z" transform="translate(271.144 -11.358)" fill="#949af8"/>
              <path id="Trazado_818813" data-name="Trazado 818813" d="M76.417,72.364a1.773,1.773,0,1,0-1.773-1.773,1.775,1.775,0,0,0,1.773,1.773m0-2.73a.958.958,0,1,1-.958.958.959.959,0,0,1,.958-.958" transform="translate(257.575 -12.734)" fill="#111"/>
              <path id="Trazado_818814" data-name="Trazado 818814" d="M70.182,72.364a1.773,1.773,0,1,0-1.772-1.773,1.775,1.775,0,0,0,1.772,1.773m0-2.73a.958.958,0,1,1-.957.958.959.959,0,0,1,.957-.958" transform="translate(268.89 -12.734)" fill="#111"/>
              <path id="Trazado_818815" data-name="Trazado 818815" d="M64.02,72.364a1.773,1.773,0,1,0-1.773-1.773,1.775,1.775,0,0,0,1.773,1.773m0-2.73a.958.958,0,1,1-.958.958.959.959,0,0,1,.958-.958" transform="translate(280.076 -12.734)" fill="#111"/>
              <path id="Trazado_818816" data-name="Trazado 818816" d="M203.583,9.1a2.279,2.279,0,1,0,2.279-2.279A2.279,2.279,0,0,0,203.583,9.1" transform="translate(22.543 -1.261)" fill="#949af8"/>
              <path id="Trazado_818817" data-name="Trazado 818817" d="M10.838,277.138a2.279,2.279,0,1,0,2.279-2.279,2.279,2.279,0,0,0-2.279,2.279" transform="translate(372.369 -50.858)" fill="#949af8"/>
              <path id="Trazado_818818" data-name="Trazado 818818" d="M401.572,286.193a2.279,2.279,0,1,0,2.279-2.279,2.279,2.279,0,0,0-2.279,2.279" transform="translate(-336.801 -52.533)" fill="#949af8"/>
              <path id="Trazado_818819" data-name="Trazado 818819" d="M466.982,14.688a2.279,2.279,0,1,0,2.279-2.279,2.279,2.279,0,0,0-2.279,2.279" transform="translate(-455.518 -2.296)" fill="#949af8"/>
              <path id="Trazado_818820" data-name="Trazado 818820" d="M482.447,83.178a1.139,1.139,0,1,0,1.139-1.139,1.139,1.139,0,0,0-1.139,1.139" transform="translate(-481.308 -15.18)" fill="#5c69ab"/>
              <path id="Trazado_818821" data-name="Trazado 818821" d="M483.494,84.633a1.547,1.547,0,1,0-1.547-1.547,1.549,1.549,0,0,0,1.547,1.547m0-2.279a.732.732,0,1,1-.732.732.733.733,0,0,1,.732-.732" transform="translate(-481.215 -15.087)" fill="#5c69ab"/>
              <path id="Trazado_818822" data-name="Trazado 818822" d="M93.847,287.849a1.14,1.14,0,1,0,1.14-1.139,1.14,1.14,0,0,0-1.14,1.139" transform="translate(223.988 -53.051)" fill="#5c69ab"/>
              <path id="Trazado_818823" data-name="Trazado 818823" d="M94.895,289.3a1.547,1.547,0,1,0-1.547-1.548,1.549,1.549,0,0,0,1.547,1.548m0-2.279a.732.732,0,1,1-.732.731.732.732,0,0,1,.732-.731" transform="translate(224.08 -52.958)" fill="#5c69ab"/>
              <path id="Trazado_818824" data-name="Trazado 818824" d="M3.413,41.676a2.015,2.015,0,1,0,2.015,2.015,2.015,2.015,0,0,0-2.015-2.015" transform="translate(390.03 -7.711)" fill="#5c69ab"/>
              <path id="Trazado_818825" data-name="Trazado 818825" d="M3.32,46.02A2.422,2.422,0,1,0,.9,43.6,2.425,2.425,0,0,0,3.32,46.02m0-4.029A1.607,1.607,0,1,1,1.713,43.6,1.609,1.609,0,0,1,3.32,41.991" transform="translate(390.123 -7.619)" fill="#5c69ab"/>
              <path id="Trazado_818826" data-name="Trazado 818826" d="M123.962.5a.781.781,0,1,0,.782.782A.781.781,0,0,0,123.962.5" transform="translate(171.465 -0.093)" fill="#5c69ab"/>
              <path id="Trazado_818827" data-name="Trazado 818827" d="M123.87,2.377a1.189,1.189,0,1,0-1.189-1.189,1.19,1.19,0,0,0,1.189,1.189m0-1.562a.374.374,0,1,1-.374.373.374.374,0,0,1,.374-.373" transform="translate(171.557 0)" fill="#5c69ab"/>
              <path id="Trazado_818828" data-name="Trazado 818828" d="M83.2,36.718a1.139,1.139,0,1,0,1.139-1.139A1.139,1.139,0,0,0,83.2,36.718" transform="translate(243.317 -6.583)" fill="#111"/>
              <path id="Trazado_818829" data-name="Trazado 818829" d="M0,162.857a1.139,1.139,0,1,0,1.139-1.139A1.139,1.139,0,0,0,0,162.857" transform="translate(394.318 -29.923)" fill="#111"/>
              <path id="Trazado_818830" data-name="Trazado 818830" d="M363.238,2.713a1.139,1.139,0,1,0,1.139-1.139,1.139,1.139,0,0,0-1.139,1.139" transform="translate(-264.947 -0.291)" fill="#111"/>
              <path id="Trazado_818831" data-name="Trazado 818831" d="M483.845,254.478a1.139,1.139,0,1,0,1.139-1.139,1.139,1.139,0,0,0-1.139,1.139" transform="translate(-483.845 -46.876)" fill="#111"/>
              <path id="Trazado_818832" data-name="Trazado 818832" d="M157.9,448.145c-1.219-18.423,4.8-36.676,17.159-52l6.658-8.261,6.36-7.889,4.564-5.662,45.2,2.7,45.195-2.7,4.564,5.662,6.359,7.889,6.659,8.261a76.789,76.789,0,0,1,16.576,37.142c.087.6,1.113,12.022,2.535,25.97H158.214Z" transform="translate(-51.682 -69.263)" fill="#111"/>
              <path id="Trazado_818833" data-name="Trazado 818833" d="M203.7,464.836c.028,0,.055,0,.083,0a.815.815,0,0,0,.729-.894c-.919-9.013-1.667-16.914-2.114-21.635-.279-2.943-.394-4.145-.425-4.368A77.969,77.969,0,0,0,185.221,400.4a.815.815,0,0,0-1.269,1.023,76.342,76.342,0,0,1,16.4,36.749c.029.192.191,1.91.416,4.288.447,4.723,1.195,12.628,2.115,21.648a.816.816,0,0,0,.81.732" transform="translate(42.316 -74.03)" fill="#f6eee3"/>
              <path id="Trazado_818834" data-name="Trazado 818834" d="M155.916,150.853A33.638,33.638,0,0,1,167.05,130.6c1.365-1.429,2.663-2.713,3.857-3.85,4.151-3.947,9.822-7.9,10.11-13.3,1-18.621,30.036-32.842,39.414-24.725.253.218,8.243-3.944,19.332-1.6a18.092,18.092,0,1,1,25.874,20.986c.262.792.526,1.594.822,2.406,3.553,9.727,9.389,16.772,17.993,24.219l1.168,1.011c15.879,13.744,14.6,36.8,2.426,46.849l-3.51,2.928q-.814.68-1.675,1.3a6.5,6.5,0,0,0-2.878,6.111,31.393,31.393,0,0,1-1.259,13.535c-5.442,16.986-24.808,28.094-45.738,26.092-14.516-1.388-26.772-8.424-34.145-18.122-8.813-11.591-19.537-22.069-30.63-32.186-9.066-8.27-13.991-19.658-12.3-31.4" transform="translate(-27.558 -13.7)" fill="#111"/>
              <path id="Trazado_818835" data-name="Trazado 818835" d="M208.283,167.7l2.937-32.363,14.362-.258.582-10.6,4.362,10.062,12.647-1.461,2.914-5.011a3.278,3.278,0,0,1,3.149-1.645c.991,11.629,6.507,21.808,12.121,22.715l7.578-1.649-.011-.144,2.392.054a11.438,11.438,0,0,1,11.146,11.656l-.007.26A11.438,11.438,0,0,1,270.8,170.465l-4.652-.1,1.667,41.807c.063,11.277-10.044,17.76-20.526,17.818l-.434,0c-10.482.059-19.109-9.12-19.172-20.4l-.081-14.709A25.627,25.627,0,0,1,208.283,167.7" transform="translate(-55.526 -23.033)" fill="#ffa485"/>
              <path id="Trazado_818836" data-name="Trazado 818836" d="M224.026,169.662a.815.815,0,0,0,.438-1.5l-2.949-1.871,3.3-3.759a.815.815,0,1,0-1.226-1.074l-3.923,4.475a.814.814,0,0,0,.176,1.225l3.752,2.381a.808.808,0,0,0,.436.127" transform="translate(-7.269 -29.823)" fill="#ff8563"/>
              <path id="Trazado_818837" data-name="Trazado 818837" d="M241.463,208.836s22.372.923,26.073-7.058h0s1.087,12.141-25.844,18.626Z" transform="translate(-69.369 -36.679)" fill="#ff8563"/>
              <path id="Trazado_818838" data-name="Trazado 818838" d="M218.682,185.075c.146,0,.293-.006.44-.017a5.895,5.895,0,1,0-.44.017m.007-8.556a2.654,2.654,0,1,1-.2.007c.066,0,.131-.007.2-.007" transform="translate(-1.407 -32.059)" fill="#f6eee3"/>
              <path id="Trazado_818839" data-name="Trazado 818839" d="M288.921,156.583a2.209,2.209,0,1,0,2.154-2.262,2.211,2.211,0,0,0-2.154,2.262" transform="translate(-132.202 -28.554)" fill="#111"/>
              <path id="Trazado_818840" data-name="Trazado 818840" d="M260.25,156.583a2.209,2.209,0,1,0,2.154-2.262,2.209,2.209,0,0,0-2.154,2.262" transform="translate(-80.165 -28.554)" fill="#111"/>
              <path id="Trazado_818841" data-name="Trazado 818841" d="M257.506,167.338c5.8,0,10.539-5.447,10.582-12.174.024-4-5.268-5.819-10.525-5.853s-10.574,1.723-10.6,5.719c-.042,6.75,4.661,12.27,10.485,12.308Zm-.093-15.582h.134c4.551.029,8.107,1.519,8.1,3.393-.033,5.383-3.68,9.745-8.137,9.745h-.042c-4.476-.029-8.089-4.446-8.055-9.847h0c.011-1.856,3.517-3.291,8-3.291" transform="translate(-72.757 -27.627)" fill="#fff"/>
              <path id="Trazado_818842" data-name="Trazado 818842" d="M289.061,166.723a9.839,9.839,0,0,0,7.5-3.611,13.246,13.246,0,0,0,3.08-8.562c.024-4-5.269-5.82-10.526-5.852a17.932,17.932,0,0,0-6.916,1.2c-2.363,1.009-3.671,2.614-3.682,4.521a13.237,13.237,0,0,0,2.97,8.6A9.828,9.828,0,0,0,289,166.723Zm-.094-15.581h.133c4.552.029,8.108,1.518,8.1,3.392a10.8,10.8,0,0,1-2.49,6.984,7.153,7.153,0,0,1-11.344-.071,10.794,10.794,0,0,1-2.4-7.016c.011-1.855,3.517-3.29,8-3.29" transform="translate(-130.029 -27.514)" fill="#fff"/>
              <path id="Trazado_818843" data-name="Trazado 818843" d="M278.125,152.333l-.145,7.323a1.636,1.636,0,0,1-1.668,1.6l-1.626-.033a2.229,2.229,0,0,0-2.273,2.185,5.521,5.521,0,0,0,5.411,5.629l2.545.05" transform="translate(-105.781 -28.186)" fill="#ffa485"/>
              <path id="Trazado_818844" data-name="Trazado 818844" d="M280.185,169.72a.815.815,0,0,0,.016-1.63l-2.546-.051a4.707,4.707,0,0,1-4.612-4.8,1.415,1.415,0,0,1,1.442-1.386l1.627.033a2.45,2.45,0,0,0,2.5-2.4l.145-7.322a.815.815,0,0,0-.8-.83h-.016a.815.815,0,0,0-.815.8l-.145,7.323a.812.812,0,0,1-.251.575.785.785,0,0,1-.585.229l-1.627-.033a3.045,3.045,0,0,0-3.1,2.984,6.337,6.337,0,0,0,6.21,6.46l2.545.051Z" transform="translate(-105.595 -28.001)" fill="#ff8563"/>
              <path id="Trazado_818845" data-name="Trazado 818845" d="M227.041,157.4a1.229,1.229,0,0,0,.356-.053l17.133-5.209a1.222,1.222,0,1,0-.711-2.339l-17.133,5.208a1.223,1.223,0,0,0,.355,2.393" transform="translate(-32.836 -27.707)" fill="#fff"/>
              <path id="Trazado_818846" data-name="Trazado 818846" d="M278.215,159.213a1.222,1.222,0,0,0,.713-2.215c-1.6-1.139-5.473-2.605-8.728-.006a1.222,1.222,0,0,0,1.525,1.911c2.615-2.088,5.66,0,5.789.088a1.215,1.215,0,0,0,.7.222" transform="translate(-102.671 -28.78)" fill="#fff"/>
              <path id="Trazado_818847" data-name="Trazado 818847" d="M271.239,196.971a.458.458,0,0,0,.308-.019,3.915,3.915,0,0,1,4.325.876.46.46,0,1,0,.681-.618,4.914,4.914,0,0,0-5.373-1.1.459.459,0,0,0,.059.862" transform="translate(-100.854 -36.218)" fill="#ff8563"/>
              <path id="Trazado_818848" data-name="Trazado 818848" d="M264.07,145.155a7.046,7.046,0,0,1-2.895-.39c-1-.274-2.017-.524-2.906-.71s-1.921-.367-2.949-.52a6.988,6.988,0,0,1-2.8-.805c-.7-.484-.813-1.474.331-2.423,1.082-.93,3.558-1.668,6.507-1.056s4.875,2.288,5.459,3.568c.63,1.321.1,2.176-.744,2.336" transform="translate(-73.858 -25.724)" fill="#111"/>
              <path id="Trazado_818849" data-name="Trazado 818849" d="M287.1,145.04a5.534,5.534,0,0,0,2.289-.218c.8-.184,1.6-.35,2.307-.469s1.522-.229,2.336-.317a5.5,5.5,0,0,0,2.228-.547c.562-.359.685-1.134-.185-1.915a6.343,6.343,0,0,0-5.085-1.033,6.154,6.154,0,0,0-4.4,2.637c-.536,1.02-.143,1.708.513,1.861" transform="translate(-133.466 -25.983)" fill="#111"/>
              <path id="Trazado_818850" data-name="Trazado 818850" d="M259.768,182.691c.017,0,.033,0,.051,0l6.358-.391a4.611,4.611,0,0,0,4.326-4.625l0-.868a.816.816,0,0,0-.815-.812h0a.815.815,0,0,0-.811.819l0,.869a2.98,2.98,0,0,1-2.8,2.99l-6.358.391a.815.815,0,0,0,.05,1.628" transform="translate(-84.945 -32.564)" fill="#ff8563"/>
              <path id="Trazado_818851" data-name="Trazado 818851" d="M269.7,267.119l-45.823-.264-.283-.71-13.96-35.086a.433.433,0,0,0-.386-.264l74.911-.012-14.07,35.362Z" transform="translate(-58.091 -42.702)" fill="#ffa485"/>
              <path id="Trazado_818852" data-name="Trazado 818852" d="M259.046,235.8l15.352,7.508a27.943,27.943,0,0,1,11.5,10.417l5.5,8.909-1.82,1.7-5.456-8.833a27.941,27.941,0,0,0-11.5-10.417l-13.731-6.715-1.25-3.143a12.563,12.563,0,0,1,1.4.576" transform="translate(-104.771 -43.524)" fill="#ff8563"/>
              <path id="Trazado_818853" data-name="Trazado 818853" d="M252.458,326.461a2.645,2.645,0,0,1-5.013,0l-20.457-51.416,45.823.265Z" transform="translate(-61.202 -50.892)" fill="#ff8563"/>
              <path id="Trazado_818854" data-name="Trazado 818854" d="M133.9,292.851l37.183-43.408c10.714-12.2,15.833-18.27,31.807-18.647h.037c.081,0,.157-.007.239-.008.009,0,.016.007.025.007a.434.434,0,0,1,.386.264l13.96,35.086.283.71,20.458,51.416a2.644,2.644,0,0,0,5.012,0l20.353-51.151.388-.974,14.07-35.362h0l.4.007.1,0c14.478.252,31.15,6.225,43.845,15.873a44,44,0,0,1,16.806,40.52,44.63,44.63,0,0,1-2.273,9.283l-.814,2.316q-4.1,11.641-9.2,22.9c-1.233,2.72-2.2,4.857-2.222,4.875l-9.034,1.644a.427.427,0,0,1-.636-.013l-23.958,30.339a.427.427,0,0,1-.28.4l-18.764,6.909a98.291,98.291,0,0,1-62.573,0L186.2,356.756a.426.426,0,0,1-.259-.5s-19.913-27.874-20.087-28.063l-31.95-34.776a.427.427,0,0,1-.01-.566" transform="translate(-52.034 -42.702)" fill="#5c69ab"/>
              <path id="Trazado_818855" data-name="Trazado 818855" d="M241.49,371.263a93.456,93.456,0,0,0,30.622-5.138l18.772-6.912a.843.843,0,0,0,.53-.618l23.67-29.975a.858.858,0,0,0,.2.029.841.841,0,0,0,.512-.161l8.926-1.624a.415.415,0,0,0,.222-.12c.069-.073.07-.074,2.3-4.988,3.39-7.48,6.489-15.194,9.209-22.93l.814-2.316A44.235,44.235,0,0,0,322.6,246.247c-12.619-9.589-29.511-15.7-44.086-15.957l-.1.407.008-.408-.4-.007a.405.405,0,0,0-.39.257L242.82,318.027a2.237,2.237,0,0,1-4.255,0l-34.7-87.211a.839.839,0,0,0-.7-.518.477.477,0,0,0-.13-.01l-.21.006c-15.984.377-21.245,6.371-31.726,18.313l-.416.473L133.5,292.494a.835.835,0,0,0,.02,1.107l31.95,34.776c.3.381,13.141,18.345,19.967,27.9a.84.84,0,0,0,.531.766l23.293,9.075a93.372,93.372,0,0,0,31.437,5.141q.4,0,.795,0m-.795-.818a92.4,92.4,0,0,1-31.156-5.09l-23.278-9.071a.471.471,0,0,0-.076-.357c-4.675-6.544-19.941-27.909-20.117-28.1l-31.951-34.776-.31-.291.31.265,37.6-43.877c10.325-11.763,15.506-17.668,31.094-18.035l.225-.007.033,0,14.285,35.8,20.458,51.416a3.052,3.052,0,0,0,5.77,0L278.284,231.1l.118,0h.095c14.41.25,31.119,6.3,43.606,15.791a43.424,43.424,0,0,1,14.4,49.342l-.815,2.316c-2.712,7.714-5.8,15.405-9.182,22.865-1.433,3.161-1.953,4.3-2.129,4.679l-8.829,1.607a.4.4,0,0,0-.225.123.448.448,0,0,0-.333-.143.44.44,0,0,0-.327.156L290.7,358.179a.414.414,0,0,0-.087.25l-18.777,6.928a92.349,92.349,0,0,1-31.142,5.087" transform="translate(-51.942 -42.61)" fill="#5c69ab"/>
              <path id="Trazado_818856" data-name="Trazado 818856" d="M249.5,375.245h50.569a5.7,5.7,0,0,0,5.7-5.7V301.728a5.7,5.7,0,0,0-5.7-5.7H249.5a5.7,5.7,0,0,0-5.7,5.7v67.821a5.7,5.7,0,0,0,5.7,5.7" transform="translate(-107.862 -54.775)" fill="#231f20"/>
              <path id="Trazado_818857" data-name="Trazado 818857" d="M269.812,295.472h18.659a2.465,2.465,0,0,0,2.465-2.464v-2.062a2.465,2.465,0,0,0-2.465-2.465H269.812a2.465,2.465,0,0,0-2.464,2.465v2.062a2.465,2.465,0,0,0,2.464,2.464" transform="translate(-112.219 -53.378)" fill="#f6eee3"/>
              <path id="Trazado_818858" data-name="Trazado 818858" d="M269.72,295.786h18.659a2.875,2.875,0,0,0,2.872-2.871v-2.063a2.875,2.875,0,0,0-2.872-2.872H269.72a2.875,2.875,0,0,0-2.872,2.872v2.063a2.875,2.875,0,0,0,2.872,2.871m18.659-6.991a2.06,2.06,0,0,1,2.057,2.057v2.063a2.059,2.059,0,0,1-2.057,2.056H269.72a2.059,2.059,0,0,1-2.057-2.056v-2.063a2.06,2.06,0,0,1,2.057-2.057Z" transform="translate(-112.126 -53.285)" fill="#231f20"/>
              <path id="Trazado_818859" data-name="Trazado 818859" d="M263.082,299.444h30.251a.783.783,0,0,0,.783-.783v-1.714a.783.783,0,0,0-.783-.783H263.082a.783.783,0,0,0-.783.783v1.714a.783.783,0,0,0,.783.783" transform="translate(-111.285 -54.8)" fill="#f6eee3"/>
              <path id="Trazado_818860" data-name="Trazado 818860" d="M262.99,299.759H293.24a1.191,1.191,0,0,0,1.191-1.19v-1.714a1.192,1.192,0,0,0-1.191-1.191H262.99a1.192,1.192,0,0,0-1.191,1.191v1.714a1.191,1.191,0,0,0,1.191,1.19m30.251-3.279a.376.376,0,0,1,.376.376v1.714a.376.376,0,0,1-.376.375H262.99a.376.376,0,0,1-.376-.375v-1.714a.376.376,0,0,1,.376-.376Z" transform="translate(-111.192 -54.707)" fill="#231f20"/>
              <path id="Trazado_818861" data-name="Trazado 818861" d="M308.677,350.481c-.781,3.116-3.635,2.965-6.421,2.26,1.661.7,2.892,1.812,2.288,3.872-.65,3.806-4.272,3.962-7.3,3.116,2.611,1.654-.71,5.653-4.755,5.595-5.676.206-11.3.388-16.981.707-4.006.225-7.8.036-11.342-1.915l-4.323.183.91-29.9,7.094,1.316c.835-.57,1.684-1.116,2.553-1.609,0,0,15.015-6.728,20.483-8.026a5.328,5.328,0,0,1,1.787-.2,1.949,1.949,0,0,1,1.5.879,2.592,2.592,0,0,1-.139,2.262c-.964,2.236-1.817,4.174-2.684,5.878,2.121.109,2.7.129,5.186.209,5.222.546,13.944.388,12.832,7.177-.588,2.324-2.486,2.689-4.449,2.426,2.68.9,5.092,2.511,3.758,5.772m-4.215,3.114c-.45-.133-.866-.247-1.234-.322.359.109.78.213,1.234.322" transform="translate(-124.632 -60.295)" fill="#ffa485"/>
              <g id="Grupo_1071858" data-name="Grupo 1071858" transform="translate(153.102 271.245)" opacity="0.36">
                <g id="Grupo_1071857" data-name="Grupo 1071857">
                  <g id="Grupo_1071856" data-name="Grupo 1071856" clip-path="url(#clip-path-6)">
                    <path id="Trazado_818862" data-name="Trazado 818862" d="M293.746,336.187l-13.617.316s13.039-3.794,15.2-3.671Z" transform="translate(-280.129 -332.829)" fill="#949af8"/>
                  </g>
                </g>
              </g>
              <path id="Trazado_818863" data-name="Trazado 818863" d="M326.573,370.542l-6.913.015a2.011,2.011,0,0,1-2.015-2.006l-.076-35.81a2.011,2.011,0,0,1,2.006-2.015l6.913-.015a2.01,2.01,0,0,1,2.015,2.006l.076,35.809a2.011,2.011,0,0,1-2.006,2.015" transform="translate(-190.791 -61.192)" fill="#f2f1ec"/>
              <path id="Trazado_818864" data-name="Trazado 818864" d="M387.453,326.47v40.3a3.312,3.312,0,0,1-3.889,3.262l-32.238-5.7c-24.79-4.9-34.376-35.255-16.893-53.5l3.11-3.245,46.507,14.279a4.815,4.815,0,0,1,3.4,4.6" transform="translate(-256.14 -56.913)" fill="#5c69ab"/>
              <path id="Trazado_818865" data-name="Trazado 818865" d="M331.005,372.584a2.187,2.187,0,1,0,2.931-.992,2.188,2.188,0,0,0-2.931.992" transform="translate(-208.131 -68.714)" fill="#f2f1ec"/>
              <path id="Trazado_818866" data-name="Trazado 818866" d="M384.069,370.394a3.72,3.72,0,0,0,3.717-3.72v-40.3a5.2,5.2,0,0,0-3.691-4.993L337.588,307.1a.4.4,0,0,0-.414.108l-3.109,3.244a32.387,32.387,0,0,0,17.108,54.181l32.245,5.7a3.743,3.743,0,0,0,.651.057m-46.48-62.437,46.267,14.2a4.386,4.386,0,0,1,3.115,4.215v40.3a2.907,2.907,0,0,1-3.411,2.86l-32.237-5.7a31.571,31.571,0,0,1-16.669-52.816Z" transform="translate(-256.065 -56.821)" fill="#5c69ab"/>
              <line id="Línea_3801" data-name="Línea 3801" x2="8.348" y2="1.223" transform="translate(172.446 283.241)" fill="#949af8"/>
              <path id="Trazado_818867" data-name="Trazado 818867" d="M273.056,349.087a.408.408,0,0,0,.058-.811l-8.348-1.223a.414.414,0,0,0-.462.345.407.407,0,0,0,.345.462L273,349.083a.475.475,0,0,0,.06,0" transform="translate(-92.262 -64.215)" fill="#949af8"/>
              <line id="Línea_3802" data-name="Línea 3802" x2="6.843" y2="1.597" transform="translate(170.781 290.849)" fill="#949af8"/>
              <path id="Trazado_818868" data-name="Trazado 818868" d="M275.438,358.8a.407.407,0,0,0,.092-.8l-6.843-1.6a.407.407,0,1,0-.184.794l6.844,1.6a.4.4,0,0,0,.091.011" transform="translate(-97.814 -65.942)" fill="#949af8"/>
              <line id="Línea_3803" data-name="Línea 3803" x2="6.571" y2="1.796" transform="translate(166.407 297.923)" fill="#949af8"/>
              <path id="Trazado_818869" data-name="Trazado 818869" d="M280.868,367.675a.407.407,0,0,0,.108-.8l-6.572-1.8a.408.408,0,0,0-.214.786l6.571,1.8a.415.415,0,0,0,.108.015" transform="translate(-107.89 -67.548)" fill="#949af8"/>
              <path id="Trazado_818870" data-name="Trazado 818870" d="M356.391,334.773a.408.408,0,0,0,.408-.407v-6.1a6.16,6.16,0,0,0-4.545-5.937l-26.725-7.215a.407.407,0,0,0-.212.786l26.724,7.215a5.344,5.344,0,0,1,3.943,5.151v6.1a.408.408,0,0,0,.407.407" transform="translate(-225.079 -58.304)" fill="#111"/>
              <path id="Trazado_818871" data-name="Trazado 818871" d="M323.742,319.45a.408.408,0,0,0,.351-.2l10.034-16.979a.407.407,0,1,0-.7-.414L323.39,318.835a.408.408,0,0,0,.144.558.4.4,0,0,0,.207.056" transform="translate(-201.094 -55.816)" fill="#111"/>
              <path id="Trazado_818872" data-name="Trazado 818872" d="M329.159,269.463l-8.7-14.084a27.935,27.935,0,0,0-11.5-10.417l-15.352-7.509a12.655,12.655,0,0,0-7.107-1.191l-29.588-1.686a.963.963,0,0,0-.936,1.353c.007.017.015.034.023.051a5.379,5.379,0,0,0,4.285,3.173l13.9,1.707-.684.064a4.863,4.863,0,0,0-4.124,3.176l-1.145,3.137-.973,1.033a5.023,5.023,0,0,0-1.018,5.283l6.9,17.523a1.977,1.977,0,0,0,2.7,1.054,5.645,5.645,0,0,0,2.885-6.882l-1.975-5.856,9.527,11.7a15.656,15.656,0,0,0,5.841,4.446l7.341,3.227,5.175,14.5Z" transform="translate(-141.11 -43.403)" fill="#ffa485"/>
              <line id="Línea_3804" data-name="Línea 3804" x1="10.115" y1="0.445" transform="translate(133.178 197.806)" fill="#949af8"/>
              <path id="Trazado_818873" data-name="Trazado 818873" d="M310.482,243.047a.484.484,0,0,0,.2.052l10.115.445a.5.5,0,1,0,.043-.991l-10.115-.446a.5.5,0,0,0-.241.94" transform="translate(-177.524 -44.797)" fill="#ff8563"/>
              <line id="Línea_3805" data-name="Línea 3805" x1="12.304" y1="1.28" transform="translate(127.519 203.876)" fill="#949af8"/>
              <path id="Trazado_818874" data-name="Trazado 818874" d="M314.741,250.5a.482.482,0,0,0,.168.048l12.3,1.281a.5.5,0,1,0,.1-.985l-12.3-1.28a.5.5,0,0,0-.271.936" transform="translate(-187.443 -46.176)" fill="#ff8563"/>
              <line id="Línea_3806" data-name="Línea 3806" x2="1.334" y2="3.369" transform="translate(134.317 212.617)" fill="#949af8"/>
              <path id="Trazado_818875" data-name="Trazado 818875" d="M321.194,264.591a.5.5,0,0,0,.68-.627l-1.333-3.369a.5.5,0,0,0-.921.364l1.333,3.37a.5.5,0,0,0,.241.262" transform="translate(-185.762 -48.16)" fill="#949af8"/>
              <path id="Trazado_818876" data-name="Trazado 818876" d="M248.873,298.575l5.1,5.471a2.01,2.01,0,0,0,2.842.1l27.7-25.827a2.011,2.011,0,0,0,.1-2.842l-5.1-5.471a2.01,2.01,0,0,0-2.842-.1l-27.7,25.827a2.01,2.01,0,0,0-.1,2.842" transform="translate(-90.944 -49.841)" fill="#f2f1ec"/>
              <path id="Trazado_818877" data-name="Trazado 818877" d="M255.194,341.092c-1.439,2.724-3.515,6.323-5.872,10.273a31.531,31.531,0,0,1-47.526,7.92c-6.75-5.727-13.992-12.085-21.059-18.389-14.7-13.11-28.632-25.982-35.8-32.441a3.566,3.566,0,0,1-.04-5.264l31.538-29.259a2.654,2.654,0,0,1,3.55-.055l38.3,33.407L265,316.41s-5.735,16.976-9.806,24.681" transform="translate(14.442 -50.555)" fill="#5c69ab"/>
              <path id="Trazado_818878" data-name="Trazado 818878" d="M222.149,367.1a31.9,31.9,0,0,0,27.431-15.622c2.574-4.314,4.553-7.776,5.882-10.291,4.04-7.646,9.776-24.571,9.833-24.742a.406.406,0,0,0-.308-.53l-46.611-9.106-38.217-33.335a3.054,3.054,0,0,0-4.1.064L144.526,302.8a3.971,3.971,0,0,0,.044,5.865c2.463,2.219,5.724,5.2,9.542,8.678,7.4,6.754,16.613,15.159,26.261,23.765,8.058,7.187,14.949,13.2,21.068,18.395a31.56,31.56,0,0,0,13.353,6.75,32.331,32.331,0,0,0,7.354.851m42.223-50.474c-.932,2.72-5.985,17.282-9.63,24.181-1.323,2.5-3.294,5.953-5.862,10.254a31.1,31.1,0,0,1-33.9,14.394,30.772,30.772,0,0,1-13.013-6.576c-6.113-5.187-13-11.2-21.051-18.382-9.645-8.6-18.855-17.007-26.256-23.76-3.817-3.484-7.08-6.461-9.545-8.681a3.169,3.169,0,0,1-1.046-2.325,3.126,3.126,0,0,1,1.011-2.336l31.537-29.26a2.241,2.241,0,0,1,3.006-.046l38.3,33.407a.394.394,0,0,0,.19.092Z" transform="translate(14.534 -50.462)" fill="#5c69ab"/>
              <path id="Trazado_818879" data-name="Trazado 818879" d="M231.841,383q1.116,0,2.235-.06a.407.407,0,0,0,.384-.43.4.4,0,0,0-.429-.384,41.233,41.233,0,0,1-30.177-10.943l-12.062-11.237a.408.408,0,1,0-.556.6L203.3,371.781A42.051,42.051,0,0,0,231.841,383" transform="translate(6.39 -66.582)" fill="#111"/>
              <path id="Trazado_818880" data-name="Trazado 818880" d="M222.841,321.974a.407.407,0,0,0,.264-.718l-41.069-34.948a.408.408,0,0,0-.529.621l41.07,34.948a.406.406,0,0,0,.264.1" transform="translate(25.543 -52.958)" fill="#111"/>
              <path id="Trazado_818881" data-name="Trazado 818881" d="M175.3,312.172a.407.407,0,0,0,.353-.2l16.18-27.944a.408.408,0,1,0-.7-.409l-16.18,27.944a.407.407,0,0,0,.352.612" transform="translate(62.169 -52.44)" fill="#111"/>
              <path id="Trazado_818882" data-name="Trazado 818882" d="M275.381,311.45a2.187,2.187,0,1,0,2.931-.992,2.188,2.188,0,0,0-2.931.992" transform="translate(-107.176 -57.403)" fill="#f2f1ec"/>
              <path id="Trazado_818883" data-name="Trazado 818883" d="M113.788,102.735v96.094c0,14.736-40.39,27.526-99.585,33.926V136.661c59.2-6.4,99.585-19.19,99.585-33.926" transform="translate(271.234 -19.009)" fill="#949af8"/>
              <path id="Trazado_818884" data-name="Trazado 818884" d="M26.856,163.182l.044,0c48.836-5.28,79.173-15.723,79.173-27.253a.407.407,0,0,0-.815,0c0,10.911-30.792,21.29-78.446,26.443a.407.407,0,0,0,.043.813" transform="translate(268.968 -25.075)" fill="#f6eee3"/>
              <path id="Trazado_818885" data-name="Trazado 818885" d="M48.118,179.1a.4.4,0,0,0,.093-.011,150.669,150.669,0,0,0,19.626-5.809.407.407,0,0,0-.293-.76A149.961,149.961,0,0,1,48.026,178.3a.408.408,0,0,0,.092.8" transform="translate(289.615 -31.917)" fill="#f6eee3"/>
              <path id="Trazado_818886" data-name="Trazado 818886" d="M87.952,187.793l.044,0c10.422-1.127,20.195-2.514,29.048-4.124a.408.408,0,0,0-.146-.8c-8.833,1.606-18.588,2.991-28.989,4.116a.407.407,0,0,0,.043.813" transform="translate(207.872 -33.835)" fill="#111"/>
              <path id="Trazado_818887" data-name="Trazado 818887" d="M40.966,215.975l-11.248,3.6V203.541l11.248-4.323Z" transform="translate(331.411 -36.862)" fill="#111"/>
              <path id="Trazado_818888" data-name="Trazado 818888" d="M29.218,217.772l12.063-3.864V186.447l-12.063,4.636Zm11.248-4.458-10.433,3.341V191.643l10.433-4.01Z" transform="translate(331.504 -34.499)" fill="#f6eee3"/>
              <path id="Trazado_818889" data-name="Trazado 818889" d="M49.109,226.694l12.063-3.863V207.594L49.109,212.23Zm11.248-4.458-10.433,3.341V212.79l10.433-4.01Z" transform="translate(295.403 -38.411)" fill="#f6eee3"/>
              <path id="Trazado_818890" data-name="Trazado 818890" d="M381.919,102.735v96.094c0,12.175,27.568,23.02,70.533,30.032,1.217.2,1.45-95.858.416-96.026-43.2-7.01-70.949-17.886-70.949-30.1" transform="translate(-368.176 -19.009)" fill="#949af8"/>
              <path id="Trazado_818891" data-name="Trazado 818891" d="M455.841,149.882a.407.407,0,0,0,.094-.8c-10.207-2.425-17.858-5.186-22.74-8.207a.407.407,0,1,0-.428.694c4.955,3.066,12.687,5.86,22.981,8.305a.37.37,0,0,0,.094.011" transform="translate(-412.185 -26.054)" fill="#111"/>
              <path id="Trazado_818892" data-name="Trazado 818892" d="M455.974,166.038a.407.407,0,0,0,.094-.8c-9.945-2.363-17.4-5.053-22.157-8a.407.407,0,1,0-.429.693c4.831,2.989,12.366,5.713,22.4,8.1a.371.371,0,0,0,.094.011" transform="translate(-412.901 -29.083)" fill="#f6eee3"/>
              <g id="Grupo_1071861" data-name="Grupo 1071861" transform="translate(271.406 171.123)" opacity="0.69">
                <g id="Grupo_1071860" data-name="Grupo 1071860">
                  <g id="Grupo_1071859" data-name="Grupo 1071859" clip-path="url(#clip-path-7)">
                    <path id="Trazado_818893" data-name="Trazado 818893" d="M125.373,228.746l15.816-16.315a1.222,1.222,0,1,0-1.755-1.7l-14.142,14.587-16.353-15.342L88.8,225.594a1.223,1.223,0,0,0,1.5,1.932l18.492-14.34Z" transform="translate(-88.324 -209.975)" fill="#1b1f38"/>
                  </g>
                </g>
              </g>
              <path id="Trazado_818894" data-name="Trazado 818894" d="M84.792,211.014a4.1,4.1,0,1,0,4.1-4.1,4.1,4.1,0,0,0-4.1,4.1" transform="translate(234.5 -38.285)" fill="#bcc5f6"/>
              <path id="Trazado_818895" data-name="Trazado 818895" d="M123.381,211.014a4.1,4.1,0,1,0,4.1-4.1,4.1,4.1,0,0,0-4.1,4.1" transform="translate(164.462 -38.285)" fill="#bcc5f6"/>
              <path id="Trazado_818896" data-name="Trazado 818896" d="M103.172,229.394a4.1,4.1,0,1,0,4.1-4.1,4.1,4.1,0,0,0-4.1,4.1" transform="translate(201.14 -41.686)" fill="#5f73d3"/>
              <path id="Trazado_818897" data-name="Trazado 818897" d="M147.082,229.394a4.1,4.1,0,1,0,4.1-4.1,4.1,4.1,0,0,0-4.1,4.1" transform="translate(121.444 -41.686)" fill="#5f73d3"/>
              <rect id="Rectángulo_375768" data-name="Rectángulo 375768" width="6.613" height="47.024" transform="translate(105.869 139.862)" fill="#5c69ab"/>
              <path id="Trazado_818898" data-name="Trazado 818898" d="M348.12,218.955h7.428v-47.84H348.12Zm6.613-.815h-5.8V171.931h5.8Z" transform="translate(-242.657 -31.662)" fill="#5c69ab"/>
              <path id="Trazado_818899" data-name="Trazado 818899" d="M363.594,216.064h7.428V155.488h-7.428Zm6.613-.815h-5.8V156.3h5.8Z" transform="translate(-270.742 -28.77)" fill="#111"/>
              <path id="Trazado_818900" data-name="Trazado 818900" d="M395.754,216.064h7.428V155.488h-7.428Zm6.613-.815h-5.8V156.3h5.8Z" transform="translate(-329.112 -28.77)" fill="#111"/>
              <g id="Grupo_1071864" data-name="Grupo 1071864" transform="translate(54.803 118.063)" opacity="0.46">
                <g id="Grupo_1071863" data-name="Grupo 1071863">
                  <g id="Grupo_1071862" data-name="Grupo 1071862" clip-path="url(#clip-path-8)">
                    <rect id="Rectángulo_375769" data-name="Rectángulo 375769" width="6.613" height="68.822" transform="translate(0 0.001)" fill="#fff"/>
                  </g>
                </g>
              </g>
              <rect id="Rectángulo_375771" data-name="Rectángulo 375771" width="6.613" height="44.943" transform="translate(54.803 141.943)" fill="#5c69ab"/>
              <path id="Trazado_818901" data-name="Trazado 818901" d="M410.781,219.427h7.428V173.67h-7.428Zm6.613-.814h-5.8V174.485h5.8Z" transform="translate(-356.385 -32.134)" fill="#5c69ab"/>
              <rect id="Rectángulo_375772" data-name="Rectángulo 375772" width="6.613" height="42.127" transform="translate(79.785 144.76)" fill="#5c69ab"/>
              <path id="Trazado_818902" data-name="Trazado 818902" d="M380.127,220.067h7.428V177.126h-7.428Zm6.613-.814h-5.8V177.942h5.8Z" transform="translate(-300.749 -32.774)" fill="#5c69ab"/>
            </g>
          </g>
        </g>
      </g>
    </g>
  </g>
</svg>
