<svg xmlns="http://www.w3.org/2000/svg" width="72" height="72" viewBox="0 0 72 72">
  <g id="_22" data-name="22" transform="translate(-298.051 -4682)">
    <circle id="Elipse_11509" data-name="Elipse 11509" cx="36" cy="36" r="36" transform="translate(298.051 4682)" fill="#13de61"/>
    <g id="prioridad" transform="translate(307.051 4691)">
      <path id="Trazado_874037" data-name="Trazado 874037" d="M46.462,114.274H19.986A12.486,12.486,0,0,0,7.5,126.76v8.7a12.463,12.463,0,0,0,4.742,9.794,19.223,19.223,0,0,1-2.77,6.427,1.844,1.844,0,0,0,1.284,2.906,13.845,13.845,0,0,0,13.376-6.642h22.33a12.486,12.486,0,0,0,12.486-12.486v-8.7a12.486,12.486,0,0,0-12.486-12.486Z" transform="translate(-6.724 -102.445)" fill="#e7889d"/>
      <path id="Trazado_874038" data-name="Trazado 874038" d="M162.8,114.274H138.466l1.145,11.552a10.042,10.042,0,0,0,1.708,4.677,10.491,10.491,0,1,0,18.626,0,10.042,10.042,0,0,0,1.708-4.677Z" transform="translate(-124.132 -102.445)" fill="#e16e7e"/>
      <path id="Trazado_874039" data-name="Trazado 874039" d="M182.711,9.732A6.8,6.8,0,0,0,177.678,7.5h-5.1a6.79,6.79,0,0,0-6.757,7.46l1.47,14.829a6.77,6.77,0,0,0,2.629,4.73,7.289,7.289,0,1,0,10.411,0,6.769,6.769,0,0,0,2.629-4.73l1.47-14.829a6.8,6.8,0,0,0-1.724-5.228Z" transform="translate(-148.63 -6.724)" fill="#f6ee86"/>
      <path id="Trazado_874040" data-name="Trazado 874040" d="M210.027,43.589h-5.1a3.055,3.055,0,0,0-3.04,3.356l1.47,14.829a3.055,3.055,0,0,0,3.04,2.753h2.155a3.055,3.055,0,0,0,3.04-2.753l1.47-14.829A3.055,3.055,0,0,0,210.027,43.589Z" transform="translate(-180.979 -39.077)" fill="#e7889d"/>
      <path id="Trazado_874041" data-name="Trazado 874041" d="M211.139,67.269c-5.145-3.369-8.231-15.318-7.851-19.037a3.052,3.052,0,0,0-1.395,2.875l1.47,14.829a3.055,3.055,0,0,0,3.04,2.753h2.155A3.054,3.054,0,0,0,211.139,67.269Z" transform="translate(-180.979 -43.239)" fill="#e16e7e"/>
      <circle id="Elipse_11515" data-name="Elipse 11515" cx="3.553" cy="3.553" r="3.553" transform="translate(22.947 29.338)" fill="#e16e7e"/>
      <path id="Trazado_874042" data-name="Trazado 874042" d="M38.634,44.729H17.408a.777.777,0,0,0-.672.387,13.064,13.064,0,0,1-12.623,6.26,1.067,1.067,0,0,1-.729-1.689,20.013,20.013,0,0,0,2.891-6.7A.776.776,0,0,0,6,42.205,11.654,11.654,0,0,1,1.553,33.02v-8.7a11.611,11.611,0,0,1,3.6-8.445.776.776,0,0,0-1.076-1.12A13.151,13.151,0,0,0,0,24.315v8.7A13.192,13.192,0,0,0,4.649,43.1,18.284,18.284,0,0,1,2.112,48.8,2.62,2.62,0,0,0,3.95,52.92a14.643,14.643,0,0,0,13.9-6.638H38.634a.776.776,0,1,0,0-1.553ZM29.048,3.736h-5.1A3.833,3.833,0,0,0,20.14,7.945l1.47,14.829a3.818,3.818,0,0,0,3.812,3.453h2.155a3.818,3.818,0,0,0,3.812-3.453l1.47-14.829a3.833,3.833,0,0,0-3.812-4.209Zm2.267,4.056L29.845,22.62a2.27,2.27,0,0,1-2.267,2.053H25.423a2.271,2.271,0,0,1-2.267-2.053L21.685,7.792a2.277,2.277,0,0,1,2.267-2.5h5.1a2.276,2.276,0,0,1,2.267,2.5ZM26.5,28.562a4.33,4.33,0,1,0,4.33,4.33A4.335,4.335,0,0,0,26.5,28.562Zm0,7.107a2.777,2.777,0,1,1,2.777-2.777A2.78,2.78,0,0,1,26.5,35.668ZM39.739,11.053H36.307l.272-2.74A7.57,7.57,0,0,0,29.048,0h-5.1a7.57,7.57,0,0,0-7.53,8.313l.272,2.74H13.262a13.123,13.123,0,0,0-6.017,1.44.776.776,0,0,0,.705,1.383,11.582,11.582,0,0,1,5.311-1.271h3.586l1.045,10.536a7.606,7.606,0,0,0,2.3,4.73,8.066,8.066,0,1,0,12.617,0,7.606,7.606,0,0,0,2.3-4.73l1.045-10.536h3.586A11.723,11.723,0,0,1,51.448,24.315v8.7A11.744,11.744,0,0,1,42.1,44.491a.776.776,0,1,0,.311,1.521A13.3,13.3,0,0,0,53,33.02v-8.7A13.277,13.277,0,0,0,39.739,11.053ZM35.033,8.16l-1.47,14.829a5.955,5.955,0,0,1-2.328,4.19.777.777,0,0,0-.084,1.16,6.513,6.513,0,1,1-9.3,0,.777.777,0,0,0-.084-1.16,5.955,5.955,0,0,1-2.328-4.19L17.968,8.16a6.018,6.018,0,0,1,5.985-6.607h5.1A6.017,6.017,0,0,1,35.033,8.16Z"/>
    </g>
  </g>
</svg>
