<svg xmlns="http://www.w3.org/2000/svg" xmlns:xlink="http://www.w3.org/1999/xlink" width="400.051" height="269.324" viewBox="0 0 400.051 269.324">
  <defs>
    <clipPath id="clip-path">
      <rect id="Rectángulo_401761" data-name="Rectángulo 401761" width="400.051" height="269.324" rx="9" transform="translate(1020.051 6409)" fill="#e6f0fc"/>
    </clipPath>
    <clipPath id="clip-path-2">
      <rect id="Rectángulo_375806" data-name="Rectángulo 375806" width="7.609" height="7.609" fill="none"/>
    </clipPath>
    <clipPath id="clip-path-3">
      <rect id="Rectángulo_375816" data-name="Rectángulo 375816" width="30.51" height="15.921" fill="none"/>
    </clipPath>
  </defs>
  <g id="_28" data-name="28" transform="translate(-1020.051 -6409)" clip-path="url(#clip-path)">
    <rect id="Rectángulo_401723" data-name="Rectángulo 401723" width="400.051" height="269.324" rx="9" transform="translate(1020.051 6409)" fill="#f6f9f9"/>
    <ellipse id="Elipse_11516" data-name="Elipse 11516" cx="149" cy="116.5" rx="149" ry="116.5" transform="translate(1073.051 6430)" fill="#9fc3f4"/>
    <g id="Grupo_1099895" data-name="Grupo 1099895" transform="translate(16.215 -14.797)">
      <g id="Grupo_1071962" data-name="Grupo 1071962" transform="translate(1066.291 6451)">
        <path id="Trazado_773059" data-name="Trazado 773059" d="M322.919,62.782a2.051,2.051,0,0,1-.539.278" transform="translate(-135.191 -62.253)" fill="#fff"/>
        <path id="Trazado_773059-2" data-name="Trazado 773059" d="M322.919,62.782a2.051,2.051,0,0,1-.539.278" transform="translate(-135.191 -62.253)" fill="#fff"/>
        <g id="Grupo_1071961" data-name="Grupo 1071961" transform="translate(0 17.991)">
          <rect id="Rectángulo_375805" data-name="Rectángulo 375805" width="58.317" height="27.955" transform="translate(85.022 178.042)" fill="#12263f"/>
          <path id="Trazado_819164" data-name="Trazado 819164" d="M260.571,68.359V195.708a7.407,7.407,0,0,1-7.412,7.406H74.233a7.411,7.411,0,0,1-7.412-7.406V68.359a7.416,7.416,0,0,1,7.412-7.412H253.159a7.412,7.412,0,0,1,7.412,7.412" transform="translate(-49.516 -22.302)" fill="#12263f"/>
          <g id="Grupo_1071939" data-name="Grupo 1071939" transform="translate(110.06 168.051)" opacity="0.5">
            <g id="Grupo_1071938" data-name="Grupo 1071938">
              <g id="Grupo_1071937" data-name="Grupo 1071937" clip-path="url(#clip-path-2)">
                <path id="Trazado_819165" data-name="Trazado 819165" d="M220.714,268.836a3.8,3.8,0,1,1-3.8-3.8,3.8,3.8,0,0,1,3.8,3.8" transform="translate(-213.105 -265.032)" fill="#fff"/>
              </g>
            </g>
          </g>
          <path id="Trazado_819166" data-name="Trazado 819166" d="M259.587,187.192V71.213a6.259,6.259,0,0,0-6.146-6.366H76.638a6.259,6.259,0,0,0-6.146,6.366v115.98Z" transform="translate(-50.859 -23.729)" fill="#fff"/>
          <path id="Trazado_819167" data-name="Trazado 819167" d="M236.786,326.15H155.521v-.195a5.83,5.83,0,0,1,5.83-5.83h69.605a5.829,5.829,0,0,1,5.83,5.83Z" transform="translate(-81.973 -117.141)" fill="#12263f"/>
          <g id="Grupo_1099896" data-name="Grupo 1099896" transform="translate(20.549 -16.588)">
            <path id="Trazado_819173" data-name="Trazado 819173" d="M367.457,121.027H307.822a6.491,6.491,0,0,0-6.491,6.491V251.45a6.491,6.491,0,0,0,6.491,6.491h59.636a6.491,6.491,0,0,0,6.491-6.491V127.518a6.491,6.491,0,0,0-6.491-6.491" transform="translate(-135.329 -44.287)" fill="#b0c8cb"/>
            <path id="Trazado_819174" data-name="Trazado 819174" d="M353.14,128.846h-32.8a1.031,1.031,0,0,1-1.031-1.031v-.134a1.031,1.031,0,0,1,1.031-1.031h32.8a1.031,1.031,0,0,1,1.031,1.031v.134a1.031,1.031,0,0,1-1.031,1.031" transform="translate(-137.494 -44.964)" fill="#0f1b63"/>
            <path id="Trazado_819175" data-name="Trazado 819175" d="M365.62,127.749a1.1,1.1,0,1,1-1.1-1.1,1.1,1.1,0,0,1,1.1,1.1" transform="translate(-142.81 -44.964)" fill="#0f1b63"/>
            <rect id="Rectángulo_375807" data-name="Rectángulo 375807" width="64.622" height="39.709" transform="translate(170 89.174)" fill="#fff"/>
            <path id="Trazado_819176" data-name="Trazado 819176" d="M351.416,152.8l-4.738,5.668L334.419,143.8l-20.5,24.52h50.471Z" transform="translate(-136.846 -47.03)" fill="#ffc655"/>
            <rect id="Rectángulo_375808" data-name="Rectángulo 375808" width="30.51" height="17.895" transform="translate(170 181.48)" fill="#fff"/>
            <path id="Trazado_819177" data-name="Trazado 819177" d="M327.377,247.44l-2.237,2.675-5.788-6.924-9.677,11.576H333.5Z" transform="translate(-136.334 -59.005)" fill="#ffc655"/>
            <g id="Grupo_1071942" data-name="Grupo 1071942" transform="translate(170 135.505)" style="mix-blend-mode: multiply;isolation: isolate">
              <g id="Grupo_1071941" data-name="Grupo 1071941">
                <g id="Grupo_1071940" data-name="Grupo 1071940" clip-path="url(#clip-path-3)">
                  <rect id="Rectángulo_375809" data-name="Rectángulo 375809" width="30.51" height="1.714" transform="translate(0 3.593)" fill="#949af8"/>
                  <rect id="Rectángulo_375810" data-name="Rectángulo 375810" width="30.51" height="1.714" fill="#949af8"/>
                  <rect id="Rectángulo_375811" data-name="Rectángulo 375811" width="19.291" height="1.714" transform="translate(0 7.101)" fill="#949af8"/>
                  <rect id="Rectángulo_375812" data-name="Rectángulo 375812" width="9.846" height="1.714" transform="translate(20.663 7.101)" fill="#949af8"/>
                  <rect id="Rectángulo_375813" data-name="Rectángulo 375813" width="26.992" height="1.714" transform="translate(0 10.606)" fill="#949af8"/>
                  <rect id="Rectángulo_375814" data-name="Rectángulo 375814" width="9.375" height="1.714" transform="translate(0 14.207)" fill="#949af8"/>
                  <rect id="Rectángulo_375815" data-name="Rectángulo 375815" width="6.752" height="1.714" transform="translate(10.992 14.207)" fill="#949af8"/>
                </g>
              </g>
            </g>
            <g id="Grupo_1071945" data-name="Grupo 1071945" transform="translate(204.113 159.51)" style="mix-blend-mode: multiply;isolation: isolate">
              <g id="Grupo_1071944" data-name="Grupo 1071944">
                <g id="Grupo_1071943" data-name="Grupo 1071943" clip-path="url(#clip-path-3)">
                  <rect id="Rectángulo_375817" data-name="Rectángulo 375817" width="30.51" height="1.714" transform="translate(0 3.593)" fill="#949af8"/>
                  <rect id="Rectángulo_375818" data-name="Rectángulo 375818" width="30.51" height="1.714" transform="translate(0 0.001)" fill="#949af8"/>
                  <rect id="Rectángulo_375819" data-name="Rectángulo 375819" width="19.291" height="1.714" transform="translate(0 7.101)" fill="#949af8"/>
                  <rect id="Rectángulo_375820" data-name="Rectángulo 375820" width="9.846" height="1.714" transform="translate(20.663 7.101)" fill="#949af8"/>
                  <rect id="Rectángulo_375821" data-name="Rectángulo 375821" width="26.992" height="1.714" transform="translate(0 10.606)" fill="#949af8"/>
                  <rect id="Rectángulo_375822" data-name="Rectángulo 375822" width="9.375" height="1.714" transform="translate(0 14.207)" fill="#949af8"/>
                  <rect id="Rectángulo_375823" data-name="Rectángulo 375823" width="6.752" height="1.714" transform="translate(10.992 14.207)" fill="#949af8"/>
                </g>
              </g>
            </g>
            <g id="Grupo_1071948" data-name="Grupo 1071948" transform="translate(204.113 135.505)" style="mix-blend-mode: multiply;isolation: isolate">
              <g id="Grupo_1071947" data-name="Grupo 1071947">
                <g id="Grupo_1071946" data-name="Grupo 1071946" clip-path="url(#clip-path-3)">
                  <rect id="Rectángulo_375825" data-name="Rectángulo 375825" width="30.51" height="1.714" transform="translate(0 3.593)" fill="#949af8"/>
                  <rect id="Rectángulo_375826" data-name="Rectángulo 375826" width="30.51" height="1.714" transform="translate(0)" fill="#949af8"/>
                  <rect id="Rectángulo_375827" data-name="Rectángulo 375827" width="19.291" height="1.714" transform="translate(0 7.101)" fill="#949af8"/>
                  <rect id="Rectángulo_375828" data-name="Rectángulo 375828" width="9.846" height="1.714" transform="translate(20.663 7.101)" fill="#949af8"/>
                  <rect id="Rectángulo_375829" data-name="Rectángulo 375829" width="30.51" height="1.714" transform="translate(0 10.606)" fill="#949af8"/>
                  <rect id="Rectángulo_375830" data-name="Rectángulo 375830" width="9.375" height="1.714" transform="translate(0 14.207)" fill="#949af8"/>
                  <rect id="Rectángulo_375831" data-name="Rectángulo 375831" width="19.517" height="1.714" transform="translate(10.992 14.207)" fill="#949af8"/>
                </g>
              </g>
            </g>
            <g id="Grupo_1071951" data-name="Grupo 1071951" transform="translate(170 159.51)" style="mix-blend-mode: multiply;isolation: isolate">
              <g id="Grupo_1071950" data-name="Grupo 1071950">
                <g id="Grupo_1071949" data-name="Grupo 1071949" clip-path="url(#clip-path-3)">
                  <rect id="Rectángulo_375833" data-name="Rectángulo 375833" width="30.51" height="1.714" transform="translate(0 3.593)" fill="#949af8"/>
                  <rect id="Rectángulo_375834" data-name="Rectángulo 375834" width="30.51" height="1.714" transform="translate(0 0.001)" fill="#949af8"/>
                  <rect id="Rectángulo_375835" data-name="Rectángulo 375835" width="30.51" height="1.714" transform="translate(0 7.101)" fill="#949af8"/>
                  <rect id="Rectángulo_375836" data-name="Rectángulo 375836" width="30.51" height="1.714" transform="translate(0 10.606)" fill="#949af8"/>
                  <rect id="Rectángulo_375837" data-name="Rectángulo 375837" width="30.51" height="1.714" transform="translate(0 14.207)" fill="#949af8"/>
                </g>
              </g>
            </g>
            <g id="Grupo_1071954" data-name="Grupo 1071954" transform="translate(204.113 182.066)" style="mix-blend-mode: multiply;isolation: isolate">
              <g id="Grupo_1071953" data-name="Grupo 1071953">
                <g id="Grupo_1071952" data-name="Grupo 1071952" clip-path="url(#clip-path-3)">
                  <rect id="Rectángulo_375839" data-name="Rectángulo 375839" width="30.51" height="1.714" transform="translate(0 3.592)" fill="#949af8"/>
                  <rect id="Rectángulo_375840" data-name="Rectángulo 375840" width="30.51" height="1.714" transform="translate(0 0)" fill="#949af8"/>
                  <rect id="Rectángulo_375841" data-name="Rectángulo 375841" width="19.291" height="1.714" transform="translate(11.218 7.101)" fill="#949af8"/>
                  <rect id="Rectángulo_375842" data-name="Rectángulo 375842" width="9.846" height="1.714" transform="translate(0 7.101)" fill="#949af8"/>
                  <rect id="Rectángulo_375843" data-name="Rectángulo 375843" width="23.427" height="1.714" transform="translate(0 10.606)" fill="#949af8"/>
                  <rect id="Rectángulo_375844" data-name="Rectángulo 375844" width="5.455" height="1.714" transform="translate(25.054 10.606)" fill="#949af8"/>
                  <rect id="Rectángulo_375845" data-name="Rectángulo 375845" width="22.505" height="1.714" transform="translate(8.004 14.207)" fill="#949af8"/>
                  <rect id="Rectángulo_375846" data-name="Rectángulo 375846" width="6.752" height="1.714" transform="translate(0 14.207)" fill="#949af8"/>
                </g>
              </g>
            </g>
          </g>
          <rect id="Rectángulo_375848" data-name="Rectángulo 375848" width="14.446" height="1.311" transform="translate(109.126 133.114)" fill="#0f1b63"/>
          <rect id="Rectángulo_375849" data-name="Rectángulo 375849" width="33.452" height="1.311" transform="translate(127.276 133.114)" fill="#0f1b63"/>
          <path id="Trazado_819180" data-name="Trazado 819180" d="M256.033,226.95c-5.742,0-11.5-.007-17.225-.021l0-1.311c11.455.028,23.017.028,34.366,0l0,1.311c-5.675.014-11.4.021-17.146.021" transform="translate(-112.45 -82.559)" fill="#0f1b63"/>
          <rect id="Rectángulo_375850" data-name="Rectángulo 375850" width="39.633" height="1.311" transform="translate(121.095 138.087)" fill="#0f1b63"/>
          <rect id="Rectángulo_375851" data-name="Rectángulo 375851" width="41.79" height="1.311" transform="translate(118.938 148.054)" fill="#0f1b63"/>
          <rect id="Rectángulo_375852" data-name="Rectángulo 375852" width="47.585" height="1.311" transform="translate(113.143 153.027)" fill="#0f1b63"/>
          <rect id="Rectángulo_375853" data-name="Rectángulo 375853" width="22.373" height="1.311" transform="translate(31.056 58.176)" fill="#949af8"/>
          <rect id="Rectángulo_375854" data-name="Rectángulo 375854" width="23.088" height="1.311" transform="translate(82.342 58.176)" fill="#949af8"/>
          <rect id="Rectángulo_375855" data-name="Rectángulo 375855" width="16.016" height="1.311" transform="translate(89.414 63.149)" fill="#ffc655"/>
          <rect id="Rectángulo_375856" data-name="Rectángulo 375856" width="22.604" height="1.311" transform="translate(82.826 73.116)" fill="#ffc655"/>
          <rect id="Rectángulo_375857" data-name="Rectángulo 375857" width="27.031" height="1.311" transform="translate(78.399 78.089)" fill="#ffc655"/>
          <rect id="Rectángulo_375858" data-name="Rectángulo 375858" width="34.77" height="1.311" transform="translate(70.66 83.902)" fill="#ffc655"/>
          <rect id="Rectángulo_375859" data-name="Rectángulo 375859" width="22.373" height="1.311" transform="translate(57.056 58.176)" fill="#ffc655"/>
          <path id="Trazado_819181" data-name="Trazado 819181" d="M166.833,108.766c-3.418,0-6.847-.005-13.707-.015l-4.459-.006v-1.311l4.46.006c13.716.019,13.718.019,27.337,0l4.43-.006v1.311l-4.428.006c-6.811.01-10.216.015-13.634.015" transform="translate(-79.465 -39.313)" fill="#ffc655"/>
          <path id="Trazado_819182" data-name="Trazado 819182" d="M105.652,108.766c-5.742,0-11.471-.006-17.146-.02l0-1.311c11.349.027,22.911.027,34.366,0l0,1.311c-5.728.014-11.484.02-17.225.02" transform="translate(-57.451 -39.313)" fill="#949af8"/>
          <rect id="Rectángulo_375860" data-name="Rectángulo 375860" width="55.181" height="1.311" transform="translate(31.056 63.149)" fill="#949af8"/>
          <rect id="Rectángulo_375861" data-name="Rectángulo 375861" width="36.541" height="1.311" transform="translate(31.056 83.902)" fill="#949af8"/>
          <rect id="Rectángulo_375862" data-name="Rectángulo 375862" width="48.917" height="1.311" transform="translate(31.056 73.116)" fill="#949af8"/>
          <rect id="Rectángulo_375863" data-name="Rectángulo 375863" width="44.333" height="1.311" transform="translate(31.056 78.089)" fill="#949af8"/>
          <path id="Trazado_819183" data-name="Trazado 819183" d="M81.5,92.262a.9.9,0,1,1-.9-.9.9.9,0,0,1,.9.9" transform="translate(-54.228 -33.429)" fill="#12263f"/>
          <path id="Trazado_819184" data-name="Trazado 819184" d="M81.5,100.1a.9.9,0,1,1-.9-.9.9.9,0,0,1,.9.9" transform="translate(-54.228 -36.3)" fill="#12263f"/>
          <path id="Trazado_819185" data-name="Trazado 819185" d="M81.5,107.947a.9.9,0,1,1-.9-.9.9.9,0,0,1,.9.9" transform="translate(-54.228 -39.17)" fill="#12263f"/>
          <path id="Trazado_819186" data-name="Trazado 819186" d="M81.5,115.79a.9.9,0,1,1-.9-.9.9.9,0,0,1,.9.9" transform="translate(-54.228 -42.04)" fill="#12263f"/>
          <path id="Trazado_819187" data-name="Trazado 819187" d="M81.5,123.666a.9.9,0,1,1-.9-.9.9.9,0,0,1,.9.9" transform="translate(-54.228 -44.921)" fill="#12263f"/>
          <path id="Trazado_819188" data-name="Trazado 819188" d="M81.5,132.835a.9.9,0,1,1-.9-.9.9.9,0,0,1,.9.9" transform="translate(-54.228 -48.276)" fill="#12263f"/>
          <path id="Trazado_819189" data-name="Trazado 819189" d="M215.019,120.858a.327.327,0,0,1-.328-.328v-29.1a.328.328,0,1,1,.656,0v29.1a.327.327,0,0,1-.328.328" transform="translate(-103.625 -33.338)" fill="#12263f"/>
          <path id="Trazado_819190" data-name="Trazado 819190" d="M120.562,224.75h-2.014a.336.336,0,0,1,0-.671h2.014a.336.336,0,0,1,0,.671m-4.028,0h-2.014a.336.336,0,0,1,0-.671h2.014a.336.336,0,0,1,0,.671m-4.028,0h-.816a2.7,2.7,0,0,1-1.311-.339.335.335,0,1,1,.325-.587,2.039,2.039,0,0,0,.985.254h.816a.336.336,0,0,1,0,.671m-3.132-1.863a.336.336,0,0,1-.327-.264,2.731,2.731,0,0,1-.062-.578v-1.5a.336.336,0,1,1,.671,0v1.5a2.1,2.1,0,0,0,.046.435.336.336,0,0,1-.256.4.354.354,0,0,1-.072.008m-.054-4.024a.336.336,0,0,1-.335-.336v-2.014a.336.336,0,1,1,.671,0v2.014a.336.336,0,0,1-.336.336m0-4.028a.336.336,0,0,1-.335-.336v-2.014a.336.336,0,1,1,.671,0V214.5a.336.336,0,0,1-.336.336m0-4.028a.336.336,0,0,1-.335-.336v-2.014a.336.336,0,1,1,.671,0v2.014a.336.336,0,0,1-.336.336m0-4.028a.336.336,0,0,1-.335-.336V206.2a2.7,2.7,0,0,1,.718-1.836.336.336,0,0,1,.493.456,2.028,2.028,0,0,0-.54,1.38v.245a.336.336,0,0,1-.336.336m12.5-2.615h-2.014a.336.336,0,1,1,0-.671h2.014a.336.336,0,1,1,0,.671m-4.028,0h-2.014a.336.336,0,0,1,0-.671h2.014a.336.336,0,0,1,0,.671m-4.028,0h-2.014a.336.336,0,1,1,0-.671h2.014a.336.336,0,0,1,0,.671" transform="translate(-64.945 -74.463)" fill="#0f1b63"/>
          <rect id="Rectángulo_375864" data-name="Rectángulo 375864" width="10.783" height="1.343" transform="translate(52.14 141.571)" fill="#0f1b63"/>
          <rect id="Rectángulo_375865" data-name="Rectángulo 375865" width="17.419" height="1.343" transform="translate(65.745 141.571)" fill="#0f1b63"/>
          <rect id="Rectángulo_375866" data-name="Rectángulo 375866" width="10.782" height="1.343" transform="translate(72.382 152.994)" fill="#0f1b63"/>
          <rect id="Rectángulo_375867" data-name="Rectángulo 375867" width="17.42" height="1.343" transform="translate(52.14 152.994)" fill="#0f1b63"/>
          <rect id="Rectángulo_375868" data-name="Rectángulo 375868" width="18.965" height="1.343" transform="translate(52.14 145.461)" fill="#0f1b63"/>
          <rect id="Rectángulo_375869" data-name="Rectángulo 375869" width="9.237" height="1.343" transform="translate(73.927 145.461)" fill="#0f1b63"/>
          <rect id="Rectángulo_375870" data-name="Rectángulo 375870" width="15.607" height="1.343" transform="translate(52.14 149.28)" fill="#0f1b63"/>
          <rect id="Rectángulo_375871" data-name="Rectángulo 375871" width="10.59" height="1.343" transform="translate(72.575 149.28)" fill="#0f1b63"/>
          <rect id="Rectángulo_375872" data-name="Rectángulo 375872" width="5.645" height="10.51" transform="translate(52.14 125.348)" fill="#ffc655"/>
          <rect id="Rectángulo_375873" data-name="Rectángulo 375873" width="5.645" height="14.5" transform="translate(60.996 121.359)" fill="#12263f"/>
          <rect id="Rectángulo_375874" data-name="Rectángulo 375874" width="5.645" height="22.772" transform="translate(69.56 113.086)" fill="#2b5cf9"/>
          <rect id="Rectángulo_375875" data-name="Rectángulo 375875" width="2.026" height="1.343" transform="translate(69.238 149.28)" fill="#0f1b63"/>
          <path id="Trazado_874043" data-name="Trazado 874043" d="M0,0H42.254V47.144H0Z" transform="translate(117.966 77.411)" fill="#13de61"/>
          <rect id="Rectángulo_375877" data-name="Rectángulo 375877" width="29.463" height="0.983" transform="translate(121.378 85.79)" fill="#fff"/>
          <path id="Trazado_819191" data-name="Trazado 819191" d="M245.653,147.553c-5.06,0-10.11-.005-14.7-.016l0-.983c9.18.023,20.195.023,29.461,0l0,.983c-4.634.011-9.7.016-14.765.016" transform="translate(-109.575 -53.628)" fill="#fff"/>
          <rect id="Rectángulo_375878" data-name="Rectángulo 375878" width="29.463" height="0.983" transform="translate(121.378 89.358)" fill="#fff"/>
          <rect id="Rectángulo_375879" data-name="Rectángulo 375879" width="21.479" height="0.983" transform="translate(121.378 96.511)" fill="#fff"/>
          <rect id="Rectángulo_375880" data-name="Rectángulo 375880" width="29.463" height="0.983" transform="translate(121.378 120.533)" fill="#fff"/>
          <path id="Trazado_819192" data-name="Trazado 819192" d="M260.415,179.811c-9.267-.022-20.281-.022-29.461,0l0-.983c9.182-.022,20.2-.022,29.466,0Z" transform="translate(-109.575 -65.431)" fill="#fff"/>
          <rect id="Rectángulo_375881" data-name="Rectángulo 375881" width="29.463" height="0.983" transform="translate(121.378 116.966)" fill="#fff"/>
          <rect id="Rectángulo_375882" data-name="Rectángulo 375882" width="21.479" height="0.983" transform="translate(121.378 109.812)" fill="#fff"/>
          <path id="Trazado_819193" data-name="Trazado 819193" d="M268.1,169.5H224.539V121.027H268.1Zm-42.909-.655h42.254V121.682H225.195Z" transform="translate(-107.229 -44.287)" fill="#2b5cf9"/>
          <rect id="Rectángulo_375883" data-name="Rectángulo 375883" width="42.91" height="5.648" transform="translate(117.638 77.068)" fill="#2b5cf9"/>
          <path id="Trazado_819194" data-name="Trazado 819194" d="M271.214,165.289a.493.493,0,0,1-.326-.123l-3.3-2.918a.492.492,0,0,1,0-.736l3.3-2.917a.492.492,0,1,1,.652.736l-2.886,2.55,2.886,2.549a.492.492,0,0,1-.326.86" transform="translate(-122.92 -57.988)" fill="#fff"/>
          <path id="Trazado_819195" data-name="Trazado 819195" d="M281.152,165.29a.492.492,0,0,1-.326-.86l2.886-2.549-2.886-2.55a.492.492,0,1,1,.652-.736l3.3,2.917a.492.492,0,0,1,0,.736l-3.3,2.918a.493.493,0,0,1-.326.123" transform="translate(-127.765 -57.988)" fill="#fff"/>
          <path id="Trazado_819196" data-name="Trazado 819196" d="M230.305,125.063l1.145-1.145a.277.277,0,0,0-.392-.392l-1.145,1.145-1.145-1.145a.277.277,0,0,0-.393.392l1.145,1.145-1.145,1.145a.278.278,0,0,0,.393.393l1.145-1.145,1.145,1.145a.277.277,0,1,0,.392-.393Z" transform="translate(-108.603 -45.171)" fill="#fff"/>
          <path id="Trazado_819197" data-name="Trazado 819197" d="M238.274,126.681a1.618,1.618,0,1,1,1.618-1.618,1.62,1.62,0,0,1-1.618,1.618m0-2.718a1.1,1.1,0,1,0,1.1,1.1,1.1,1.1,0,0,0-1.1-1.1" transform="translate(-111.662 -45.171)" fill="#fff"/>
          <path id="Trazado_819198" data-name="Trazado 819198" d="M247.4,128.228h-2.636a.277.277,0,1,1,0-.554H247.4a.277.277,0,1,1,0,.554" transform="translate(-114.527 -46.719)" fill="#fff"/>
          <g id="Grupo_1099894" data-name="Grupo 1099894" transform="translate(-10.53 5.036)">
            <rect id="Rectángulo_375804" data-name="Rectángulo 375804" width="36.747" height="6.282" transform="translate(109.124 -25.883)" fill="#c1c1c1"/>
            <path id="Trazado_819163" data-name="Trazado 819163" d="M234.251,25.217H207.983a7.447,7.447,0,0,0-4.954,1.753l-7.136,5.34H167.781a2.127,2.127,0,0,0-2.127,2.128V73.347a2.128,2.128,0,0,0,2.127,2.128h68.5a2.128,2.128,0,0,0,2.128-2.128v-43.4c0-2.5-1.86-4.728-4.154-4.728" transform="translate(-58.691 -53.464)" fill="#ffc655"/>
            <path id="Trazado_819199" data-name="Trazado 819199" d="M160.6,8.713l-2.385.754a1.387,1.387,0,0,0-.225.095,11.993,11.993,0,0,0-2.706-3.2,1.424,1.424,0,0,0,.135-.21l1.142-2.225a1.413,1.413,0,0,0-.611-1.9L153.727.889a1.413,1.413,0,0,0-1.9.611l-1.142,2.225a1.438,1.438,0,0,0-.092.231,11.992,11.992,0,0,0-4.061-.346,1.429,1.429,0,0,0-.052-.239L145.725.986a1.413,1.413,0,0,0-1.772-.92L141.569.82a1.413,1.413,0,0,0-.92,1.771l.754,2.385a1.373,1.373,0,0,0,.095.225,11.993,11.993,0,0,0-3.2,2.706,1.421,1.421,0,0,0-.21-.135L135.868,6.63a1.4,1.4,0,0,0-1.07-.09l-.007,0a1.4,1.4,0,0,0-.823.7l-1.142,2.225a1.413,1.413,0,0,0,.611,1.9l2.225,1.143a1.439,1.439,0,0,0,.231.091,12,12,0,0,0-.346,4.062,1.428,1.428,0,0,0-.239.052l-2.385.754a1.413,1.413,0,0,0-.92,1.771l.754,2.385a1.413,1.413,0,0,0,1.771.92l2.385-.754a1.385,1.385,0,0,0,.225-.1,12,12,0,0,0,2.706,3.2,1.421,1.421,0,0,0-.135.209l-1.142,2.225a1.411,1.411,0,0,0,.611,1.9l2.225,1.142a1.413,1.413,0,0,0,1.9-.611l1.143-2.225a1.4,1.4,0,0,0,.09-.231,12,12,0,0,0,4.062.346,1.426,1.426,0,0,0,.052.239l.754,2.385a1.413,1.413,0,0,0,1.772.92l2.385-.754a1.414,1.414,0,0,0,.92-1.772l-.754-2.385a1.389,1.389,0,0,0-.1-.225,12,12,0,0,0,3.2-2.706,1.423,1.423,0,0,0,.209.136l2.225,1.142a1.413,1.413,0,0,0,1.9-.611l1.142-2.225a1.413,1.413,0,0,0-.611-1.9l-2.225-1.142a1.4,1.4,0,0,0-.231-.092,11.992,11.992,0,0,0,.346-4.061,1.425,1.425,0,0,0,.239-.052l2.385-.754a1.413,1.413,0,0,0,.92-1.772l-.754-2.385a1.413,1.413,0,0,0-1.772-.92M149.564,21.949a6.629,6.629,0,1,1,4.321-8.319,6.637,6.637,0,0,1-4.321,8.319" transform="translate(-40.602 -35.229)" fill="#0f1b63"/>
          </g>
          <path id="Trazado_819200" data-name="Trazado 819200" d="M186.293,161.21l-.928,2.271a1.41,1.41,0,0,0-.07.23,11.753,11.753,0,0,0-4.108.035,1.4,1.4,0,0,0-.074-.233l-.961-2.257a1.386,1.386,0,0,0-1.817-.732l-2.257.961a1.387,1.387,0,0,0-.732,1.817l.961,2.257a1.423,1.423,0,0,0,.117.214,11.762,11.762,0,0,0-2.809,2.844,1.326,1.326,0,0,0-.213-.11l-2.271-.928a1.386,1.386,0,0,0-1.805.758l-.928,2.271a1.387,1.387,0,0,0,.759,1.806l2.271.927a1.323,1.323,0,0,0,.23.07,11.768,11.768,0,0,0,.035,4.108,1.421,1.421,0,0,0-.233.074l-2.257.961a1.376,1.376,0,0,0-.739.75l0,.006a1.376,1.376,0,0,0,.01,1.06l.961,2.257a1.385,1.385,0,0,0,1.816.732l2.258-.961a1.386,1.386,0,0,0,.213-.118,11.759,11.759,0,0,0,2.846,2.81,1.443,1.443,0,0,0-.111.213l-.927,2.271a1.385,1.385,0,0,0,.758,1.805l2.271.928a1.386,1.386,0,0,0,1.805-.758l.928-2.271a1.487,1.487,0,0,0,.07-.23,11.77,11.77,0,0,0,4.108-.036,1.322,1.322,0,0,0,.073.233l.961,2.257a1.385,1.385,0,0,0,1.816.732l2.258-.961h0a1.387,1.387,0,0,0,.732-1.817l-.961-2.257a1.36,1.36,0,0,0-.117-.214,11.771,11.771,0,0,0,2.81-2.846,1.347,1.347,0,0,0,.212.111l2.272.928a1.386,1.386,0,0,0,1.805-.758l.927-2.272a1.386,1.386,0,0,0-.758-1.805l-2.271-.927a1.328,1.328,0,0,0-.23-.07,11.759,11.759,0,0,0-.036-4.109,1.358,1.358,0,0,0,.233-.072l2.258-.961a1.386,1.386,0,0,0,.731-1.816l-.961-2.258a1.386,1.386,0,0,0-1.816-.731l-2.258.961a1.367,1.367,0,0,0-.214.117,11.765,11.765,0,0,0-2.845-2.809,1.441,1.441,0,0,0,.111-.213l.927-2.271a1.386,1.386,0,0,0-.758-1.805l-2.271-.928a1.386,1.386,0,0,0-1.805.758m3.055,16.627a6.5,6.5,0,1,1-3.562-8.478,6.511,6.511,0,0,1,3.562,8.478" transform="translate(-86.648 -58.675)" fill="#949af8"/>
          <path id="Trazado_819201" data-name="Trazado 819201" d="M163.34,142.038l-1.207,1.223a1.028,1.028,0,0,0-.107.13,8.242,8.242,0,0,0-2.669-1.074.9.9,0,0,0,.015-.171l-.019-1.719a.971.971,0,0,0-.981-.959l-1.718.02a.971.971,0,0,0-.959.981l.02,1.718a1.009,1.009,0,0,0,.018.17,8.231,8.231,0,0,0-2.579,1.092.981.981,0,0,0-.108-.128l-1.223-1.208a.971.971,0,0,0-1.371.01l-1.207,1.223a.971.971,0,0,0,.009,1.371l1.223,1.207a.929.929,0,0,0,.13.107,8.249,8.249,0,0,0-1.074,2.669,1.014,1.014,0,0,0-.171-.015l-1.719.02a.963.963,0,0,0-.679.288l0,0a.962.962,0,0,0-.276.689l.02,1.718a.97.97,0,0,0,.98.959l1.719-.019a1,1,0,0,0,.17-.019,8.24,8.24,0,0,0,1.092,2.579.928.928,0,0,0-.128.108l-1.207,1.224a.97.97,0,0,0,.009,1.372l1.223,1.207a.971.971,0,0,0,1.372-.009l1.207-1.224a.891.891,0,0,0,.107-.13,8.234,8.234,0,0,0,2.67,1.075.952.952,0,0,0-.015.171l.02,1.718a.969.969,0,0,0,.98.959l1.719-.019a.971.971,0,0,0,.959-.981l-.019-1.718a.935.935,0,0,0-.02-.17,8.237,8.237,0,0,0,2.58-1.093.9.9,0,0,0,.108.129l1.223,1.207a.971.971,0,0,0,1.372-.009l1.207-1.223a.972.972,0,0,0-.009-1.372L164.8,154.92a.982.982,0,0,0-.13-.107,8.233,8.233,0,0,0,1.075-2.67.939.939,0,0,0,.171.016l1.718-.02a.971.971,0,0,0,.959-.981l-.019-1.718a.972.972,0,0,0-.981-.959l-1.718.02a1,1,0,0,0-.17.018,8.232,8.232,0,0,0-1.092-2.579.99.99,0,0,0,.129-.108l1.207-1.223a.971.971,0,0,0-.009-1.372l-1.223-1.207A.972.972,0,0,0,163.34,142.038Zm-2.462,11.584a4.555,4.555,0,1,1-.042-6.442A4.56,4.56,0,0,1,160.878,153.622Z" transform="translate(-78.739 -51.035)" fill="none" stroke="#b19cfe" stroke-miterlimit="10" stroke-width="0.5"/>
          <path id="Trazado_819202" data-name="Trazado 819202" d="M364.389,53.13l-3.969.85a2.3,2.3,0,0,0-.38.119,19.462,19.462,0,0,0-3.876-5.581,2.262,2.262,0,0,0,.25-.318l2.19-3.417a2.294,2.294,0,0,0-.694-3.164l-3.417-2.19a2.293,2.293,0,0,0-3.164.694l-2.19,3.417a2.363,2.363,0,0,0-.184.359,19.449,19.449,0,0,0-6.506-1.187,2.237,2.237,0,0,0-.047-.394l-.849-3.969a2.294,2.294,0,0,0-2.72-1.76l-3.969.85a2.293,2.293,0,0,0-1.76,2.719l.85,3.969a2.311,2.311,0,0,0,.119.379,19.464,19.464,0,0,0-5.581,3.876,2.307,2.307,0,0,0-.317-.25l-3.418-2.189a2.273,2.273,0,0,0-1.714-.312l-.011,0a2.276,2.276,0,0,0-1.439,1l-2.189,3.417h0a2.294,2.294,0,0,0,.694,3.164l3.417,2.19a2.226,2.226,0,0,0,.36.182,19.438,19.438,0,0,0-1.188,6.507,2.263,2.263,0,0,0-.394.047l-3.969.849a2.294,2.294,0,0,0-1.76,2.72l.85,3.969a2.294,2.294,0,0,0,2.72,1.76l3.969-.85a2.32,2.32,0,0,0,.379-.119,19.459,19.459,0,0,0,3.877,5.582,2.339,2.339,0,0,0-.251.317l-2.189,3.417a2.29,2.29,0,0,0,.693,3.165l3.417,2.19a2.293,2.293,0,0,0,3.165-.694l2.189-3.417a2.213,2.213,0,0,0,.182-.36,19.462,19.462,0,0,0,6.507,1.188,2.268,2.268,0,0,0,.047.394l.85,3.969a2.292,2.292,0,0,0,2.719,1.76l3.969-.85a2.293,2.293,0,0,0,1.76-2.72l-.85-3.968a2.234,2.234,0,0,0-.119-.38,19.446,19.446,0,0,0,5.581-3.878,2.333,2.333,0,0,0,.317.252l3.418,2.19a2.294,2.294,0,0,0,3.164-.694l2.19-3.417a2.293,2.293,0,0,0-.693-3.164l-3.418-2.19a2.288,2.288,0,0,0-.359-.184,19.454,19.454,0,0,0,1.187-6.506,2.246,2.246,0,0,0,.394-.047l3.969-.85a2.292,2.292,0,0,0,1.76-2.719l-.85-3.969a2.293,2.293,0,0,0-2.719-1.76M344.513,72.8a10.757,10.757,0,1,1,8.266-12.77,10.769,10.769,0,0,1-8.266,12.77" transform="translate(-167.728 -11.292)" fill="#1169e3"/>
          <g id="Grupo_1071960" data-name="Grupo 1071960" transform="translate(0 11.089)">
            <path id="Trazado_819168" data-name="Trazado 819168" d="M59.944,47.065a10.932,10.932,0,0,0-9.678-10.857A9.7,9.7,0,0,0,40.59,25.347a9.693,9.693,0,0,0-4.037.883A14.592,14.592,0,0,0,9.67,34.1a14.745,14.745,0,0,0,.151,2.089A10.935,10.935,0,0,0,10.935,58H49.551v-.028A10.925,10.925,0,0,0,59.944,47.065" transform="translate(0 -19.503)" fill="#13de61"/>
            <path id="Trazado_819169" data-name="Trazado 819169" d="M47.7,83.57V66.582H33.7V83.57H29.318L40.7,94.234,52.082,83.57Z" transform="translate(-10.728 -36.73)" fill="#fee734"/>
          </g>
        </g>
        <g id="Grupo_1071959" data-name="Grupo 1071959" transform="translate(-21.456 181.691)">
          <path id="Trazado_819170" data-name="Trazado 819170" d="M283.709,64.989H245.431a6.409,6.409,0,0,1-6.409-6.409V45.85a6.409,6.409,0,0,1,6.409-6.409h38.278a6.409,6.409,0,0,1,6.409,6.409V58.58a6.409,6.409,0,0,1-6.409,6.409" transform="translate(-239.022 -39.441)" fill="#2b5cf9"/>
          <path id="Trazado_819203" data-name="Trazado 819203" d="M264.281,51.079l-5.874,2.153,5.874,2.134v2.2l-8.4-3.193V52.085l8.4-3.193Zm6.318-6.526h2.452L267.23,61.169h-2.452Zm11.167,7.532v2.293l-8.4,3.193v-2.2l5.874-2.134-5.874-2.153V48.892Z" transform="translate(-243.984 -40.945)" fill="#fff"/>
        </g>
        <g id="Grupo_1071956" data-name="Grupo 1071956" transform="translate(248.104 59.024)">
          <path id="Trazado_819178" data-name="Trazado 819178" d="M297.167,301.124h-36.6A6.128,6.128,0,0,1,254.44,295V282.825a6.128,6.128,0,0,1,6.128-6.129h36.6a6.128,6.128,0,0,1,6.128,6.129V295a6.128,6.128,0,0,1-6.128,6.128" transform="translate(-254.44 -276.696)" fill="#2b5cf9"/>
          <path id="Trazado_819205" data-name="Trazado 819205" d="M7.1-6.891A5.773,5.773,0,0,0,11.736-8.9l-1.669-1.541A3.581,3.581,0,0,1,7.242-9.106a3.447,3.447,0,0,1-3.6-3.6,3.447,3.447,0,0,1,3.6-3.6,3.615,3.615,0,0,1,2.825,1.316l1.669-1.541a5.8,5.8,0,0,0-4.623-1.99,5.773,5.773,0,0,0-6.1,5.81A5.768,5.768,0,0,0,7.1-6.891Zm13.515-6.79H17.819v-2.729H15.749v2.729H12.972v1.958h2.777v2.729h2.071v-2.729h2.793Zm9.807,0H27.626v-2.729H25.556v2.729H22.779v1.958h2.777v2.729h2.071v-2.729h2.793Z" transform="translate(8.246 25.303)" fill="#fff"/>
        </g>
      </g>
    </g>
  </g>
</svg>
