<svg xmlns="http://www.w3.org/2000/svg" xmlns:xlink="http://www.w3.org/1999/xlink" width="295" height="414" viewBox="0 0 295 414">
  <defs>
    <clipPath id="clip-path">
      <rect id="Rectángulo_401768" data-name="Rectángulo 401768" width="295" height="414" rx="14" transform="translate(1020.051 1248)" fill="#9fc3f4"/>
    </clipPath>
    <clipPath id="clip-path-2">
      <rect id="Rectángulo_383158" data-name="Rectángulo 383158" width="319.705" height="401.798" fill="none"/>
    </clipPath>
    <clipPath id="clip-path-4">
      <rect id="Rectángulo_383155" data-name="Rectángulo 383155" width="8.065" height="3.261" fill="none"/>
    </clipPath>
    <clipPath id="clip-path-5">
      <rect id="Rectángulo_383156" data-name="Rectángulo 383156" width="2.946" height="2.527" fill="none"/>
    </clipPath>
  </defs>
  <g id="_36" data-name="36" transform="translate(-1020.051 -1248)">
    <path id="Trazado_874044" data-name="Trazado 874044" d="M14,0H281a14,14,0,0,1,14,14V345a14,14,0,0,1-14,14H14A14,14,0,0,1,0,345V14A14,14,0,0,1,14,0Z" transform="translate(1020.051 1303)" fill="#9fc3f4"/>
    <g id="Enmascarar_grupo_1098685" data-name="Enmascarar grupo 1098685" clip-path="url(#clip-path)">
      <path id="Rectángulo_401740" data-name="Rectángulo 401740" d="M94,30A64.072,64.072,0,0,0,30,94v6a64,64,0,0,0,128,0V94A64.072,64.072,0,0,0,94,30M94,0a94,94,0,0,1,94,94v6A94,94,0,0,1,0,100V94A94,94,0,0,1,94,0Z" transform="translate(1233.051 1217)" fill="#fff"/>
      <g id="Grupo_1099904" data-name="Grupo 1099904" transform="translate(477.231 11948)">
        <g id="Grupo_1074090" data-name="Grupo 1074090" transform="translate(545.235 -10700)">
          <g id="Grupo_1074089" data-name="Grupo 1074089" clip-path="url(#clip-path-2)">
            <g id="Grupo_1074088" data-name="Grupo 1074088">
              <g id="Grupo_1074087" data-name="Grupo 1074087" clip-path="url(#clip-path-2)">
                <path id="Trazado_825256" data-name="Trazado 825256" d="M202.28,307.3v8.392H196.2V311.9a1.936,1.936,0,0,0-1.936-1.936H168.22a1.628,1.628,0,0,0-1.627,1.627v4.1h-7.072v-4.1a1.627,1.627,0,0,0-1.627-1.627H132.05a1.936,1.936,0,0,0-1.937,1.936v3.793h-6.08V307.3a3.417,3.417,0,0,1,3.418-3.416h32.071V195.722h7.072V303.885h32.27a3.416,3.416,0,0,1,3.416,3.416" transform="translate(44.448 70.138)" fill="#314fa5"/>
                <path id="Trazado_825257" data-name="Trazado 825257" d="M159.83,250.767H149.183a1.285,1.285,0,0,1-1.285-1.285V203.791h13.217v45.691a1.285,1.285,0,0,1-1.285,1.285" transform="translate(53 73.029)" fill="#1c2b74"/>
                <path id="Trazado_825258" data-name="Trazado 825258" d="M137.775,290.427a9.054,9.054,0,1,1-9.053-9.053,9.053,9.053,0,0,1,9.053,9.053" transform="translate(42.883 100.831)" fill="#171612"/>
                <path id="Trazado_825259" data-name="Trazado 825259" d="M127.7,294.593a5.186,5.186,0,1,1,5.185-5.185,5.19,5.19,0,0,1-5.185,5.185" transform="translate(43.904 101.852)" fill="#5a554d"/>
                <path id="Trazado_825260" data-name="Trazado 825260" d="M164.278,290.427a9.054,9.054,0,1,1-9.053-9.053,9.053,9.053,0,0,1,9.053,9.053" transform="translate(52.38 100.831)" fill="#171612"/>
                <path id="Trazado_825261" data-name="Trazado 825261" d="M154.2,294.593a5.186,5.186,0,1,1,5.185-5.185,5.19,5.19,0,0,1-5.185,5.185" transform="translate(53.401 101.852)" fill="#5a554d"/>
                <path id="Trazado_825262" data-name="Trazado 825262" d="M190.874,290.427a9.054,9.054,0,1,1-9.053-9.053,9.053,9.053,0,0,1,9.053,9.053" transform="translate(61.911 100.831)" fill="#171612"/>
                <path id="Trazado_825263" data-name="Trazado 825263" d="M180.8,294.593a5.186,5.186,0,1,1,5.185-5.185,5.19,5.19,0,0,1-5.185,5.185" transform="translate(62.932 101.852)" fill="#5a554d"/>
                <path id="Trazado_825264" data-name="Trazado 825264" d="M275.036,85.382,236.609,245.462a11.49,11.49,0,0,1-11.172,8.808H135.247A11.489,11.489,0,0,1,124.09,240.04L163.383,79.961a11.487,11.487,0,0,1,11.158-8.749h89.324a11.488,11.488,0,0,1,11.171,14.17" transform="translate(44.347 25.519)" fill="#1c2b74"/>
                <path id="Trazado_825265" data-name="Trazado 825265" d="M267.728,85.382,229.3,245.462a11.487,11.487,0,0,1-11.171,8.808H127.938a11.49,11.49,0,0,1-11.158-14.229L156.075,79.961a11.487,11.487,0,0,1,11.158-8.749h89.324a11.489,11.489,0,0,1,11.171,14.17" transform="translate(41.728 25.519)" fill="#314fa5"/>
                <path id="Trazado_825266" data-name="Trazado 825266" d="M216.07,244.407H125.881a3.684,3.684,0,0,1-3.579-4.564L161.595,79.765a3.678,3.678,0,0,1,3.579-2.808H254.5a3.687,3.687,0,0,1,3.583,4.546L219.653,241.583a3.673,3.673,0,0,1-3.583,2.824m-50.9-166.417a2.648,2.648,0,0,0-2.577,2.021L123.3,240.088a2.654,2.654,0,0,0,2.577,3.287H216.07a2.644,2.644,0,0,0,2.579-2.035L257.077,81.263a2.653,2.653,0,0,0-2.58-3.274Z" transform="translate(43.787 27.578)" fill="#1c2b74"/>
                <path id="Trazado_825267" data-name="Trazado 825267" d="M85.284,214.419H236.759A12.98,12.98,0,0,0,249.4,204.378l2.029-8.721H89.648Z" transform="translate(30.562 70.114)" fill="#1c2b74"/>
                <path id="Trazado_825268" data-name="Trazado 825268" d="M89.288,214.419H228.95a12.982,12.982,0,0,0,12.645-10.041l2.029-8.721H89.288a9.381,9.381,0,0,0,0,18.762" transform="translate(28.634 70.114)" fill="#314fa5"/>
                <path id="Trazado_825269" data-name="Trazado 825269" d="M160.507,85.541l-1.046,4.172c-.352,1.365-.7,2.726-1.072,4.08-.738,2.71-1.487,5.414-2.271,8.112-1.585,5.391-3.23,10.776-5.063,16.151s-3.759,10.762-6.028,16.187c-1.134,2.715-2.342,5.447-3.716,8.236a66.473,66.473,0,0,1-5.061,8.741c-.551.786-1.156,1.6-1.866,2.453a26.916,26.916,0,0,1-2.593,2.737,21.224,21.224,0,0,1-1.866,1.525,18.15,18.15,0,0,1-2.632,1.592,15.832,15.832,0,0,1-3.855,1.331,15.179,15.179,0,0,1-2.449.295l-.319.01h-.225l-.446-.007c-.306-.005-.571-.024-.852-.045a18.616,18.616,0,0,1-5.208-1.212,24.423,24.423,0,0,1-3.441-1.653,36.967,36.967,0,0,1-4.836-3.377,71.506,71.506,0,0,1-7.013-6.717c-2.073-2.241-3.985-4.489-5.826-6.752s-3.6-4.537-5.307-6.824-3.351-4.6-4.9-6.978-3.017-4.788-4.39-7.264q-1.033-1.854-1.985-3.765c-.321-.634-.622-1.282-.926-1.932-.153-.323-.3-.649-.447-.982l-.446-1.026a7.994,7.994,0,0,1,12.654-9.144l.342.308c.465.416.975.9,1.447,1.371s.969.945,1.441,1.428q1.422,1.443,2.81,2.91,2.773,2.932,5.433,5.913c1.781,1.979,3.528,3.968,5.264,5.939s3.5,3.893,5.281,5.746,3.577,3.638,5.371,5.279a50.405,50.405,0,0,0,5.215,4.249,12.668,12.668,0,0,0,2,1.176c.216.09.365.124.287.064a3.123,3.123,0,0,0-1.216-.3c-.11-.012-.205-.015-.338-.024l-.189,0-.288,0a8.6,8.6,0,0,0-3.362.793,7.241,7.241,0,0,0-.9.5c-.166.1-.269.192-.3.2-.081.049.024-.1.158-.308s.333-.523.537-.879c.414-.716.882-1.622,1.341-2.594s.932-2.028,1.384-3.123c.91-2.191,1.778-4.533,2.6-6.933,1.641-4.811,3.166-9.834,4.6-14.916,1.414-5.091,2.786-10.242,4.066-15.427.647-2.59,1.288-5.186,1.9-7.786l.924-3.893.876-3.818.05-.223a13.726,13.726,0,0,1,26.757,6.136l-.065.27" transform="translate(26.433 24.538)" fill="#eaad8f"/>
                <path id="Trazado_825270" data-name="Trazado 825270" d="M130.336,60.7a35.414,35.414,0,0,0-10.118,17.141c-3.169,12.471-11.143,36.245-11.143,36.245s21.774,13.628,31.15,13.289Z" transform="translate(39.087 21.752)" fill="#467b6c"/>
                <path id="Trazado_825271" data-name="Trazado 825271" d="M108.024,118.766l3.893,1.573c.681.274.215,1.316-.466,1.042l-3.893-1.573c-.682-.276-.215-1.316.466-1.042" transform="translate(38.424 42.544)" fill="#c6695d"/>
                <path id="Trazado_825272" data-name="Trazado 825272" d="M106.106,118.468a10.04,10.04,0,0,1,2.969,6.231.615.615,0,0,0,1.223-.133,11.362,11.362,0,0,0-3.409-7.046c-.566-.554-1.343.4-.782.948" transform="translate(37.954 42.054)" fill="#c6695d"/>
                <path id="Trazado_825273" data-name="Trazado 825273" d="M59.163,261.1l-8.048,13.15-15.337-6.789,6.962-14.128Z" transform="translate(12.821 90.783)" fill="#e9a48e"/>
                <path id="Trazado_825274" data-name="Trazado 825274" d="M.031,272.362l58,25.676a8.882,8.882,0,0,0,2.19-2.884c2.533-4.746,4.438-13.27,5.855-18.546.162-.618.322-1.193.475-1.706a18.562,18.562,0,0,1,.72-2.093c1.784-4.029-2.089-4.917-2.089-4.917-8.418,3.157-11.243-8.416-16.378-7.3,0,0-2.2.458-8.642,2.562s-15.481,1.373-23.383,1.212c-10.2-.212-14.233,2.3-15.8,4.567a4.959,4.959,0,0,0-.948,3.433" transform="translate(0 93.356)" fill="#c04d3a"/>
                <path id="Trazado_825275" data-name="Trazado 825275" d="M.031,270.142l58,25.676a8.882,8.882,0,0,0,2.19-2.884L.979,266.709a4.959,4.959,0,0,0-.948,3.433" transform="translate(0 95.576)" fill="#7e231a"/>
                <path id="Trazado_825276" data-name="Trazado 825276" d="M38.473,291.623l1.722.762a13.926,13.926,0,0,1,.994-10.667,17.888,17.888,0,0,1,11.246-8.905c.162-.618.321-1.191.474-1.706a19.438,19.438,0,0,0-13.071,9.931,15.393,15.393,0,0,0-1.365,10.586" transform="translate(13.646 97.152)" fill="#7e231a"/>
                <path id="Trazado_825277" data-name="Trazado 825277" d="M30.2,266.485a1.045,1.045,0,0,0,1.064-1.782l-3.226-2.5a1.045,1.045,0,0,0-1.281,1.652l3.225,2.5a1.093,1.093,0,0,0,.219.13" transform="translate(9.442 93.881)" fill="#fff"/>
                <path id="Trazado_825278" data-name="Trazado 825278" d="M33.829,265.437a1.045,1.045,0,0,0,1.064-1.782l-3.226-2.5a1.045,1.045,0,0,0-1.281,1.652l3.225,2.5a1.093,1.093,0,0,0,.219.13" transform="translate(10.744 93.505)" fill="#fff"/>
                <path id="Trazado_825279" data-name="Trazado 825279" d="M26.841,266.854a1.045,1.045,0,0,0,1.064-1.782l-3.226-2.5A1.045,1.045,0,0,0,23.4,264.22l3.225,2.5a1.093,1.093,0,0,0,.219.13" transform="translate(8.24 94.013)" fill="#fff"/>
                <path id="Trazado_825280" data-name="Trazado 825280" d="M23.514,267.164a1.045,1.045,0,0,0,1.064-1.782l-3.226-2.5a1.045,1.045,0,0,0-1.281,1.652l3.225,2.5a1.1,1.1,0,0,0,.219.13" transform="translate(7.047 94.124)" fill="#fff"/>
                <path id="Trazado_825281" data-name="Trazado 825281" d="M20,267.255a1.045,1.045,0,0,0,1.064-1.782l-3.226-2.5a1.045,1.045,0,0,0-1.281,1.652l3.225,2.5a1.1,1.1,0,0,0,.219.13" transform="translate(5.786 94.157)" fill="#fff"/>
                <path id="Trazado_825282" data-name="Trazado 825282" d="M16.32,267.035a1.045,1.045,0,0,0,1.064-1.782l-3.226-2.5a1.045,1.045,0,0,0-1.281,1.652l3.225,2.5a1.1,1.1,0,0,0,.219.13" transform="translate(4.469 94.078)" fill="#fff"/>
                <path id="Trazado_825283" data-name="Trazado 825283" d="M168.131,196.074c-37.068,6.058-57.753,18.525-57.753,18.525s-13.143,30.374-20.955,41.522S63.7,302.668,63.7,302.668L36.72,291.138s2.781-6.9,7.171-17.456c.115-.265.227-.535.338-.807,1.221-2.927,2.56-6.121,3.995-9.514.13-.312.262-.624.394-.939,2.647-6.262,5.6-13.171,8.719-20.314q.306-.7.614-1.409c2.7-6.176,5.507-12.51,8.339-18.745.144-.319.289-.633.433-.952,1.631-3.586,3.268-7.134,4.893-10.6.134-.285.269-.572.4-.853,2.107-4.473,4.191-8.8,6.206-12.855q.251-.5.492-.985C82,189.153,85.1,183.3,87.871,178.64c.17-.289.341-.575.508-.853a56.4,56.4,0,0,1,5.835-8.336c.213-.236.424-.456.626-.656.069-.069.145-.139.227-.211,3.39-2.923,17.22-7.627,33.61-10.082.524-.079,1.05-.154,1.581-.225h0c13.429-1.87,28.377-2.176,40.631,1.247,3.233,6.219,7.342,21.974-2.763,36.549" transform="translate(13.159 56.226)" fill="#171612"/>
                <path id="Trazado_825284" data-name="Trazado 825284" d="M65.883,262.6a.766.766,0,0,1-.3-.06L39.176,251.563a.777.777,0,0,1,.6-1.434l26.409,10.978a.777.777,0,0,1-.3,1.494" transform="translate(13.867 89.613)" fill="#5a554d"/>
                <path id="Trazado_825285" data-name="Trazado 825285" d="M55.648,280.778a.794.794,0,0,1-.287-.054.777.777,0,0,1-.435-1.009c.054-.137,5.58-13.923,18.468-33.482,12.8-19.427,26.189-52.265,26.322-52.6a.777.777,0,0,1,1.44.585c-.134.33-13.578,33.308-26.465,52.864-12.8,19.427-18.268,33.065-18.321,33.2a.778.778,0,0,1-.723.49" transform="translate(19.663 69.217)" fill="#5a554d"/>
                <path id="Trazado_825286" data-name="Trazado 825286" d="M215.655,200.43a.328.328,0,0,1-.072.043.06.06,0,0,1-.02.014c-.043.024-.082.052-.115.072a.942.942,0,0,0-.132.082.254.254,0,0,0-.052.027l-.111.068c-.02.01-.045.027-.065.037a.072.072,0,0,1,.02-.016c-.077.041-.129.075-.143.077s-.054.027-.084.045c-.31.179-.788.448-1.064.6a.8.8,0,0,0-.077.041,75.477,75.477,0,0,1-8.229,3.926,83.369,83.369,0,0,1-9.851,3.308c-.618.17-1.24.326-1.865.485-.048.011-.1.02-.149.034q-3.1.764-6.221,1.294-1.165.2-2.346.369c-2.8.412-5.621.693-8.415.853-.34.023-.679.041-1.019.05-3.142.154-6.255.147-9.318,0l-.985-.052-.167-.009h0c-.507-.031-1.009-.061-1.512-.106-1.664-.115-3.3-.288-4.927-.5-.568-.061-1.127-.139-1.684-.227a82.788,82.788,0,0,1-17.034-4.276c-.378-.143-.751-.285-1.125-.431-.272-.106-.537-.211-.8-.323-.065-.027-.126-.05-.194-.077-1.7-.706-3.337-1.471-4.883-2.278-.071-.038-.145-.076-.213-.11a47.2,47.2,0,0,1-5.651-3.5c.149-2.669.34-5.5.543-8.268v0c.048-.606.088-1.206.132-1.8.126-1.68.251-3.314.38-4.845a.05.05,0,0,1,0-.02c.31-3.217.588-6.551.846-9.873.007-.064.009-.1.009-.1.088-1.091.167-2.173.249-3.253.05-.672.1-1.335.143-2v0c.451-6.353.808-12.388,1.042-17.152l0,0c.027-.546.054-1.069.077-1.578.054-1.165.1-2.234.14-3.2.088-2.074.139-4.091.177-6.058.041-1.922.05-3.793.043-5.613-.007-2.078-.041-4.1-.1-6.056-.016-1.049-.061-2.081-.1-3.1v0c-.02-.469-.041-.935-.065-1.4-.02-.431-.041-.863-.068-1.286l0,0c-.007-.1-.011-.2-.018-.306-.023-.478-.054-.958-.084-1.422-.1-1.589-.211-3.131-.33-4.636-.281-3.362-.628-6.507-1.019-9.441-.064-.512-.136-1.021-.2-1.524-.713-5.078-1.549-9.508-2.384-13.373-.1-.462-.19-.914-.292-1.362-1.857-8.377-3.62-13.987-3.888-17.849a11.255,11.255,0,0,1,.014-1.9,13.491,13.491,0,0,1,.553-2.843,10.815,10.815,0,0,1,1.039-2.305c1.471-2.431,3.794-3.953,6.486-5.216.31-.147.618-.285.937-.425.849-.374,1.729-.723,2.622-1.08.316-.125.636-.254.962-.38.988-.39,1.99-.791,2.988-1.225a.062.062,0,0,1,.027-.007c.754-.333,1.5-.686,2.241-1.064.315-.163.625-.329.933-.5s.595-.333.88-.513c.369-.231.747-.475,1.11-.727a17.659,17.659,0,0,0,5.073-5.27.235.235,0,0,0,.038-.054c.166-.265.326-.546.485-.835l23.561-2.418A29.985,29.985,0,0,0,176.48,49.8c.3.136.614.265.944.4.19.075.38.145.577.227.213.086.435.163.662.249.122.043.262.091.391.139.831.292,1.748.581,2.74.853.38.1.774.2,1.182.3.323.079.652.153.989.221.186.043.376.082.566.118.306.065.609.122.93.183.636.113,1.294.217,1.976.3.357.05.717.091,1.08.132q1.233.139,2.558.208a15.556,15.556,0,0,1,4.859,1.039c.326.125.645.261.964.41a16.4,16.4,0,0,1,3.09,1.885,17.736,17.736,0,0,1,1.562,1.347h0c.075.072.145.14.217.215.22.213.435.435.648.666.306.329.6.672.9,1.028a27.349,27.349,0,0,1,2.067,2.891c.221.353.435.713.645,1.083.187.326.371.659.547,1,.149.274.292.557.431.842a54.883,54.883,0,0,1,4.195,12.47l0,.01q.469,2.125.853,4.408c.689,4.157,1.379,8.2,2.04,12.157.079.452.154.907.231,1.356q.373,2.245.74,4.458c.441,2.73.876,5.427,1.284,8.093.079.55.167,1.1.249,1.653.183,1.233.333,2.347.458,3.407.326,2.7.52,5.039.863,8.109,0,0,5.012,61.427-2.271,78.764" transform="translate(43.842 17.083)" fill="#467b6c"/>
                <path id="Trazado_825287" data-name="Trazado 825287" d="M191.992,157.2c-.01.349-.02.7-.03,1.046-.255,8.046-.873,16.318-1.97,24.647-.045.342-.088.682-.136,1.026-.289,2.122-.611,4.252-.964,6.377a.5.5,0,0,1-.439.41.391.391,0,0,1-.132-.007.491.491,0,0,1-.408-.566q.53-3.195.964-6.384c.048-.344.091-.686.136-1.03,1.087-8.257,1.7-16.455,1.956-24.43.009-.349.02-.7.03-1.042a322.991,322.991,0,0,0-9.155-84.265.5.5,0,0,1,.346-.609.487.487,0,0,1,.611.344,323.984,323.984,0,0,1,9.189,84.483" transform="translate(65.159 25.927)" fill="#253f3d"/>
                <path id="Trazado_825288" data-name="Trazado 825288" d="M135.825,41.846s-4.894,1.236-6.507-2.4,2.418-6.928-2.958-10.33-10.713-11.507-5.19-16.683,8.438,2.118,12.8-4.271S140.49,1.01,146.988.095c6.352-.9,8.665,4.944,15.332,3.922s11.909,6.481,10.537,10.935c-1.928,6.255-2.2,5.28-1.379,10.432s-2.645,9.313-6.638,9.173-29.014,7.29-29.014,7.29" transform="translate(42.586 0)" fill="#171612"/>
                <path id="Trazado_825289" data-name="Trazado 825289" d="M166.5,51.6c-.446,4.261-6.179,9.951-9.556,11.474a20.089,20.089,0,0,1-15.571.579L139.8,55.49l-.322-1.664-.61-3.157,17.38-16.747,1-.967.676-.652.4.666.451.767-.037.365C161.67,41.753,162.5,46.445,166.5,51.6" transform="translate(49.763 11.576)" fill="#e9a48e"/>
                <path id="Trazado_825290" data-name="Trazado 825290" d="M140.643,57.32c7.6-3.4,10.876-10.328,12-14.549-3.317,3.905-7.631,6.858-11.964,7.255a11.621,11.621,0,0,1-1.362.046Z" transform="translate(49.924 15.327)" fill="#171612"/>
                <path id="Trazado_825291" data-name="Trazado 825291" d="M129.492,29.533s-2.373.678-2.243,3.847,2.673,8.01,5.668,6.778-3.426-10.625-3.426-10.625" transform="translate(45.598 10.583)" fill="#c6695d"/>
                <path id="Trazado_825292" data-name="Trazado 825292" d="M163.681,44.047l0,0c-.039.01-.077.022-.114.031-.022.278-.054.558-.092.838-.015.124-.031.245-.052.369-.08.508-.192,1.024-.326,1.546-2.1,8.086-10.45,17.267-18.535,17.7a12.647,12.647,0,0,1-1.381,0c-7.937-.462-11.4-8.8-11.676-15.514-.011-.253-.019-.5-.019-.753,0,0-.094-.447-.27-1.225-.141-.619-.338-1.463-.577-2.457-.721-2.971-1.858-7.347-3.24-11.617-2.422-7.486.723-19.689,15.9-25.075C155.386,3.6,162.8,9.4,165.781,16.055a17.354,17.354,0,0,1,1.414,5.1,30.916,30.916,0,0,1-.175,6.93c1.5-.147,3.222.391,4.519,2.855,2.392,4.553-2.4,11.594-7.858,13.105" transform="translate(45.39 2.301)" fill="#e9a48e"/>
                <path id="Trazado_825293" data-name="Trazado 825293" d="M160.231,25.545a14.025,14.025,0,0,1-4.371,2.778l-2.7,4.443-3.9-1.729s.952-4.9-1.669-6.06-1.895-4.36-1.895-4.36,9.36-6.85,13.293-7.1a17.331,17.331,0,0,1,1.414,5.1,30.907,30.907,0,0,1-.175,6.929" transform="translate(52.179 4.843)" fill="#171612"/>
                <path id="Trazado_825294" data-name="Trazado 825294" d="M126.207,24.761s9.769-9.191,16.55-7.463a17.424,17.424,0,0,1,9.894,6.555s12.437.312,14.758-3.211-3.3-15.207-12.941-16.069S131.5,8.863,126.207,24.761" transform="translate(45.227 1.606)" fill="#171612"/>
                <path id="Trazado_825295" data-name="Trazado 825295" d="M131.423,31.516c.316,1.073,1.026,1.811,1.582,1.646s.753-1.168.436-2.241-1.024-1.811-1.583-1.646-.753,1.168-.436,2.241" transform="translate(47.042 10.483)" fill="#171612"/>
                <path id="Trazado_825296" data-name="Trazado 825296" d="M135.083,29.928a.292.292,0,0,0,.12-.139.3.3,0,0,0-.159-.387c-.126-.053-3.112-1.271-5.084.844a.3.3,0,1,0,.433.4c1.693-1.816,4.4-.713,4.423-.7a.294.294,0,0,0,.268-.02" transform="translate(46.543 10.394)" fill="#171612"/>
                <g id="Grupo_1074083" data-name="Grupo 1074083" transform="translate(191.027 41.908)" opacity="0.5">
                  <g id="Grupo_1074082" data-name="Grupo 1074082">
                    <g id="Grupo_1074081" data-name="Grupo 1074081" clip-path="url(#clip-path-4)">
                      <path id="Trazado_825297" data-name="Trazado 825297" d="M140.643,33.454c.174.723,2.116.873,4.336.337s3.878-1.558,3.7-2.281-2.116-.873-4.336-.337-3.878,1.558-3.7,2.281" transform="translate(-140.631 -30.852)" fill="#c6695d"/>
                    </g>
                  </g>
                </g>
                <g id="Grupo_1074086" data-name="Grupo 1074086" transform="translate(176.024 46.82)" opacity="0.5">
                  <g id="Grupo_1074085" data-name="Grupo 1074085">
                    <g id="Grupo_1074084" data-name="Grupo 1074084" clip-path="url(#clip-path-5)">
                      <path id="Trazado_825298" data-name="Trazado 825298" d="M130.165,36.995c1.5-.556,2.491-1.3,2.355-1.87s-1.35-.778-2.934-.59c.24,1,.436,1.838.579,2.46" transform="translate(-129.586 -34.468)" fill="#c6695d"/>
                    </g>
                  </g>
                </g>
                <path id="Trazado_825299" data-name="Trazado 825299" d="M150.85,34.414a4.2,4.2,0,0,0,1.453.932,5.358,5.358,0,0,0,2.513.276c.02-.124.037-.247.052-.367.039-.283.071-.562.09-.841l.115-.031a5.594,5.594,0,0,1-.633.077,4.339,4.339,0,0,1-1.083-.054,3.173,3.173,0,0,1-1.679-.839.593.593,0,0,0-.829.848" transform="translate(53.994 11.968)" fill="#c6695d"/>
                <path id="Trazado_825300" data-name="Trazado 825300" d="M141.9,57.374a12.634,12.634,0,0,0,1.38,0c8.085-.437,16.439-9.618,18.533-17.7a2.587,2.587,0,0,0-2.186-1.82l-.959-9.707-3.9-1.731s-1.22,9.09-4.123,10.1-9.917,1.3-12.5,3.578c0,0-5.193-.736-7.927,1.771.277,6.709,3.741,15.052,11.679,15.515" transform="translate(46.667 9.466)" fill="#171612"/>
                <path id="Trazado_825301" data-name="Trazado 825301" d="M142.678,35.975s1.032,5.154-3.172,6.512-5.74-2.713-5.74-2.713Z" transform="translate(47.935 12.892)" fill="#fff"/>
                <path id="Trazado_825302" data-name="Trazado 825302" d="M139.411,42.458a2.366,2.366,0,0,0,1.1-1.122.4.4,0,0,0-.734-.3,1.612,1.612,0,0,1-1.57.88.4.4,0,1,0-.023.793,2.578,2.578,0,0,0,1.228-.247" transform="translate(49.38 14.617)" fill="#5f5f75"/>
                <path id="Trazado_825303" data-name="Trazado 825303" d="M154.458,33.361a.594.594,0,0,0,.35-.58c-.277-4.195,4.038-7.167,4.082-7.2a.592.592,0,0,0-.663-.982c-.2.136-4.924,3.377-4.6,8.256a.594.594,0,0,0,.63.553.625.625,0,0,0,.2-.05" transform="translate(55.047 8.78)" fill="#c6695d"/>
                <path id="Trazado_825304" data-name="Trazado 825304" d="M158.571,28.944a.578.578,0,0,0,.186-.13.592.592,0,0,0-.016-.838,4.067,4.067,0,0,0-3.905-.808.593.593,0,0,0,.345,1.134,2.884,2.884,0,0,1,2.74.527.59.59,0,0,0,.651.115" transform="translate(55.335 9.667)" fill="#c6695d"/>
                <path id="Trazado_825305" data-name="Trazado 825305" d="M137.008,38.913a.592.592,0,0,0,0-1.084l-3.632-1.578,2.567-1.483a.6.6,0,0,0,.287-.4l1.377-7.425a.592.592,0,1,0-1.164-.216l-1.328,7.156-3.348,1.934a.593.593,0,0,0,.06,1.057l4.709,2.046a.588.588,0,0,0,.477,0" transform="translate(47.111 9.402)" fill="#c6695d"/>
                <path id="Trazado_825306" data-name="Trazado 825306" d="M143.854,26.228a1.63,1.63,0,0,0,.345-2.768c-.168-.132-4.166-3.215-8.276-.713a1.628,1.628,0,0,0,1.693,2.782c2.2-1.339,4.545.473,4.569.49a1.626,1.626,0,0,0,1.669.209" transform="translate(48.428 7.802)" fill="#171612"/>
                <path id="Trazado_825307" data-name="Trazado 825307" d="M129.995,29.522a1.627,1.627,0,0,0,.913-1.066c.359-1.33,2.573-1.868,3.146-1.938a1.629,1.629,0,1,0-.4-3.233c-1.816.225-5.1,1.388-5.891,4.325a1.628,1.628,0,0,0,2.232,1.913" transform="translate(45.764 8.34)" fill="#171612"/>
                <path id="Trazado_825308" data-name="Trazado 825308" d="M138.336,29.562c.316,1.073,1.026,1.811,1.582,1.646s.753-1.168.436-2.241-1.024-1.811-1.582-1.646-.753,1.168-.436,2.241" transform="translate(49.519 9.782)" fill="#171612"/>
                <path id="Trazado_825309" data-name="Trazado 825309" d="M142.583,28.24a.3.3,0,0,0,.027-.527c-.118-.068-2.926-1.654-5.15.194a.3.3,0,1,0,.378.455c1.91-1.588,4.451-.151,4.476-.136a.3.3,0,0,0,.269.014" transform="translate(49.221 9.681)" fill="#171612"/>
                <path id="Trazado_825310" data-name="Trazado 825310" d="M131.651,77.575a37.973,37.973,0,0,1-6.126,12.357c-.1-.465-.2-.917-.293-1.364a37.062,37.062,0,0,0,5.2-10.495,28.536,28.536,0,0,0-1-19.616c.308-.147.618-.287.935-.424a29.368,29.368,0,0,1,1.282,19.541" transform="translate(44.877 20.797)" fill="#5fa68d"/>
                <path id="Trazado_825311" data-name="Trazado 825311" d="M204.294,59.759a37.439,37.439,0,0,1-13.04,15.165v0q-1.255.831-2.567,1.558c-8.452,4.67-18.213,5.711-27.539,7.51-9.363,1.808-18.066,4.843-25.382,11.133A45.99,45.99,0,0,0,127.4,104.6c-.067-.515-.136-1.024-.2-1.525a47.382,47.382,0,0,1,7.561-8.45c6.513-5.717,14.28-9.041,22.679-10.921,9.624-2.156,19.76-2.824,28.778-7.112a35.319,35.319,0,0,0,5.436-3.217,36.5,36.5,0,0,0,11.992-14.7c.221.353.436.713.648,1.084" transform="translate(45.583 21.026)" fill="#5fa68d"/>
                <path id="Trazado_825312" data-name="Trazado 825312" d="M125.135,75.406c.071.336.623,3.026,1.333,6.845q.157.842.321,1.75c1.095,6.073,2.418,14.191,2.908,20.426a.58.58,0,0,1-1.027.412l-.012-.015c-.467-6.223-1.828-14.563-2.938-20.737a.364.364,0,0,1-.018-.109c-.871-4.794-1.578-8.263-1.6-8.355A.52.52,0,0,1,124.51,75a.526.526,0,0,1,.625.409" transform="translate(44.468 26.871)" fill="#253f3d"/>
                <path id="Trazado_825313" data-name="Trazado 825313" d="M152.364,79.367a78.175,78.175,0,0,1-2.129-13.7,42.85,42.85,0,0,1,.751-10.031s7.825-4.489,10.022-10.459c0,0,9.109,1.193,10.8,7.385,0,0-9.089,21.421-19.445,26.8" transform="translate(53.828 16.19)" fill="#253f3d"/>
                <path id="Trazado_825314" data-name="Trazado 825314" d="M141.078,50.544s-5.58-.109-4.866,7.4C137.631,72.86,147.78,76.01,147.78,76.01l1.289-7.877a49.6,49.6,0,0,0,.183-11.773s-7.432.3-8.175-5.816" transform="translate(48.79 18.113)" fill="#253f3d"/>
                <path id="Trazado_825315" data-name="Trazado 825315" d="M149.933,62.742a1.593,1.593,0,1,1-1.747-1.422,1.592,1.592,0,0,1,1.747,1.422" transform="translate(52.59 21.971)" fill="#253f3d"/>
                <path id="Trazado_825316" data-name="Trazado 825316" d="M150.014,67.421A1.593,1.593,0,1,1,148.267,66a1.593,1.593,0,0,1,1.747,1.422" transform="translate(52.619 23.648)" fill="#253f3d"/>
                <path id="Trazado_825317" data-name="Trazado 825317" d="M150.278,71.619a1.593,1.593,0,1,1-1.747-1.422,1.592,1.592,0,0,1,1.747,1.422" transform="translate(52.714 25.152)" fill="#253f3d"/>
                <path id="Trazado_825318" data-name="Trazado 825318" d="M160.881,99.19c-.2,3.926-4.277,7.088-6.756,9.677q-12.891,13.47-25.786,26.938c.029-.546.054-1.07.079-1.578l4.614-4.821q9.193-9.6,18.377-19.2,2.388-2.492,4.776-4.987a14.973,14.973,0,0,0,3.227-4.389c.993-2.4-.042-4.754-2.709-5.11a11.615,11.615,0,0,0-4.874.7,71.151,71.151,0,0,0-23.319,12.391c-.02-.433-.041-.864-.067-1.289l0,0a72.236,72.236,0,0,1,6.994-4.828,73.409,73.409,0,0,1,10.175-5.141c3.242-1.328,7.08-3.1,10.67-2.9,2.543.139,4.738,1.812,4.594,4.544" transform="translate(45.991 33.911)" fill="#5fa68d"/>
                <path id="Trazado_825319" data-name="Trazado 825319" d="M182.373,73.376c-6.924,3.4-13.757,7.741-17.922,14.426-3.708,5.951-5.1,13.661-1.646,20.048a16.055,16.055,0,0,0,6.13,6.354c2.76,1.565,5.7,1.745,8.8,1.718,3.56-.03,8.405.041,9.007,4.584.485,3.661-1.826,7.171-1.865,10.825-.069,6.448,7.444,11.137,13.255,8.6.61-.266.238-1.237-.378-.969a8.548,8.548,0,0,1-9.052-1.7c-2.668-2.369-3.145-5.446-2.377-8.8.656-2.865,2.08-5.977,1.274-8.953a6.024,6.024,0,0,0-4.366-4.193c-2.843-.792-5.86-.235-8.76-.48a13.044,13.044,0,0,1-8.48-4.283c-5.019-5.458-5.086-13.274-2.017-19.723C167.7,83,175.208,78.05,182.751,74.344c.595-.292.224-1.265-.378-.969" transform="translate(57.632 26.275)" fill="#5fa68d"/>
                <path id="Trazado_825320" data-name="Trazado 825320" d="M211.472,142.6c-.01.349-.02.7-.03,1.046-.333.02-.663.038-.992.043a25.224,25.224,0,0,1-5.739-.5,22.476,22.476,0,0,1-10.056-4.784c-3.575-3.05-6.072-7.1-8.594-11.014-2.594-4.021-5.393-8.1-9.447-10.792-4.741-3.141-10.079-3.059-15.123-.614-4.727,2.3-8.968,5.821-12.955,9.2a121.119,121.119,0,0,0-21.068,23.167c.05-.671.1-1.334.143-2v0a122.234,122.234,0,0,1,21.859-23.292c3.844-3.153,7.9-6.409,12.483-8.426a15.366,15.366,0,0,1,12.972-.187c3.882,1.845,6.952,5.1,9.431,8.544,2.839,3.939,5.117,8.281,8.313,11.96a21.737,21.737,0,0,0,11.318,7.013,24.159,24.159,0,0,0,6.493.686c.333-.011.663-.023.992-.048" transform="translate(45.679 40.527)" fill="#5fa68d"/>
                <path id="Trazado_825321" data-name="Trazado 825321" d="M200.86,161.891c-.308.178-.791.447-1.066.6-8.153-4.4-17.591-6.79-26.554-3.321-4.663,1.807-9.871,5.671-10.643,10.974a7.906,7.906,0,0,0,.042,2.657q-.507.037-1.019.053c-.736-3.92,1.472-7.714,4.265-10.33a23.034,23.034,0,0,1,11.8-5.652c8.135-1.434,16.107,1.073,23.172,5.015" transform="translate(57.866 56.071)" fill="#5fa68d"/>
                <path id="Trazado_825322" data-name="Trazado 825322" d="M162.224,174.465c-.329-.015-.659-.034-.983-.052-.057-.005-.113-.007-.168-.011,2.487-4.874,4.766-11.113,3.12-16.318a7.594,7.594,0,0,0-8.051-5.179c-3.541.221-6.769,2.158-9.618,4.123a45.76,45.76,0,0,0-11.735,11.839c-.269-.106-.538-.211-.8-.319l-.193-.08c.387-.57.786-1.13,1.2-1.684a43.417,43.417,0,0,1,15.659-13.4c5.64-2.672,13.119-1.817,14.738,5.167,1.2,5.171-.694,11.008-3.162,15.912" transform="translate(47.945 54.465)" fill="#5fa68d"/>
                <path id="Trazado_825323" data-name="Trazado 825323" d="M209.9,160.61c-.045.344-.088.683-.136,1.026q-.489-.077-.978-.17a32.229,32.229,0,0,1-3.3-.795c-8.677-2.554-14.82-8.846-21.258-14.837a47.51,47.51,0,0,0-10.514-7.938,21.3,21.3,0,0,0-15-1.684c-5.664,1.406-10.745,4.549-15.4,7.983a91.081,91.081,0,0,0-11.657,10.242q-2.822,2.95-5.372,6.126c.043-.6.088-1.206.132-1.8a90.952,90.952,0,0,1,6.6-7.168c7.183-7.013,16.09-14.328,26.112-16.549,9.47-2.1,17.335,2.391,24.158,8.52,6.978,6.27,13.291,13.465,22.626,16.155q1.493.428,3.013.716c.326.065.648.12.978.174" transform="translate(45.252 48.207)" fill="#5fa68d"/>
                <path id="Trazado_825324" data-name="Trazado 825324" d="M107.455,260.931l-2.767,20.753H87.917l.795-19.329Z" transform="translate(31.505 93.505)" fill="#e9a48e"/>
                <path id="Trazado_825325" data-name="Trazado 825325" d="M57.657,304.058l63.434-.238a8.867,8.867,0,0,0,.822-3.526c.376-5.367-1.366-13.924-2.225-19.32-.1-.63-.193-1.22-.264-1.751a18.906,18.906,0,0,1-.2-2.2c-.016-4.406-3.913-3.636-3.913-3.636-6.4,6.318-13.7-3.094-17.932.018,0,0-1.823,1.318-6.843,5.867s-13.573,7.573-20.852,10.651c-9.4,3.969-12.053,7.91-12.563,10.62a4.956,4.956,0,0,0,.534,3.521" transform="translate(20.434 97.74)" fill="#c04d3a"/>
                <path id="Trazado_825326" data-name="Trazado 825326" d="M57.612,296.64h63.435a8.879,8.879,0,0,0,.834-3.524H57.091a4.955,4.955,0,0,0,.522,3.524" transform="translate(20.421 105.039)" fill="#7e231a"/>
                <path id="Trazado_825327" data-name="Trazado 825327" d="M100.189,302.2h1.884a13.921,13.921,0,0,1-3.409-10.158,17.891,17.891,0,0,1,6.679-12.694c-.1-.63-.189-1.22-.257-1.752-2.816,2.153-7.563,6.865-7.933,14.371a15.4,15.4,0,0,0,3.036,10.232" transform="translate(34.807 99.478)" fill="#7e231a"/>
                <path id="Trazado_825328" data-name="Trazado 825328" d="M83.837,281.116a1.046,1.046,0,0,0,.251-2.061l-3.962-.983a1.046,1.046,0,0,0-.505,2.029l3.962.983a1.024,1.024,0,0,0,.254.031" transform="translate(28.248 99.637)" fill="#fff"/>
                <path id="Trazado_825329" data-name="Trazado 825329" d="M86.735,278.688a1.046,1.046,0,0,0,.251-2.061l-3.962-.983a1.046,1.046,0,1,0-.5,2.029l3.962.983a1.014,1.014,0,0,0,.253.031" transform="translate(29.286 98.767)" fill="#fff"/>
                <path id="Trazado_825330" data-name="Trazado 825330" d="M80.918,282.812a1.046,1.046,0,0,0,.251-2.061l-3.962-.983a1.045,1.045,0,1,0-.5,2.029l3.962.983a1.08,1.08,0,0,0,.253.031" transform="translate(27.202 100.245)" fill="#fff"/>
                <path id="Trazado_825331" data-name="Trazado 825331" d="M78,284.442a1.045,1.045,0,0,0,.251-2.059l-3.964-.985a1.045,1.045,0,1,0-.5,2.029l3.962.983a1.013,1.013,0,0,0,.253.031" transform="translate(26.157 100.829)" fill="#fff"/>
                <path id="Trazado_825332" data-name="Trazado 825332" d="M74.82,285.95a1.046,1.046,0,0,0,.251-2.061l-3.962-.983a1.045,1.045,0,1,0-.5,2.029l3.962.983a1.013,1.013,0,0,0,.253.031" transform="translate(25.017 101.369)" fill="#fff"/>
                <path id="Trazado_825333" data-name="Trazado 825333" d="M71.372,287.235a1.046,1.046,0,0,0,.251-2.061l-3.962-.983a1.045,1.045,0,1,0-.5,2.029l3.962.983a1.082,1.082,0,0,0,.253.031" transform="translate(23.781 101.83)" fill="#fff"/>
                <path id="Trazado_825334" data-name="Trazado 825334" d="M175.583,212.1c-35.946,0-53.027-3.469-53.027-3.469s-.864,31.739-2.537,45.129-8.854,51.971-8.854,51.971l-27.075,1.379s-.253-6.777-.408-17.262v0c-.007-.361-.01-.721-.016-1.092-.042-3.029-.076-6.345-.088-9.879v0c0-.482-.007-.964-.007-1.458-.033-9.684.065-20.878.446-32.236v0c.02-.57.039-1.145.062-1.716v0c.185-5.087.427-10.186.739-15.188.026-.408.053-.814.079-1.221.211-3.219.452-6.39.728-9.484.027-.322.056-.647.086-.966,1.421-15.5,3.722-28.906,7.381-36.044.158-.3.315-.6.479-.879a10.574,10.574,0,0,1,3.37-3.86c7.8-4.81,17.144-7.521,28.959-9.424q.7-.114,1.418-.227c7.429-1.136,15.821-1.982,25.4-2.842l1.021-.1h0c5.937-.528,12.326-1.07,19.215-1.691q.5-.043,1-.091,3.943-.355,8.112-.755s9.873-1.671,20.83-2.445c.383-.03.77-.056,1.159-.079,10.347-.666,21.387-.462,25.847,2.734,0,0,12.976,51.206-54.321,51.206" transform="translate(29.946 56.566)" fill="#171612"/>
                <path id="Trazado_825335" data-name="Trazado 825335" d="M217.587,159.879a.77.77,0,1,0-1.525.206c.023.174,2.229,17.519-7.387,29.874-5.361,6.888-13.389,10.99-23.861,12.191-21.083,2.417-40.636.338-53.576-1.038-10.443-1.111-16.746-1.781-18.869.1-1.93,1.706-2.662,11.465-3.894,30.01-1.239,18.658-4.226,48.667-8.065,64.992.482.192,1.3-.456,1.789-.285,3.905-16.461,6.565-45.808,7.812-64.6.528-7.944.983-14.806,1.538-20,.751-7.039,1.475-8.632,1.841-8.954,1.615-1.428,8.706-.674,17.686.281,13.006,1.383,32.662,3.473,53.916,1.036,10.9-1.25,19.282-5.552,24.907-12.785,10.012-12.874,7.789-30.282,7.69-31.017" transform="translate(35.982 57.054)" fill="#5a554d"/>
                <path id="Trazado_825336" data-name="Trazado 825336" d="M84.553,262.652a.751.751,0,0,1-.732-.724.758.758,0,0,1,.689-.815l27.592-1.744a.742.742,0,0,1,.777.721.758.758,0,0,1-.689.815L84.6,262.65h-.045" transform="translate(30.037 92.945)" fill="#5a554d"/>
                <path id="Trazado_825337" data-name="Trazado 825337" d="M129.329,98.673s1.82-9.51.744-12.6-1.054-8.317-3.185-7.771-1.98,6.981-1.98,6.981Z" transform="translate(44.76 28.047)" fill="#eaad8f"/>
                <path id="Trazado_825338" data-name="Trazado 825338" d="M210.64,82.743l-1.1,4.375c-.368,1.432-.735,2.859-1.125,4.279-.773,2.843-1.558,5.678-2.381,8.507-1.661,5.655-3.388,11.3-5.308,16.94s-3.942,11.287-6.323,16.977c-1.19,2.848-2.456,5.713-3.9,8.638a69.486,69.486,0,0,1-5.307,9.168c-.579.825-1.212,1.675-1.957,2.573a28.471,28.471,0,0,1-2.721,2.872,22.553,22.553,0,0,1-1.956,1.6,19.2,19.2,0,0,1-2.762,1.671,16.616,16.616,0,0,1-4.044,1.4,15.824,15.824,0,0,1-2.569.308l-.334.011h-.236l-.467-.007c-.321-.005-.6-.026-.894-.048a19.541,19.541,0,0,1-5.461-1.27A25.593,25.593,0,0,1,158.188,159a38.705,38.705,0,0,1-5.069-3.541,74.689,74.689,0,0,1-7.357-7.046c-2.173-2.349-4.18-4.708-6.11-7.08s-3.771-4.76-5.567-7.159-3.514-4.829-5.136-7.319-3.165-5.022-4.6-7.619q-1.084-1.944-2.082-3.947c-.336-.666-.652-1.346-.971-2.027-.16-.338-.319-.681-.469-1.031l-.466-1.074a8.383,8.383,0,0,1,13.271-9.59l.359.323c.486.435,1.023.945,1.517,1.437s1.016.992,1.51,1.5q1.493,1.514,2.948,3.052,2.91,3.075,5.7,6.2c1.868,2.077,3.7,4.162,5.52,6.229s3.673,4.083,5.538,6.027,3.752,3.814,5.634,5.535a52.756,52.756,0,0,0,5.467,4.455,13.351,13.351,0,0,0,2.095,1.235c.227.1.384.129.3.067a3.254,3.254,0,0,0-1.274-.312c-.115-.012-.215-.015-.356-.024l-.2-.005-.3,0a9.176,9.176,0,0,0-1.5.173,8.813,8.813,0,0,0-2.024.66,7.429,7.429,0,0,0-.939.528c-.174.107-.283.2-.314.205-.086.052.026-.1.166-.323s.348-.549.562-.922c.435-.75.925-1.7,1.406-2.719s.977-2.127,1.452-3.276c.954-2.3,1.865-4.754,2.73-7.271,1.721-5.046,3.323-10.314,4.822-15.643,1.482-5.34,2.922-10.742,4.264-16.179.676-2.718,1.35-5.44,1.994-8.166l.969-4.082.918-4.006.054-.234a14.395,14.395,0,1,1,28.061,6.436c-.016.071-.052.212-.068.283" transform="translate(42.882 23.237)" fill="#eaad8f"/>
                <path id="Trazado_825339" data-name="Trazado 825339" d="M155.6,117.588l4.083,1.649c.714.289.224,1.381-.489,1.093l-4.083-1.649c-.714-.289-.224-1.381.489-1.093" transform="translate(55.458 42.121)" fill="#c6695d"/>
                <path id="Trazado_825340" data-name="Trazado 825340" d="M153.585,117.276a10.529,10.529,0,0,1,3.113,6.535.645.645,0,0,0,1.282-.14,11.915,11.915,0,0,0-3.575-7.389c-.594-.581-1.409.418-.82.994" transform="translate(54.965 41.607)" fill="#c6695d"/>
                <path id="Trazado_825341" data-name="Trazado 825341" d="M136.718,111.25a9.127,9.127,0,0,1-12.349-2.729,22.328,22.328,0,0,0-5.181-5.56c-4.521-3.054-10.709-5.4-12.555-7.593-2.726-3.229,1.826-3.013,2.385-2.908a63.12,63.12,0,0,1,8.385,2.45s-7.641-5.249-11.221-5.963-5.11-3.625-1.387-4.868S118.14,86.865,120.5,88.7c0,0-3.878-4.453-8.7-5.581s-6.39-2.179-7.854-3.547,1.563-4.019,8.248-2.271a21.852,21.852,0,0,1,11.292,6.369,36.575,36.575,0,0,0-3.954-5.994c-2.77-3.53-8.442-4.39-9.006-7.016-.576-2.684,5.913-1.406,9.177.9s5.831,3.707,8.57,8.018,5.208,8.526,6.228,11.5,6.037,13.077,4.637,17.39a5.593,5.593,0,0,1-2.427,2.776" transform="translate(36.783 24.782)" fill="#eaad8f"/>
                <path id="Trazado_825342" data-name="Trazado 825342" d="M199.434,81.524a150.457,150.457,0,0,1-1.44,19.037c-.043.364-.1.724-.143,1.076-1.021,7.539-2.167,13.207-2.167,13.207-2.611.061-7.385-.944-12.748-2.364-.336-.088-.675-.179-1.015-.272-4.272-1.161-8.847-2.551-12.945-3.854l-1.847-.591c-2.965-.958-5.6-1.842-7.559-2.506h0l-1.474-.507c-1.372-.471-2.167-.754-2.167-.754s.985-4.238,2.472-10.131c.088-.345.181-.7.269-1.06.4-1.561.829-3.226,1.28-4.944q.139-.52.272-1.046c3.033-11.431,6.993-24.881,9.542-27.88a9.981,9.981,0,0,1,1.752-1.6c.278-.2.568-.39.867-.568a14.569,14.569,0,0,1,1.691-.849,17.13,17.13,0,0,1,14.809.493c.285.149.564.315.835.489a14.536,14.536,0,0,1,3.64,3.274,18.419,18.419,0,0,1,1.383,2.031c.163.268.322.543.478.833A33.59,33.59,0,0,1,199.071,74.6a57.128,57.128,0,0,1,.353,5.96q.01.479.009.964" transform="translate(55.877 19.523)" fill="#467b6c"/>
                <path id="Trazado_825343" data-name="Trazado 825343" d="M191.136,88.4c-.043.364-.1.724-.143,1.076a22.127,22.127,0,0,0-3.31.989,23.776,23.776,0,0,0-11.6,9.855c-.336-.088-.675-.179-1.015-.272a24.949,24.949,0,0,1,11.888-10.385,23.125,23.125,0,0,1,4.184-1.263" transform="translate(62.735 31.68)" fill="#5fa68d"/>
                <path id="Trazado_825344" data-name="Trazado 825344" d="M194.156,61c-.475.118-.944.254-1.413.408-6.3,2.038-9.875,6.857-13.013,12.4C177.081,78.5,174.222,83.85,169.1,86.23a10.685,10.685,0,0,1-10.212-.4c.092-.346.183-.7.272-1.046,4.127,3.158,10.117,1.039,13.554-2.425,4.231-4.269,6.208-10.14,9.814-14.867a20.251,20.251,0,0,1,11.152-7.319c.163.269.322.543.478.833" transform="translate(56.937 21.562)" fill="#5fa68d"/>
                <path id="Trazado_825345" data-name="Trazado 825345" d="M196.478,74.651c-5.069-.473-9.7,3.555-12.472,7.637-2.823,4.147-4.747,8.87-8.014,12.714a20.828,20.828,0,0,1-9.97,6.481l-1.847-.591c6.167-1.256,10.7-5.346,13.919-10.606,2.843-4.643,5.071-9.919,9.373-13.454a13,13,0,0,1,9-3.145q.01.479.009.964" transform="translate(58.832 26.397)" fill="#5fa68d"/>
                <path id="Trazado_825346" data-name="Trazado 825346" d="M159,95.147h0l-1.474-.507c3.529-1.381,6.826-3.81,4.229-7.423a12.542,12.542,0,0,0-3.923-3.46c.088-.346.181-.7.269-1.06a11.325,11.325,0,0,1,5.287,5.334c1.419,3.373-1.239,5.678-4.383,7.115" transform="translate(56.448 29.635)" fill="#5fa68d"/>
                <path id="Trazado_825347" data-name="Trazado 825347" d="M186.526,57.565c-.224.217-.448.435-.672.645-3.195,3.029-6.665,5.535-11.284,5.193a8.108,8.108,0,0,1-6.918-4.758c-.037-.077-.071-.152-.1-.231a12.269,12.269,0,0,1-.466-7.576c.323.077.652.152.989.22a11.153,11.153,0,0,0,.448,7.02c1.585,3.6,5.3,4.893,8.992,4.075a16.344,16.344,0,0,0,7.508-4.432c.289-.268.575-.543.86-.822.22.215.435.435.648.666" transform="translate(59.738 18.218)" fill="#5fa68d"/>
                <path id="Trazado_825348" data-name="Trazado 825348" d="M188.083,78.166a101.322,101.322,0,0,1-3.316,28.034.51.51,0,0,0,.982.27,102.379,102.379,0,0,0,3.352-28.3.51.51,0,0,0-1.019,0" transform="translate(66.205 27.835)" fill="#253f3d"/>
              </g>
            </g>
          </g>
        </g>
        <g id="Grupo_1074080" data-name="Grupo 1074080" transform="translate(272.641 -10632.082)">
          <path id="Trazado_825224" data-name="Trazado 825224" d="M62.324,188.083H15.667a2.875,2.875,0,0,1-2.874-2.876v-.439a2.875,2.875,0,0,1,2.874-2.876H62.324a2.876,2.876,0,0,1,2.876,2.876v.439a2.876,2.876,0,0,1-2.876,2.876" transform="translate(4.584 65.182)" fill="#171612"/>
          <path id="Trazado_825225" data-name="Trazado 825225" d="M413.941,293.568a3.644,3.644,0,0,1-3.283-3.014l-53.9-205.9c-.6-2.308.378-4.8,2.191-5.571s3.772.478,4.377,2.786l53.9,205.9c.6,2.308-.378,4.8-2.191,5.571a2.793,2.793,0,0,1-1.093.227" transform="translate(127.783 28.257)" fill="#171612"/>
          <path id="Trazado_825226" data-name="Trazado 825226" d="M398.392,188.083H351.736a2.876,2.876,0,0,1-2.876-2.876v-.439a2.876,2.876,0,0,1,2.876-2.876h46.657a2.876,2.876,0,0,1,2.876,2.876v.439a2.876,2.876,0,0,1-2.876,2.876" transform="translate(125.015 65.182)" fill="#171612"/>
          <path id="Trazado_825227" data-name="Trazado 825227" d="M337.713,293.568a2.8,2.8,0,0,1-1.095-.227c-1.813-.769-2.794-3.263-2.19-5.571l53.9-205.9c.6-2.308,2.563-3.555,4.377-2.786s2.794,3.263,2.191,5.571L341,290.554a3.646,3.646,0,0,1-3.283,3.014" transform="translate(119.779 28.257)" fill="#171612"/>
          <path id="Trazado_825228" data-name="Trazado 825228" d="M79.693,293.568a3.645,3.645,0,0,1-3.284-3.014l-53.9-205.9c-.6-2.308.378-4.8,2.192-5.571s3.772.478,4.377,2.786l53.9,205.9c.6,2.308-.378,4.8-2.192,5.571a2.791,2.791,0,0,1-1.092.227" transform="translate(8.004 28.257)" fill="#171612"/>
          <path id="Trazado_825229" data-name="Trazado 825229" d="M3.462,293.568a2.8,2.8,0,0,1-1.095-.227c-1.813-.769-2.793-3.263-2.19-5.571l53.9-205.9c.6-2.308,2.563-3.555,4.377-2.786s2.794,3.263,2.191,5.571l-53.9,205.9a3.646,3.646,0,0,1-3.283,3.014" transform="translate(0 28.257)" fill="#171612"/>
          <rect id="Rectángulo_383152" data-name="Rectángulo 383152" width="514.844" height="18.828" transform="translate(16.121 99.795)" fill="#171612"/>
          <rect id="Rectángulo_383153" data-name="Rectángulo 383153" width="514.844" height="1.978" transform="translate(16.121 111.857)" fill="#5a554d"/>
          <path id="Trazado_825230" data-name="Trazado 825230" d="M61.616,75.573H174.88l1.229-3.539c.773-2.226-1.244-4.446-4.041-4.446H67.556a4.173,4.173,0,0,0-4.041,2.52Z" transform="translate(22.08 24.221)" fill="#fff"/>
          <path id="Trazado_825231" data-name="Trazado 825231" d="M189.195,5.336,175.546,78.8c-.364,1.957-1.736,3.339-3.318,3.339H88.148c-2.2,0-3.825-2.612-3.318-5.336L98.477,3.339C98.842,1.381,100.214,0,101.8,0h84.081c2.2,0,3.825,2.612,3.318,5.336" transform="translate(30.366)" fill="#fff"/>
          <path id="Trazado_825232" data-name="Trazado 825232" d="M135.042,34.558c-.4,4.624-3.67,8.372-7.3,8.372s-6.254-3.748-5.853-8.372,3.67-8.372,7.3-8.372,6.254,3.748,5.853,8.372" transform="translate(43.663 9.384)" fill="#2b2b39"/>
          <path id="Trazado_825233" data-name="Trazado 825233" d="M105.126,0,90.595,82.138H88.147c-2.2,0-3.825-2.613-3.318-5.337L98.477,3.34C98.841,1.383,100.213,0,101.8,0Z" transform="translate(30.365)" fill="#2b2b39"/>
          <path id="Trazado_825234" data-name="Trazado 825234" d="M118.433,60.468l-2.866,17.451h8.424l2.866-17.451Z" transform="translate(41.414 21.669)" fill="#2b2b39"/>
          <path id="Trazado_825235" data-name="Trazado 825235" d="M106.594,72.419l1.725-3.085a3.135,3.135,0,0,1,2.675-1.756h23.1A3.283,3.283,0,0,1,137,69.819l1.163,2.831c.543,1.324-.212,2.91-1.386,2.91H107.867c-1.269,0-2.009-1.824-1.273-3.141" transform="translate(38.094 24.217)" fill="#fff"/>
          <path id="Trazado_825236" data-name="Trazado 825236" d="M380.34,75.573H267.076l-1.229-3.539c-.773-2.226,1.244-4.446,4.041-4.446H374.4a4.172,4.172,0,0,1,4.041,2.52Z" transform="translate(95.207 24.221)" fill="#fff"/>
          <path id="Trazado_825237" data-name="Trazado 825237" d="M250.1,5.336,263.744,78.8c.364,1.957,1.736,3.339,3.318,3.339h84.079c2.2,0,3.825-2.612,3.318-5.336L340.813,3.339C340.448,1.381,339.076,0,337.495,0H253.414c-2.2,0-3.825,2.612-3.318,5.336" transform="translate(89.589)" fill="#fff"/>
          <path id="Trazado_825238" data-name="Trazado 825238" d="M280.158,34.558c.4,4.624,3.67,8.372,7.3,8.372s6.254-3.748,5.853-8.372-3.67-8.372-7.3-8.372-6.255,3.748-5.854,8.372" transform="translate(100.381 9.384)" fill="#2b2b39"/>
          <path id="Trazado_825239" data-name="Trazado 825239" d="M311.96,0l14.532,82.138h2.448c2.2,0,3.825-2.613,3.318-5.337L318.609,3.34C318.245,1.383,316.873,0,315.291,0Z" transform="translate(111.792)" fill="#2b2b39"/>
          <path id="Trazado_825240" data-name="Trazado 825240" d="M296.253,60.468l2.866,17.451h-8.424l-2.866-17.451Z" transform="translate(103.144 21.669)" fill="#2b2b39"/>
          <path id="Trazado_825241" data-name="Trazado 825241" d="M313.566,72.419l-1.725-3.085a3.135,3.135,0,0,0-2.675-1.756h-23.1a3.28,3.28,0,0,0-2.908,2.241L282,72.65c-.543,1.324.212,2.91,1.386,2.91h28.911c1.269,0,2.009-1.824,1.273-3.141" transform="translate(100.99 24.217)" fill="#fff"/>
          <path id="Trazado_825242" data-name="Trazado 825242" d="M256.891,60.963h-24.2a1.553,1.553,0,0,1-1.553-1.553V57.521a1.552,1.552,0,0,1,1.553-1.551h24.2a1.552,1.552,0,0,1,1.553,1.551v1.889a1.553,1.553,0,0,1-1.553,1.553" transform="translate(82.828 20.057)" fill="#c04d3a"/>
          <path id="Trazado_825243" data-name="Trazado 825243" d="M260.187,70.806a6.715,6.715,0,0,1-1.008,3.4c-2.385,3.647-8.647,4.195-11.939,4.215-.513,0-.956-.007-1.3-.02h0c-.25-.007-.446-.02-.577-.027s-.209-.012-.209-.012a30.186,30.186,0,0,1-5.41-.143q-.434-.051-.877-.12c-2.961-.451-6.176-1.51-7.736-3.893a5.913,5.913,0,0,1-.815-1.966,7.14,7.14,0,0,1-.156-.962,13.619,13.619,0,0,1,.56-4.92c.1-.352.2-.7.315-1.038.166-.507.346-1,.531-1.464.3-.759.609-1.451.9-2.051.068-.139.133-.272.2-.4.156-.312.3-.59.429-.829.312-.587.519-.928.519-.928h23.1a29.881,29.881,0,0,1,1.7,3.386c.114.262.23.537.341.822.014.03.023.06.037.092.276.7.539,1.459.765,2.244.1.344.19.7.269,1.054a14.158,14.158,0,0,1,.367,2.558,9.529,9.529,0,0,1,.005,1" transform="translate(82.461 21.374)" fill="#c04d3a"/>
          <path id="Trazado_825244" data-name="Trazado 825244" d="M259.655,65.748c-3.692,2.283-8.423,2.85-11.97,2.73-4.123-.136-7.93-1.752-11.913-2.889a16.733,16.733,0,0,0-5.213-.729c.1-.35.2-.7.315-1.036,4.351.012,8.96,2.395,13.1,3.23a23.092,23.092,0,0,0,12.364-.924,16.474,16.474,0,0,0,3.047-1.436c.1.345.19.7.268,1.054" transform="translate(82.621 22.871)" fill="#df7668"/>
          <path id="Trazado_825245" data-name="Trazado 825245" d="M248.822,59.646c-4.531,5.527-11.611,6.326-16.837,1.756.156-.311.3-.59.429-.829,4.69,4.106,10.973,3.639,15.246-.928Z" transform="translate(83.133 21.374)" fill="#df7668"/>
          <path id="Trazado_825246" data-name="Trazado 825246" d="M256.011,68.127a34.318,34.318,0,0,0-12.946,7.612c-.513,0-.956-.007-1.3-.02a35.433,35.433,0,0,1,14.238-8.6,9.538,9.538,0,0,1,.005,1" transform="translate(86.638 24.054)" fill="#df7668"/>
          <path id="Trazado_825247" data-name="Trazado 825247" d="M239.732,75.15c-.289-.033-.58-.073-.877-.12a4.735,4.735,0,0,0-1.494-3.754,10.022,10.022,0,0,0-7.057-2.1,7.155,7.155,0,0,1-.156-.96,12.8,12.8,0,0,1,3.471.341c1.789.428,4.055,1.174,5.226,3.108a5.96,5.96,0,0,1,.888,3.49" transform="translate(82.474 24.44)" fill="#df7668"/>
          <path id="Trazado_825248" data-name="Trazado 825248" d="M252.8,63.948a4.355,4.355,0,0,1-1.932.285c-2.222-.166-3.586-2.171-4.063-4.587h.82c.6,2.419,2.278,4.133,4.643,3.437.052-.016.1-.03.154-.049.114.261.23.537.341.822.014.03.023.06.037.092" transform="translate(88.443 21.374)" fill="#df7668"/>
          <path id="Trazado_825249" data-name="Trazado 825249" d="M255.885,60.274h-23.1a.512.512,0,0,1,0-.994h23.1a.512.512,0,0,1,0,.994" transform="translate(83.279 21.243)" fill="#7e231a"/>
          <path id="Trazado_825250" data-name="Trazado 825250" d="M254.166,66.1c-.318.6-.632,1.164-.926,1.673-.943,1.63-1.7,2.714-1.755,2.8H237.6c-.06-.09-.812-1.174-1.756-2.8-.295-.509-.609-1.07-.926-1.673-1.7-3.232-3.5-7.6-3.007-10.918a5.881,5.881,0,0,1,.681-2.2,2,2,0,0,1,.493-.558c1.5-1.112,3.794,1.487,4.521,1.4.979-.113-.615-6.338-2.888-10.755-2.126-4.131-3.51-9.651-.907-11.641a3.018,3.018,0,0,1,.295-.2,2.581,2.581,0,0,1,.3-.159c3.38-1.585,4.537,4.189,5.962,3.4,1.4-.782-2.888-19.222,3.854-19.259.1,0,.216,0,.327.01s.223-.012.329-.01c6.74.037,2.452,18.476,3.852,19.259,1.425.793,2.581-4.981,5.96-3.4a2.6,2.6,0,0,1,.3.159,3.386,3.386,0,0,1,.295.2c2.6,1.99,1.218,7.51-.906,11.641-2.274,4.417-3.867,10.643-2.889,10.755.728.084,3.022-2.516,4.521-1.4a2.017,2.017,0,0,1,.493.558,5.883,5.883,0,0,1,.679,2.2c.493,3.323-1.305,7.687-3.007,10.918" transform="translate(83.075 5.449)" fill="#467b6c"/>
          <path id="Trazado_825251" data-name="Trazado 825251" d="M241.6,15.2V70.579h-.656V15.2c.1,0,.216,0,.329.011.111-.008.22-.014.327-.011" transform="translate(86.343 5.448)" fill="#253f3d"/>
          <path id="Trazado_825252" data-name="Trazado 825252" d="M244.339,42.705l-.247.273-.249.272-.079-.117-10.683-15.7.274-.236a3.039,3.039,0,0,1,.3-.2l10.113,14.859.327.482Z" transform="translate(83.525 9.676)" fill="#253f3d"/>
          <path id="Trazado_825253" data-name="Trazado 825253" d="M244.588,59.809l-.247.273-.249.273-.079-.117-11.626-17.08a1.986,1.986,0,0,1,.492-.557l11.134,16.361.327.482Z" transform="translate(83.277 15.266)" fill="#253f3d"/>
          <path id="Trazado_825254" data-name="Trazado 825254" d="M252.262,27.435,241.58,43.13l-.082.12-.247-.273L241,42.705l.249-.365.329-.484L251.691,27a3.111,3.111,0,0,1,.3.2Z" transform="translate(86.364 9.676)" fill="#253f3d"/>
          <path id="Trazado_825255" data-name="Trazado 825255" d="M253.2,43.158,241.581,60.235l-.081.12-.247-.273L241,59.809l.249-.364.329-.484L252.713,42.6a2,2,0,0,1,.492.557" transform="translate(86.365 15.266)" fill="#253f3d"/>
          <rect id="Rectángulo_383154" data-name="Rectángulo 383154" width="545.187" height="321.825" transform="translate(0)" fill="none"/>
        </g>
      </g>
      <path id="Rectángulo_401740-2" data-name="Rectángulo 401740" d="M94,30A64.072,64.072,0,0,0,30,94v6a64,64,0,0,0,128,0V94A64.072,64.072,0,0,0,94,30M94,0a94,94,0,0,1,94,94v6A94,94,0,0,1,0,100V94A94,94,0,0,1,94,0Z" transform="translate(927.051 1529)" fill="#fff"/>
    </g>
  </g>
</svg>
