<svg xmlns="http://www.w3.org/2000/svg" width="85" height="85" viewBox="0 0 85 85">
  <g id="_54" data-name="54" transform="translate(-285.051 -3082)">
    <circle id="Elipse_11498" data-name="Elipse 11498" cx="42.5" cy="42.5" r="42.5" transform="translate(285.051 3082)" fill="#1169e3"/>
    <g id="boton" transform="translate(295.051 3091.998)">
      <g id="Grupo_1099910" data-name="Grupo 1099910" transform="translate(6.814 9.858)">
        <path id="Trazado_874045" data-name="Trazado 874045" d="M61.635,105.95a8.686,8.686,0,0,1-5.866-2.51,8.546,8.546,0,0,1-2.435-5.881V85.479a8.332,8.332,0,0,1,8.288-8.327H97.169a8.332,8.332,0,0,1,8.288,8.327v12.08a8.546,8.546,0,0,1-2.435,5.881,8.686,8.686,0,0,1-5.866,2.51H61.635Z" transform="translate(-53.334 -77.152)" fill="#aef2ab"/>
        <path id="Trazado_874046" data-name="Trazado 874046" d="M104.16,110.943a8.294,8.294,0,0,1-7.009,3.851H61.637a8.3,8.3,0,0,1-8.3-8.3V94.3a8.294,8.294,0,0,1,3.851-7.009,8.247,8.247,0,0,0-1.3,4.454v14.1a6.388,6.388,0,0,0,6.388,6.388h37.43a8.259,8.259,0,0,0,4.454-1.3Z" transform="translate(-53.332 -85.996)" fill="#96d094"/>
        <path id="Trazado_874047" data-name="Trazado 874047" d="M92.2,132.982a5.037,5.037,0,0,1-5.051-4.994v-9.771a5.038,5.038,0,0,1,5.051-4.994h33.125a5.037,5.037,0,0,1,5.051,4.994v9.771a4.979,4.979,0,0,1-5.012,4.96C123.263,132.947,92.2,132.982,92.2,132.982Z" transform="translate(-82.83 -108.613)" fill="#96d094"/>
        <path id="Trazado_874048" data-name="Trazado 874048" d="M129.948,132.987a4.876,4.876,0,0,1-1.054,1.545,5.067,5.067,0,0,1-3.528,1.432c-2.1,0-33.164.035-33.164.035A5.038,5.038,0,0,1,87.152,131v-9.77a5.008,5.008,0,0,1,2.98-4.552,4.9,4.9,0,0,0-.424,2v9.77a5.038,5.038,0,0,0,5.051,4.994s31.061-.034,33.164-.034a5.116,5.116,0,0,0,2.026-.422Z" transform="translate(-82.831 -111.63)" fill="#8bc089"/>
        <path id="Trazado_874049" data-name="Trazado 874049" d="M226.173,218.416a3.492,3.492,0,0,0-3.492,3.492v-3.134a3.653,3.653,0,0,0-7.3,0q0-1.443,0-2.886a3.659,3.659,0,0,0-7.177-.944V202.134a3.653,3.653,0,0,0-7.3,0v26.1l-5.25-5.17a3.693,3.693,0,0,0-5.165,0,3.558,3.558,0,0,0,0,5.086l7.468,7.833a5.046,5.046,0,0,0,2.4,1.484,4.787,4.787,0,0,0,1.081.16h24.593a3.625,3.625,0,0,0,3.652-3.6c-.005-.641,0-1.282,0-1.923v-10.2A3.492,3.492,0,0,0,226.173,218.416Z" transform="translate(-172.02 -183.029)" fill="#f0c585"/>
        <g id="Grupo_1099909" data-name="Grupo 1099909" transform="translate(17.386 15.535)">
          <path id="Trazado_874050" data-name="Trazado 874050" d="M282.522,198.742a3.519,3.519,0,0,0-.409,1.653v29.177a.639.639,0,0,1-1.087.455l-1.724-1.7V202.312A3.615,3.615,0,0,1,282.522,198.742Z" transform="translate(-267.816 -198.742)" fill="#ebaa61"/>
          <path id="Trazado_874051" data-name="Trazado 874051" d="M204.485,408.94h-3.066a4.811,4.811,0,0,1-1.081-.16,5.047,5.047,0,0,1-2.4-1.485l-7.467-7.832a3.554,3.554,0,0,1-.468-4.522,3.55,3.55,0,0,0,.971,1.717c2.49,2.612,7.541,8.026,10.03,10.637a5.047,5.047,0,0,0,2.4,1.485A4.811,4.811,0,0,0,204.485,408.94Z" transform="translate(-189.405 -369.874)" fill="#ebaa61"/>
          <path id="Trazado_874052" data-name="Trazado 874052" d="M339.526,306.412a4.124,4.124,0,0,0-.5,1.988v6.974a1.278,1.278,0,0,1-2.555,0v-6.149a1.269,1.269,0,0,1,.072-.42A3.643,3.643,0,0,1,339.526,306.412Z" transform="translate(-317.681 -292.655)" fill="#ebaa61"/>
          <path id="Trazado_874053" data-name="Trazado 874053" d="M395.877,329.062a5.424,5.424,0,0,0-.534,1.9c-.013.133-.016.266-.016.4v3.763a1.278,1.278,0,0,1-2.555,0v-2.7a1.711,1.711,0,0,1,.008-.177A3.621,3.621,0,0,1,395.877,329.062Z" transform="translate(-366.788 -312.411)" fill="#ebaa61"/>
          <path id="Trazado_874054" data-name="Trazado 874054" d="M452.818,354.412a10.145,10.145,0,0,0-.422,2.949,1.158,1.158,0,0,1-1.158,1.158h-.745a.653.653,0,0,1-.653-.653A3.493,3.493,0,0,1,452.818,354.412Z" transform="translate(-416.565 -334.522)" fill="#ebaa61"/>
        </g>
      </g>
      <g id="Grupo_1099911" data-name="Grupo 1099911" transform="translate(0 0.001)">
        <path id="Trazado_874055" data-name="Trazado 874055" d="M418.979,12.37a.958.958,0,0,0,.955-.9l.257-4.087a.958.958,0,0,0-1.913-.12l-.257,4.087A.959.959,0,0,0,418.979,12.37Z" transform="translate(-364.61 -5.554)"/>
        <path id="Trazado_874056" data-name="Trazado 874056" d="M483.885,3.336a.958.958,0,0,0,1.349-.125L486.6,1.571A.958.958,0,0,0,485.121.347L483.76,1.986A.958.958,0,0,0,483.885,3.336Z" transform="translate(-421.758 -0.001)"/>
        <path id="Trazado_874057" data-name="Trazado 874057" d="M448.586,43.94a.958.958,0,0,0,1.349-.125l1.593-1.918a.958.958,0,1,0-1.474-1.224l-1.593,1.918A.958.958,0,0,0,448.586,43.94Z" transform="translate(-390.969 -35.174)"/>
        <path id="Trazado_874058" data-name="Trazado 874058" d="M470.44,75.592a.957.957,0,0,0,1.2.637l3.346-1.022a.958.958,0,1,0-.56-1.833L471.077,74.4a.958.958,0,0,0-.637,1.2Z" transform="translate(-410.296 -63.962)"/>
        <path id="Trazado_874059" data-name="Trazado 874059" d="M77.829,321.851a.962.962,0,0,0-1.017.9l-.257,4.087a.958.958,0,0,0,1.913.121l.257-4.087A.958.958,0,0,0,77.829,321.851Z" transform="translate(-66.772 -280.727)"/>
        <path id="Trazado_874060" data-name="Trazado 874060" d="M9.841,305.076a.958.958,0,0,0-1.349.125l-5.871,7.071A.958.958,0,1,0,4.1,313.5l5.871-7.071A.958.958,0,0,0,9.841,305.076Z" transform="translate(-2.093 -265.904)"/>
        <path id="Trazado_874061" data-name="Trazado 874061" d="M1.238,281.763l3.346-1.022a.958.958,0,1,0-.56-1.833L.679,279.931a.958.958,0,1,0,.56,1.833Z" transform="translate(0 -243.236)"/>
        <path id="Trazado_874062" data-name="Trazado 874062" d="M100.85,105.037a4.424,4.424,0,0,0-2.562.815,4.625,4.625,0,0,0-7.344-3.143,4.521,4.521,0,0,0-1.176-2.344h.751c4.642.242,9.576-4.71,9.259-9.349V78.935a9.276,9.276,0,0,0-9.246-9.285H54.985a9.277,9.277,0,0,0-9.246,9.285V91.018c-.309,4.664,4.628,9.585,9.259,9.347h2.479a.958.958,0,0,0,0-1.917H55.008c-3.717.149-7.573-3.733-7.353-7.433V78.935a7.358,7.358,0,0,1,7.33-7.369H90.532a7.358,7.358,0,0,1,7.33,7.369V91.013c.22,3.722-3.655,7.585-7.353,7.435H83.831V95.9h5.392c3.035.222,6.164-2.947,5.979-5.918V80.211a5.988,5.988,0,0,0-6.009-5.952H62.066a.958.958,0,1,0,0,1.917H89.193a4.069,4.069,0,0,1,4.092,4.036v9.766a4.1,4.1,0,0,1-4.054,4.007h-5.4v-4.27a4.611,4.611,0,0,0-9.221,0v4.3H56.069a4.069,4.069,0,0,1-4.092-4.036V80.211a4.069,4.069,0,0,1,4.092-4.036h1.411a.958.958,0,1,0,0-1.917H56.069a5.988,5.988,0,0,0-6.009,5.952v9.771a5.988,5.988,0,0,0,6.009,5.952H74.61v2.513H61.949a.958.958,0,0,0,0,1.917H74.61v13.164l-3.62-3.564a4.66,4.66,0,0,0-6.51,0,4.537,4.537,0,0,0-.011,6.44l7.451,7.816a5.852,5.852,0,0,0,4.176,1.948H92.2a.958.958,0,1,0,0-1.917H76.114a4.094,4.094,0,0,1-2.8-1.347l-7.468-7.833a2.613,2.613,0,0,1-.021-3.742,2.735,2.735,0,0,1,3.821,0l5.25,5.17a.958.958,0,0,0,1.631-.683c0-6.214,0-20.035,0-26.1a2.695,2.695,0,0,1,5.388,0V110.14a.958.958,0,1,0,1.917,0v-7.469a2.7,2.7,0,0,1,5.26.8l0,2.886h0l.013,3.787a.958.958,0,0,0,.958.955h0a.958.958,0,0,0,.955-.961l-.013-3.784a2.695,2.695,0,0,1,5.388,0v3.809a.958.958,0,0,0,1.917,0v-.675a2.534,2.534,0,1,1,5.067,0c0,2.337,0,9.715,0,12.127a2.669,2.669,0,0,1-2.694,2.638h-3.9a.958.958,0,1,0,0,1.917h3.9a4.589,4.589,0,0,0,4.611-4.562c0-2.425,0-9.78,0-12.119a4.455,4.455,0,0,0-4.45-4.45Z" transform="translate(-39.883 -60.751)"/>
      </g>
    </g>
  </g>
</svg>
