<svg xmlns="http://www.w3.org/2000/svg" width="85" height="85" viewBox="0 0 85 85">
  <g id="_55" data-name="55" transform="translate(-600.051 -3082)">
    <circle id="Elipse_11499" data-name="Elipse 11499" cx="42.5" cy="42.5" r="42.5" transform="translate(600.051 3082)" fill="#1169e3"/>
    <g id="sitio-web" transform="translate(575.051 3096)">
      <g id="Grupo_1099918" data-name="Grupo 1099918" transform="translate(45.134 1.134)">
        <g id="Grupo_1099914" data-name="Grupo 1099914" transform="translate(0)">
          <g id="Grupo_1099913" data-name="Grupo 1099913">
            <path id="Trazado_874063" data-name="Trazado 874063" d="M54,10H99.6V65.585H54Z" transform="translate(-54 -10)" fill="#fff"/>
            <path id="Trazado_874064" data-name="Trazado 874064" d="M54,10H99.6V65.585H54Z" transform="translate(-54 -10)" fill="#fff"/>
            <path id="Trazado_874065" data-name="Trazado 874065" d="M62.858,34.238A42.783,42.783,0,0,1,70.339,10H54V65.585H76.432A42.864,42.864,0,0,1,62.858,34.238Z" transform="translate(-54 -10)" fill="#d2dcfd"/>
            <path id="Trazado_874066" data-name="Trazado 874066" d="M54,10H99.6v9.983H65.278l-3.944-1.139L54,19.983Z" transform="translate(-54 -10)" fill="#bc9af4"/>
            <path id="Trazado_874067" data-name="Trazado 874067" d="M70.339,10H54v9.983H65.278A42.837,42.837,0,0,1,70.339,10Z" transform="translate(-54 -10)" fill="#6864f7"/>
          </g>
        </g>
        <g id="Grupo_1099915" data-name="Grupo 1099915" transform="translate(7.827 15.218)">
          <path id="XMLID_602_" d="M195.766,156.383l-12.234-12.234L171.3,156.383l12.879-.008Z" transform="translate(-165.819 -144.149)" fill="#91b706"/>
          <path id="XMLID_100_" d="M141.363,180.216l-9.182-9.182L123,180.216Z" transform="translate(-123 -167.984)" fill="#b1d952"/>
        </g>
        <g id="Grupo_1099917" data-name="Grupo 1099917" transform="translate(5.785 32.67)">
          <g id="Grupo_1099916" data-name="Grupo 1099916">
            <path id="Trazado_874068" data-name="Trazado 874068" d="M105,298h7.714v7.714H105Z" transform="translate(-105 -298)" fill="#d46b5c"/>
            <path id="Trazado_874069" data-name="Trazado 874069" d="M221,298h7.714v7.714H221Z" transform="translate(-207.841 -298)" fill="#fdcb50"/>
            <path id="Trazado_874070" data-name="Trazado 874070" d="M337,298h7.714v7.714H337Z" transform="translate(-310.682 -298)" fill="#67ccd1"/>
          </g>
        </g>
      </g>
      <g id="Grupo_1099926" data-name="Grupo 1099926" transform="translate(44)">
        <g id="Grupo_1099919" data-name="Grupo 1099919" transform="translate(5.564 4.991)">
          <path id="Trazado_874071" data-name="Trazado 874071" d="M265.345,44H248.361a1.134,1.134,0,0,0,0,2.269h16.984a1.134,1.134,0,0,0,0-2.269Z" transform="translate(-229.737 -44)" fill="#fff"/>
          <circle id="Elipse_11518" data-name="Elipse 11518" cx="1.134" cy="1.134" r="1.134" transform="translate(0 0)" fill="#fff"/>
          <circle id="Elipse_11519" data-name="Elipse 11519" cx="1.134" cy="1.134" r="1.134" transform="translate(4.991 0)" fill="#fff"/>
          <circle id="Elipse_11520" data-name="Elipse 11520" cx="1.134" cy="1.134" r="1.134" transform="translate(9.983 0)" fill="#fff"/>
        </g>
        <path id="Trazado_874072" data-name="Trazado 874072" d="M90.737,0h-45.6A1.134,1.134,0,0,0,44,1.134V56.719a1.134,1.134,0,0,0,1.134,1.134h45.6a1.134,1.134,0,0,0,1.134-1.134V1.134A1.134,1.134,0,0,0,90.737,0ZM89.6,55.585H46.269V29.714H89.6Zm0-28.139H46.269V2.269H89.6Z" transform="translate(-44)" fill="#052a75"/>
        <g id="Grupo_1099920" data-name="Grupo 1099920" transform="translate(6.806 45.375)">
          <path id="Trazado_874073" data-name="Trazado 874073" d="M110.806,402.269h-5.672a1.134,1.134,0,1,1,0-2.269h5.672a1.134,1.134,0,1,1,0,2.269Z" transform="translate(-104 -400)" fill="#27a2cc"/>
        </g>
        <g id="Grupo_1099921" data-name="Grupo 1099921" transform="translate(19.98 45.375)">
          <path id="Trazado_874074" data-name="Trazado 874074" d="M226.933,402.269h-5.672a1.134,1.134,0,1,1,0-2.269h5.672a1.134,1.134,0,1,1,0,2.269Z" transform="translate(-220.127 -400)" fill="#27a2cc"/>
        </g>
        <g id="Grupo_1099922" data-name="Grupo 1099922" transform="translate(33.124 45.375)">
          <path id="Trazado_874075" data-name="Trazado 874075" d="M342.806,402.269h-5.672a1.134,1.134,0,1,1,0-2.269h5.672a1.134,1.134,0,0,1,0,2.269Z" transform="translate(-336 -400)" fill="#27a2cc"/>
        </g>
        <g id="Grupo_1099923" data-name="Grupo 1099923" transform="translate(6.806 50.367)">
          <path id="Trazado_874076" data-name="Trazado 874076" d="M110.806,446.269h-5.672a1.134,1.134,0,1,1,0-2.269h5.672a1.134,1.134,0,1,1,0,2.269Z" transform="translate(-104 -444)" fill="#27a2cc"/>
        </g>
        <g id="Grupo_1099924" data-name="Grupo 1099924" transform="translate(19.98 50.367)">
          <path id="Trazado_874077" data-name="Trazado 874077" d="M226.933,446.269h-5.672a1.134,1.134,0,1,1,0-2.269h5.672a1.134,1.134,0,1,1,0,2.269Z" transform="translate(-220.127 -444)" fill="#27a2cc"/>
        </g>
        <g id="Grupo_1099925" data-name="Grupo 1099925" transform="translate(33.124 50.367)">
          <path id="Trazado_874078" data-name="Trazado 874078" d="M342.806,446.269h-5.672a1.134,1.134,0,1,1,0-2.269h5.672a1.134,1.134,0,1,1,0,2.269Z" transform="translate(-336 -444)" fill="#27a2cc"/>
        </g>
      </g>
    </g>
  </g>
</svg>
