<svg xmlns="http://www.w3.org/2000/svg" xmlns:xlink="http://www.w3.org/1999/xlink" width="295" height="119.21" viewBox="0 0 295 119.21">
  <defs>
    <clipPath id="clip-path">
      <rect id="Rect치ngulo_39315" data-name="Rect치ngulo 39315" width="172.589" height="115.21" fill="none"/>
    </clipPath>
  </defs>
  <g id="_57" data-name="57" transform="translate(-1125.051 -3055)">
    <rect id="Rect치ngulo_401654" data-name="Rect치ngulo 401654" width="295" height="103" rx="8" transform="translate(1125.051 3055)" fill="#e6fbee"/>
    <g id="Grupo_1099907" data-name="Grupo 1099907" transform="translate(1186.051 3059)">
      <g id="Grupo_143471" data-name="Grupo 143471" clip-path="url(#clip-path)">
        <path id="Trazado_159929" data-name="Trazado 159929" d="M100.441,131.967l10.731,16.956a4.18,4.18,0,0,1-3.532,6.416H78.67a4.179,4.179,0,0,1-3.532-1.945l-12.18-19.245a4.18,4.18,0,0,1,3.532-6.416h28.97a4.181,4.181,0,0,1,3.532,1.945Z" transform="translate(-22.692 -46.523)" fill="#1169e3"/>
        <path id="Trazado_159930" data-name="Trazado 159930" d="M94.68,135.523s1.123-1.869,3.274-.285l12.069,10.874s1.139,1.615-1.2,1.822H92.858s-3.448.172-2.619-2.363Z" transform="translate(-32.82 -49.024)" fill="#fff"/>
        <path id="Trazado_159931" data-name="Trazado 159931" d="M155.871,58.931l26.147,41.312a10.185,10.185,0,0,1-8.607,15.632H102.825a10.186,10.186,0,0,1-8.607-4.738L64.541,64.247a10.186,10.186,0,0,1,8.607-15.633h70.586a10.186,10.186,0,0,1,8.607,4.738Z" transform="translate(-22.926 -17.706)" fill="#fff"/>
        <path id="Trazado_159932" data-name="Trazado 159932" d="M163.261,97.428,158.558,90l-.635-1a2.049,2.049,0,0,0-1.74-.957h-12.7a2.058,2.058,0,0,0-1.74,3.16l5.338,8.435a2.048,2.048,0,0,0,1.74.958h12.7a2.06,2.06,0,0,0,1.741-3.16" transform="translate(-51.508 -32.064)" fill="#1169e3"/>
        <path id="Trazado_159933" data-name="Trazado 159933" d="M209.877,65.229a4.369,4.369,0,0,1,2.409,0c1.333.375,1.777,1.275,1.883,2.637s-1.053,3.17-3.744,2.509c0,0-4.136.557-5.18,2.582a9.757,9.757,0,0,0-1.049,2.356s-.785,3.073.365,4.6c0,0-4.675.65-5.42,2.365,0,0-2.627-.878-3.571-1.15s-2.148-1.677-3.049-2.644-2.576-2.469-2.589-2.985.14-1.342.751-1.493,1.851-.081,3.164,1.451,2.164,1.945,2.213,1.654-1.766-2.424-3.4-3.713-4.059-3.182-4.415-3.6.163-1.567.671-1.8,1.291-.413,2.685.608,2.5,1.908,2.5,1.908a3.64,3.64,0,0,1,4.014-.3,2.076,2.076,0,0,1,2.01-.189l.149-.8s-1.965-1.765-1.883-2.43,3.3-2.94,3.3-2.94l.675-5.04a10.5,10.5,0,0,0,3.8,4.826c2.736,1.778,3.712,1.6,3.712,1.6" transform="translate(-68.52 -21.418)" fill="#fff"/>
        <path id="Trazado_159934" data-name="Trazado 159934" d="M141.422,100.975a2.546,2.546,0,0,0-1.074,2.821s-1.593.917-.861,3.6a14.15,14.15,0,0,0,3.5,6.683c1.813,1.8,4.589,3.271,4.775,3.913a29.386,29.386,0,0,1,3.744-3.286,26.813,26.813,0,0,1,4.054-2.543s-3.5-5.616-4.16-7.141-1.7-3.728-3.231-3.325-1.258,2.055-.8,3.3,1.763,3.672.393,3.939S145.4,106.6,145.4,106.6s-.517-.207-1.611-2.1a25.507,25.507,0,0,0-2.371-3.394Z" transform="translate(-50.734 -36.777)" fill="#fff"/>
        <path id="Trazado_159935" data-name="Trazado 159935" d="M212,51.141c2.495-2.379,5.891-1.553,7.734-.823s3.246,1.292,4.019,2.277a28.2,28.2,0,0,1,4.36,1.86,4.815,4.815,0,0,1,2,5.163,12.974,12.974,0,0,1-1.994,4.644s-.75,1.445.277,2.136a8.366,8.366,0,0,1,4.049,6.987c.184,4.414-2.757,6.819-5.809,6.913s-6.872-.968-7.1-1.555c0,0-4.049,1.844-6.549-1.431s.017-8.025,1.521-8.819a6.86,6.86,0,0,1,3.1-.734,6.479,6.479,0,0,0,1.426-2.318,2.879,2.879,0,0,0-1.576-2.87,5,5,0,0,0-1.617-.388s-3.485-.843-5.285-5.5A5.593,5.593,0,0,1,212,51.141" transform="translate(-76.61 -18.052)" fill="#ffbe43"/>
        <path id="Trazado_159936" data-name="Trazado 159936" d="M208.334,94.656a12.477,12.477,0,0,1,2.928,5.615s4.5,7.921,6.149,12.625,4.487,11.316,1.951,15.777a7.465,7.465,0,0,1-8.121,3.771,38.5,38.5,0,0,0-.1,6.95c.3,3.614,1.146,9.065,1.146,9.065H176.465s.844-3.753,1.076-5.267.533-4.1.533-4.1-3.064,1.976-9.488-1.1-12.271-12.252-13.6-14.588-3.889-7.566-3.889-7.566,5.9-6.39,11.337-8.163l10.073,11.2s2.714-5.987,4.7-10.44,4.691-11.019,7.615-13.3,4.1-2.864,6.248-3.129c0,0,1.228,2.353,3.319,2.669a6.225,6.225,0,0,0,3.569-.466,14.84,14.84,0,0,0,6.133,1.606,8.339,8.339,0,0,0,4.241-1.149" transform="translate(-55.032 -33.507)" fill="#1a1a1a"/>
        <path id="Trazado_159937" data-name="Trazado 159937" d="M167.891,11.918l4.7,7.431a1.832,1.832,0,0,1-1.548,2.812h-12.7a1.832,1.832,0,0,1-1.548-.852l-5.339-8.435a1.832,1.832,0,0,1,1.548-2.812h12.7a1.832,1.832,0,0,1,1.548.853Z" transform="translate(-55.061 -3.665)" fill="#1a1a1a"/>
        <path id="Trazado_159938" data-name="Trazado 159938" d="M82.868,25.528,95.377,45.292a4.873,4.873,0,0,1-4.117,7.479H57.49A4.874,4.874,0,0,1,53.373,50.5l-14.2-22.434a4.873,4.873,0,0,1,4.117-7.479h33.77a4.872,4.872,0,0,1,4.117,2.267Z" transform="translate(-13.99 -7.5)" fill="#1169e3"/>
        <path id="Trazado_159939" data-name="Trazado 159939" d="M188.028,75.79s-.791,1.265.96,2.067l1-.315s-2.09-1.509-1.956-1.752" transform="translate(-68.418 -27.604)" fill="#ccc"/>
        <path id="Trazado_159940" data-name="Trazado 159940" d="M45.335,22.129H90.321l-2.956-4.482a5.3,5.3,0,0,0-2.789-1.493c-2.075-.558-34.951.02-34.951.02a4.832,4.832,0,0,0-4.29,5.954" transform="translate(-16.477 -5.795)" fill="#1a1a1a"/>
        <path id="Trazado_159941" data-name="Trazado 159941" d="M98.233,20.541a1.628,1.628,0,0,1-2.157-.58,1.627,1.627,0,0,1-.173-2.227,1.628,1.628,0,0,1,2.157.58,1.628,1.628,0,0,1,.173,2.227" transform="translate(-34.797 -6.378)" fill="#fff"/>
        <path id="Trazado_159942" data-name="Trazado 159942" d="M90.418,20.541a1.628,1.628,0,0,1-2.157-.58,1.627,1.627,0,0,1-.173-2.227,1.628,1.628,0,0,1,2.157.58,1.629,1.629,0,0,1,.173,2.227" transform="translate(-31.951 -6.378)" fill="#fff"/>
        <path id="Trazado_159943" data-name="Trazado 159943" d="M7.225,88.027c-1.386,1.151-3.83.493-5.459-1.468s-1.825-4.485-.438-5.636,3.83-.493,5.458,1.469,1.825,4.485.439,5.636" transform="translate(-0.147 -29.267)" fill="#ffbe43"/>
        <path id="Trazado_159944" data-name="Trazado 159944" d="M212,51.142a5.593,5.593,0,0,0-1.441,5.548c1.8,4.653,5.285,5.5,5.285,5.5a5.352,5.352,0,0,1,.646.088,7.581,7.581,0,0,1-2.95-7.756,5.642,5.642,0,0,1,4.51-4.723A6.387,6.387,0,0,0,212,51.142" transform="translate(-76.61 -18.052)" fill="#fff"/>
        <path id="Trazado_159945" data-name="Trazado 159945" d="M217.465,89.685c-5.931-3.509-1.731-10.115.459-11.46a6.749,6.749,0,0,0-2.5.709c-1.5.794-4.021,5.544-1.521,8.819a4.749,4.749,0,0,0,3.564,1.932" transform="translate(-77.521 -28.491)" fill="#fff"/>
        <path id="Trazado_159946" data-name="Trazado 159946" d="M175.115,159.326s6.068,4.681,11.708,2.4c0,0,3.5-1.434,4.668-2.8a8.161,8.161,0,0,0-7.943-4.766c-6.031.162-7.624,3.347-8.432,5.159" transform="translate(-63.78 -56.149)" fill="#ffbe43"/>
        <path id="Trazado_159947" data-name="Trazado 159947" d="M174.52,148.715c-9.167,0-18.652-12.14-23.806-23.962a.257.257,0,0,1,.031-.259,24.2,24.2,0,0,1,5.049-4.653,33.743,33.743,0,0,1,6.369-3.631.256.256,0,0,1,.271.06c.119.118,11.908,11.966,15.538,19.241a.257.257,0,0,1-.46.23c-3.4-6.809-14.072-17.721-15.322-18.988a36.871,36.871,0,0,0-6.107,3.513,23.915,23.915,0,0,0-4.836,4.423c5.353,12.2,15.3,24.7,24.581,23.424,9.855-1.349,14.029-14.111,18.462-30.653a.252.252,0,0,1,.314-.181.255.255,0,0,1,.181.314c-4.482,16.729-8.72,29.637-18.888,31.029a10.286,10.286,0,0,1-1.376.093" transform="translate(-54.885 -42.32)"/>
        <path id="Trazado_159948" data-name="Trazado 159948" d="M184.845,119.255a.257.257,0,0,1-.234-.362c1.111-2.464,2.134-4.9,3.122-7.25,4.518-10.751,8.088-19.243,15.287-19.88A.26.26,0,0,1,203.3,92a.257.257,0,0,1-.233.278c-6.891.608-10.406,8.975-14.858,19.567-.99,2.356-2.014,4.791-3.127,7.261a.257.257,0,0,1-.234.151" transform="translate(-67.23 -33.422)"/>
        <path id="Trazado_159949" data-name="Trazado 159949" d="M158.918,112.442a.255.255,0,0,1-.2-.095c-.014-.017-.35-.436-2-2.861a19.9,19.9,0,0,1-1.63-2.824c-.2-.432-.378-.877-.555-1.321a16.737,16.737,0,0,0-.835-1.872c-.1-.182-.208-.362-.324-.534a2.37,2.37,0,0,0-.682-.724,1.218,1.218,0,0,0-1.078-.078,1.446,1.446,0,0,0-.881.883,3.4,3.4,0,0,0,.258,2.008c.122.349.263.69.4,1.033.16.387.326.788.462,1.2.014.043.034.093.057.149a1.446,1.446,0,0,1-.781,2.121c-1.072.515-1.816-.924-2.307-1.877-.1-.2-.2-.388-.285-.528a.257.257,0,1,1,.438-.267c.09.148.191.343.3.56.508.985,1.05,1.927,1.628,1.649.938-.451.711-1.013.528-1.465-.027-.068-.052-.128-.069-.181-.13-.392-.292-.785-.448-1.163-.146-.351-.29-.7-.414-1.059a3.8,3.8,0,0,1-.264-2.33,1.939,1.939,0,0,1,1.193-1.212,1.729,1.729,0,0,1,1.529.124,2.9,2.9,0,0,1,.835.874c.125.185.239.376.347.572a17.176,17.176,0,0,1,.862,1.929c.173.436.347.871.544,1.294a19.306,19.306,0,0,0,1.589,2.751c1.628,2.387,1.965,2.81,1.978,2.827a.256.256,0,0,1-.039.36.252.252,0,0,1-.161.057" transform="translate(-54.087 -36.98)"/>
        <path id="Trazado_159950" data-name="Trazado 159950" d="M141.1,104.517a.254.254,0,0,1-.226-.136,3.422,3.422,0,0,1-.242-2.23,1.625,1.625,0,0,1,1.169-1.361.253.253,0,0,1,.32.17.256.256,0,0,1-.17.32c-.39.12-.664.327-.82.989a2.932,2.932,0,0,0,.2,1.87.256.256,0,0,1-.226.377" transform="translate(-51.19 -36.705)"/>
        <path id="Trazado_159951" data-name="Trazado 159951" d="M144.493,111.85a.255.255,0,0,1-.2-.1,34.763,34.763,0,0,1-3.248-5.533.257.257,0,1,1,.467-.215,34.136,34.136,0,0,0,3.187,5.436.256.256,0,0,1-.048.36.251.251,0,0,1-.156.053" transform="translate(-51.362 -38.554)"/>
        <path id="Trazado_159952" data-name="Trazado 159952" d="M147.589,119.772a.257.257,0,0,1-.189-.083,5.266,5.266,0,0,0-1.486-1.124,10.1,10.1,0,0,1-2.555-1.972,19.022,19.022,0,0,1-4.433-8.149c-.6-2.666,1.287-3.256,1.307-3.262a.256.256,0,0,1,.147.491c-.06.018-1.444.475-.953,2.657a18.452,18.452,0,0,0,4.3,7.9,9.646,9.646,0,0,0,2.443,1.884,5.778,5.778,0,0,1,1.611,1.225.257.257,0,0,1-.017.363.253.253,0,0,1-.173.067" transform="translate(-50.556 -38.306)"/>
        <path id="Trazado_159953" data-name="Trazado 159953" d="M218.241,75.327A3.057,3.057,0,0,1,215.728,74a.257.257,0,0,1,.423-.291,2.54,2.54,0,1,0,.549-3.457.256.256,0,1,1-.312-.408,3.053,3.053,0,1,1,1.852,5.479" transform="translate(-78.556 -25.21)"/>
        <path id="Trazado_159954" data-name="Trazado 159954" d="M219.116,74.933a.257.257,0,0,1-.207-.106l-1.359-1.864a.256.256,0,0,1-.036-.235.259.259,0,0,1,.172-.163L220,71.9a.256.256,0,1,1,.142.493l-1.963.567,1.143,1.568a.256.256,0,0,1-.057.359.25.25,0,0,1-.151.05" transform="translate(-79.217 -26.183)"/>
        <path id="Trazado_159955" data-name="Trazado 159955" d="M210.871,76.984a3.945,3.945,0,0,1-3.2-1.661c-1.127-1.792-.214-4.3-.175-4.411l2.054-8.4a.257.257,0,0,1,.5.122l-2.062,8.427c-.017.052-.873,2.413.119,3.99a3.451,3.451,0,0,0,2.789,1.42.257.257,0,0,1-.024.512" transform="translate(-75.433 -22.697)"/>
        <path id="Trazado_159956" data-name="Trazado 159956" d="M206.958,70.208a1.109,1.109,0,0,1-1.066-1.407l1.274-4.542a1.109,1.109,0,0,1,1.366-.767.866.866,0,0,1,.661,1.177.257.257,0,0,1-.495-.139.367.367,0,0,0-.305-.544.6.6,0,0,0-.733.412l-1.273,4.542a.594.594,0,0,0,1.144.321.257.257,0,0,1,.495.139,1.111,1.111,0,0,1-1.067.809" transform="translate(-74.974 -23.11)"/>
        <path id="Trazado_159957" data-name="Trazado 159957" d="M190.851,175.7a.257.257,0,0,1-.243-.338,68.962,68.962,0,0,0,1.6-9.055.265.265,0,0,1,.283-.228.258.258,0,0,1,.228.284,69,69,0,0,1-1.622,9.162.257.257,0,0,1-.243.175" transform="translate(-69.418 -60.488)"/>
        <path id="Trazado_159958" data-name="Trazado 159958" d="M247.008,137.573a3.935,3.935,0,0,1-1.769-.365.257.257,0,0,1,.242-.453c.134.071,3.29,1.654,7.537-3.141,3.864-4.361-1.755-18.146-7.739-28.624a.257.257,0,1,1,.446-.254c2.2,3.846,12.892,23.333,7.678,29.219-2.637,2.976-4.918,3.618-6.395,3.618" transform="translate(-89.271 -38.1)"/>
        <path id="Trazado_159959" data-name="Trazado 159959" d="M245.02,150.135a.256.256,0,0,1-.251-.2,65.813,65.813,0,0,1-.982-18.582C245.848,111.2,245,100.4,241.034,96.327a.257.257,0,1,1,.368-.357c4.134,4.245,5,14.843,2.894,35.435a65.224,65.224,0,0,0,.973,18.418.256.256,0,0,1-.195.306.24.24,0,0,1-.056.006" transform="translate(-87.763 -34.925)"/>
        <path id="Trazado_159960" data-name="Trazado 159960" d="M194.715,58.632a.254.254,0,0,1-.217-.12l-3.087-4.878a9.852,9.852,0,0,0-8.365-4.6H170.739a.257.257,0,0,1,0-.514h12.306a10.36,10.36,0,0,1,8.8,4.844l3.088,4.878a.258.258,0,0,1-.079.355.265.265,0,0,1-.137.039" transform="translate(-62.093 -17.67)"/>
        <path id="Trazado_159961" data-name="Trazado 159961" d="M135.336,49.029H111.9a.257.257,0,0,1,0-.514h23.432a.257.257,0,0,1,0,.514" transform="translate(-40.664 -17.67)"/>
        <path id="Trazado_159962" data-name="Trazado 159962" d="M129.685,124.783H103.914a10.361,10.361,0,0,1-8.8-4.843L65.255,72.761a.257.257,0,0,1,.434-.275l29.86,47.179a9.852,9.852,0,0,0,8.365,4.6h25.771a.257.257,0,0,1,0,.513" transform="translate(-23.753 -26.357)"/>
        <path id="Trazado_159963" data-name="Trazado 159963" d="M97.888,48.582H64.118A5.1,5.1,0,0,1,59.784,46.2l-14.2-22.434a5.13,5.13,0,0,1,4.334-7.873H83.69a5.1,5.1,0,0,1,4.333,2.387l1.689,2.669,12.509,19.764a5.129,5.129,0,0,1-4.333,7.873M49.919,16.4a4.616,4.616,0,0,0-3.9,7.085l14.2,22.433a4.6,4.6,0,0,0,3.9,2.148h33.77a4.617,4.617,0,0,0,3.9-7.085L87.59,18.55a4.594,4.594,0,0,0-3.9-2.147Z" transform="translate(-16.309 -5.787)"/>
        <path id="Trazado_159964" data-name="Trazado 159964" d="M65.878,134.569a.255.255,0,0,1-.217-.119l-3.073-4.855a4.418,4.418,0,0,1,3.734-6.782H84.561a.256.256,0,0,1,0,.512H66.322a3.906,3.906,0,0,0-3.3,5.995l3.073,4.855a.256.256,0,0,1-.217.394" transform="translate(-22.543 -44.731)"/>
        <path id="Trazado_159965" data-name="Trazado 159965" d="M113.176,162.173H84.33a4.395,4.395,0,0,1-3.733-2.055l-2.52-3.982a.257.257,0,0,1,.434-.275l2.52,3.982a3.885,3.885,0,0,0,3.3,1.817h28.846a3.905,3.905,0,0,0,3.3-5.994l-.8-1.268a.256.256,0,1,1,.433-.275l.8,1.268a4.419,4.419,0,0,1-3.734,6.782" transform="translate(-28.422 -56.091)"/>
        <path id="Trazado_159966" data-name="Trazado 159966" d="M163.675,26.295h-12.7a2.079,2.079,0,0,1-1.765-.972l-5.338-8.434a2.089,2.089,0,0,1,1.764-3.206h12.7a2.078,2.078,0,0,1,1.764.972l5.339,8.434a2.089,2.089,0,0,1-1.765,3.206M145.639,14.2a1.576,1.576,0,0,0-1.331,2.418l5.339,8.435a1.569,1.569,0,0,0,1.331.732h12.7a1.576,1.576,0,0,0,1.331-2.418l-4.7-7.431-.635-1a1.569,1.569,0,0,0-1.331-.732Z" transform="translate(-52.282 -4.983)"/>
        <path id="Trazado_159967" data-name="Trazado 159967" d="M163.675,26.295h-12.7a2.079,2.079,0,0,1-1.765-.972l-5.338-8.434a2.089,2.089,0,0,1,1.764-3.206h12.7a2.078,2.078,0,0,1,1.764.972l5.339,8.434a2.089,2.089,0,0,1-1.765,3.206M145.639,14.2a1.576,1.576,0,0,0-1.331,2.418l5.339,8.435a1.569,1.569,0,0,0,1.331.732h12.7a1.576,1.576,0,0,0,1.331-2.418l-4.7-7.431-.635-1a1.569,1.569,0,0,0-1.331-.732Z" transform="translate(-52.282 -4.983)"/>
        <path id="Trazado_159968" data-name="Trazado 159968" d="M147.826,103.291H145.88a2.078,2.078,0,0,1-1.764-.971l-5.338-8.435a2.088,2.088,0,0,1,1.764-3.206h12.7A2.077,2.077,0,0,1,155,91.65l.635,1a.256.256,0,0,1-.434.274l-.635-1a1.568,1.568,0,0,0-1.331-.733h-12.7a1.575,1.575,0,0,0-1.331,2.418l5.339,8.435a1.567,1.567,0,0,0,1.331.733h1.946a.257.257,0,0,1,0,.513" transform="translate(-50.426 -33.027)"/>
        <path id="Trazado_159969" data-name="Trazado 159969" d="M166.192,104.354h-6.58a.257.257,0,1,1,0-.513h6.58a1.576,1.576,0,0,0,1.332-2.418l-4.7-7.432a.256.256,0,0,1,.434-.274l4.7,7.431a2.088,2.088,0,0,1-1.765,3.206" transform="translate(-58.04 -34.09)"/>
        <path id="Trazado_159970" data-name="Trazado 159970" d="M177.117,72.787h-19.2a3.512,3.512,0,0,1-2.984-1.643l-2.464-4.274a3.532,3.532,0,0,1,2.99-5.412h22.7a3.513,3.513,0,0,1,2.984,1.643l2.464,4.274a3.462,3.462,0,0,1,.227,3.337.256.256,0,0,1-.467-.212,2.967,2.967,0,0,0-.2-2.86L180.7,63.366a3,3,0,0,0-2.546-1.4h-22.7A3.019,3.019,0,0,0,152.9,66.6l2.464,4.273a3,3,0,0,0,2.546,1.4h19.2a.257.257,0,0,1,0,.514" transform="translate(-55.33 -22.384)"/>
        <path id="Trazado_159971" data-name="Trazado 159971" d="M198.923,87.461a.266.266,0,0,1-.107-.024,16.035,16.035,0,0,0-1.891-.559,8.194,8.194,0,0,1-4.651-3.187l-.348-.409a11.8,11.8,0,0,0-.907-.9c-.778-.724-1.513-1.406-1.507-2.218a1.67,1.67,0,0,1,.655-1.227,1.435,1.435,0,0,1,1.086-.376c1.2.069,2.481,1.383,2.979,1.945a11.6,11.6,0,0,0,1.174,1.174c-.429-.554-1.3-1.432-1.938-2.069l-.557-.56a28.871,28.871,0,0,0-2.759-2.223,18.38,18.38,0,0,1-2.1-1.691,1.531,1.531,0,0,1,.04-1.776,1.688,1.688,0,0,1,1.824-.881,11.162,11.162,0,0,1,3.7,2.424c.134.117.245.214.325.28l.032-.03a2.27,2.27,0,0,1,1.238-.646,3.635,3.635,0,0,1,2.675.347,2.082,2.082,0,0,1,1.422-.291,7.141,7.141,0,0,1,1.236.373.257.257,0,0,1-.207.47,6.577,6.577,0,0,0-1.121-.338,1.669,1.669,0,0,0-1.181.3.259.259,0,0,1-.343-.02,2.856,2.856,0,0,0-2.395-.338,1.751,1.751,0,0,0-.974.515c-.134.124-.333.313-.564.161-.079-.053-.249-.2-.481-.4a11.028,11.028,0,0,0-3.483-2.312,1.191,1.191,0,0,0-1.264.647,1.07,1.07,0,0,0-.093,1.172,18.986,18.986,0,0,0,2.018,1.619,29.048,29.048,0,0,1,2.818,2.273l.554.559c1.417,1.422,2.281,2.32,2.341,2.8a.362.362,0,0,1-.195.411c-.122.058-.5.23-2.131-1.611a4.662,4.662,0,0,0-2.623-1.772.951.951,0,0,0-.715.244,1.2,1.2,0,0,0-.484.85c0,.586.65,1.194,1.343,1.838a12.374,12.374,0,0,1,.945.943l.352.415a7.667,7.667,0,0,0,4.388,3.02,15.564,15.564,0,0,1,1.977.589.257.257,0,0,1-.109.49" transform="translate(-68.397 -26.381)"/>
        <path id="Trazado_159972" data-name="Trazado 159972" d="M200.626,80.511a.254.254,0,0,1-.214-.114,20.016,20.016,0,0,0-3.309-3.124.256.256,0,1,1,.312-.408,19.963,19.963,0,0,1,3.425,3.247.256.256,0,0,1-.214.4" transform="translate(-71.752 -27.976)"/>
        <path id="Trazado_159973" data-name="Trazado 159973" d="M205.916,78.923a.254.254,0,0,1-.188-.082,19.851,19.851,0,0,0-2.368-2.043.257.257,0,0,1,.3-.416,20.025,20.025,0,0,1,2.441,2.11.257.257,0,0,1-.188.432" transform="translate(-74.029 -27.802)"/>
        <path id="Trazado_159974" data-name="Trazado 159974" d="M198.918,180.915H73.249a.257.257,0,0,1,0-.513H198.918a.257.257,0,0,1,0,.513" transform="translate(-26.585 -65.706)"/>
        <path id="Trazado_159975" data-name="Trazado 159975" d="M180.741,66.436H161.727a.257.257,0,0,1,0-.514h19.014a.257.257,0,0,1,0,.514" transform="translate(-58.81 -24.01)"/>
        <path id="Trazado_159976" data-name="Trazado 159976" d="M183.752,71.9H164.738a.257.257,0,0,1,0-.514h19.014a.257.257,0,0,1,0,.514" transform="translate(-59.907 -25.999)"/>
        <path id="Trazado_159977" data-name="Trazado 159977" d="M111.36,99.314H92.346a.257.257,0,1,1,0-.513H111.36a.257.257,0,0,1,0,.513" transform="translate(-33.54 -35.985)"/>
        <path id="Trazado_159978" data-name="Trazado 159978" d="M114.37,104.775H95.355a.257.257,0,1,1,0-.513H114.37a.257.257,0,0,1,0,.513" transform="translate(-34.636 -37.974)"/>
        <path id="Trazado_159979" data-name="Trazado 159979" d="M125.78,123.325H106.766a.257.257,0,1,1,0-.513H125.78a.257.257,0,0,1,0,.513" transform="translate(-38.793 -44.73)"/>
        <path id="Trazado_159980" data-name="Trazado 159980" d="M128.789,128.786H109.775a.257.257,0,1,1,0-.513h19.014a.257.257,0,0,1,0,.513" transform="translate(-39.888 -46.719)"/>
        <path id="Trazado_159981" data-name="Trazado 159981" d="M89.73,25.8H51.99a.257.257,0,0,1,0-.514H89.73a.257.257,0,0,1,0,.514" transform="translate(-18.842 -9.21)"/>
        <path id="Trazado_159982" data-name="Trazado 159982" d="M108.538,36.235H92.287a.257.257,0,0,1,0-.514h16.251a.257.257,0,0,1,0,.514" transform="translate(-33.519 -13.01)"/>
        <path id="Trazado_159983" data-name="Trazado 159983" d="M113.959,44.573H97.709a.257.257,0,0,1,0-.514h16.25a.257.257,0,0,1,0,.514" transform="translate(-35.494 -16.047)"/>
        <path id="Trazado_159984" data-name="Trazado 159984" d="M119.084,52.911h-16.25a.257.257,0,0,1,0-.514h16.25a.257.257,0,0,1,0,.514" transform="translate(-37.361 -19.084)"/>
        <path id="Trazado_159985" data-name="Trazado 159985" d="M218.223,89.939a6.875,6.875,0,0,1-1.127-.1c-2.231-.374-4.577-2.146-4.471-6a6.763,6.763,0,0,1,3.564-5.8.256.256,0,0,1,.217.465,6.132,6.132,0,0,0-3.267,5.348c-.121,4.435,3.063,5.314,4.042,5.478,2.969.494,4.08-1.216,4.127-1.289a.256.256,0,0,1,.436.27,4.051,4.051,0,0,1-3.52,1.624" transform="translate(-77.441 -28.416)"/>
        <path id="Trazado_159986" data-name="Trazado 159986" d="M225.491,80.7a8.594,8.594,0,0,1-5.8-1.932.256.256,0,0,1,.361-.364,8.146,8.146,0,0,0,5.6,1.781,6.7,6.7,0,0,0,4.754-1.7,7.587,7.587,0,0,0,1.614-5.547,8.34,8.34,0,0,0-.867-3.51,6.322,6.322,0,0,0-1.815-1.923,11.944,11.944,0,0,1-1.246-1.1,1.9,1.9,0,0,1-.61-1.155,3.629,3.629,0,0,1,.587-1.744c.055-.1.107-.2.154-.294l.2-.395a15.909,15.909,0,0,0,.729-1.553,8.1,8.1,0,0,0,.507-4.342c-.542-3.008-6.077-4.248-6.133-4.26a.264.264,0,0,1-.116-.059c-2.638-2.343-7.268-3.721-10.454-1.969-3.059,1.684-2.251,5.342-2.242,5.378,0,.216.016,3.843,5.658,5.981a.257.257,0,0,1,.149.331.254.254,0,0,1-.331.149c-5.79-2.2-5.98-5.965-5.983-6.377-.077-.386-.734-4.132,2.5-5.912,3.363-1.851,8.212-.444,10.993,1.991.684.158,5.889,1.464,6.464,4.656a8.6,8.6,0,0,1-.533,4.616,16.04,16.04,0,0,1-.751,1.6l-.2.392c-.048.1-.1.2-.16.305A3.3,3.3,0,0,0,228,65.222a1.459,1.459,0,0,0,.471.832,11.431,11.431,0,0,0,1.193,1.052,6.816,6.816,0,0,1,1.948,2.085,8.853,8.853,0,0,1,.925,3.724c.068,1.448-.069,4.143-1.755,5.922a7.2,7.2,0,0,1-5.119,1.858h-.17" transform="translate(-76.524 -17.969)"/>
        <path id="Trazado_159987" data-name="Trazado 159987" d="M106.239,20.541a1.628,1.628,0,0,1-2.157-.58,1.627,1.627,0,0,1-.173-2.227,1.628,1.628,0,0,1,2.157.58,1.629,1.629,0,0,1,.173,2.227" transform="translate(-37.713 -6.378)" fill="#ffbe43"/>
        <path id="Trazado_159988" data-name="Trazado 159988" d="M97.431,20.875a1.753,1.753,0,0,1-.451-.062,2.5,2.5,0,0,1-1.245-.835,1.876,1.876,0,0,1-.14-2.588,1.379,1.379,0,0,1,1.273-.221A2.5,2.5,0,0,1,98.113,18a1.876,1.876,0,0,1,.14,2.588,1.26,1.26,0,0,1-.821.284M96.42,17.62a.76.76,0,0,0-.5.165c-.43.357-.336,1.212.207,1.865a1.985,1.985,0,0,0,.984.667.88.88,0,0,0,.811-.121c.43-.357.336-1.211-.207-1.865a1.989,1.989,0,0,0-.984-.668,1.229,1.229,0,0,0-.315-.044" transform="translate(-34.652 -6.23)"/>
        <path id="Trazado_159989" data-name="Trazado 159989" d="M148.392,74.3a1.729,1.729,0,0,1-.451-.062A2.5,2.5,0,0,1,146.7,73.4a1.876,1.876,0,0,1-.14-2.588,1.379,1.379,0,0,1,1.273-.221,2.5,2.5,0,0,1,1.245.835,1.876,1.876,0,0,1,.14,2.588,1.263,1.263,0,0,1-.821.284m-1.012-3.255a.763.763,0,0,0-.5.165c-.43.358-.336,1.212.207,1.865a1.981,1.981,0,0,0,.984.667.885.885,0,0,0,.811-.12c.43-.358.336-1.212-.207-1.865a1.984,1.984,0,0,0-.984-.667,1.2,1.2,0,0,0-.315-.045" transform="translate(-53.213 -25.688)"/>
        <path id="Trazado_159990" data-name="Trazado 159990" d="M73.76,85.405a1.934,1.934,0,0,1-2.33-2.806,1.934,1.934,0,0,1,2.33,2.806" transform="translate(-25.883 -30.002)" fill="#fff"/>
        <path id="Trazado_159991" data-name="Trazado 159991" d="M72.958,85.734a2.308,2.308,0,0,1-1.7-.893,2.508,2.508,0,0,1-.593-1.378,1.3,1.3,0,0,1,1.726-1.432,2.649,2.649,0,0,1,1.837,2.213,1.38,1.38,0,0,1-.452,1.211,1.26,1.26,0,0,1-.819.279m-1.014-3.251a.761.761,0,0,0-.5.165.88.88,0,0,0-.268.775,1.987,1.987,0,0,0,.475,1.09c.543.654,1.364.9,1.795.547a.883.883,0,0,0,.268-.776,2.138,2.138,0,0,0-1.458-1.757,1.229,1.229,0,0,0-.315-.044" transform="translate(-25.736 -29.855)"/>
        <path id="Trazado_159992" data-name="Trazado 159992" d="M5.414,88.7a5.456,5.456,0,0,1-3.991-2.123A5.941,5.941,0,0,1,.014,83.308a3.107,3.107,0,0,1,1-2.731,3.112,3.112,0,0,1,2.869-.484,5.949,5.949,0,0,1,2.951,1.986c1.716,2.067,1.9,4.757.4,6a2.812,2.812,0,0,1-1.829.621M2.851,80.464a2.309,2.309,0,0,0-1.506.509,2.615,2.615,0,0,0-.82,2.3,5.43,5.43,0,0,0,1.292,2.979c1.536,1.849,3.822,2.492,5.1,1.434s1.064-3.424-.472-5.274A5.429,5.429,0,0,0,3.753,80.59a3.463,3.463,0,0,0-.9-.126" transform="translate(0 -29.119)"/>
        <path id="Trazado_159993" data-name="Trazado 159993" d="M112.029,8.747a5.459,5.459,0,0,1-3.991-2.123,5.947,5.947,0,0,1-1.408-3.266,3.109,3.109,0,0,1,1-2.731A3.111,3.111,0,0,1,110.5.144a5.946,5.946,0,0,1,2.951,1.986c1.716,2.067,1.9,4.757.4,6a2.811,2.811,0,0,1-1.829.621M109.466.514a2.312,2.312,0,0,0-1.506.508,2.615,2.615,0,0,0-.82,2.3A5.429,5.429,0,0,0,108.432,6.3c1.536,1.85,3.822,2.492,5.1,1.435s1.062-3.425-.473-5.274A5.425,5.425,0,0,0,110.368.64a3.49,3.49,0,0,0-.9-.126" transform="translate(-38.831 0)"/>
        <path id="Trazado_159994" data-name="Trazado 159994" d="M63.6,151.708a2.307,2.307,0,0,1-1.7-.893,2.507,2.507,0,0,1-.592-1.377,1.379,1.379,0,0,1,.452-1.211,1.875,1.875,0,0,1,2.518.614,2.506,2.506,0,0,1,.592,1.377,1.38,1.38,0,0,1-.452,1.211,1.262,1.262,0,0,1-.82.279m-1.017-3.249a.758.758,0,0,0-.493.163.883.883,0,0,0-.268.776,1.99,1.99,0,0,0,.475,1.089c.543.655,1.366.9,1.8.547a.884.884,0,0,0,.268-.776,2,2,0,0,0-.475-1.09,1.82,1.82,0,0,0-1.3-.71" transform="translate(-22.327 -53.885)"/>
        <path id="Trazado_159995" data-name="Trazado 159995" d="M133.5,104.522a2.308,2.308,0,0,1-1.7-.893,2.4,2.4,0,0,1-.591-1.683,1.3,1.3,0,0,1,.451-.9,1.875,1.875,0,0,1,2.518.614,2.506,2.506,0,0,1,.592,1.377,1.38,1.38,0,0,1-.452,1.211,1.26,1.26,0,0,1-.819.279m-1.017-3.249a.758.758,0,0,0-.493.163.808.808,0,0,0-.268.558,1.872,1.872,0,0,0,.474,1.307c.542.654,1.364.9,1.795.547a.884.884,0,0,0,.268-.776,2,2,0,0,0-.475-1.09,1.819,1.819,0,0,0-1.3-.71" transform="translate(-47.787 -36.699)"/>
        <path id="Trazado_159996" data-name="Trazado 159996" d="M89.618,20.872a2.308,2.308,0,0,1-1.7-.893,1.876,1.876,0,0,1-.14-2.588A1.875,1.875,0,0,1,90.3,18a1.877,1.877,0,0,1,.14,2.588,1.261,1.261,0,0,1-.82.279M88.6,17.623a.758.758,0,0,0-.493.163c-.43.357-.336,1.211.207,1.865s1.366.9,1.8.547.336-1.211-.207-1.865a1.821,1.821,0,0,0-1.3-.71" transform="translate(-31.806 -6.232)"/>
        <path id="Trazado_159997" data-name="Trazado 159997" d="M129.382,90.706a.255.255,0,0,1-.212-.113,17.368,17.368,0,0,1-1.456-2.62.257.257,0,0,1,.469-.21,16.891,16.891,0,0,0,1.412,2.542.256.256,0,0,1-.212.4m-2.415-5.363a.258.258,0,0,1-.248-.193,17.216,17.216,0,0,1-.5-2.954.256.256,0,1,1,.511-.041,16.694,16.694,0,0,0,.486,2.865.256.256,0,0,1-.184.313.253.253,0,0,1-.065.009m-.428-5.854a.21.21,0,0,1-.053-.006.256.256,0,0,1-.2-.3,4.964,4.964,0,0,1,1.539-2.635.256.256,0,0,1,.349.376,4.467,4.467,0,0,0-1.387,2.365.256.256,0,0,1-.251.2m3.965-4.044a.257.257,0,0,1-.1-.493,16.659,16.659,0,0,1,2.867-.885.254.254,0,0,1,.306.2.257.257,0,0,1-.2.306,16.214,16.214,0,0,0-2.779.857.259.259,0,0,1-.1.02m5.746-1.331a.257.257,0,0,1-.026-.512c1.364-.139,2.434-.154,2.831-.154h.16a.257.257,0,0,1-.006.513h-.154c-.389,0-1.439.015-2.779.152h-.026" transform="translate(-45.971 -26.751)"/>
        <path id="Trazado_159998" data-name="Trazado 159998" d="M50.336,85.9H47.382a.257.257,0,0,1,0-.513h2.954a.257.257,0,1,1,0,.513m-5.908,0H41.473a.257.257,0,0,1,0-.513h2.954a.257.257,0,1,1,0,.513m-5.908,0H35.564a.257.257,0,1,1,0-.513h2.954a.257.257,0,1,1,0,.513m-5.908,0H29.656a.257.257,0,1,1,0-.513h2.954a.257.257,0,0,1,0,.513m-5.909,0H23.747a.257.257,0,0,1,0-.513H26.7a.257.257,0,1,1,0,.513m-5.908,0H17.839a.257.257,0,1,1,0-.513h2.954a.257.257,0,1,1,0,.513" transform="translate(-6.404 -31.101)"/>
        <path id="Trazado_159999" data-name="Trazado 159999" d="M54.563,151.015H51.609a.257.257,0,0,1,0-.513h2.954a.257.257,0,1,1,0,.513m-5.908,0H46.361a.257.257,0,0,1,0-.513h2.293a.257.257,0,1,1,0,.513" transform="translate(-16.792 -54.816)"/>
        <path id="Trazado_160000" data-name="Trazado 160000" d="M33.4,130.534a.258.258,0,0,1-.217-.12l-.509-.8a.257.257,0,0,1,.434-.274l.509.8a.256.256,0,0,1-.08.354.251.251,0,0,1-.137.04m-2.089-3.3a.257.257,0,0,1-.217-.119l-1.581-2.5a.257.257,0,0,1,.434-.275l1.58,2.5a.257.257,0,0,1-.079.354.252.252,0,0,1-.137.039m-3.16-4.992a.258.258,0,0,1-.217-.12l-1.58-2.5a.257.257,0,0,1,.434-.274l1.58,2.5a.256.256,0,0,1-.08.354.25.25,0,0,1-.137.04m-3.16-4.993a.257.257,0,0,1-.217-.119l-1.581-2.5a.257.257,0,0,1,.434-.275l1.58,2.5a.257.257,0,0,1-.079.354.252.252,0,0,1-.137.039m-3.16-4.992a.258.258,0,0,1-.217-.12l-1.579-2.5a.256.256,0,0,1,.434-.274l1.58,2.5a.256.256,0,0,1-.08.354.25.25,0,0,1-.137.04m-3.16-4.993a.257.257,0,0,1-.217-.119l-1.58-2.5a.257.257,0,0,1,.434-.275l1.58,2.5a.257.257,0,0,1-.08.354.25.25,0,0,1-.137.039m-3.16-4.993a.258.258,0,0,1-.217-.119l-1.579-2.5a.256.256,0,0,1,.434-.274l1.58,2.5a.257.257,0,0,1-.079.354.252.252,0,0,1-.137.039m-3.16-4.992a.257.257,0,0,1-.217-.119l-1.58-2.5a.257.257,0,0,1,.434-.275l1.58,2.5a.256.256,0,0,1-.217.394" transform="translate(-3.83 -34.334)"/>
        <path id="Trazado_160001" data-name="Trazado 160001" d="M90.388,142.729a3.4,3.4,0,0,1-2.537-.915,1.859,1.859,0,0,1-.177-1.787l4.45-10.073a2.332,2.332,0,0,1,1.457-1.034,2.783,2.783,0,0,1,2.2.647l2.538,2.284a.257.257,0,1,1-.344.381l-2.518-2.268a2.288,2.288,0,0,0-1.778-.542,1.828,1.828,0,0,0-1.1.767l-4.426,10.02a1.368,1.368,0,0,0,.106,1.291c.6.783,2.246.712,2.267.712h14.687a.256.256,0,1,1,0,.512H90.536c-.01,0-.063,0-.148,0" transform="translate(-31.881 -46.94)"/>
        <path id="Trazado_160002" data-name="Trazado 160002" d="M79.345,47.352a.254.254,0,0,1-.217-.12L68.316,30.149a.257.257,0,1,1,.434-.275L79.562,46.957a.256.256,0,0,1-.217.394" transform="translate(-24.868 -10.837)"/>
        <path id="Trazado_160003" data-name="Trazado 160003" d="M132.6,20.141c-5.59,0-10.674-2.457-15.158-7.336a.256.256,0,1,1,.378-.347c5.388,5.861,11.651,8.146,18.621,6.787a.257.257,0,1,1,.1.5,20.583,20.583,0,0,1-3.939.391" transform="translate(-42.751 -4.507)"/>
        <path id="Trazado_160004" data-name="Trazado 160004" d="M205.951,39.586a2.656,2.656,0,0,1-.684-.095,4.1,4.1,0,0,1-2.835-3.415,1.932,1.932,0,0,1,2.575-2.137,4.1,4.1,0,0,1,2.836,3.415,2.064,2.064,0,0,1-.67,1.813,1.877,1.877,0,0,1-1.221.42m-1.624-5.229a1.374,1.374,0,0,0-.9.3,1.569,1.569,0,0,0-.487,1.378,3.589,3.589,0,0,0,2.457,2.96,1.424,1.424,0,0,0,1.93-1.6,3.585,3.585,0,0,0-2.457-2.959,2.1,2.1,0,0,0-.547-.077" transform="translate(-73.726 -12.326)"/>
        <path id="Trazado_160005" data-name="Trazado 160005" d="M192.984,30.151a.257.257,0,0,1-.191-.085c-5.436-6.025-11.5-8.287-18.548-6.915a.257.257,0,0,1-.1-.5c7.134-1.39,13.537.991,19.027,7.076a.257.257,0,0,1-.191.429" transform="translate(-63.352 -8.108)"/>
        <path id="Trazado_160006" data-name="Trazado 160006" d="M175.2,159.147a.266.266,0,0,1-.1-.02.257.257,0,0,1-.139-.336,8.751,8.751,0,0,1,8.395-5.177,8.9,8.9,0,0,1,8.323,5.024.256.256,0,0,1-.467.212,8.4,8.4,0,0,0-7.856-4.724,8.248,8.248,0,0,0-7.921,4.861.258.258,0,0,1-.237.159" transform="translate(-63.719 -55.949)"/>
      </g>
    </g>
  </g>
</svg>
