<svg xmlns="http://www.w3.org/2000/svg" width="85" height="85" viewBox="0 0 85 85">
  <g id="_59" data-name="59" transform="translate(-600.051 -3516)">
    <circle id="Elipse_11502" data-name="Elipse 11502" cx="42.5" cy="42.5" r="42.5" transform="translate(600.051 3516)" fill="#1169e3"/>
    <g id="interfaz-de-usuario" transform="translate(614.051 3530)">
      <g id="Grupo_1099969" data-name="Grupo 1099969" transform="translate(1.888 1.888)">
        <g id="Grupo_1099952" data-name="Grupo 1099952" transform="translate(33.736 42.614)">
          <path id="Trazado_874127" data-name="Trazado 874127" d="M40,50H55.092V60.653H40Z" transform="translate(-40 -50)" fill="#ff826e"/>
        </g>
        <g id="Grupo_1099953" data-name="Grupo 1099953" transform="translate(33.736 26.634)">
          <path id="Trazado_874128" data-name="Trazado 874128" d="M43.551,32v4.439a1.781,1.781,0,0,1-1.776,1.776A1.789,1.789,0,0,1,40,36.439V32Z" transform="translate(-40 -32)" fill="#e6e9ed"/>
        </g>
        <g id="Grupo_1099954" data-name="Grupo 1099954" transform="translate(0 17.756)">
          <path id="Trazado_874129" data-name="Trazado 874129" d="M35.736,46.858V57.512H3.776A1.781,1.781,0,0,1,2,55.736V22H26.858v3.551H5.551V36.2H32.185v.533a16.252,16.252,0,0,0,.284,3.018H21.531v3.551H33.579A16.021,16.021,0,0,0,35.736,46.858Z" transform="translate(-2 -22)" fill="#e6e9ed"/>
        </g>
        <g id="Grupo_1099955" data-name="Grupo 1099955" transform="translate(19.531 35.512)">
          <path id="Trazado_874130" data-name="Trazado 874130" d="M36.047,45.551H24V42H34.938A16.011,16.011,0,0,0,36.047,45.551Z" transform="translate(-24 -42)" fill="#fcd770"/>
        </g>
        <g id="Grupo_1099956" data-name="Grupo 1099956" transform="translate(5.114 42.614)">
          <path id="Trazado_874131" data-name="Trazado 874131" d="M11.524,50h5.327a5.331,5.331,0,0,1-5.327,5.327A5.277,5.277,0,0,1,7.76,53.764Z" transform="translate(-7.76 -50)" fill="#fcd770"/>
        </g>
        <g id="Grupo_1099957" data-name="Grupo 1099957" transform="translate(3.551 37.287)">
          <path id="Trazado_874132" data-name="Trazado 874132" d="M11.327,44v5.327L7.563,53.091A5.277,5.277,0,0,1,6,49.327,5.331,5.331,0,0,1,11.327,44Z" transform="translate(-6 -44)" fill="#4fc1e9"/>
        </g>
        <g id="Grupo_1099958" data-name="Grupo 1099958" transform="translate(8.878 37.287)">
          <path id="Trazado_874133" data-name="Trazado 874133" d="M17.327,49.327H12V44A5.331,5.331,0,0,1,17.327,49.327Z" transform="translate(-12 -44)" fill="#ff826e"/>
        </g>
        <g id="Grupo_1099959" data-name="Grupo 1099959" transform="translate(3.551 21.307)">
          <path id="Trazado_874134" data-name="Trazado 874134" d="M32.634,31.327v5.327H6V26H27.307v3.551a1.781,1.781,0,0,0,1.776,1.776Z" transform="translate(-6 -26)" fill="#ff826e"/>
        </g>
        <g id="Grupo_1099960" data-name="Grupo 1099960" transform="translate(0 7.102)">
          <path id="Trazado_874135" data-name="Trazado 874135" d="M26.858,10V20.653H2V11.776A1.781,1.781,0,0,1,3.776,10Z" transform="translate(-2 -10)" fill="#5cd6b3"/>
        </g>
        <g id="Grupo_1099961" data-name="Grupo 1099961" transform="translate(17.756 10.653)">
          <path id="Trazado_874136" data-name="Trazado 874136" d="M22,14h3.551v3.551H22Z" transform="translate(-22 -14)" fill="#e6e9ed"/>
        </g>
        <g id="Grupo_1099962" data-name="Grupo 1099962" transform="translate(24.858 0)">
          <path id="Trazado_874137" data-name="Trazado 874137" d="M44.2,17.98a1.789,1.789,0,0,0-1.776,1.776v8.878H38.878v-.888a2.66,2.66,0,0,0-2.663-2.663.89.89,0,0,0-.888.888v2.663H31.776A1.781,1.781,0,0,1,30,26.858V3.776A1.781,1.781,0,0,1,31.776,2H56.634a1.781,1.781,0,0,1,1.776,1.776V26.858a1.781,1.781,0,0,1-1.776,1.776,1.789,1.789,0,0,0-1.776-1.776,1.781,1.781,0,0,0-1.776,1.776V26.858a1.781,1.781,0,0,0-1.776-1.776,1.789,1.789,0,0,0-1.776,1.776V25.083a1.781,1.781,0,0,0-1.776-1.776,1.789,1.789,0,0,0-1.776,1.776V19.756A1.781,1.781,0,0,0,44.2,17.98Z" transform="translate(-30 -2)" fill="#ffeaa7"/>
        </g>
        <g id="Grupo_1099963" data-name="Grupo 1099963" transform="translate(30.185 15.98)">
          <path id="Trazado_874138" data-name="Trazado 874138" d="M53.756,30.653a1.781,1.781,0,0,1,1.776-1.776,1.789,1.789,0,0,1,1.776,1.776v6.365a18.721,18.721,0,0,1-2.663,9.615H39.551a16.243,16.243,0,0,1-3.267-7.1A16.252,16.252,0,0,1,36,36.513V27.99a.89.89,0,0,1,.888-.888,2.66,2.66,0,0,1,2.663,2.663v5.327a1.789,1.789,0,0,0,1.776,1.776A1.781,1.781,0,0,0,43.1,35.092V21.776A1.789,1.789,0,0,1,44.878,20a1.781,1.781,0,0,1,1.776,1.776V27.1a1.789,1.789,0,0,1,1.776-1.776A1.781,1.781,0,0,1,50.2,27.1v1.776A1.789,1.789,0,0,1,51.98,27.1a1.781,1.781,0,0,1,1.776,1.776Z" transform="translate(-36 -20)" fill="#f0d0b4"/>
        </g>
        <g id="Grupo_1099964" data-name="Grupo 1099964" transform="translate(46.165 7.102)">
          <ellipse id="Elipse_11531" data-name="Elipse 11531" cx="2" cy="1.5" rx="2" ry="1.5" transform="translate(-0.053 0.053)" fill="#ff826e"/>
        </g>
        <g id="Grupo_1099965" data-name="Grupo 1099965" transform="translate(37.287 5.327)">
          <circle id="Elipse_11532" data-name="Elipse 11532" cx="2" cy="2" r="2" transform="translate(-0.175 -0.171)" fill="#ff826e"/>
        </g>
        <g id="Grupo_1099966" data-name="Grupo 1099966" transform="translate(28.409 10.653)">
          <circle id="Elipse_11533" data-name="Elipse 11533" cx="2" cy="2" r="2" transform="translate(-0.297 -0.499)" fill="#ff826e"/>
        </g>
        <g id="Grupo_1099967" data-name="Grupo 1099967" transform="translate(10.653 10.653)">
          <path id="Trazado_874139" data-name="Trazado 874139" d="M14,14h3.551v3.551H14Z" transform="translate(-14 -14)" fill="#e6e9ed"/>
        </g>
        <g id="Grupo_1099968" data-name="Grupo 1099968" transform="translate(3.551 10.653)">
          <path id="Trazado_874140" data-name="Trazado 874140" d="M6,14H9.551v3.551H6Z" transform="translate(-6 -14)" fill="#e6e9ed"/>
        </g>
      </g>
      <g id="Grupo_1099970" data-name="Grupo 1099970" transform="translate(1 1)">
        <path id="Trazado_874141" data-name="Trazado 874141" d="M36.551,12.49V7H34.776v5.49a2.648,2.648,0,0,0,0,5v5.49h1.776V17.49a2.648,2.648,0,0,0,0-5Zm-.888,3.388a.888.888,0,1,1,.888-.888A.888.888,0,0,1,35.663,15.878Z" transform="translate(-4.591 -1.673)"/>
        <path id="Trazado_874142" data-name="Trazado 874142" d="M56.551,8.939V7H54.776V8.939a2.648,2.648,0,0,0,0,5V22.98h1.776V13.939a2.648,2.648,0,0,0,0-5Zm-.888,3.388a.888.888,0,1,1,.888-.888A.888.888,0,0,1,55.663,12.327Z" transform="translate(-6.835 -1.673)"/>
        <path id="Trazado_874143" data-name="Trazado 874143" d="M53.38,1H28.521a2.667,2.667,0,0,0-2.663,2.663V8.1H3.663A2.667,2.667,0,0,0,1,10.766V53.38a2.667,2.667,0,0,0,2.663,2.663H51.6v-11.3a19.577,19.577,0,0,0,2.663-9.858v-5.64a2.66,2.66,0,0,0,1.776-2.5V3.663A2.667,2.667,0,0,0,53.38,1ZM28.521,29.409h2.663V32.96H6.327V24.083H25.858v2.663A2.667,2.667,0,0,0,28.521,29.409ZM2.776,10.766a.888.888,0,0,1,.888-.888H25.858v8.878H2.776Zm31.96,43.5H3.663a.888.888,0,0,1-.888-.888V20.531H25.858v1.776H4.551V34.736H31.2a16.922,16.922,0,0,0,.135,1.776h-10.8v5.327H32.918a17.082,17.082,0,0,0,1.818,2.971ZM31.65,38.287a17.3,17.3,0,0,0,.518,1.776H22.307V38.287Zm18.178,15.98H36.512V45.389H49.828Zm2.663-19.381a17.8,17.8,0,0,1-2.3,8.728H36.074a15.363,15.363,0,0,1-3.113-9.236v-8.52a1.777,1.777,0,0,1,1.776,1.776V32.96a2.663,2.663,0,0,0,5.327,0V19.644a.888.888,0,0,1,1.776,0v14.2h1.776V24.97a.888.888,0,0,1,1.776,0v8.878h1.776v-7.1a.888.888,0,1,1,1.776,0v7.1h1.776V28.521a.888.888,0,1,1,1.776,0ZM36.512,32.96V29.409h1.776V32.96a.888.888,0,1,1-1.776,0ZM40.063,8.99a.888.888,0,1,1,.888.888A.888.888,0,0,1,40.063,8.99Zm14.2,17.756a.882.882,0,0,1-.268.633,2.638,2.638,0,0,0-3.386-1.325,2.641,2.641,0,0,0-3.551-1.776,2.619,2.619,0,0,0-3.448-1.808V19.644a2.66,2.66,0,0,0-1.776-2.5V11.489a2.663,2.663,0,1,0-1.776,0v5.654a2.66,2.66,0,0,0-1.776,2.5v7.99H36.512a3.555,3.555,0,0,0-3.551-3.551,1.777,1.777,0,0,0-1.776,1.776v1.776H28.521a.888.888,0,0,1-.888-.888V3.663a.888.888,0,0,1,.888-.888H53.38a.888.888,0,0,1,.888.888Z" transform="translate(-1 -1)"/>
        <path id="Trazado_874144" data-name="Trazado 874144" d="M11.215,43a6.215,6.215,0,1,0,6.215,6.215A6.222,6.222,0,0,0,11.215,43ZM6.776,49.215a4.447,4.447,0,0,1,3.551-4.349v3.982L7.515,51.659A4.411,4.411,0,0,1,6.776,49.215Zm4.439,4.439a4.411,4.411,0,0,1-2.444-.74L11.582,50.1h3.982A4.447,4.447,0,0,1,11.215,53.653Zm.888-5.327V44.865a4.453,4.453,0,0,1,3.461,3.461Z" transform="translate(-1.449 -5.713)"/>
        <path id="Trazado_874145" data-name="Trazado 874145" d="M23,49h3.551v1.776H23Z" transform="translate(-3.469 -6.386)"/>
        <path id="Trazado_874146" data-name="Trazado 874146" d="M29,49h7.1v1.776H29Z" transform="translate(-4.142 -6.386)"/>
        <path id="Trazado_874147" data-name="Trazado 874147" d="M23,57h3.551v1.776H23Z" transform="translate(-3.469 -7.284)"/>
        <path id="Trazado_874148" data-name="Trazado 874148" d="M29,57h7.1v1.776H29Z" transform="translate(-4.142 -7.284)"/>
        <path id="Trazado_874149" data-name="Trazado 874149" d="M23,53H35.429v1.776H23Z" transform="translate(-3.469 -6.835)"/>
        <path id="Trazado_874150" data-name="Trazado 874150" d="M5,18.327h5.327V13H5Zm1.776-3.551H8.551v1.776H6.776Z" transform="translate(-1.449 -2.347)"/>
        <path id="Trazado_874151" data-name="Trazado 874151" d="M13,18.327h5.327V13H13Zm1.776-3.551h1.776v1.776H14.776Z" transform="translate(-2.347 -2.347)"/>
        <path id="Trazado_874152" data-name="Trazado 874152" d="M21,18.327h5.327V13H21Zm1.776-3.551h1.776v1.776H22.776Z" transform="translate(-3.244 -2.347)"/>
      </g>
    </g>
  </g>
</svg>
