<svg xmlns="http://www.w3.org/2000/svg" width="85" height="85" viewBox="0 0 85 85">
  <g id="_60" data-name="60" transform="translate(-915.051 -3516)">
    <circle id="Elipse_11503" data-name="Elipse 11503" cx="42.5" cy="42.5" r="42.5" transform="translate(915.051 3516)" fill="#1169e3"/>
    <g id="interfaz-de-usuario_1_" data-name="interfaz-de-usuario (1)" transform="translate(930.051 3497)">
      <path id="Trazado_874153" data-name="Trazado 874153" d="M58.97,87.192H9.434A1.934,1.934,0,0,1,7.5,85.257V47.434A1.934,1.934,0,0,1,9.434,45.5H58.97A1.934,1.934,0,0,1,60.9,47.434V85.257A1.934,1.934,0,0,1,58.97,87.192Z" transform="translate(-6.694 -6.694)" fill="#ecf4ff"/>
      <path id="Trazado_874154" data-name="Trazado 874154" d="M459.724,45.5H456.5a1.934,1.934,0,0,1,1.934,1.934V85.257a1.934,1.934,0,0,1-1.934,1.934h3.224a1.934,1.934,0,0,0,1.934-1.934V47.434A1.934,1.934,0,0,0,459.724,45.5Z" transform="translate(-407.448 -6.694)" fill="#ddeafb"/>
      <path id="Trazado_874155" data-name="Trazado 874155" d="M60.9,55.171H7.5V47.464A1.964,1.964,0,0,1,9.464,45.5H58.94A1.964,1.964,0,0,1,60.9,47.464v7.707Z" transform="translate(-6.694 -6.694)" fill="#4073c8"/>
      <path id="Trazado_874156" data-name="Trazado 874156" d="M459.449,45.5h-3.224a1.964,1.964,0,0,1,1.964,1.964v7.707h3.224V47.464A1.964,1.964,0,0,0,459.449,45.5Z" transform="translate(-407.203 -6.694)" fill="#3b66c1"/>
      <circle id="Elipse_11534" data-name="Elipse 11534" cx="1.612" cy="1.612" r="1.612" transform="translate(30.639 42.029)" fill="#c8ea73"/>
      <circle id="Elipse_11535" data-name="Elipse 11535" cx="1.612" cy="1.612" r="1.612" transform="translate(37.355 42.029)" fill="#ffe07d"/>
      <circle id="Elipse_11536" data-name="Elipse 11536" cx="1.612" cy="1.612" r="1.612" transform="translate(44.071 42.029)" fill="#dd4fb1"/>
      <path id="Trazado_874157" data-name="Trazado 874157" d="M244.5,358.32V347.575a1.075,1.075,0,0,1,1.075-1.075H268.14a1.075,1.075,0,0,1,1.075,1.075V358.32a1.075,1.075,0,0,1-1.075,1.075H245.575A1.075,1.075,0,0,1,244.5,358.32Z" transform="translate(-218.228 -275.351)" fill="#75cef9"/>
      <path id="Trazado_874158" data-name="Trazado 874158" d="M437.724,346.5H434.5a1.075,1.075,0,0,1,1.075,1.075V358.32a1.075,1.075,0,0,1-1.075,1.075h3.224a1.075,1.075,0,0,0,1.075-1.075V347.575A1.075,1.075,0,0,0,437.724,346.5Z" transform="translate(-387.812 -275.351)" fill="#6bbef6"/>
      <path id="Trazado_874159" data-name="Trazado 874159" d="M244.5,181.118v-13.44a1.178,1.178,0,0,1,1.178-1.178h22.358a1.178,1.178,0,0,1,1.178,1.178v13.44a1.178,1.178,0,0,1-1.178,1.178H245.678A1.178,1.178,0,0,1,244.5,181.118Z" transform="translate(-218.228 -114.692)" fill="#dd4fb1"/>
      <path id="Trazado_874160" data-name="Trazado 874160" d="M436.762,166.5h-3.224a1.178,1.178,0,0,1,1.178,1.178v13.44a1.178,1.178,0,0,1-1.178,1.178h3.224a1.178,1.178,0,0,0,1.178-1.178v-13.44A1.178,1.178,0,0,0,436.762,166.5Z" transform="translate(-386.953 -114.692)" fill="#da2ea2"/>
      <path id="Trazado_874161" data-name="Trazado 874161" d="M37.5,197.558v-29.88a1.178,1.178,0,0,1,1.178-1.178H54.589a1.178,1.178,0,0,1,1.178,1.178v29.88a1.178,1.178,0,0,1-1.178,1.178H38.678A1.178,1.178,0,0,1,37.5,197.558Z" transform="translate(-33.471 -114.692)" fill="#ffe07d"/>
      <path id="Trazado_874162" data-name="Trazado 874162" d="M169.762,166.5h-3.224a1.178,1.178,0,0,1,1.178,1.178v29.88a1.178,1.178,0,0,1-1.178,1.178h3.224a1.178,1.178,0,0,0,1.178-1.178v-29.88A1.178,1.178,0,0,0,169.762,166.5Z" transform="translate(-148.643 -114.692)" fill="#ffd064"/>
      <path id="Trazado_874163" data-name="Trazado 874163" d="M384.5,215.517V209.93a.43.43,0,0,1,.43-.43h5.588a.43.43,0,0,1,.43.43v5.588a.43.43,0,0,1-.43.43H384.93A.43.43,0,0,1,384.5,215.517Z" transform="translate(-343.185 -153.072)" fill="#75cef9"/>
      <path id="Trazado_874164" data-name="Trazado 874164" d="M384.5,382.517V376.93a.43.43,0,0,1,.43-.43h5.588a.43.43,0,0,1,.43.43v5.588a.43.43,0,0,1-.43.43H384.93A.43.43,0,0,1,384.5,382.517Z" transform="translate(-343.185 -302.127)" fill="#ecf4ff"/>
      <path id="Trazado_874165" data-name="Trazado 874165" d="M67.5,382.474v-5.5a.473.473,0,0,1,.473-.473H78.846a.473.473,0,0,1,.473.473v5.5a.473.473,0,0,1-.473.473H67.973A.473.473,0,0,1,67.5,382.474Z" transform="translate(-60.247 -302.127)" fill="#ecf4ff"/>
      <g id="Grupo_1099972" data-name="Grupo 1099972" transform="translate(0 38)">
        <path id="Trazado_874166" data-name="Trazado 874166" d="M52.276,38H10.387a.806.806,0,1,0,0,1.612H52.276A1.129,1.129,0,0,1,53.4,40.74v6.931H1.612V40.74A1.129,1.129,0,0,1,2.74,39.612H6.483a.806.806,0,1,0,0-1.612H2.74A2.743,2.743,0,0,0,0,40.74V78.563A2.743,2.743,0,0,0,2.74,81.3h.484v1.562a1.986,1.986,0,0,0,1.984,1.984H21.118A1.986,1.986,0,0,0,23.1,82.865V81.3h2.364v1.666a1.883,1.883,0,0,0,1.88,1.88H44.163a.806.806,0,1,0,0-1.612H27.347a.269.269,0,0,1-.269-.269V72.224a.269.269,0,0,1,.269-.269H49.912a.269.269,0,0,1,.269.269V82.969a.269.269,0,0,1-.269.269H47.924a.806.806,0,0,0,0,1.612h1.988a1.883,1.883,0,0,0,1.88-1.88V81.3h.484a2.743,2.743,0,0,0,2.74-2.74V40.74A2.743,2.743,0,0,0,52.276,38ZM21.49,82.865a.372.372,0,0,1-.372.372H5.207a.372.372,0,0,1-.372-.372V52.986a.372.372,0,0,1,.372-.372H21.118a.372.372,0,0,1,.372.372Zm30.785-3.174h-.484V72.224a1.883,1.883,0,0,0-1.88-1.88H27.347a1.883,1.883,0,0,0-1.88,1.88v7.468H23.1V52.986A1.986,1.986,0,0,0,21.118,51H5.207a1.986,1.986,0,0,0-1.984,1.984V79.692H2.74a1.129,1.129,0,0,1-1.128-1.128V49.283H53.4V78.563A1.129,1.129,0,0,1,52.276,79.692Z" transform="translate(0 -38)"/>
        <path id="Trazado_874167" data-name="Trazado 874167" d="M261.342,159H238.984A1.986,1.986,0,0,0,237,160.984v13.44a1.986,1.986,0,0,0,1.984,1.984h22.358a1.986,1.986,0,0,0,1.984-1.984v-13.44A1.986,1.986,0,0,0,261.342,159Zm.372,15.423a.372.372,0,0,1-.372.372H238.984a.372.372,0,0,1-.372-.372v-13.44a.372.372,0,0,1,.372-.372h22.358a.372.372,0,0,1,.372.372Z" transform="translate(-211.534 -145.998)"/>
        <path id="Trazado_874168" data-name="Trazado 874168" d="M383.823,202h-5.588A1.237,1.237,0,0,0,377,203.236v5.588a1.237,1.237,0,0,0,1.236,1.236h5.588a1.237,1.237,0,0,0,1.236-1.236v-5.588A1.237,1.237,0,0,0,383.823,202Zm-.376,6.447h-4.835v-4.835h4.835Z" transform="translate(-336.49 -184.378)"/>
        <path id="Trazado_874169" data-name="Trazado 874169" d="M385.059,375.823v-5.588A1.237,1.237,0,0,0,383.823,369h-5.588A1.237,1.237,0,0,0,377,370.236v5.588a1.237,1.237,0,0,0,1.236,1.236h5.588A1.237,1.237,0,0,0,385.059,375.823Zm-1.612-.376h-4.835v-4.835h4.835Z" transform="translate(-336.49 -333.433)"/>
        <path id="Trazado_874170" data-name="Trazado 874170" d="M72.152,369H61.279A1.281,1.281,0,0,0,60,370.279v5.5a1.281,1.281,0,0,0,1.279,1.279H72.152a1.281,1.281,0,0,0,1.279-1.279v-5.5A1.281,1.281,0,0,0,72.152,369Zm-.332,6.447H61.612v-4.835H71.82Z" transform="translate(-53.553 -333.433)"/>
        <path id="Trazado_874171" data-name="Trazado 874171" d="M282.479,70.418a2.418,2.418,0,1,0-2.418,2.418A2.42,2.42,0,0,0,282.479,70.418Zm-3.224,0a.806.806,0,1,1,.806.806A.807.807,0,0,1,279.256,70.418Z" transform="translate(-247.811 -64.776)"/>
        <path id="Trazado_874172" data-name="Trazado 874172" d="M344.979,70.418a2.418,2.418,0,1,0-2.418,2.418A2.42,2.42,0,0,0,344.979,70.418Zm-3.224,0a.806.806,0,1,1,.806.806A.807.807,0,0,1,341.756,70.418Z" transform="translate(-303.595 -64.776)"/>
        <path id="Trazado_874173" data-name="Trazado 874173" d="M407.479,70.418a2.418,2.418,0,1,0-2.418,2.418A2.42,2.42,0,0,0,407.479,70.418Zm-3.224,0a.806.806,0,1,1,.806.806A.807.807,0,0,1,404.256,70.418Z" transform="translate(-359.379 -64.776)"/>
        <path id="Trazado_874174" data-name="Trazado 874174" d="M275.973,203.612h4.52a.806.806,0,0,0,0-1.612h-4.52a.806.806,0,0,0,0,1.612Z" transform="translate(-245.6 -184.378)"/>
        <path id="Trazado_874175" data-name="Trazado 874175" d="M282.42,232h-6.447a.806.806,0,0,0,0,1.612h6.447a.806.806,0,1,0,0-1.612Z" transform="translate(-245.6 -211.154)"/>
        <path id="Trazado_874176" data-name="Trazado 874176" d="M282.42,262h-6.447a.806.806,0,0,0,0,1.612h6.447a.806.806,0,1,0,0-1.612Z" transform="translate(-245.6 -237.931)"/>
        <path id="Trazado_874177" data-name="Trazado 874177" d="M278.45,370.612h4.52a.806.806,0,1,0,0-1.612h-4.52a.806.806,0,1,0,0,1.612Z" transform="translate(-247.811 -333.433)"/>
        <path id="Trazado_874178" data-name="Trazado 874178" d="M284.9,399H278.45a.806.806,0,0,0,0,1.612H284.9a.806.806,0,0,0,0-1.612Z" transform="translate(-247.811 -360.21)"/>
        <path id="Trazado_874179" data-name="Trazado 874179" d="M284.9,429H278.45a.806.806,0,1,0,0,1.612H284.9a.806.806,0,1,0,0-1.612Z" transform="translate(-247.811 -386.986)"/>
        <path id="Trazado_874180" data-name="Trazado 874180" d="M66.893,204.112h7.37a.806.806,0,1,0,0-1.612h-7.37a.806.806,0,1,0,0,1.612Z" transform="translate(-58.986 -184.824)"/>
        <path id="Trazado_874181" data-name="Trazado 874181" d="M133.4,301.646a.806.806,0,0,0,0,1.612h3.087a.806.806,0,0,0,0-1.612Z" transform="translate(-118.351 -273.317)"/>
        <path id="Trazado_874182" data-name="Trazado 874182" d="M66.893,234.112H77.4a.806.806,0,1,0,0-1.612H66.893a.806.806,0,1,0,0,1.612Z" transform="translate(-58.986 -211.601)"/>
        <path id="Trazado_874183" data-name="Trazado 874183" d="M66.893,264.112H77.4a.806.806,0,1,0,0-1.612H66.893a.806.806,0,1,0,0,1.612Z" transform="translate(-58.986 -238.377)"/>
      </g>
    </g>
  </g>
</svg>
