<svg xmlns="http://www.w3.org/2000/svg" width="295.333" height="188.782" viewBox="0 0 295.333 188.782">
  <g id="Grupo_1099975" data-name="Grupo 1099975" transform="translate(-1134.333 -1099)">
    <rect id="Rectángulo_35929" data-name="Rectángulo 35929" width="295.333" height="188.782" rx="13" transform="translate(1134.333 1099)" fill="#1169e3"/>
    <g id="Grupo_1073069" data-name="Grupo 1073069" transform="translate(474.932 713.043)">
      <g id="Grupo_1073067" data-name="Grupo 1073067" transform="translate(679 396.623)">
        <g id="Grupo_1073068" data-name="Grupo 1073068" transform="translate(0 0)">
          <path id="Trazado_819910" data-name="Trazado 819910" d="M538.4,162.19c1.392,2.048,3.511,3.37,1.524,5.244-2.217,2.091-8.321,8.433-8.321,8.433l5.485,12.038s8.6-8.681,13.1-13.512,6.936-9.807,3.988-14.966-15.78,2.764-15.78,2.764" transform="translate(-316.165 -87.926)" fill="#f2ac30"/>
          <path id="Trazado_819911" data-name="Trazado 819911" d="M537.939,161.934c.594.839,1.3,1.592,1.88,2.44.791,1.158.2,2.031-.682,2.879-1.071,1.03-2.112,2.09-3.154,3.149q-2.418,2.454-4.807,4.94a.228.228,0,0,0-.035.268q2.743,6.018,5.486,12.038a.223.223,0,0,0,.347.045q3.309-3.342,6.587-6.712,2.571-2.64,5.112-5.308a33.741,33.741,0,0,0,5.188-6.524,10.765,10.765,0,0,0,1.386-7.207c-.3-1.7-1.109-3.687-2.77-4.447-2.807-1.285-6.612.326-9.206,1.435a40.064,40.064,0,0,0-5.254,2.7c-.243.149-.021.532.223.382a39.712,39.712,0,0,1,6.627-3.255,16.286,16.286,0,0,1,5.284-1.222c2.163-.061,3.362.953,4.181,2.895,2.555,6.056-2.721,11.515-6.545,15.532-3.149,3.307-6.346,6.569-9.551,9.821q-.787.8-1.576,1.6l.347.045-5.467-12c-.065-.142-.141.321-.007.182l.257-.267q.608-.63,1.217-1.258,1.914-1.975,3.844-3.932.939-.951,1.888-1.891a9.439,9.439,0,0,0,1.583-1.63c1.114-1.885-1.006-3.512-2-4.92-.163-.23-.547-.01-.381.223" transform="translate(-315.889 -87.559)" fill="#f2ac30"/>
          <path id="Trazado_819912" data-name="Trazado 819912" d="M458.028,224.405c-.263,3.6-3.472,37.589-5.283,56.717h19.972l5.457-46.768,4.485,46.768h22.808c-1.633-16.13-4.272-41.9-4.937-46.644-.983-7-2.334-19.368-8.23-29.441-4.054-.614-36.606,6.961-36.606,6.961.737,2.21,2.7,7.37,2.333,12.406" transform="translate(-272.189 -114.314)" fill="#32015c"/>
          <path id="Trazado_819913" data-name="Trazado 819913" d="M454.181,260.3q-.967,10.267-1.943,20.534h.441q1.35-14.241,2.691-28.484c.883-9.4,1.9-18.812,2.6-28.233.26-4.247-.937-8.269-2.268-12.245q6.739-1.565,13.5-3.011a203.179,203.179,0,0,1,20.392-3.8c.574-.063,2.1-.416,2.42.129a48.567,48.567,0,0,1,3.878,8.787,90.6,90.6,0,0,1,3.581,16.224c.812,5.648,1.417,11.318,2.021,16.992q1.789,16.817,3.472,33.645h.442q-1.62-16.038-3.3-32.069c-.576-5.44-1.132-10.883-1.873-16.3a116.691,116.691,0,0,0-2.954-15.487,58.366,58.366,0,0,0-3-8.34,44.183,44.183,0,0,0-2.064-4c-.118-.2-.607-.143-.8-.144a41.52,41.52,0,0,0-7.116.913c-3.645.632-7.272,1.364-10.894,2.117q-8.718,1.812-17.394,3.824l-.649.15a.221.221,0,0,0-.154.272c1.348,4.011,2.588,8.06,2.326,12.348-.891,12.075-2.208,24.13-3.344,36.183" transform="translate(-271.907 -114.025)" fill="#32015c"/>
          <path id="Trazado_819914" data-name="Trazado 819914" d="M503.293,271.085a.221.221,0,0,0-.442,0q-1.711,14.666-3.422,29.332-1.018,8.718-2.034,17.436h.442q1.043-8.937,2.086-17.875,1.565-13.406,3.128-26.812,1.313,13.681,2.624,27.361l1.661,17.326h.443q-.863-8.993-1.725-17.985l-2.76-28.783" transform="translate(-297.086 -151.044)" fill="#32015c"/>
          <path id="Trazado_819915" data-name="Trazado 819915" d="M316.176,73.779c-.491-1.474-2.537-7.289-2.537-7.289s-5.979-3.766-8.6-5.24-3.767-6.551.491-7.78c1.147-2.129,2.9-2.315,3.881-1.743.654-4.832,3.1-5.414,5.8-4.513s4.348,3.222,5.985,6.907,2.021,5.654,3.413,9.339,2.457,6.471,2.457,6.471-3.194,6.715-10.892,3.848" transform="translate(-188.52 -26.13)" fill="#ffd4d4"/>
          <path id="Trazado_819916" data-name="Trazado 819916" d="M321.09,71.685a6.551,6.551,0,1,1-6.551-6.551,6.551,6.551,0,0,1,6.551,6.551" transform="translate(-191.469 -36.32)" fill="#d4336e"/>
          <path id="Trazado_819917" data-name="Trazado 819917" d="M305.488,64.219c.922,1.044,2.457.491,2.211-1.781,1.535-.124,1.842-2.273,3.255-4.177.614,2.457,1.72,2.764,2.518,2.4s1.474-.86,1.535-3.132.738-2.887,1.72-2.579,1.843,2.579,3.07,5.4,1.352,5.036-.43,5.466a6.143,6.143,0,0,0-4.421,3.01c-1.044,1.9.184,3.746,3.44,2.334a8.12,8.12,0,0,0,4.237-3.686A32.788,32.788,0,0,0,320.659,57.1a5.493,5.493,0,0,0-6.2-3.686l-5.1,3.808L305.3,61.578" transform="translate(-189.973 -29.734)" fill="#ffd4d4"/>
          <path id="Trazado_819918" data-name="Trazado 819918" d="M472.757,60.716c2.374.2,4.873-2.457,4.3-5.65s-5.61,1.679-5.61,1.679Z" transform="translate(-282.617 -30.101)" fill="#495edb"/>
          <path id="Trazado_819919" data-name="Trazado 819919" d="M472.477,60.632a4.477,4.477,0,0,0,4.075-2.648c.51-.982,1.1-3.615-.17-4.338-1.689-.963-4.265,1.572-5.372,2.636a.219.219,0,0,0-.057.215l1.311,3.972c.089.269.516.154.427-.118q-.559-1.695-1.118-3.389l-.174-.529c.015.046-.156.235.078.017.377-.35.771-.681,1.174-1,.74-.588,3.024-2.429,3.778-1.086.637,1.132.055,2.905-.547,3.913a3.852,3.852,0,0,1-3.4,1.912c-.285-.012-.284.43,0,.442" transform="translate(-282.337 -29.795)" fill="#495edb"/>
          <path id="Trazado_819920" data-name="Trazado 819920" d="M418.912,28.5c-.492,3.111-1.065,5.794,1.719,10.789S424.4,50.565,433.57,49.3a31.819,31.819,0,0,1,1.148,4.177l12.037-2.62L442.906,39.14c5.119-1.513,5.035-4.731,4.134-6.859S438.157,21.7,435.29,20.962,421.86,20.8,418.912,28.5" transform="translate(-253.095 -11.556)" fill="#ffd4d4"/>
          <path id="Trazado_819921" data-name="Trazado 819921" d="M448.844,56.563c.755-.844-.624-2.661-1.422-1.894s.8,2.587,1.422,1.894" transform="translate(-269.099 -30.381)"/>
          <path id="Trazado_819922" data-name="Trazado 819922" d="M429.823,59.063c.754-.845-.625-2.661-1.424-1.894s.8,2.587,1.424,1.894" transform="translate(-258.492 -31.775)"/>
          <path id="Trazado_819923" data-name="Trazado 819923" d="M432.759,59.067a4.776,4.776,0,0,1-2.318-.641,2.149,2.149,0,0,1-.722-2.647c.52-2.248-.534-4.218-2.894-5.4a.221.221,0,1,1,.2-.4c2.52,1.258,3.689,3.462,3.126,5.9-.254.953-.255,1.644.52,2.162a4.334,4.334,0,0,0,2.089.577.221.221,0,0,1,0,.442" transform="translate(-257.668 -27.861)"/>
          <path id="Trazado_819924" data-name="Trazado 819924" d="M441.178,70.009a.221.221,0,0,1-.051-.436,8.064,8.064,0,0,0,4.55-2.917.221.221,0,0,1,.339.285A8.474,8.474,0,0,1,441.229,70a.206.206,0,0,1-.051.006" transform="translate(-265.616 -37.125)"/>
          <path id="Trazado_819925" data-name="Trazado 819925" d="M452.563,73.507a.221.221,0,0,1-.08-.427,10.711,10.711,0,0,0,3.811-2.608l.186-.211a9.741,9.741,0,0,0,1.374-1.826,17.8,17.8,0,0,0,.97-2.184,6.479,6.479,0,0,0,.52-2.135.221.221,0,1,1,.442,0,6.842,6.842,0,0,1-.547,2.289,18.243,18.243,0,0,1-.994,2.237,10.083,10.083,0,0,1-1.433,1.912l-.192.218a11.155,11.155,0,0,1-3.976,2.721.221.221,0,0,1-.08.015" transform="translate(-271.964 -35.628)"/>
          <path id="Trazado_819926" data-name="Trazado 819926" d="M442.967,48.093c-.327-1.064.941-1.762,2.743-1.024s2.156,1.561,1.6,1.433c-3.234-.737-4.135.041-4.34-.409" transform="translate(-266.708 -26.076)" fill="#495edb"/>
          <path id="Trazado_819927" data-name="Trazado 819927" d="M442.923,47.755c-.362-1.547,2.01-.95,2.705-.651a4.491,4.491,0,0,1,1.259.785l.092.1q.1.278.128.023c-.311-.047-.62-.129-.931-.183a10.528,10.528,0,0,0-2.218-.15c-.149.005-.975.174-1.059.025a.221.221,0,0,0-.382.223c.284.507,1.326.193,1.769.184a16.534,16.534,0,0,1,2.788.339.351.351,0,0,0,.438-.317c0-.336-.37-.633-.61-.805a5.8,5.8,0,0,0-2.449-1.035c-1.043-.163-2.241.372-1.958,1.581.065.278.492.16.427-.118" transform="translate(-266.451 -25.797)" fill="#495edb"/>
          <path id="Trazado_819928" data-name="Trazado 819928" d="M424.338,49.889c-1.148-.655-2.662-1.023-3.153-.368s-.082,1.433.41,1.392a22.471,22.471,0,0,1,3.112-.287c.409,0,0-.45-.369-.737" transform="translate(-254.467 -27.422)" fill="#495edb"/>
          <path id="Trazado_819929" data-name="Trazado 819929" d="M424.169,49.375c-.794-.435-2.14-1.083-3.051-.614-.666.343-1,1.624-.141,1.976a2.161,2.161,0,0,0,1.1-.023c.606-.083,1.212-.163,1.823-.2.307-.017.7.107.889-.2s-.394-.76-.573-.909c-.218-.181-.533.13-.313.313.108.09.56.355.285.347a6.747,6.747,0,0,0-.785.042c-.533.046-1.064.125-1.593.2-.165.023-.329.044-.495.061q-.508-.083-.39-.712c.062-.437.417-.545.761-.579a4.242,4.242,0,0,1,2.261.679c.25.137.473-.245.223-.382" transform="translate(-254.187 -27.099)" fill="#495edb"/>
          <path id="Trazado_819930" data-name="Trazado 819930" d="M426.537,12.4c-.574,2.948.163,8.8,3.029,11.874s2.457-2.416,2.13-3.317c1.637-1.883,4.74-2.235,5.929.795a8.435,8.435,0,0,1-.268,3.5,4.651,4.651,0,0,0,2.406-5.609c-.778-1.72-1.064-5.078-.86-7.7s-2.417-8.557-9.664-6.674c-2.052-3.567-4.162-4.242-7.872-3.686-3.37.5-7.141-1.779-9.966-.837-1.868.623-2.962,2.641-.136,5.466-4.382-1.228-8.312-1.064-10.031,3.276s.49,9.95,7.329,10.072a14.39,14.39,0,0,1,.593-2.753c.532,3.194,3.214,3.244,5.712,1.32a24.312,24.312,0,0,0,4.464-4.791c-.983,2.662-.123,2.989,1.8,2.785s4.136-3.195,5.405-3.727" transform="translate(-243.154 -0.288)" fill="#495edb"/>
          <path id="Trazado_819931" data-name="Trazado 819931" d="M426.059,12.049a16.554,16.554,0,0,0,1.059,8.771c.328.835,2.655,5.557,4.16,4.1a3.045,3.045,0,0,0,.6-2.134,9.371,9.371,0,0,0-.074-1.349c-.057-.487-.219-.635.126-.971a3.163,3.163,0,0,1,4.532-.091c1.162,1.212.813,3.068.413,4.53a.224.224,0,0,0,.325.25,4.951,4.951,0,0,0,2.768-4.683,13.534,13.534,0,0,0-.751-2.736,20.015,20.015,0,0,1-.422-4.719,9.71,9.71,0,0,0-.581-4.391,7.224,7.224,0,0,0-3.224-3.457,6.651,6.651,0,0,0-2.418-.716,10.132,10.132,0,0,0-1.683-.025c-.342.022-1.735.429-1.9.143a6.836,6.836,0,0,0-4.514-3.56,9.784,9.784,0,0,0-3.059.018,13.565,13.565,0,0,1-4.752-.373c-2.078-.464-4.621-1.25-6.548.074-2.1,1.445-.587,3.981.728,5.35l.215-.37c-2.244-.614-4.935-1.137-7.144-.1a6.81,6.81,0,0,0-3.644,5.381,7.548,7.548,0,0,0,1.531,5.74,8.428,8.428,0,0,0,6.5,2.766.226.226,0,0,0,.221-.221,14.105,14.105,0,0,1,.585-2.695h-.427c.527,2.688,2.7,3.316,5,2.133,2.258-1.159,4.156-3.488,5.581-5.55l-.4-.17c-.273.776-.673,1.8-.209,2.585.372.628,1.377.546,1.979.5,2.495-.178,3.69-2.79,5.762-3.781.257-.123.033-.5-.223-.382-1.535.734-2.608,2.29-4.042,3.2a3.681,3.681,0,0,1-2.632.488c-1.113-.212-.435-1.855-.207-2.5.088-.25-.27-.365-.4-.171a23.225,23.225,0,0,1-3.863,4.287,6.124,6.124,0,0,1-3.44,1.685c-1.492.114-2.218-1.172-2.469-2.449-.045-.229-.362-.193-.427,0a14.747,14.747,0,0,0-.6,2.812l.221-.221a8.222,8.222,0,0,1-6.033-2.458,6.891,6.891,0,0,1-1.6-5.149,6.551,6.551,0,0,1,3.25-5.35c2.122-1.117,4.848-.554,7.03.042a.223.223,0,0,0,.215-.369c-1.486-1.547-2.645-4.115.039-5.1,2.2-.8,4.906.389,7.094.76,2.044.347,4.036-.3,6.069.007,2.08.319,3.417,1.943,4.426,3.655a.225.225,0,0,0,.25.1c2.426-.595,4.962-.479,6.954,1.165a7.04,7.04,0,0,1,2.411,4.481c.129,1.06-.058,2.169-.035,3.237a19.623,19.623,0,0,0,.5,4.069c.3,1.269.831,2.172.553,3.53a4.292,4.292,0,0,1-2.434,3.1l.325.25c.519-1.9.711-3.889-.89-5.311-1.569-1.394-3.883-.568-5.14.8a.223.223,0,0,0-.057.215,6.713,6.713,0,0,1,.161,2.87c-.311,2.257-2.132.079-2.764-.842a15.164,15.164,0,0,1-2.129-10.585c.05-.279-.376-.4-.427-.118" transform="translate(-242.888 0)" fill="#495edb"/>
          <path id="Trazado_819932" data-name="Trazado 819932" d="M419.607,31.617a.221.221,0,0,1-.219-.192l-.039-.282a6.155,6.155,0,0,1-.084-1.658,5.929,5.929,0,0,1,1.361-2.857,5.416,5.416,0,0,1,1.108-1.1.221.221,0,1,1,.253.363,5.043,5.043,0,0,0-1.019,1.021,5.494,5.494,0,0,0-1.265,2.64,5.835,5.835,0,0,0,.084,1.533l.04.286a.222.222,0,0,1-.191.248l-.029,0" transform="translate(-253.504 -14.21)"/>
          <path id="Trazado_819933" data-name="Trazado 819933" d="M470.113,47.413l-.034,0a.215.215,0,0,1-.183-.247,4.389,4.389,0,0,0,.079-.7,2.982,2.982,0,0,0-.077-.606c-.075-.337-.16-.718-.281-1.086a7.646,7.646,0,0,0-.676-1.555.221.221,0,1,1,.382-.223,8.081,8.081,0,0,1,.716,1.643,11.466,11.466,0,0,1,.292,1.123,3.381,3.381,0,0,1,.087.7,4.641,4.641,0,0,1-.082.757.231.231,0,0,1-.222.192" transform="translate(-281.203 -23.913)"/>
          <path id="Trazado_819934" data-name="Trazado 819934" d="M332.237,94.892c2.58.737,8.23-.614,11.056-4.545,1.966,4.422,8.6,19.285,9.09,20.022s6.51-3.685,13.39-9.213S376.827,94.033,381,94.524s6.142-.123,5.773-2.457-.86-4.3-.86-4.3,4.79,1.965,12.283-2.457c1.6,4.668,1.474,5.528,2.089,6.265s6.142-1.6,11.424-.859,16.174,12.375,21.332,17.2c6.306,5.9,13.614,12.283,10.073,19.409-2.472,4.972-11.381,1.473-11.381,1.473s-.738-2.211-4.668-6.142S416.5,111.966,416.5,111.966s7.78,23.422,9.254,26.984c-7.861,6.633-30.908,9.994-37.155,7.154-2.044-6.134-8.949-27.381-12.02-33.155-9.335,6.51-15.846,12.776-21.373,14.74s-10.442,3.93-15.355-9.458c-2.813-7.666-7.616-23.339-7.616-23.339" transform="translate(-204.991 -47.571)" fill="#f2ac30"/>
          <path id="Trazado_819935" data-name="Trazado 819935" d="M331.9,94.827c4.036,1.057,8.938-1.465,11.306-4.646h-.382c2.883,6.483,5.679,13.025,8.773,19.411.278.574.437.943,1.144.71a18.317,18.317,0,0,0,4.526-2.811c5.088-3.648,9.688-8.153,15.21-11.149a15.553,15.553,0,0,1,5.721-1.9c1.994-.213,3.966.328,5.963.13,1.2-.12,2.4-.632,2.583-1.945a9.04,9.04,0,0,0-.373-2.815c-.154-.8-.324-1.589-.518-2.376l-.272.272a8.816,8.816,0,0,0,3.39.437,19.225,19.225,0,0,0,9.063-2.917l-.325-.132c.625,1.841,1.052,3.759,1.71,5.585.356.986.915,1.048,1.9.914,2.749-.374,5.377-1.089,8.18-1.076a10.218,10.218,0,0,1,5.613,1.747c4.027,2.482,7.518,5.9,10.918,9.159,3.464,3.318,6.953,6.621,10.388,9.969,3.97,3.87,8.959,9.288,6.374,15.238-1.677,3.858-6.822,3.035-10.064,2.081q-.571-.167-1.128-.373c-.21-.078.1.2.055.081s-.106-.253-.164-.378a18.9,18.9,0,0,0-3.155-4.359c-3.264-3.653-6.907-7.016-10.343-10.509q-.807-.819-1.612-1.64a.223.223,0,0,0-.37.215q2.622,7.893,5.3,15.768c1.073,3.154,2.144,6.309,3.281,9.44.161.442.323.883.492,1.32.067.174.147.316.092.363-.4.328-.818.625-1.245.912a28.408,28.408,0,0,1-5.359,2.7,63.839,63.839,0,0,1-13.3,3.5,53.649,53.649,0,0,1-12.6.768,19.827,19.827,0,0,1-2.322-.311c-.277-.054-1.747-.262-1.847-.565q-.7-2.1-1.391-4.2c-1.373-4.14-2.761-8.273-4.193-12.392-1.128-3.244-2.282-6.48-3.509-9.689a62.162,62.162,0,0,0-2.908-6.806.221.221,0,0,0-.3-.079c-5.1,3.567-9.869,7.571-14.956,11.149a28.368,28.368,0,0,1-10.126,4.746c-3.6.8-6.257-1-8.212-3.94-2.755-4.149-4.115-9.278-5.669-13.97q-2.623-7.924-5.058-15.91c-.083-.272-.51-.156-.426.118,2.117,6.906,4.287,13.8,6.652,20.628,1.451,4.188,2.956,9.051,6.411,12.062,2.138,1.864,4.771,1.924,7.384,1.2a31.321,31.321,0,0,0,9.768-4.9c4.905-3.481,9.524-7.345,14.455-10.8l-.3-.079a80.422,80.422,0,0,1,4.035,9.83c1.6,4.357,3.108,8.75,4.592,13.149,1.123,3.329,2.221,6.667,3.33,10,.265.8,2.5.948,3.194,1.049a32,32,0,0,0,5.162.238,69.4,69.4,0,0,0,16.123-2.386c4.537-1.19,9.424-2.79,13.086-5.835a.215.215,0,0,0,.057-.215c-1.984-4.83-3.509-9.884-5.18-14.828q-2.053-6.072-4.074-12.156l-.37.215q3.754,3.825,7.525,7.633c1.876,1.893,3.833,3.727,5.524,5.792a12.025,12.025,0,0,1,2.125,3.3c.159.443,1.617.64,1.98.737a15.917,15.917,0,0,0,4.984.606,5.824,5.824,0,0,0,4.305-1.941,8.1,8.1,0,0,0,1.371-6.051,14.325,14.325,0,0,0-3.233-6.571,57.345,57.345,0,0,0-6.365-6.6c-3.336-3.119-6.549-6.363-9.884-9.482-3.17-2.965-6.508-6.115-10.385-8.144-4.168-2.181-8.778-.407-13.123.078-.925.1-1.046-.568-1.263-1.327-.471-1.645-.944-3.281-1.495-4.9a.224.224,0,0,0-.325-.132,19.19,19.19,0,0,1-8.84,2.856,8.2,8.2,0,0,1-3.273-.422c-.165-.066-.308.124-.272.272.2.787.361,1.581.518,2.376.218,1.1.818,2.69-.12,3.6-.731.711-2.111.662-3.041.653-1.18-.011-2.344-.234-3.524-.238-4.571-.019-8.714,2.812-12.213,5.445-4.508,3.393-8.742,7.443-13.722,10.163-.176.1-.956.567-1.083.34-.187-.335-.345-.689-.509-1.036-.667-1.4-1.308-2.82-1.95-4.235q-3.325-7.314-6.576-14.662c-.075-.169-.3-.117-.382,0-2.245,3.017-6.977,5.446-10.806,4.443a.221.221,0,0,0-.118.426" transform="translate(-204.709 -47.293)" fill="#f2ac30"/>
          <path id="Trazado_819936" data-name="Trazado 819936" d="M316.295,73.89a2.014,2.014,0,0,1-1.55-.591,2.2,2.2,0,0,1-.04-2.569,6.369,6.369,0,0,1,4.564-3.118,1.371,1.371,0,0,0,.972-.734c.424-.852.178-2.425-.693-4.429-1.1-2.525-2.045-4.705-2.951-4.987a.957.957,0,0,0-.864.021c-.335.239-.521.932-.552,2.059-.064,2.393-.823,2.939-1.663,3.327a1.459,1.459,0,0,1-1.276.008,3.214,3.214,0,0,1-1.423-2.092,16.591,16.591,0,0,0-.9,1.592c-.567,1.1-1.062,2.065-2.031,2.264a2.1,2.1,0,0,1-.947,2.215,1.44,1.44,0,0,1-1.669-.478.221.221,0,0,1,.332-.293,1.014,1.014,0,0,0,1.159.366c.406-.18.795-.793.667-1.977a.221.221,0,0,1,.2-.244c.872-.07,1.323-.947,1.894-2.056a14.2,14.2,0,0,1,1.2-2.033.219.219,0,0,1,.221-.085.222.222,0,0,1,.172.163c.382,1.53.924,2.073,1.312,2.258a1.034,1.034,0,0,0,.9-.01c.761-.352,1.349-.791,1.406-2.937.036-1.309.27-2.074.737-2.407a1.4,1.4,0,0,1,1.253-.083c1.049.326,1.868,2.11,3.225,5.234.653,1.5,1.3,3.558.682,4.8a1.808,1.808,0,0,1-1.264.967,5.975,5.975,0,0,0-4.279,2.9A1.778,1.778,0,0,0,315.072,73c.55.6,1.739.591,3.179-.033a8,8,0,0,0,4.122-3.571.221.221,0,0,1,.406.176,8.275,8.275,0,0,1-4.352,3.8,5.5,5.5,0,0,1-2.132.517" transform="translate(-189.925 -31.745)"/>
          <path id="Trazado_819937" data-name="Trazado 819937" d="M338.425,116.621a5.506,5.506,0,0,1-2.108-.393.221.221,0,0,1,.168-.41,6.391,6.391,0,0,0,4.1.053,10.363,10.363,0,0,0,4.576-2.223c.084-.084.183-.176.285-.271a3.99,3.99,0,0,0,.838-.963.221.221,0,1,1,.386.215,4.394,4.394,0,0,1-.924,1.073c-.1.09-.193.178-.28.266a10.773,10.773,0,0,1-4.771,2.331,9.015,9.015,0,0,1-2.268.321" transform="translate(-207.189 -62.622)"/>
          <path id="Trazado_819938" data-name="Trazado 819938" d="M338.572,113.528a.222.222,0,0,1-.208-.145c-.136-.372-.264-.751-.394-1.134-.183-.539-.372-1.1-.587-1.646-.229-.571-.489-1.219-.7-1.853-.055-.165-.125-.326-.194-.485a3.213,3.213,0,0,1-.308-1,.221.221,0,0,1,.441-.037,2.875,2.875,0,0,0,.274.86c.074.171.148.343.207.521.207.621.465,1.263.691,1.83s.41,1.123.595,1.667c.129.38.257.755.391,1.124a.221.221,0,0,1-.132.284.23.23,0,0,1-.076.013" transform="translate(-207.19 -59.68)"/>
          <path id="Trazado_819939" data-name="Trazado 819939" d="M343.405,112.829a.221.221,0,0,1-.188-.1,4.51,4.51,0,0,1-.37-.847c-.045-.126-.091-.252-.14-.375-.086-.258-.178-.5-.27-.749s-.185-.491-.267-.737c-.176-.494-.4-1.037-.687-1.656-.127-.3-.232-.6-.334-.9s-.2-.589-.323-.87a.221.221,0,1,1,.406-.175c.127.3.233.6.336.9s.2.583.319.86c.289.626.518,1.181.7,1.692.082.245.173.485.262.726s.188.5.272.753c.047.115.094.246.141.377a4.111,4.111,0,0,0,.329.762.222.222,0,0,1-.07.3.218.218,0,0,1-.117.034" transform="translate(-209.771 -59.267)"/>
          <path id="Trazado_819940" data-name="Trazado 819940" d="M349.543,110.793a.221.221,0,0,1-.215-.167,5.014,5.014,0,0,0-.249-.666c-.056-.131-.11-.258-.153-.375-.1-.243-.2-.494-.29-.745s-.18-.481-.28-.722l-.023-.057c-.475-1.147-.966-2.334-1.489-3.5a.221.221,0,0,1,.4-.181c.526,1.171,1.018,2.361,1.494,3.512l.023.057c.1.246.194.491.286.737s.184.491.287.737c.045.119.1.241.149.365a5.357,5.357,0,0,1,.271.731.221.221,0,0,1-.214.275" transform="translate(-213.125 -58.131)"/>
          <path id="Trazado_819941" data-name="Trazado 819941" d="M353.424,106.656a.22.22,0,0,1-.2-.122,3.865,3.865,0,0,1-.176-.438,3.748,3.748,0,0,0-.152-.383l-.627-1.521a11.2,11.2,0,0,1-.491-1.169c-.029-.067-.077-.159-.126-.254a2.474,2.474,0,0,1-.293-.771.221.221,0,0,1,.439-.056,2.18,2.18,0,0,0,.248.624c.054.106.106.207.146.3a11.2,11.2,0,0,0,.479,1.139l.134.289.5,1.237a3.775,3.775,0,0,1,.165.415,3.514,3.514,0,0,0,.154.387.221.221,0,0,1-.2.321" transform="translate(-215.655 -56.738)"/>
          <path id="Trazado_819942" data-name="Trazado 819942" d="M458.891,97.693a.221.221,0,0,1-.219-.2,6.207,6.207,0,0,0-.276-1.221c-.045-.19-.08-.36-.115-.528a8.913,8.913,0,0,0-.254-1.027c-.2-.521-.365-1.057-.525-1.575-.073-.262-.124-.49-.176-.717s-.1-.445-.162-.668a.221.221,0,0,1,.427-.117c.062.229.114.458.166.687s.1.443.161.664c.164.531.326,1.06.525,1.576a9.442,9.442,0,0,1,.271,1.087c.034.165.068.332.107.5a6.352,6.352,0,0,1,.29,1.3.221.221,0,0,1-.2.242h-.023" transform="translate(-274.648 -51.01)"/>
          <path id="Trazado_819943" data-name="Trazado 819943" d="M463.89,98.1a.221.221,0,0,1-.221-.221,1.368,1.368,0,0,0-.076-.372c-.015-.052-.03-.1-.042-.148a5.278,5.278,0,0,0-.2-.762c-.137-.633-.314-1.231-.453-1.684-.086-.32-.159-.633-.232-.945s-.14-.6-.221-.905c-.031-.151-.073-.294-.116-.439a3.279,3.279,0,0,1-.178-.927.221.221,0,1,1,.442,0,2.95,2.95,0,0,0,.16.8c.047.159.092.314.122.464.078.293.15.6.221.9s.143.616.226.925c.139.453.319,1.064.453,1.689a5.465,5.465,0,0,1,.206.789l.033.111a1.745,1.745,0,0,1,.094.5.221.221,0,0,1-.221.221" transform="translate(-277.435 -51.01)"/>
          <path id="Trazado_819944" data-name="Trazado 819944" d="M469.431,97.094a.222.222,0,0,1-.21-.151c-.021-.063-.042-.136-.062-.21s-.04-.139-.06-.2a3.141,3.141,0,0,1-.171-.6,9.566,9.566,0,0,0-.232-.967c-.046-.166-.092-.331-.134-.5l-.152-.566c-.281-1.049-.548-2.041-.791-3.081a.221.221,0,0,1,.431-.1c.242,1.034.506,2.022.787,3.067l.153.57c.041.165.086.327.131.489a9.756,9.756,0,0,1,.242,1.006,2.741,2.741,0,0,0,.151.526c.027.078.049.154.07.231s.039.134.058.192a.221.221,0,0,1-.21.291" transform="translate(-280.48 -50.493)"/>
          <path id="Trazado_819945" data-name="Trazado 819945" d="M474.686,95.182a.222.222,0,0,1-.211-.154c-.3-.943-.552-1.881-.78-2.754l-.116-.38c-.127-.417-.257-.849-.412-1.28-.07-.194-.126-.4-.182-.613a5.307,5.307,0,0,0-.261-.8.222.222,0,0,1,.4-.182,5.651,5.651,0,0,1,.284.872c.053.2.1.395.171.577.159.442.291.88.419,1.3l.118.386c.23.877.48,1.808.777,2.742a.221.221,0,0,1-.144.278.216.216,0,0,1-.067.01" transform="translate(-283.319 -49.564)"/>
          <path id="Trazado_819946" data-name="Trazado 819946" d="M459.623,102.644a4.582,4.582,0,0,1-.837-.072,9.264,9.264,0,0,1-1.111-.259,7.406,7.406,0,0,0-1.247-.27.221.221,0,0,1,.044-.44,7.845,7.845,0,0,1,1.32.284,9.006,9.006,0,0,0,1.066.249,4.956,4.956,0,0,0,1.34.04,5.265,5.265,0,0,1,.62-.009,4.194,4.194,0,0,0,.8-.031,12.413,12.413,0,0,0,2.814-.967,18.414,18.414,0,0,0,2.344-1.213c.447-.284.9-.571,1.339-.892.232-.194.486-.449.711-.673a.221.221,0,1,1,.313.312c-.231.231-.492.494-.752.71-.464.338-.922.63-1.364.911a18.948,18.948,0,0,1-2.412,1.251,12.739,12.739,0,0,1-2.92,1,4.563,4.563,0,0,1-.879.037,4.939,4.939,0,0,0-.57.007c-.222.019-.425.028-.615.028" transform="translate(-274.132 -54.829)"/>
          <path id="Trazado_819947" data-name="Trazado 819947" d="M430.588,144.58a.221.221,0,0,1-.2-.122c-.1-.194-.177-.4-.254-.6s-.15-.389-.237-.564a8.745,8.745,0,0,0-.483-1.09c-.091-.2-.184-.376-.278-.55a4.213,4.213,0,0,1-.486-1.179.221.221,0,0,1,.434-.087,3.812,3.812,0,0,0,.442,1.056c.1.183.2.366.28.556a8.674,8.674,0,0,1,.5,1.125,6.185,6.185,0,0,1,.242.573c.077.2.15.39.238.564a.221.221,0,0,1-.2.32" transform="translate(-258.752 -78.182)"/>
          <path id="Trazado_819948" data-name="Trazado 819948" d="M513.159,138.293a.251.251,0,0,1-.114-.027,4.993,4.993,0,0,1-1.14-.9c-.131-.127-.263-.254-.4-.376a8.936,8.936,0,0,0-1.307-.922l-1.71-1.1a.268.268,0,0,1-.081-.363.252.252,0,0,1,.352-.084l1.7,1.1a9.344,9.344,0,0,1,1.374.971c.146.129.284.261.42.393a4.525,4.525,0,0,0,1.019.816.267.267,0,0,1,.115.353.255.255,0,0,1-.229.146" transform="translate(-303.206 -74.989)"/>
          <path id="Trazado_819949" data-name="Trazado 819949" d="M540.294,197.475a.222.222,0,0,1-.207-.144l-2.856-7.678a.221.221,0,0,1,.415-.154l2.856,7.677a.222.222,0,0,1-.13.285.226.226,0,0,1-.077.014" transform="translate(-319.293 -105.589)"/>
          <path id="Trazado_819950" data-name="Trazado 819950" d="M472.95,225.456a58.824,58.824,0,0,1-6.155-.316.22.22,0,0,1-.2-.243.216.216,0,0,1,.243-.2c11.938,1.256,25.352-1.324,34.176-6.573a.221.221,0,1,1,.227.38c-7.407,4.406-18.014,6.949-28.294,6.949" transform="translate(-279.913 -121.615)"/>
          <path id="Trazado_819951" data-name="Trazado 819951" d="M533.207,238.578a5.453,5.453,0,0,1-2.135-.451c-3.271-1.384-5.868-5.737-6.9-9.2a.221.221,0,0,1,.424-.126c1.031,3.47,3.645,7.646,6.644,8.915a4.886,4.886,0,0,0,4.342-.2.221.221,0,1,1,.2.392,5.54,5.54,0,0,1-2.584.669" transform="translate(-312.015 -127.499)"/>
          <path id="Trazado_819952" data-name="Trazado 819952" d="M546.3,240.018a.221.221,0,0,1-.22-.2c-.846-8.942-5.459-18.254-5.505-18.347a.221.221,0,1,1,.4-.2c.047.094,4.7,9.477,5.551,18.5a.222.222,0,0,1-.2.241H546.3" transform="translate(-321.151 -123.318)"/>
          <path id="Trazado_819953" data-name="Trazado 819953" d="M308.548,67.049a1.451,1.451,0,0,1-1.107-.533,3.43,3.43,0,0,1-.665-1.8,6.423,6.423,0,0,1,1.075-3.369.221.221,0,1,1,.38.227,6.012,6.012,0,0,0-1.013,3.129,2.989,2.989,0,0,0,.573,1.542.971.971,0,0,0,1.019.322.221.221,0,1,1,.13.423,1.332,1.332,0,0,1-.391.058" transform="translate(-190.79 -34.149)"/>
          <path id="Trazado_819954" data-name="Trazado 819954" d="M317.73,60.5a.221.221,0,0,1-.22-.2,22.386,22.386,0,0,1-.07-2.552c0-.237,0-.468,0-.691a.221.221,0,0,1,.442,0c0,.224,0,.457,0,.7a21.962,21.962,0,0,0,.068,2.5.221.221,0,0,1-.2.244h-.024" transform="translate(-196.737 -31.692)"/>
          <path id="Trazado_819955" data-name="Trazado 819955" d="M498.841,242.586a9.5,9.5,0,0,1-2.432-.364.221.221,0,0,1-.148-.146l-5.333-17.216a.221.221,0,0,1,.422-.131l5.3,17.1a7.275,7.275,0,0,0,3.263.188c-1.085-3.763-3.626-13.557-3.652-13.658a.221.221,0,1,1,.429-.111c.026.1,2.662,10.261,3.708,13.852a.222.222,0,0,1-.136.269,4.156,4.156,0,0,1-1.418.216" transform="translate(-293.475 -125.227)"/>
          <path id="Trazado_819956" data-name="Trazado 819956" d="M135.022,136.151a13.549,13.549,0,0,1-3.392,1.246c-.292.045-1.357-8.125-1.357-8.125,4.944-1.812,7.37-3.522,8.68-7.289s-2.3-4.421-2.508-8.219c-.163-3.036.461-12.828-10.84-11.354s-20.392,17.443-15.806,22.275,8.763,5.486,8.681,6.715-4.422,7.943-4.668,8.27,3.112,6.96,6.551,8.353,22.52.737,14.658-11.874" transform="translate(-80.278 -57.023)" fill="#ffd4d4"/>
          <path id="Trazado_819957" data-name="Trazado 819957" d="M53.576,321.576c-.491-7.124-.491-30.341,13.143-40.413,1.106-.86,2.007-3.439,2.007-3.439,6.1,1.6,21.742,5.773,28.662,5.405a37.6,37.6,0,0,1-3.112,5.9l2.169,32.428-17.811.369-3.562-5.651.491,5.405Z" transform="translate(-49.523 -154.865)" fill="#f2ac30"/>
          <path id="Trazado_819958" data-name="Trazado 819958" d="M53.5,321.3a69.66,69.66,0,0,1,1.837-21.527A39.59,39.59,0,0,1,60.79,287.1a25.823,25.823,0,0,1,4.7-5.209,8.907,8.907,0,0,0,2.043-2.022,12.182,12.182,0,0,0,1.082-2.3c.009-.024.018-.048.026-.073l-.272.155c4.657,1.219,9.319,2.417,14.024,3.439,4.751,1.032,9.8,2.2,14.7,1.974l-.213-.28a30.815,30.815,0,0,1-3.02,5.734c-.176.28-.071.653-.05.969q.232,3.476.465,6.951.68,10.173,1.361,20.345l.293,4.384.221-.221-13.645.282-3.1.065-.841.017c-.379.008,0,.165-.109-.007l-3.485-5.53c-.109-.172-.433-.12-.412.111q.245,2.7.491,5.405l.221-.221H53.274a.221.221,0,0,0,0,.442H75.262a.222.222,0,0,0,.221-.221q-.246-2.7-.491-5.405L74.58,316l3.486,5.53c.2.319.493.226.84.219l3.036-.063,14.2-.294a.222.222,0,0,0,.221-.221q-1.057-15.8-2.115-31.605-.022-.333-.044-.666c-.018-.26-.063-.008.144-.338A30.7,30.7,0,0,0,97.3,282.91a.222.222,0,0,0-.213-.28c-4.864.227-9.856-.94-14.579-1.958-4.706-1.014-9.367-2.22-14.024-3.439a.226.226,0,0,0-.272.154,13.7,13.7,0,0,1-.929,2.036,9.856,9.856,0,0,1-2.527,2.517,26.286,26.286,0,0,0-4.349,4.941,39.129,39.129,0,0,0-5.366,12.248,69.09,69.09,0,0,0-2.02,21.679q.015.245.031.49c.019.283.462.285.442,0" transform="translate(-49.221 -154.587)" fill="#f2ac30"/>
          <path id="Trazado_819959" data-name="Trazado 819959" d="M96.846,290.169a.214.214,0,0,1-.038,0c-5.031-.866-9.674-2.819-11.83-4.975a.221.221,0,0,1,.313-.313c2.1,2.1,6.646,4,11.592,4.852a.221.221,0,0,1-.037.439" transform="translate(-67.077 -158.818)"/>
          <path id="Trazado_819960" data-name="Trazado 819960" d="M63.024,327.589a.221.221,0,0,1-.221-.211c-.209-4.694-.62-28.633,11.873-39a.221.221,0,1,1,.283.341c-12.331,10.231-11.921,33.98-11.713,38.637a.221.221,0,0,1-.211.231h-.01" transform="translate(-54.713 -160.779)"/>
          <path id="Trazado_819961" data-name="Trazado 819961" d="M158.883,168.337c3.65-.885,5.216-2.1,7.632-2.349.819-2.621-1.924-7.124-3.848-7.944a15.6,15.6,0,0,1-5.241,2.334c.573,3.867,1.458,7.959,1.458,7.959" transform="translate(-107.512 -88.129)" fill="#32015c"/>
          <path id="Trazado_819962" data-name="Trazado 819962" d="M158.668,168.257c2.545-.638,4.959-2.034,7.573-2.342a.228.228,0,0,0,.213-.162c.636-2.355-.762-4.969-2.206-6.743-.222-.272-1.492-1.76-1.968-1.451a15.009,15.009,0,0,1-5.188,2.312.225.225,0,0,0-.154.272q.6,4,1.458,7.959c.06.279.487.161.426-.117q-.852-3.954-1.458-7.959l-.154.272a10.912,10.912,0,0,0,2.221-.706c.452-.194.894-.4,1.333-.624.229-.116,1.493-1.036,1.679-.949,1.6.757,2.69,2.856,3.285,4.421a6.214,6.214,0,0,1,.425,2.564c-.045.787-1.329.716-1.971.919-1.9.6-3.692,1.422-5.632,1.908a.222.222,0,0,0,.118.427" transform="translate(-107.239 -87.835)" fill="#32015c"/>
          <path id="Trazado_819963" data-name="Trazado 819963" d="M143.036,161.707a14.6,14.6,0,0,1-6.775-1.665.221.221,0,0,1,.208-.39,14.024,14.024,0,0,0,9,1.385.221.221,0,0,1,.084.434,13.23,13.23,0,0,1-2.514.235" transform="translate(-95.645 -89.011)"/>
          <path id="Trazado_819964" data-name="Trazado 819964" d="M82.8,106.985c1.086,3.421,3.3,4.33,2.733-.782,9.643-5.773,9.98-13.713,8.629-16.477,5.958.8,9.951,3.5,9.029,10.257,6.326-1.658,5.9-12.345.429-14.31-.122-7.739-8.56-9.7-16.889-4.975-3.733,2.115-5.06,4.7-10.148,6.687-5.967,2.335-8.037,9.953-8.037,16.368,0,9.76-.057,14.534-7.734,20.491s-14.883,13.521-10.441,22.91a9.291,9.291,0,0,0,8.6,5.343c-1.658,7.677,3.071,12.222,7.616,11.915,0,0,1.29-15.968,2.948-22.97s4.913-9.889,10.38-12.652,6.867-3.738,6.326-9.028a59.121,59.121,0,0,0-1.167-7.186c-4.852,2.027-7.261-.785-7.8-2.825-.86-3.255,3.624-5.773,5.528-2.764" transform="translate(-47.06 -43.58)" fill="#32015c"/>
          <path id="Trazado_819965" data-name="Trazado 819965" d="M82.322,106.765c.254.765,1.7,4.222,2.9,2.544a2.553,2.553,0,0,0,.322-1.151,7.463,7.463,0,0,0,.029-1.134c-.019-.862.057-1.052.793-1.528a22.348,22.348,0,0,0,4.418-3.755c2.752-3.041,5.231-8.315,3.3-12.406l-.25.325a12.523,12.523,0,0,1,6.836,2.683c2.07,1.874,2.36,4.741,2.03,7.36a.222.222,0,0,0,.28.213c3.45-.974,4.933-4.452,4.784-7.8a9.106,9.106,0,0,0-1.561-4.747,6.428,6.428,0,0,0-1.494-1.51,5.254,5.254,0,0,0-1.056-.58c-.2-.087-.173-1.09-.213-1.357-.625-4.191-4.419-6.243-8.357-6.265-5.133-.028-9.424,2.8-13.235,5.909a22.751,22.751,0,0,1-3.235,2.228c-1.275.718-2.686,1.138-3.944,1.885a11.955,11.955,0,0,0-4.311,4.9c-2.334,4.512-2.249,9.512-2.322,14.444-.066,4.372-.487,8.69-3.124,12.333a28.75,28.75,0,0,1-5.632,5.323,45.641,45.641,0,0,0-6.292,5.97,18.906,18.906,0,0,0-4.122,7.574,13.243,13.243,0,0,0,1.044,8.761,9.447,9.447,0,0,0,8.789,5.453l-.213-.28c-.64,3.138-.428,6.462,1.5,9.122a7.425,7.425,0,0,0,6.325,3.074.226.226,0,0,0,.221-.221A194.845,194.845,0,0,1,69.123,142.9c.922-4.767,2.756-9.013,6.781-11.925a62.029,62.029,0,0,1,6.341-3.578,7.84,7.84,0,0,0,3.563-3.266c.887-1.906.449-4.3.2-6.29a51.336,51.336,0,0,0-.985-5.6.22.22,0,0,0-.272-.154c-2.776,1.1-6.093.911-7.37-2.189-1.255-3.044,2.941-6.019,4.965-3.076.161.233.544.012.382-.223-1.925-2.8-6.5-.931-6.024,2.427a5.029,5.029,0,0,0,2.192,3.406c1.781,1.224,4.1.826,5.973.081l-.272-.154a53.832,53.832,0,0,1,1.018,5.882c.259,2.05.628,4.449-.53,6.3-1.1,1.765-3.464,2.722-5.235,3.624a27.388,27.388,0,0,0-5.629,3.585c-3.4,2.945-4.8,7.205-5.61,11.491-.827,4.367-1.318,8.8-1.784,13.222-.27,2.555-.518,5.113-.726,7.674l.221-.221a7.05,7.05,0,0,1-5.826-2.7c-2.036-2.469-2.188-5.932-1.577-8.932A.224.224,0,0,0,58.7,152a9.051,9.051,0,0,1-8.106-4.645c-3.151-5.5-1.244-11.528,2.493-16.13a42.547,42.547,0,0,1,6.232-6.006,35.6,35.6,0,0,0,5.632-5.183c2.528-3.169,3.275-7.014,3.467-10.97.238-4.9-.161-9.7,1.526-14.413a13.558,13.558,0,0,1,3.858-5.809,12.449,12.449,0,0,1,3.377-1.854,19.154,19.154,0,0,0,3.556-2.012c1.815-1.279,3.4-2.848,5.281-4.034a18.61,18.61,0,0,1,7.919-2.786,9.619,9.619,0,0,1,6.347,1.374,7.083,7.083,0,0,1,2.847,5.866.229.229,0,0,0,.162.213c5.594,2.138,5.429,12.23-.429,13.884l.28.213c.333-2.645.011-5.324-1.845-7.359-1.838-2.015-4.753-2.748-7.347-3.111a.224.224,0,0,0-.249.325c.988,2.1.555,4.735-.176,6.832-1.419,4.074-4.778,7.155-8.375,9.343a.217.217,0,0,0-.109.191c.054.544.448,3.3-.525,3.369-.906.061-1.582-2.07-1.774-2.647-.089-.269-.517-.154-.426.118" transform="translate(-46.79 -43.302)" fill="#32015c"/>
          <path id="Trazado_819966" data-name="Trazado 819966" d="M148.194,135.2c-1.123.149-1.26,2.425-.154,2.365s1.075-2.488.154-2.365" transform="translate(-101.854 -75.388)"/>
          <path id="Trazado_819967" data-name="Trazado 819967" d="M148.792,134.7a.221.221,0,0,1-.126-.4l.047-.033a2.815,2.815,0,0,0,.806-.691.221.221,0,1,1,.387.215,2.973,2.973,0,0,1-.941.84l-.048.033a.221.221,0,0,1-.125.039" transform="translate(-102.574 -74.418)"/>
          <path id="Trazado_819968" data-name="Trazado 819968" d="M166.447,129.3c-1.116.191-1.17,2.47-.067,2.368s.984-2.525.067-2.368" transform="translate(-112.06 -72.098)"/>
          <path id="Trazado_819969" data-name="Trazado 819969" d="M167,128.771a.221.221,0,0,1-.133-.4l.057-.042a2.783,2.783,0,0,0,.77-.712.221.221,0,1,1,.395.2,2.928,2.928,0,0,1-.9.866l-.056.042a.218.218,0,0,1-.132.044" transform="translate(-112.73 -71.095)"/>
          <path id="Trazado_819970" data-name="Trazado 819970" d="M161.711,135.475a.221.221,0,0,1-.159-.375c.134-.14.262-.27.383-.393,1.268-1.291,1.609-1.638.358-3.539l-.064-.1c-1.466-2.229-1.671-2.668-.344-5.135a.221.221,0,1,1,.389.21c-1.239,2.3-1.09,2.53.325,4.683l.064.1c1.446,2.2.9,2.753-.413,4.092-.12.122-.247.251-.38.39a.219.219,0,0,1-.159.068" transform="translate(-109.505 -70.159)"/>
          <path id="Trazado_819971" data-name="Trazado 819971" d="M141.632,128.295c-.784,1.419-.645,2.149.369,1.259a15.5,15.5,0,0,1,3.286-2.181c.829-.368.028-1.407-1.29-1.167a4.18,4.18,0,0,0-2.365,2.088" transform="translate(-98.425 -70.355)"/>
          <path id="Trazado_819972" data-name="Trazado 819972" d="M141.047,129.885h0a.39.39,0,0,1-.346-.193c-.224-.38.126-1.18.46-1.783a4.332,4.332,0,0,1,2.519-2.2,2.406,2.406,0,0,1,.425-.039,1.393,1.393,0,0,1,1.449.863.671.671,0,0,1-.454.762,15.274,15.274,0,0,0-3.23,2.145,1.419,1.419,0,0,1-.822.444m0-.442,0,.221v-.221h0m3.059-3.329a1.941,1.941,0,0,0-.346.032,4.011,4.011,0,0,0-2.211,1.978,2.786,2.786,0,0,0-.474,1.316,1.353,1.353,0,0,0,.5-.33,15.809,15.809,0,0,1,3.342-2.217c.157-.069.224-.159.2-.266-.046-.215-.424-.512-1.017-.512" transform="translate(-98.147 -70.077)"/>
          <path id="Trazado_819973" data-name="Trazado 819973" d="M163.013,123.24c.8-1.443,2.118-2.887,2.794-2.7s.983,1.106.584,1.382-.707-.492-2.027.4c-1.158.78-1.413,1.167-1.351.921" transform="translate(-110.623 -67.206)"/>
          <path id="Trazado_819974" data-name="Trazado 819974" d="M162.741,123.258h-.108l-.077-.09a.291.291,0,0,1-.035-.259l.021-.053c.817-1.476,2.221-3.035,3.046-2.809a1.318,1.318,0,0,1,.909,1.026.652.652,0,0,1-.883.8,1.376,1.376,0,0,0-.366-.059,1.946,1.946,0,0,0-1.038.408c-.545.367-.886.645-1.089.811s-.272.221-.379.221m2.664-2.792c-.432,0-1.236.746-1.932,1.737.142-.1.3-.219.49-.344a2.353,2.353,0,0,1,1.286-.484,1.782,1.782,0,0,1,.478.073c.115.03.176.071.261.012a.311.311,0,0,0,.073-.313.873.873,0,0,0-.589-.674.257.257,0,0,0-.066-.008" transform="translate(-110.345 -66.929)"/>
          <path id="Trazado_819975" data-name="Trazado 819975" d="M153.531,150.581a2.8,2.8,0,0,1-1.827-.738,6.359,6.359,0,0,1-1.369-1.685.221.221,0,1,1,.383-.222,5.91,5.91,0,0,0,1.27,1.568,2.257,2.257,0,0,0,1.937.6,2.042,2.042,0,0,0,.877-.409.221.221,0,1,1,.294.33,2.459,2.459,0,0,1-1.075.51,2.611,2.611,0,0,1-.489.047" transform="translate(-103.541 -82.43)"/>
          <path id="Trazado_819976" data-name="Trazado 819976" d="M155.334,148.843c-.113,0-.226-.008-.338-.016-.355-.025-.713-.036-1.052-.083-.156-.022-.312-.043-.468-.055-.432-.071-.778-.131-1.169-.22-.117-.031-.226-.058-.334-.084a6.436,6.436,0,0,1-.705-.2,3.079,3.079,0,0,1-.4-.159c-.089-.04-.18-.082-.277-.119a.221.221,0,1,1,.157-.413c.106.04.206.085.3.128a2.732,2.732,0,0,0,.355.142,6.033,6.033,0,0,0,.672.191c.113.027.225.054.338.085.371.084.71.143,1.115.21.146.01.311.033.476.056.358.05.689.056,1.024.08a3.368,3.368,0,0,0,.814-.042l.081.435a3.6,3.6,0,0,1-.589.065" transform="translate(-103.62 -82.238)"/>
          <path id="Trazado_819977" data-name="Trazado 819977" d="M158.8,132.058a2.225,2.225,0,0,1,1.018-.838,1.281,1.281,0,0,1,1.185.268.221.221,0,0,0,.223-.382,1.741,1.741,0,0,0-1.526-.312,2.528,2.528,0,0,0-1.282,1.041c-.162.236.221.457.382.223" transform="translate(-108.042 -72.895)" fill="#495edb"/>
          <path id="Trazado_819978" data-name="Trazado 819978" d="M146.345,122.136c-5.471-3.4-9.144,6.219-4.794,9.407,2.284,1.673,5.036.289,6.158-2.027s.854-5.777-1.364-7.38c-.232-.167-.452.216-.223.382,1.95,1.409,2.1,4.288,1.371,6.374-.841,2.406-3.689,3.977-5.867,2.141-3.6-3.035-.414-11.571,4.5-8.515.243.151.465-.231.223-.382" transform="translate(-97.591 -67.705)" fill="#495edb"/>
          <path id="Trazado_819979" data-name="Trazado 819979" d="M131.434,141.186l4.269-1.259a.221.221,0,0,0-.118-.426l-4.269,1.259a.221.221,0,0,0,.118.426" transform="translate(-92.866 -77.783)" fill="#495edb"/>
          <path id="Trazado_819980" data-name="Trazado 819980" d="M170.266,122.637c.3-1.858.276-4.982-1.648-6.029a2.33,2.33,0,0,0-2.52.541,6.634,6.634,0,0,0-1.788,3.892c-.334,1.813-.527,5.645,2.089,5.951,2.411.282,3.492-2.415,3.867-4.354.054-.279-.372-.4-.426-.118-.311,1.607-1.036,3.856-2.944,4.051-2.448.249-2.389-3.191-2.247-4.764.147-1.636,1.41-6.089,3.918-4.724,1.595.868,1.52,3.935,1.274,5.437-.046.279.38.4.426.118" transform="translate(-111.245 -64.916)" fill="#495edb"/>
          <path id="Trazado_819981" data-name="Trazado 819981" d="M145.709,353.486c.5-.8-.359-2.052-.8-2.518a7.038,7.038,0,0,0-5.179-2.7c-.93-.045-3.014.371-3.931.164-1.486-.335-2.089-10.727-2.089-10.727-5.9.8-12.2,1.72-12.2,1.72s3.321,13.346,4.218,14.249a3.731,3.731,0,0,0,3.726,1.227,40.133,40.133,0,0,1,5-.9,9.661,9.661,0,0,1,4.176.491c.594.2.672.7,1.8.288.456-.169,1.577.471,2.047.326a4.7,4.7,0,0,0,.9-.614c.123-.184,1.474.366,2.333-1" transform="translate(-87.485 -188.31)" fill="#ffd4d4"/>
          <path id="Trazado_819982" data-name="Trazado 819982" d="M88.5,217.727,88,220.675a19.082,19.082,0,0,0,8.844,3.03c1.147,5.568,5.979,25.223,5.979,25.223,4.176.983,10.441-.083,12.406-1.393-.081-6.142-2.415-20.472-3.071-21.7a10.622,10.622,0,0,0,4.5.247c1.8-5.488,4.012-11.466,4.831-13.759s1.638-3.275,3.6-4.094,8.517-3.685,7.206-14.249c4.177.573,10.319,1.556,10.319,1.556l-.164-17.524s-10.565-5.242-19.573-.819c2.784,2.621,1.884,7.207-3.194,9.664s-11.957.327-15.968-4.586A17.482,17.482,0,0,0,91.2,195.944c-1.638,8.434-2.7,21.783-2.7,21.783" transform="translate(-68.802 -97.816)" fill="#495edb"/>
          <path id="Trazado_819983" data-name="Trazado 819983" d="M88.008,217.367l-.491,2.948a.235.235,0,0,0,.1.25A12.454,12.454,0,0,0,90,221.881a21,21,0,0,0,2.642.964c.368.11,3.735.679,3.747.741.633,3.059,1.372,6.1,2.092,9.135q1.9,7.991,3.861,15.965a.22.22,0,0,0,.155.154,21.254,21.254,0,0,0,11.064-.714,7.07,7.07,0,0,0,1.513-.7c.288-.182.084-1.107.07-1.393-.071-1.562-.223-3.121-.39-4.675-.364-3.389-.851-6.766-1.416-10.127-.22-1.309-.456-2.616-.733-3.915a8.107,8.107,0,0,0-.522-1.894l-.25.325a10.85,10.85,0,0,0,4.622.247c.2-.046.244-.425.278-.53q.374-1.134.76-2.264.691-2.033,1.41-4.056c.749-2.121,1.517-4.234,2.281-6.35.772-2.139,1.586-3.767,3.777-4.683a12.224,12.224,0,0,0,4.919-3.574c2.445-3.042,2.814-7.114,2.378-10.859l-.28.214c3.446.476,6.885,1.006,10.319,1.555a.225.225,0,0,0,.28-.213q-.082-8.762-.164-17.524a.219.219,0,0,0-.11-.191c-5.969-2.941-13.708-3.721-19.8-.819a.223.223,0,0,0-.045.348,4.741,4.741,0,0,1,.914,5.643c-1.088,2.258-3.583,3.718-5.919,4.344-5.1,1.366-10.61-1.347-13.845-5.222a.217.217,0,0,0-.215-.057,18.648,18.648,0,0,0-8.238,4.99c-2.972,3.1-4.161,7-4.86,11.14C89.2,204.344,88.523,210.9,88,217.425c-.023.284.42.282.442,0,.238-2.97.537-5.935.864-8.9.3-2.7.635-5.392,1.03-8.077a40.039,40.039,0,0,1,1.62-7.706,17.279,17.279,0,0,1,9.767-9.949c.4-.163.8-.306,1.206-.44.623-.206.823.307,1.236.742a15.9,15.9,0,0,0,3.052,2.451,14.789,14.789,0,0,0,6.8,2.225,10.587,10.587,0,0,0,9.036-3.765,5.348,5.348,0,0,0-.28-7.278q-.022.173-.045.347c4.975-2.372,10.645-2.062,15.815-.515a24.729,24.729,0,0,1,3.457,1.3c.025.012-.033-.278-.029.132q.006.645.012,1.29.075,7.975.149,15.949l.28-.214c-3.435-.549-6.874-1.08-10.319-1.555-.126-.017-.3.055-.28.213.442,3.8.04,7.81-2.493,10.845a13.814,13.814,0,0,1-5.135,3.453,5.961,5.961,0,0,0-2.939,3.366c-.725,1.733-1.295,3.549-1.93,5.316q-1.352,3.767-2.637,7.558c-.05.148-.386,1.36-.395,1.362a5.126,5.126,0,0,1-.652.083,12.608,12.608,0,0,1-3.685-.341.224.224,0,0,0-.25.325,13.083,13.083,0,0,1,.771,3.241c.39,2.033.715,4.079,1.019,6.126.353,2.376.66,4.76.906,7.149q.153,1.49.255,2.984c.029.436.051.871.069,1.307.024.595.036.679-.507.942a18.786,18.786,0,0,1-7.573,1.394c-.653.014-1.306-.014-1.958-.061-.21-.015-1.925-.208-1.914-.161l-.14-.569q-1.072-4.371-2.128-8.745c-1.277-5.29-2.607-10.577-3.71-15.907a.226.226,0,0,0-.213-.163,20.656,20.656,0,0,1-8.13-2.6q-.267-.161-.522-.339c-.17-.119.054-.007.024.172.023-.134.045-.268.067-.4l.421-2.526c.046-.279-.38-.4-.426-.118" transform="translate(-68.527 -97.515)" fill="#495edb"/>
          <path id="Trazado_819984" data-name="Trazado 819984" d="M103.177,264.694a.222.222,0,0,1-.217-.177c-1.359-6.715-2.838-13.173-3.6-15.7a.221.221,0,0,1,.424-.127c.762,2.543,2.246,9.017,3.607,15.743a.222.222,0,0,1-.173.261.214.214,0,0,1-.044,0" transform="translate(-75.13 -138.585)"/>
          <path id="Trazado_819985" data-name="Trazado 819985" d="M138.659,262.69a.221.221,0,0,1-.217-.18,10.856,10.856,0,0,0-.8-2.136,30.864,30.864,0,0,1-1.491-3.9c-.563-1.9-.683-6.214-.79-10.023-.065-2.335-.126-4.541-.282-5.819a.221.221,0,0,1,.192-.246.218.218,0,0,1,.246.193c.159,1.3.22,3.514.286,5.86.106,3.782.225,8.069.771,9.909a30.38,30.38,0,0,0,1.471,3.848,11.088,11.088,0,0,1,.828,2.234.221.221,0,0,1-.176.258.215.215,0,0,1-.041,0" transform="translate(-95.051 -134.043)"/>
          <path id="Trazado_819986" data-name="Trazado 819986" d="M187.44,213a.221.221,0,0,1-.22-.2c0-.024-.248-2.389-.49-4a.221.221,0,0,1,.438-.066c.244,1.624.49,4,.493,4.023a.221.221,0,0,1-.2.243h-.023" transform="translate(-123.852 -116.289)"/>
          <path id="Trazado_819987" data-name="Trazado 819987" d="M101.619,358.337a.221.221,0,0,1-.221-.21l-.286-5.609a.221.221,0,1,1,.442-.023l.286,5.609a.221.221,0,0,1-.21.232h-.011" transform="translate(-76.11 -196.442)"/>
          <path id="Trazado_819988" data-name="Trazado 819988" d="M101.607,356.232a.221.221,0,0,1-.047-.437l3.727-.82a.221.221,0,0,1,.1.432l-3.727.819a.216.216,0,0,1-.048.005" transform="translate(-76.263 -197.939)"/>
          <path id="Trazado_819989" data-name="Trazado 819989" d="M156.066,371.628A.221.221,0,0,1,156,371.2c.054-.016.065-.039.073-.061a1.559,1.559,0,0,0-.315-.916,5.266,5.266,0,0,0-3.29-1.95,5.855,5.855,0,0,0-1.67-.038,6.272,6.272,0,0,0-.785.149c-.138.033-.277.065-.415.092a.221.221,0,1,1-.087-.434c.134-.027.268-.058.4-.089a6.7,6.7,0,0,1,.848-.16,6.3,6.3,0,0,1,1.788.045,5.723,5.723,0,0,1,3.572,2.133c.061.092.541.836.368,1.317a.53.53,0,0,1-.36.335.222.222,0,0,1-.065.01" transform="translate(-103.001 -205.064)"/>
          <path id="Trazado_819990" data-name="Trazado 819990" d="M160.969,369.727a.221.221,0,0,1-.1-.419c.328-.164.467-.322.493-.564a1.567,1.567,0,0,0-.028-.921A4.27,4.27,0,0,0,160,366.065a6.12,6.12,0,0,0-1.977-1.1,3.745,3.745,0,0,0-2.054-.192c-.319.022-.626.073-.924.123s-.623.1-.94.125a.218.218,0,0,1-.235-.206.222.222,0,0,1,.206-.236c.3-.019.6-.07.9-.119s.626-.1.945-.125a4.132,4.132,0,0,1,2.265.219,6.508,6.508,0,0,1,2.117,1.191,4.6,4.6,0,0,1,1.455,1.946,1.95,1.95,0,0,1,.043,1.136,1.144,1.144,0,0,1-.73.882.219.219,0,0,1-.1.023" transform="translate(-105.529 -203.122)"/>
          <path id="Trazado_819991" data-name="Trazado 819991" d="M240.7,113.051l-1.105-4.422s2.865-7.451,4.421-7.7,3.359-1.229,2.785-4.013-1.966-2.129-1.966-2.129c-1.391-2.374-2.621-2.211-3.439-1.8-2.211-2.948-6.961-3.357-9.582,1.474s-1.72,14.085.083,24.895c2.785-1.883,8.8-6.305,8.8-6.305" transform="translate(-148.079 -50.629)" fill="#ffd4d4"/>
          <path id="Trazado_819992" data-name="Trazado 819992" d="M134.17,197.213a17.925,17.925,0,0,1-12.084-4.663.221.221,0,1,1,.3-.329,17.51,17.51,0,0,0,12.909,4.513c3.144-.209,5.992-1.3,7.255-2.775a10.857,10.857,0,0,0,2.25-6.226.23.23,0,0,1,.229-.213.221.221,0,0,1,.213.229,11.1,11.1,0,0,1-2.354,6.5c-1.339,1.565-4.307,2.715-7.563,2.931-.345.023-.73.038-1.149.038" transform="translate(-87.765 -104.565)"/>
          <path id="Trazado_819993" data-name="Trazado 819993" d="M237.8,114.36c-1.6-.587-1.834-1.958-.527-3.046l7.057-5.881c1.306-1.089,2.611-.609,2.9,1.067l1.566,9.05c.29,1.676-.779,2.566-2.375,1.98Z" transform="translate(-151.569 -58.467)" fill="#7db3db"/>
          <path id="Trazado_819994" data-name="Trazado 819994" d="M255.862,104.368c.083,1.466.936,1.791,1.547,1.425-.244,1.628,1.222,1.953,1.629,1.587s-.123-5.129-2.972-4.763a2.942,2.942,0,0,0-.2,1.75" transform="translate(-162.374 -57.211)" fill="#ffd4d4"/>
          <path id="Trazado_819995" data-name="Trazado 819995" d="M238.645,90.924c-3.726-1.037-7.206,1.893-8.305,7.451a34.358,34.358,0,0,0-.033,9.295,14.189,14.189,0,0,1,1.821.3l.227-4.339c1.039.306,5.619.916,6.291-1.587s-2.321-3.3-5.008-2.321c.305-1.344.977-3.6,2.687-4.214s2.748,3.787,4.7,2.687,1.343-6.229-2.381-7.267" transform="translate(-147.986 -50.586)" fill="#ffd4d4"/>
          <path id="Trazado_819996" data-name="Trazado 819996" d="M237.5,106.469a10.155,10.155,0,0,1-2.533-.3.221.221,0,0,1,.125-.424c.774.228,3.52.61,5.048-.247a1.909,1.909,0,0,0,.967-1.185,1.664,1.664,0,0,0-.413-1.783c-.845-.775-2.616-.887-4.306-.273a.218.218,0,0,1-.222-.042A.221.221,0,0,1,236.1,102c.56-2.463,1.485-3.893,2.828-4.373.951-.34,1.672.559,2.37,1.428.859,1.067,1.483,1.733,2.3,1.275a1.98,1.98,0,0,0,.875-1.338,5,5,0,0,0-.777-3.751.221.221,0,1,1,.367-.247,5.461,5.461,0,0,1,.841,4.1,2.407,2.407,0,0,1-1.089,1.622c-1.2.677-2.083-.418-2.86-1.383-.63-.782-1.224-1.52-1.877-1.288-1.121.4-1.926,1.6-2.453,3.67,1.721-.517,3.478-.331,4.372.49a2.082,2.082,0,0,1,.541,2.223,2.334,2.334,0,0,1-1.178,1.456,6.027,6.027,0,0,1-2.856.59" transform="translate(-150.664 -52.914)"/>
          <path id="Trazado_819997" data-name="Trazado 819997" d="M256.514,104.031a1.126,1.126,0,0,1-.194-.016c-.325-.057-.879-.319-.94-1.428a.221.221,0,1,1,.442-.024c.023.422.141.94.574,1.016.636.109,1.754-.723,2.3-2.007a3.089,3.089,0,0,0-.2-2.457.221.221,0,1,1,.4-.19,3.535,3.535,0,0,1-2.376,5.106" transform="translate(-162.134 -55.092)"/>
          <path id="Trazado_819998" data-name="Trazado 819998" d="M260.293,111.381a1.249,1.249,0,0,1-.821-.288,1.751,1.751,0,0,1-.423-1.731.221.221,0,1,1,.434.083,1.343,1.343,0,0,0,.275,1.311.987.987,0,0,0,.995.095.221.221,0,0,1,.152.415,1.781,1.781,0,0,1-.612.115" transform="translate(-164.15 -60.882)"/>
          <path id="Trazado_819999" data-name="Trazado 819999" d="M292.357,132.908l-32.891-18.989a13.215,13.215,0,0,0-11.914,0l-32.89,18.989a13.215,13.215,0,0,0-5.957,10.318V181.2a13.217,13.217,0,0,0,5.957,10.318l32.89,18.989a13.212,13.212,0,0,0,11.914,0l32.891-18.989a13.217,13.217,0,0,0,5.957-10.318V143.226a13.216,13.216,0,0,0-5.957-10.318" transform="translate(-136.107 -62.732)" fill="#def2ff"/>
          <path id="Trazado_820000" data-name="Trazado 820000" d="M305.411,179.983a22.438,22.438,0,1,0-32.051,20.279c2.452,1.489,2.458,3.424,2.352,6.877-.089,2.907-.286,5.25,1.054,6.48,1.07,1.172,3.444,1.988,6.207,1.988s5.138-.816,6.208-1.988c1.34-1.23,1.143-3.573,1.053-6.48-.106-3.454-.1-5.388,2.351-6.877a22.44,22.44,0,0,0,12.826-20.279" transform="translate(-165.008 -87.851)" fill="#f2ac30"/>
          <path id="Trazado_820001" data-name="Trazado 820001" d="M305.417,179.7a22.656,22.656,0,1,0-34.85,19.1,30.188,30.188,0,0,1,3.3,1.977,4.578,4.578,0,0,1,1.4,3.268c.22,2.6-.444,5.293.2,7.853.519,2.065,2.757,2.968,4.627,3.382,3.158.7,8.773.365,9.945-3.382,1.16-3.708-1.765-9.7,2.72-11.868A22.857,22.857,0,0,0,305.417,179.7a.221.221,0,0,0-.442,0,22.245,22.245,0,0,1-12.433,19.951,5,5,0,0,0-2.741,4.4c-.226,2.675.741,5.888-.438,8.4-1.254,2.672-5.7,2.813-8.136,2.571a8.091,8.091,0,0,1-4.18-1.512c-1.17-.925-1.347-2.33-1.39-3.727-.076-2.455.5-5.1-.266-7.489-.675-2.119-2.894-2.793-4.6-3.868a22.217,22.217,0,1,1,34.185-18.72.221.221,0,0,0,.442,0" transform="translate(-164.793 -87.569)" fill="#f2ac30"/>
          <path id="Trazado_820002" data-name="Trazado 820002" d="M309.317,262.563a33.91,33.91,0,0,1-14.592,0,24.229,24.229,0,0,1,.034,3.137c-.089,2.907-.286,5.25,1.054,6.48,1.07,1.172,3.444,1.988,6.207,1.988s5.138-.816,6.208-1.988c1.34-1.23,1.143-3.573,1.053-6.48a24.306,24.306,0,0,1,.035-3.137" transform="translate(-184.057 -146.411)" fill="#32015c"/>
          <path id="Trazado_820003" data-name="Trazado 820003" d="M308.857,262.073a34.212,34.212,0,0,1-14.474,0,.223.223,0,0,0-.28.213c.257,2.861-.732,6.262.53,8.95,1.116,2.379,4.722,2.844,6.987,2.875,2.418.034,5.68-.577,6.988-2.875a7.305,7.305,0,0,0,.559-3.572c-.006-1.793-.189-3.588-.029-5.378.026-.284-.417-.281-.442,0-.238,2.656.44,5.455-.214,8.063-.692,2.755-4.533,3.287-6.86,3.32-2.449.035-6.016-.626-6.86-3.32a11.712,11.712,0,0,1-.219-3.77,36.029,36.029,0,0,0,0-4.293l-.28.214a34.781,34.781,0,0,0,14.709,0c.279-.061.161-.487-.118-.427" transform="translate(-183.655 -146.134)" fill="#32015c"/>
          <path id="Trazado_820004" data-name="Trazado 820004" d="M290.475,225.819h-.016a.442.442,0,0,1-.427-.457,39.9,39.9,0,0,0-2-13.7,9.581,9.581,0,0,1-1.429.064c-4.313-.126-6.781-2.394-7.584-4.3a2.827,2.827,0,0,1,.249-3.066c.424-.461,1.458-1.129,3.621-.425,2.624.855,4.468,3.489,5.722,6.733a8.209,8.209,0,0,0,4.009-2.171,13.7,13.7,0,0,1-3.977-8.886c-.133-3.677,1.873-5.3,3.794-5.591a4.2,4.2,0,0,1,4.743,2.952c.713,2.633-.291,7.694-2.923,11.032q-.183.232-.373.45a9.014,9.014,0,0,0,1.394.96,7.673,7.673,0,0,0,1.616.673c1.613-4.857,3.962-6.96,5.288-7.8a3.655,3.655,0,0,1,3.727-.263,2.943,2.943,0,0,1,1.562,2.58c.015,1.081-.517,3.214-4.246,5.365a8.418,8.418,0,0,1-5.708,1.17,43.117,43.117,0,0,0-1.447,13.5.443.443,0,0,1-.43.455.452.452,0,0,1-.454-.43,44.515,44.515,0,0,1,1.443-13.729,8.594,8.594,0,0,1-1.78-.744,9.786,9.786,0,0,1-1.573-1.091,9.049,9.049,0,0,1-4.359,2.412,42.316,42.316,0,0,1,2,13.884.442.442,0,0,1-.442.427m-9.314-21.308a1.623,1.623,0,0,0-1.244.448,1.993,1.993,0,0,0-.086,2.123c.7,1.662,2.9,3.644,6.8,3.758a8.627,8.627,0,0,0,1.08-.035c-1.2-2.986-2.875-5.306-5.093-6.028a4.772,4.772,0,0,0-1.451-.266m16.628,5.767a7.669,7.669,0,0,0,4.992-1.08c2.438-1.406,3.824-3.078,3.8-4.586a2.042,2.042,0,0,0-1.1-1.814,2.786,2.786,0,0,0-2.832.231c-.979.622-3.259,2.511-4.865,7.249m-4.708-15.422a3.4,3.4,0,0,0-.514.038c-1.545.234-3.155,1.588-3.043,4.684a12.753,12.753,0,0,0,3.7,8.281q.177-.2.335-.4c2.691-3.412,3.334-8.147,2.764-10.252a3.27,3.27,0,0,0-3.242-2.348" transform="translate(-175.133 -108.161)" fill="#32015c"/>
          <path id="Trazado_820005" data-name="Trazado 820005" d="M303.129,269.39a20.748,20.748,0,0,1-5.876-.77.221.221,0,1,1,.125-.424c3.855,1.133,7.911.762,11.412.324a.224.224,0,0,1,.246.192.221.221,0,0,1-.192.246,45.994,45.994,0,0,1-5.716.431" transform="translate(-185.395 -149.547)"/>
          <path id="Trazado_820006" data-name="Trazado 820006" d="M229.086,240.255c-1.334,1.045-2.621.527-2.858-1.151l-1.283-9.063c-.238-1.679.853-2.533,2.425-1.9l8.49,3.419c1.572.633,1.767,2.006.433,3.051Z" transform="translate(-145.144 -127.1)" fill="#d4336e"/>
          <path id="Trazado_820007" data-name="Trazado 820007" d="M294.139,309.547a1.778,1.778,0,0,1-.756-.159,1.853,1.853,0,0,1-.959-1.919,3.377,3.377,0,0,1,2.026-2.886,6.113,6.113,0,0,1,.67-.3,5.58,5.58,0,0,0-3.181-1.348,3.5,3.5,0,0,0-3.591,1.944.221.221,0,1,1-.4-.2,3.93,3.93,0,0,1,4.021-2.187,6.019,6.019,0,0,1,3.617,1.628,8.767,8.767,0,0,1,6.913.848.221.221,0,1,1-.242.371,8.277,8.277,0,0,0-6.33-.858,4.14,4.14,0,0,1,.82,1.429,2.7,2.7,0,0,1-.824,2.909,2.779,2.779,0,0,1-1.788.729m1.332-4.926a5.945,5.945,0,0,0-.815.353,2.973,2.973,0,0,0-1.79,2.5,1.473,1.473,0,0,0,.7,1.509,2.033,2.033,0,0,0,2.065-.5,2.254,2.254,0,0,0,.694-2.443,3.808,3.808,0,0,0-.858-1.421" transform="translate(-180.284 -168.667)" fill="#495edb"/>
          <path id="Trazado_820008" data-name="Trazado 820008" d="M368.5,259.767a5.323,5.323,0,1,1-5.323-5.323,5.323,5.323,0,0,1,5.323,5.323" transform="translate(-219.278 -141.884)" fill="#7db3db"/>
          <path id="Trazado_820009" data-name="Trazado 820009" d="M371.989,168.615a2.579,2.579,0,0,1-3.614.491l-4.01-3.048a2.58,2.58,0,0,1,3.123-4.107L371.5,165a2.58,2.58,0,0,1,.491,3.615" transform="translate(-222.339 -90.015)" fill="#ffc4c4"/>
          <path id="Trazado_820010" data-name="Trazado 820010" d="M255.022,272.613a2.579,2.579,0,0,1,3.247,1.664l1.545,4.794a2.58,2.58,0,0,1-4.911,1.582l-1.545-4.794a2.58,2.58,0,0,1,1.664-3.246" transform="translate(-160.936 -151.945)" fill="#ffc4c4"/>
          <path id="Trazado_820011" data-name="Trazado 820011" d="M236.635,179.89a3.722,3.722,0,1,1,3.722-3.722,3.726,3.726,0,0,1-3.722,3.722m0-7a3.28,3.28,0,1,0,3.28,3.28,3.284,3.284,0,0,0-3.28-3.28" transform="translate(-149.606 -96.16)" fill="#495edb"/>
          <path id="Trazado_820012" data-name="Trazado 820012" d="M282.748,139.024a8.91,8.91,0,0,1-2.432-.384.221.221,0,1,1,.121-.426c2.329.663,3.918.449,5.482-.74a12.42,12.42,0,0,0,1.369-1.216,4.481,4.481,0,0,1-1.89-1.737,3.992,3.992,0,0,1-.322-3.333,2.151,2.151,0,0,1,1.511-1.329,2.691,2.691,0,0,1,2.84,1.488c.822,1.642-.241,3.438-1.371,4.728a3.93,3.93,0,0,0,1.651.1,4.535,4.535,0,0,0,3.721-3.336.221.221,0,1,1,.427.114,4.976,4.976,0,0,1-4.084,3.659,4.369,4.369,0,0,1-2.046-.179,13.649,13.649,0,0,1-1.539,1.389,5.453,5.453,0,0,1-3.439,1.2m4.193-8.747a2.189,2.189,0,0,0-.272.017,1.7,1.7,0,0,0-1.183,1.063,3.517,3.517,0,0,0,.289,2.935,4.014,4.014,0,0,0,1.833,1.625c1.182-1.319,2.114-2.994,1.414-4.392a2.217,2.217,0,0,0-2.081-1.247" transform="translate(-175.949 -72.401)" fill="#f2ac30"/>
          <path id="Trazado_820013" data-name="Trazado 820013" d="M402.881,223.431a36.628,36.628,0,0,0-1.742-6.664c-.491-1.272-.135-2.067-2.039-3.173s-4.238-3.071-4.668-3.255-1.105-2.825-3.624-.491-5.281,2.518-5.957.307c-1.29-.245-2.027-1.289-1.659-2.027s3.317-2.764,3.317-2.764c-1.474.8-4.054.982-4.422-.123s.86-1.966,2.948-2.58,10.442-4.361,12.713-2.948,5.9,4.483,8.476,6.2,3.5,4.483,4.729,7.738,2.211,6.695,2.211,6.695-3.222,5.66-10.284,3.08" transform="translate(-232.753 -111.189)" fill="#ffd4d4"/>
          <path id="Trazado_820014" data-name="Trazado 820014" d="M386.046,220.723a1.71,1.71,0,0,1-1.48-.8.221.221,0,1,1,.365-.251c.8,1.167,2.179.473,3.636-.41l.293-.176c.111-.058.214-.109.316-.159a3.967,3.967,0,0,0,.989-.611.221.221,0,1,1,.3.322,4.339,4.339,0,0,1-1.1.686c-.1.049-.2.1-.3.15l-.279.168a5.968,5.968,0,0,1-2.75,1.087" transform="translate(-234.149 -121.702)"/>
          <path id="Trazado_820015" data-name="Trazado 820015" d="M384.672,212.368a2.919,2.919,0,0,1-.753-.1.221.221,0,1,1,.112-.428,3.9,3.9,0,0,0,1.73-.053c.141-.026.284-.051.43-.075a9.217,9.217,0,0,0,1.465-.476c.111-.057.226-.109.341-.161s.22-.1.34-.16c.082-.042.164-.092.248-.144a2.3,2.3,0,0,1,.568-.28.221.221,0,1,1,.122.425,1.955,1.955,0,0,0-.458.232c-.1.059-.188.116-.282.163-.125.063-.24.115-.355.168s-.22.1-.341.16a9.635,9.635,0,0,1-1.565.509c-.158.025-.3.05-.435.076a6.547,6.547,0,0,1-1.169.14" transform="translate(-233.718 -117.372)"/>
          <path id="Trazado_820016" data-name="Trazado 820016" d="M402.728,195.38a1.9,1.9,0,0,1,.53,2.622l-5.1,7.674a1.9,1.9,0,0,1-2.621.53l-7.674-5.1a1.9,1.9,0,0,1-.53-2.622l5.1-7.673a1.9,1.9,0,0,1,2.621-.53Z" transform="translate(-235.541 -105.933)" fill="#495edb"/>
          <path id="Trazado_820017" data-name="Trazado 820017" d="M502.262,152.208c-11.381.6-9.419,9.988-8.51,13.056.832,2.807-3.033,5.149-1.06,8.616s5.453,5.344,10.858,5.591c0,0-.268,6.02-.513,7.984l11.3-.737c-.474-3.482-1.494-10.7-.1-13.389.566-1.093,3.983,3.5,7.615-2.088s-8.208-19.635-19.589-19.032" transform="translate(-294.148 -84.864)" fill="#ffd4d4"/>
          <path id="Trazado_820018" data-name="Trazado 820018" d="M517.651,209.874a.221.221,0,0,1-.013-.442,14.24,14.24,0,0,0,7.751-2.976.221.221,0,0,1,.276.346,14.694,14.694,0,0,1-8,3.071h-.013" transform="translate(-308.259 -115.098)"/>
          <path id="Trazado_820019" data-name="Trazado 820019" d="M518.065,184.709c1.131-.057,1.679,2.157.58,2.3s-1.508-2.251-.58-2.3" transform="translate(-308.327 -102.997)"/>
          <path id="Trazado_820020" data-name="Trazado 820020" d="M517.484,184.369a.218.218,0,0,1-.091-.019l-.068-.031a2.935,2.935,0,0,1-1.064-.648.221.221,0,0,1,.341-.282,2.783,2.783,0,0,0,.9.526l.068.031a.221.221,0,0,1-.091.423" transform="translate(-307.579 -102.217)"/>
          <path id="Trazado_820021" data-name="Trazado 820021" d="M499.068,182.22c1.132-.016,1.6,2.216.5,2.316s-1.426-2.3-.5-2.316" transform="translate(-297.716 -101.61)"/>
          <path id="Trazado_820022" data-name="Trazado 820022" d="M498.535,181.844a.226.226,0,0,1-.1-.023l-.074-.037a2.9,2.9,0,0,1-1.031-.683.221.221,0,0,1,.351-.269,2.763,2.763,0,0,0,.876.555l.075.037a.221.221,0,0,1-.1.419" transform="translate(-297.026 -100.788)"/>
          <path id="Trazado_820023" data-name="Trazado 820023" d="M504.729,186.01a2.876,2.876,0,0,1-2.065-.639c-.782-.7-.321-1.549-.016-2.111a5.875,5.875,0,0,0,.881-2.8,2.6,2.6,0,0,0-.821-1.817l-.2-.247a.221.221,0,1,1,.345-.277l.2.243a3.02,3.02,0,0,1,.922,2.089,6.271,6.271,0,0,1-.935,3.021c-.362.667-.563,1.136-.078,1.57a2.964,2.964,0,0,0,2.225.519c.126,0,.252-.006.378-.007h0a.221.221,0,0,1,0,.442c-.123,0-.247,0-.37.007-.155,0-.311.008-.466.008" transform="translate(-299.784 -99.276)"/>
          <path id="Trazado_820024" data-name="Trazado 820024" d="M508.449,199.212c-.664,0-1.269-.582-1.8-1.73a.222.222,0,0,1,.022-.223.226.226,0,0,1,.2-.09,6.281,6.281,0,0,0,3.587-1.466.221.221,0,0,1,.38.192c-.276,1.377-1.2,3.316-2.394,3.316M507.2,197.6c.4.764.83,1.165,1.246,1.165.743,0,1.435-1.191,1.79-2.306A7.784,7.784,0,0,1,507.2,197.6" transform="translate(-302.236 -109.088)"/>
          <path id="Trazado_820025" data-name="Trazado 820025" d="M514.758,176.747c-.306-.768.443-1.634,1.825-1.051a5.611,5.611,0,0,1,2.529,2.342c.491.921-.093.384-.677-.075a4.025,4.025,0,0,0-2.82-.968c-.506.011-.795.058-.857-.249" transform="translate(-306.731 -97.865)" fill="#d4336e"/>
          <path id="Trazado_820026" data-name="Trazado 820026" d="M518.971,178.493c-.167,0-.354-.145-.762-.472l-.194-.155a3.776,3.776,0,0,0-2.566-.921l-.273.006c-.081,0-.155,0-.223,0-.2,0-.607,0-.695-.435a1.056,1.056,0,0,1,.111-.99,1.608,1.608,0,0,1,2.016-.309,5.792,5.792,0,0,1,2.638,2.442c.212.4.253.567.171.7a.3.3,0,0,1-.224.125m-3.522-1.99a4.229,4.229,0,0,1,2.84,1.017l.2.157.069.055a5.425,5.425,0,0,0-2.341-2.1c-.656-.276-1.236-.208-1.479.15a.649.649,0,0,0-.054.615c.021.089.027.119.273.119.064,0,.134,0,.21,0Z" transform="translate(-306.448 -97.595)" fill="#d4336e"/>
          <path id="Trazado_820027" data-name="Trazado 820027" d="M486.993,139.507c.983-1.678,4.914-5.9,10.4-8.231,0,5.16,2.742,13.185,9.09,13.389-.2,2.13-.45,3.685.081,3.89s2.293-.941,2.58-3.48a3.762,3.762,0,0,1,5.978,1.474c.819,2.58-1.679,6.592-6.264,4.75-.737-.123-1.638,1.228-1.474,4.176a10.061,10.061,0,0,0,10.073-4.749,11.918,11.918,0,0,0-.493-12.325c-2.333-3.768-2.784-5.282-2.333-7.207,6.8,1.392,11.019-3.361,10.1-9.38s-6.706-9.732-13.216-8.073-8.35,9.345-1.77,13.824c-.922,1.044-3.753.025-7.315-1.632s-14.171-4.081-19.409,4.116c-5.364,8.394,2.58,13.88,4.607,13.327a11.286,11.286,0,0,1-.634-3.869" transform="translate(-288.052 -63.204)" fill="#d4336e"/>
          <path id="Trazado_820028" data-name="Trazado 820028" d="M509.482,266.086c-4.177-9.662-5.569-15.4-9.581-25.385s-11.383-9.991-15.8-10.483-5.849-2.506-6.095-5.781c-9.089,3.358-10.857-.934-11.02-.607-.779,4.832-2.293,4.832-7.535,4.094s-11.955,7.78-17.36,14.741c0,0-3.276-9.213-4.1-10.606-4.3,3.747-7.819,3.345-10.46,2.486,0,0,1.147,4.066,1.818,6.891-5.277,1.781,1.059,15.9,3.852,21.332,5.118,9.95,14.037,6.99,20.835-3.328,1.647,1.7,3.495,3.44,3.578,4.26a45.355,45.355,0,0,1-.377,7.544c-.408,2.457-2.456,9.5-2.456,9.745s2.62,6.633,2.62,6.633,25.714.492,25.633,4.176c3.93-.573,17.033.246,24.813-3.522s5.814-12.529,1.637-22.193M489.5,277.06l1.064-11.628,2.948,11.3Z" transform="translate(-258.008 -124.803)" fill="#7db3db"/>
          <path id="Trazado_820029" data-name="Trazado 820029" d="M509.375,265.7c-2.309-5.36-4.231-10.854-6.181-16.35q-1.532-4.319-3.216-8.581a19.813,19.813,0,0,0-3.9-6.432,15.207,15.207,0,0,0-9.323-4.3,28.856,28.856,0,0,1-5.31-.822c-2.338-.764-3.321-2.738-3.52-5.057a.224.224,0,0,0-.28-.213c-3.059,1.106-7.553,2.376-10.307-.134-.188-.171-.58-.743-.846-.371a5.054,5.054,0,0,0-.287,1.386,7.157,7.157,0,0,1-.461,1.355,2.589,2.589,0,0,1-1.733,1.471c-1.867.511-3.85-.307-5.725-.268a9.638,9.638,0,0,0-5.2,2.252c-4.549,3.345-8.026,8.178-11.456,12.594l.37.1q-.873-2.453-1.782-4.892a39.6,39.6,0,0,0-2.336-5.766.225.225,0,0,0-.348-.045c-3.012,2.563-6.424,3.644-10.245,2.43a.223.223,0,0,0-.272.272c.645,2.286,1.265,4.58,1.818,6.89.052-.091.1-.181.155-.272-2.925,1.075-2.278,5.1-1.786,7.464a54.227,54.227,0,0,0,4.432,12.022c1.723,3.627,3.936,7.624,8.283,8.317,4.457.711,8.523-2.723,11.248-5.815a34.112,34.112,0,0,0,2.759-3.66l-.347.045c.714.736,1.44,1.461,2.142,2.208.53.563,1.337,1.282,1.385,2.1a37.87,37.87,0,0,1-.093,4.47,44.984,44.984,0,0,1-1.8,9.006c-.295,1.093-.606,2.182-.883,3.279a2.275,2.275,0,0,0,.305,1.405c.724,1.882,1.492,3.746,2.257,5.612a.229.229,0,0,0,.213.162c4.032.078,8.068.3,12.086.64a73.371,73.371,0,0,1,8.89,1.183c.956.2,4.411.709,4.435,2.134a.226.226,0,0,0,.28.213c3.637-.5,7.4-.305,11.057-.566,4.5-.321,9.134-.918,13.3-2.741,9.479-4.148,5.286-15.615,2.226-22.732-.112-.262-.493-.036-.382.223,1.833,4.265,3.67,8.888,3.634,13.6a9.569,9.569,0,0,1-1.568,5.34,10.813,10.813,0,0,1-5.412,3.7c-4.219,1.575-8.848,2-13.311,2.263-3.2.189-6.479.042-9.661.483l.28.214c-.029-1.657-3.1-2.18-4.256-2.449a68.893,68.893,0,0,0-9.946-1.346c-3.1-.258-6.2-.423-9.3-.534q-1.1-.039-2.195-.065c-.317-.007.125.317-.023-.043q-.389-.952-.776-1.905-.644-1.586-1.271-3.178c-.184-.47-.533-1.089-.433-1.5.563-2.288,1.242-4.546,1.812-6.833a35.889,35.889,0,0,0,.991-7.948,6.376,6.376,0,0,0-.141-2.719c-.785-1.549-2.332-2.773-3.522-4a.224.224,0,0,0-.347.045c-2.636,3.958-6.334,8.33-11.274,9.232-4.76.868-7.817-3.149-9.689-6.916a66.151,66.151,0,0,1-4.456-11.1c-.66-2.3-2.226-7.721.982-8.9a.227.227,0,0,0,.154-.273c-.553-2.31-1.174-4.6-1.818-6.89l-.272.272c3.981,1.265,7.542.123,10.675-2.543l-.347-.045a40.4,40.4,0,0,1,2.374,5.883q.865,2.328,1.7,4.67c.049.138.259.241.37.1,3.478-4.479,6.995-9.311,11.607-12.7a8.217,8.217,0,0,1,6.161-1.9c1.548.212,3.355.57,4.866-.015,1.243-.481,1.746-1.8,2.054-2.988.109-.423.345-.916,0-1.205.07.059.132.129.2.195a5.98,5.98,0,0,0,.737.628c2.89,2.1,7.192.9,10.2-.189l-.28-.214a6.319,6.319,0,0,0,1.86,4.387c1.417,1.271,3.452,1.519,5.266,1.7,3.7.368,7.263,1.043,10.2,3.5a17.053,17.053,0,0,1,4.581,6.735c1.214,2.959,2.307,5.97,3.378,8.983,1.967,5.531,3.9,11.06,6.226,16.455.112.261.493.036.382-.223" transform="translate(-257.709 -124.529)" fill="#7db3db"/>
          <path id="Trazado_820030" data-name="Trazado 820030" d="M567.83,329.247l1.064-11.628-.434.059,2.948,11.3.213-.28-4.012.327c-.282.023-.285.466,0,.442l4.012-.327a.225.225,0,0,0,.214-.28q-1.474-5.651-2.948-11.3a.223.223,0,0,0-.435.059l-1.064,11.628c-.026.284.416.282.442,0" transform="translate(-336.116 -176.99)" fill="#7db3db"/>
          <path id="Trazado_820031" data-name="Trazado 820031" d="M456.262,351.334c1.8-1.72,6.142-4.75,7.207-3.194a3.752,3.752,0,0,1,2.784-.9c1.228-1.31,2.7-1.639,4.176.082s5.9,5.4,6.633,6.142,6.47.573,19.327-2.211c2.62,1.065,2.761,8.479,2.761,8.479-4.773.3-39.93.135-39.93.135Z" transform="translate(-274.15 -193.017)" fill="#ffd4d4"/>
          <path id="Trazado_820032" data-name="Trazado 820032" d="M478.685,356.871a.222.222,0,0,1-.158-.066l-.06-.062a.215.215,0,0,1-.054-.09,3.9,3.9,0,0,1-.423-.963c-.115-.229-.222-.458-.328-.686s-.216-.464-.341-.712c-.269-.417-.522-.889-.765-1.346-.191-.36-.388-.729-.6-1.078-.317.37-.656.727-.987,1.074a19.4,19.4,0,0,0-1.391,1.57l-.079.106c-.547.737-1.567,2.106-2.848,1.364a1.35,1.35,0,0,1-.7-.841,2.9,2.9,0,0,1,.434-2.041c.314-.5.66-.99.994-1.462s.671-.946.975-1.431c.165-.248.312-.5.46-.758a7.035,7.035,0,0,1,1.045-1.492.221.221,0,0,1,.313.313,6.618,6.618,0,0,0-.975,1.4c-.153.263-.305.526-.472.776-.307.491-.652.977-.985,1.447s-.673.948-.977,1.434a2.534,2.534,0,0,0-.387,1.691.917.917,0,0,0,.487.576c.878.508,1.578-.3,2.279-1.24l.081-.109a19.74,19.74,0,0,1,1.423-1.608c.413-.434.8-.844,1.163-1.286a.219.219,0,0,1,.183-.081.222.222,0,0,1,.174.1c.281.438.533.91.777,1.367s.487.914.759,1.336c.138.272.248.507.358.744s.21.45.33.69a.373.373,0,0,1,.016.043,3.05,3.05,0,0,0,.449.962.222.222,0,0,1-.173.359" transform="translate(-281.751 -193.992)"/>
          <path id="Trazado_820033" data-name="Trazado 820033" d="M462.129,356.451a1.778,1.778,0,0,1-1.419-.634c-.81-1.131.365-2.306.751-2.692a21.257,21.257,0,0,1,4.409-2.984.221.221,0,1,1,.216.386,20.92,20.92,0,0,0-4.316,2.915c-.88.88-1.107,1.551-.709,2.107a1.644,1.644,0,0,0,1.994.238,9.326,9.326,0,0,0,1.85-1.252l.292.333a9.7,9.7,0,0,1-1.951,1.318,2.538,2.538,0,0,1-1.115.266" transform="translate(-276.475 -195.231)"/>
          <path id="Trazado_820034" data-name="Trazado 820034" d="M457.835,362.97a.221.221,0,0,1-.031-.44,2.535,2.535,0,0,0,1.226-.552.221.221,0,0,1,.313.313,2.951,2.951,0,0,1-1.477.677l-.031,0" transform="translate(-274.904 -201.811)"/>
          <path id="Trazado_820035" data-name="Trazado 820035" d="M486.211,284.352a.221.221,0,0,1-.151-.06,8.718,8.718,0,0,1-1.975-3.16c-1.3-4.064-.257-8.29,1.061-12.252.072-.215-.28-.61-.513-.87-.091-.1-.177-.2-.243-.285-.233-.395-.449-.766-.664-1.137a.221.221,0,1,1,.383-.222q.323.557.648,1.112c.045.056.124.144.208.237.336.377.755.847.6,1.305-1.3,3.891-2.32,8.035-1.06,11.978a8.361,8.361,0,0,0,1.855,2.971.221.221,0,0,1-.151.383" transform="translate(-289.333 -148.47)"/>
          <path id="Trazado_820036" data-name="Trazado 820036" d="M432.777,260.834a4.168,4.168,0,0,1-2.167-.447.221.221,0,1,1,.243-.37c1.328.875,6,.324,9.743-2.228a.221.221,0,0,1,.25.365,15.2,15.2,0,0,1-8.069,2.679" transform="translate(-259.79 -143.728)"/>
          <path id="Trazado_820037" data-name="Trazado 820037" d="M462.129,270.953a.222.222,0,0,1-.217-.18,28.007,28.007,0,0,0-1.91-6.118.221.221,0,1,1,.411-.163,28.364,28.364,0,0,1,1.933,6.2.221.221,0,0,1-.176.259.231.231,0,0,1-.042,0" transform="translate(-276.227 -147.409)"/>
          <path id="Trazado_820038" data-name="Trazado 820038" d="M567.605,310.789a.222.222,0,0,1-.213-.16c-.345-1.2-.714-2.574-1.1-4.03-.78-2.911-1.665-6.211-2.6-8.963-1.35-3.967-2.431-8.008-3.605-12.5a.221.221,0,0,1,.158-.27.219.219,0,0,1,.269.158c1.171,4.484,2.251,8.517,3.6,12.47.941,2.766,1.827,6.073,2.61,8.991.39,1.454.758,2.827,1.1,4.022a.221.221,0,0,1-.151.274.212.212,0,0,1-.062.009" transform="translate(-332.038 -158.843)"/>
          <path id="Trazado_820039" data-name="Trazado 820039" d="M546.258,349.261a.217.217,0,0,1-.154-.064.27.27,0,0,1-.065-.266.285.285,0,0,1,.244-.143.164.164,0,0,0,.062-.007.25.25,0,0,1,.046-.017c.1-.024.195-.06.3-.1a3.646,3.646,0,0,1,.51-.153,6.759,6.759,0,0,0,.977-.234l.234-.068c.208-.036.391-.052.567-.068l.223-.021-.037-.084a2.86,2.86,0,0,1-.357-1.681,3.338,3.338,0,0,1,1.574-2.051,9.621,9.621,0,0,1,3.713-1.085c.245-.037.488-.073.729-.114a29.44,29.44,0,0,1,3.107-.277c.506-.027,1.013-.054,1.519-.094,1.208-.061,2.451-.124,3.7-.124h2.7a.221.221,0,0,1,0,.442h-2.7c-1.241,0-2.477.062-3.673.123-.5.04-1.014.067-1.524.094a29.069,29.069,0,0,0-3.059.272c-.241.04-.487.077-.734.115a9.3,9.3,0,0,0-3.544,1.021,2.914,2.914,0,0,0-1.373,1.75,2.5,2.5,0,0,0,.326,1.431c.053.119.1.238.152.357a.221.221,0,0,1-.162.3,5,5,0,0,1-.543.067c-.166.014-.336.029-.508.058l-.207.061a7.024,7.024,0,0,1-1.027.246,3.194,3.194,0,0,0-.437.134c-.109.038-.213.075-.317.1a.509.509,0,0,1-.14.038.222.222,0,0,1-.12.035" transform="translate(-324.205 -191.05)"/>
          <path id="Trazado_820040" data-name="Trazado 820040" d="M557.025,363.857a.221.221,0,0,1-.221-.221,13.05,13.05,0,0,0-.784-4.59l-.108-.3a8.351,8.351,0,0,0-.974-2.105,5.1,5.1,0,0,0-1.827-1.529.221.221,0,1,1,.212-.388,5.517,5.517,0,0,1,1.984,1.672,8.712,8.712,0,0,1,1.022,2.2l.105.3a13.409,13.409,0,0,1,.811,4.6s0,.011,0,.016v.123a.221.221,0,0,1-.221.221" transform="translate(-328.091 -197.785)"/>
          <path id="Trazado_820041" data-name="Trazado 820041" d="M505.874,295.414h-.013a.221.221,0,0,1-.208-.233,23.427,23.427,0,0,1,1.127-4.152,17.923,17.923,0,0,0,.761-2.327c.095-.34.19-.683.3-1.029a39.8,39.8,0,0,0,1.79-7.814,12.486,12.486,0,0,0,.245-2.435,6.946,6.946,0,0,0-.479-2.222c-.149-.471-.3-.937-.459-1.406-.36-1.085-.732-2.207-1.021-3.361a23.326,23.326,0,0,1-.824-4.782,8.5,8.5,0,0,1,.093-1.892c.026-.2.051-.406.071-.609l.02-.206c.078-.783.159-1.592.31-2.353.127-.424.227-.828.328-1.232s.208-.829.333-1.246a17.83,17.83,0,0,1,.615-1.783c.1-.247.192-.5.29-.767.273-.865.518-1.746.777-2.679.2-.709.4-1.425.611-2.141.077-.392.182-.809.283-1.212s.2-.819.286-1.225c.052-.187.093-.348.134-.507a7.388,7.388,0,0,1,.371-1.175.221.221,0,0,1,.406.174,7.054,7.054,0,0,0-.348,1.109c-.042.163-.084.329-.133.5-.079.4-.184.822-.287,1.229s-.2.81-.283,1.212c-.219.733-.417,1.446-.613,2.152-.249.9-.506,1.821-.785,2.7-.1.279-.2.534-.3.784a17.581,17.581,0,0,0-.6,1.747c-.124.412-.228.828-.329,1.231s-.206.821-.329,1.231c-.142.72-.222,1.518-.3,2.29l-.021.207c-.02.207-.046.413-.072.619a8.035,8.035,0,0,0-.092,1.793,23.036,23.036,0,0,0,.81,4.706c.288,1.15.658,2.264,1.015,3.341.156.471.312.94.46,1.408a7.368,7.368,0,0,1,.5,2.36,12.783,12.783,0,0,1-.25,2.5,40.114,40.114,0,0,1-1.8,7.878c-.1.342-.2.682-.292,1.019a18.725,18.725,0,0,1-.78,2.383,23.22,23.22,0,0,0-1.092,4,.221.221,0,0,1-.221.208" transform="translate(-301.692 -137.449)"/>
          <path id="Trazado_820042" data-name="Trazado 820042" d="M521.054,236.969a2.136,2.136,0,0,1-1.751-1.038,7.255,7.255,0,0,1-1.215-3.592c-.038-.253-.077-.511-.121-.768-.339.577-.684,1.15-1.063,1.717l-.1.157c-.53.8-1.518,2.3-2.633,2.441a1.412,1.412,0,0,1-1.158-.408,3.236,3.236,0,0,1-.759-2.875l.011-.188a.221.221,0,1,1,.441.026l-.011.189a2.862,2.862,0,0,0,.617,2.522.976.976,0,0,0,.8.294c.912-.114,1.862-1.553,2.318-2.245l.105-.159c.481-.722.911-1.458,1.327-2.169a.247.247,0,0,1,.234-.123.217.217,0,0,1,.191.156c.1.453.17.918.237,1.368a6.832,6.832,0,0,0,1.134,3.4,1.625,1.625,0,0,0,2.016.729,14.745,14.745,0,0,0,2.608-1.211,8.569,8.569,0,0,0,2.095-1.8.221.221,0,0,1,.34.284,9.017,9.017,0,0,1-2.2,1.889,15.126,15.126,0,0,1-2.683,1.248,2.086,2.086,0,0,1-.777.157" transform="translate(-305.353 -128.67)"/>
          <path id="Trazado_820043" data-name="Trazado 820043" d="M522.213,243.265a.9.9,0,0,1-.161-.015.742.742,0,0,1-.605-.609,1.113,1.113,0,0,1,.385-1.156,1.063,1.063,0,0,1,1.167-.065.221.221,0,0,1,.109.246.793.793,0,0,1,.113.249,1.1,1.1,0,0,1-.151.876,1.031,1.031,0,0,1-.856.473m.239-1.545a.58.58,0,0,0-.354.119.671.671,0,0,0-.219.71.3.3,0,0,0,.252.267.593.593,0,0,0,.574-.273.666.666,0,0,0,.089-.512.3.3,0,0,0-.172-.211.221.221,0,0,1-.106-.1.609.609,0,0,0-.063,0" transform="translate(-310.48 -134.542)"/>
          <path id="Trazado_820044" data-name="Trazado 820044" d="M517.439,269.139a.949.949,0,0,1-.63-.275,1.066,1.066,0,0,1-.313-.85,1.436,1.436,0,0,1,.572-1.029.734.734,0,0,1,.851-.044.244.244,0,0,1,.1.075.594.594,0,0,1,.408.525,1.6,1.6,0,0,1-.63,1.5.745.745,0,0,1-.358.094m.048-1.871a.256.256,0,0,0-.154.072,1,1,0,0,0-.4.705.621.621,0,0,0,.174.5c.263.231.421.145.472.116a1.184,1.184,0,0,0,.407-1.044c-.006-.037-.031-.16-.092-.171a.221.221,0,0,1-.14-.088h0a.877.877,0,0,0-.267-.084" transform="translate(-307.736 -148.788)"/>
          <path id="Trazado_820045" data-name="Trazado 820045" d="M515.627,296.667a.771.771,0,0,1-.6-.333,1.493,1.493,0,0,1-.233-1.069.855.855,0,0,1,.342-.607.222.222,0,0,1,.21-.019.211.211,0,0,1,.232-.2.886.886,0,0,1,.862.753,1.36,1.36,0,0,1-.557,1.419.6.6,0,0,1-.259.058m-.144-1.806a.221.221,0,0,1-.1.165.44.44,0,0,0-.15.307,1.06,1.06,0,0,0,.139.722c.12.146.227.2.322.154a.967.967,0,0,0,.314-.933.441.441,0,0,0-.45-.4.234.234,0,0,1-.077-.017" transform="translate(-306.782 -164.184)"/>
          <path id="Trazado_820046" data-name="Trazado 820046" d="M517.436,336.459a.575.575,0,0,1-.315-.093,1.447,1.447,0,0,1-.394-1.4,2.434,2.434,0,0,0,.239-.333.385.385,0,0,0,.112-.114.867.867,0,0,1,.078-.092.2.2,0,0,1,.057-.041.788.788,0,0,1,.931.225,1.171,1.171,0,0,1-.138,1.616.946.946,0,0,1-.57.232m-.273-1.432a.23.23,0,0,1,0,.033c-.069.311.012.813.2.933.1.067.258-.025.371-.111a.732.732,0,0,0,.087-.974.393.393,0,0,0-.372-.141l-.015.02a.783.783,0,0,1-.263.239h0" transform="translate(-307.847 -186.42)"/>
          <path id="Trazado_820047" data-name="Trazado 820047" d="M423.918,212.821a20.072,20.072,0,0,0-4.954-3.031c-1.632-.8-3.809.7-1.475,3.194s6.716,3.726,6.716,3.726" transform="translate(-251.96 -116.863)" fill="#ffd4d4"/>
          <path id="Trazado_820048" data-name="Trazado 820048" d="M423.923,216.651a.216.216,0,0,1-.06-.008c-.181-.051-4.468-1.274-6.818-3.787-1.548-1.656-1.064-2.714-.785-3.091a2.036,2.036,0,0,1,2.518-.453,20.2,20.2,0,0,1,5.021,3.08.221.221,0,1,1-.326.3,20.479,20.479,0,0,0-4.888-2.981,1.613,1.613,0,0,0-1.969.318c-.445.6-.164,1.545.752,2.526,2.266,2.425,6.571,3.652,6.614,3.664a.221.221,0,0,1-.06.434" transform="translate(-251.679 -116.583)"/>
          <path id="Trazado_820049" data-name="Trazado 820049" d="M426.788,337.44H409.325L402.3,316.916a5.162,5.162,0,0,0-4.554-3.254H367.923a2.309,2.309,0,0,0-2.325,3.254l7.239,21.143c.792,2.053.885,3.742,2.943,3.742h51.008a2.18,2.18,0,0,0,0-4.361" transform="translate(-223.496 -174.905)" fill="#f2ac30"/>
          <path id="Trazado_820050" data-name="Trazado 820050" d="M426.542,336.847H409.253c-.342,0,.087.3-.007.029l-.8-2.33-3.238-9.456-2.717-7.937a5.532,5.532,0,0,0-5.206-4.084H371.125c-1.5,0-3.517-.31-4.922.345-2.256,1.052-.8,3.959-.236,5.606l3.22,9.4,2.848,8.32c.652,1.9,1.033,4.906,3.531,4.906h50.965c3.128,0,3.079-4.6.011-4.8-.285-.019-.283.423,0,.442a1.962,1.962,0,1,1-.211,3.918H375.614c-1.963,0-2.3-2.087-2.814-3.59l-.6-1.754q-3.055-8.925-6.111-17.85l-.523-1.528c-.66-1.929.792-2.974,2.518-2.974h26.536c2.528,0,4.9-.248,6.679,2.068a7.781,7.781,0,0,1,.961,2.249l1.256,3.669q2.675,7.814,5.351,15.629a.226.226,0,0,0,.213.162h17.463a.221.221,0,0,0,0-.442" transform="translate(-223.251 -174.534)" fill="#f2ac30"/>
          <path id="Trazado_820051" data-name="Trazado 820051" d="M417.188,369.044H382.505a.221.221,0,1,1,0-.442h34.682a.221.221,0,0,1,0,.442" transform="translate(-232.898 -205.541)"/>
          <path id="Trazado_820052" data-name="Trazado 820052" d="M409.24,344.462c-1.514,0-3.179-1.5-3.712-3.346a3.075,3.075,0,0,1,.305-2.71,1.907,1.907,0,0,1,1.566-.758c1.515,0,3.179,1.5,3.711,3.346a3.076,3.076,0,0,1-.306,2.71,1.905,1.905,0,0,1-1.565.758m-1.84-6.371a1.457,1.457,0,0,0-1.213.581,2.648,2.648,0,0,0-.234,2.322c.482,1.669,1.956,3.026,3.287,3.026a1.455,1.455,0,0,0,1.212-.581,2.646,2.646,0,0,0,.234-2.321c-.481-1.669-1.955-3.026-3.286-3.026" transform="translate(-245.765 -188.281)"/>
          <path id="Trazado_820053" data-name="Trazado 820053" d="M498.479,175.812c-1.047-1.274-2.606-2.38-3.236-2.076s-.767,1.265-.323,1.464.605-.612,2.066.025c1.28.557,1.6.817,1.494.587" transform="translate(-295.562 -96.851)" fill="#d4336e"/>
          <path id="Trazado_820054" data-name="Trazado 820054" d="M498.193,175.839h0a1.471,1.471,0,0,1-.529-.206c-.236-.114-.576-.279-1.045-.483a2.341,2.341,0,0,0-.9-.23,1.164,1.164,0,0,0-.545.142.734.734,0,0,1-.624.063.726.726,0,0,1-.389-.691,1.318,1.318,0,0,1,.707-1.175.791.791,0,0,1,.345-.073c.873,0,2.279,1.137,3.159,2.207a.248.248,0,0,1,.031.048.3.3,0,0,1,0,.287.273.273,0,0,1-.209.111m-2.474-1.362a2.727,2.727,0,0,1,1.076.267c.257.112.476.212.661.3a4.4,4.4,0,0,0-2.243-1.415.355.355,0,0,0-.152.029.871.871,0,0,0-.457.771c0,.055.012.241.129.293a.119.119,0,0,0,.053.013.62.62,0,0,0,.2-.073,1.592,1.592,0,0,1,.733-.184" transform="translate(-295.284 -96.572)" fill="#d4336e"/>
          <path id="Trazado_820055" data-name="Trazado 820055" d="M549.558,143.222a.221.221,0,0,1-.195-.116,11.878,11.878,0,0,1-1.013-2.311,7.383,7.383,0,0,1-.507-2.494,1.4,1.4,0,0,1,.667-1.3,1.082,1.082,0,0,1,1.178.177c1.92,1.472.923,4.541.405,5.793a.22.22,0,0,1-.289.119.228.228,0,0,1-.038-.02.222.222,0,0,1-.1.122.227.227,0,0,1-.105.026m-.623-5.876a.489.489,0,0,0-.224.054.987.987,0,0,0-.425.9,7.024,7.024,0,0,0,.485,2.359,11.125,11.125,0,0,0,.923,2.126c.481-1.169,1.394-3.974-.27-5.25a.867.867,0,0,0-.489-.19" transform="translate(-325.218 -76.341)"/>
          <path id="Trazado_820056" data-name="Trazado 820056" d="M556.25,151.086a6.311,6.311,0,0,1-2.28-.616l-.3-.123c-.777-.333-1.619-.67-2.433-1a.221.221,0,0,1,.082-.426h.007a.22.22,0,0,1,.126-.147l.449-.2a12.279,12.279,0,0,1,2.356-.865c1.149-.229,2.721-.062,3.394,1.16a1.437,1.437,0,0,1-1.232,2.207c-.055,0-.11,0-.165,0M551.8,149.1c.687.276,1.383.557,2.032.835l.3.123a5.4,5.4,0,0,0,2.251.579,1,1,0,0,0,.869-1.556,2.668,2.668,0,0,0-2.913-.937,11.937,11.937,0,0,0-2.267.835Z" transform="translate(-327.031 -82.319)"/>
          <path id="Trazado_820057" data-name="Trazado 820057" d="M550.763,150a.221.221,0,0,1-.133-.044c-.2-.15-.389-.322-.573-.488a6.5,6.5,0,0,0-.744-.611,10.626,10.626,0,0,1-.971-.68c-.186-.141-.376-.284-.582-.428a28.521,28.521,0,0,1-2.352-2.181.221.221,0,0,1,.313-.313,27.981,27.981,0,0,0,2.3,2.14c.2.139.393.286.584.43a10.554,10.554,0,0,0,.94.659,6.848,6.848,0,0,1,.806.657c.12.109.237.215.354.313a.227.227,0,0,1,.275.215v.111a.222.222,0,0,1-.122.2.225.225,0,0,1-.1.023" transform="translate(-323.824 -80.959)"/>
          <path id="Trazado_820058" data-name="Trazado 820058" d="M199.858,341.956H188.183a.222.222,0,0,1-.216-.175l-5.5-25.529a2.22,2.22,0,0,1,.31-1.888,1.991,1.991,0,0,1,2.254-.435l30.547,9.827a1.843,1.843,0,0,1,.729,3.384l-16.3,14.759a.221.221,0,0,1-.148.057m-11.5-.442h11.411l16.234-14.7a1.412,1.412,0,0,0-.568-2.634l-30.547-9.827a1.581,1.581,0,0,0-1.775.291,1.8,1.8,0,0,0-.221,1.517Z" transform="translate(-121.432 -174.969)" fill="#ffd4d4"/>
          <path id="Trazado_820059" data-name="Trazado 820059" d="M192.764,24.238h-.057a4.6,4.6,0,0,1-3.752-2.741,8.743,8.743,0,0,1,.171-7.871,10.621,10.621,0,0,0-4.63.573c-3.343,1.238-4.955,3.974-4.312,7.32a.221.221,0,0,1-.434.083c-.688-3.575,1.029-6.5,4.593-7.818a11.069,11.069,0,0,1,5-.575,10.335,10.335,0,0,1,1.369-1.944c2.665-2.982,6.466-3.767,10.426-2.153a.221.221,0,0,1-.167.41c-3.778-1.538-7.4-.8-9.929,2.038a9.938,9.938,0,0,0-1.229,1.713,7.451,7.451,0,0,1,5.483,3.416c1.2,2.094,1.343,4.207.4,5.8a3.415,3.415,0,0,1-2.931,1.753M189.591,13.68a8.326,8.326,0,0,0-.248,7.6c.871,1.6,2.068,2.488,3.371,2.511a3,3,0,0,0,2.6-1.535c.858-1.449.711-3.4-.4-5.351a7.068,7.068,0,0,0-5.318-3.228" transform="translate(-119.878 -4.622)" fill="#f2ac30"/>
          <path id="Trazado_820060" data-name="Trazado 820060" d="M12.519,173.712a6.274,6.274,0,0,1-2.761-.689.221.221,0,1,1,.194-.4,4.975,4.975,0,0,0,6.008-.837,7.37,7.37,0,0,0,1.431-1.98,5.067,5.067,0,0,1-3.654-2.755,4.969,4.969,0,0,1-.006-4.955,2.2,2.2,0,0,1,2.008-1.035,3.288,3.288,0,0,1,2.457,2.222,8,8,0,0,1-.167,6.18,6.136,6.136,0,0,0,2.473-.22,4.967,4.967,0,0,0,3.475-5.9.221.221,0,0,1,.438-.067,5.387,5.387,0,0,1-3.783,6.392,6.59,6.59,0,0,1-2.792.218,7.826,7.826,0,0,1-1.573,2.219,5.3,5.3,0,0,1-3.75,1.605M15.56,161.5a1.812,1.812,0,0,0-1.466.854,4.535,4.535,0,0,0,.044,4.512,4.655,4.655,0,0,0,3.447,2.534,7.565,7.565,0,0,0,.21-5.929c-.54-1.192-1.284-1.889-2.1-1.964-.046,0-.093-.007-.14-.007" transform="translate(-9.634 -100.06)" fill="#ffd4d4"/>
          <path id="Trazado_820061" data-name="Trazado 820061" d="M617.195,244.79a.223.223,0,0,1-.1-.024c-3.027-1.553-4.189-4.5-3.108-7.88a10.32,10.32,0,0,1,2.445-4,9.627,9.627,0,0,1-.638-2.114c-.66-3.676.949-6.923,4.415-8.907a.221.221,0,0,1,.219.384,7.814,7.814,0,0,0-4.2,8.445,9.257,9.257,0,0,0,.542,1.862,6.955,6.955,0,0,1,5.652-2.053c2.23.326,3.869,1.435,4.5,3.044a3.193,3.193,0,0,1-.432,3.214,4.3,4.3,0,0,1-4.181,1.184,8.155,8.155,0,0,1-5.681-4.634,9.881,9.881,0,0,0-2.219,3.706c-1.009,3.158.071,5.906,2.889,7.351a.221.221,0,0,1-.1.418m-.238-11.807a7.74,7.74,0,0,0,5.424,4.53,3.826,3.826,0,0,0,3.765-1.027,2.759,2.759,0,0,0,.364-2.775c-.569-1.457-2.081-2.465-4.149-2.767a6.563,6.563,0,0,0-5.4,2.038" transform="translate(-383.585 -174.819)" fill="#f2ac30"/>
          <path id="Trazado_820062" data-name="Trazado 820062" d="M553.647,67.537a2.484,2.484,0,0,1-2.058-1.085l-4.434-6.528a2.49,2.49,0,0,1,.658-3.447l6.529-4.435a2.489,2.489,0,0,1,3.447.66l4.434,6.527a2.487,2.487,0,0,1-.659,3.448l-6.527,4.433a2.465,2.465,0,0,1-1.39.426m2.082-15.478a2.021,2.021,0,0,0-1.139.349l-6.529,4.435a2.045,2.045,0,0,0-.541,2.833l4.434,6.528a2.046,2.046,0,0,0,2.833.541l6.527-4.433a2.043,2.043,0,0,0,.542-2.833l-4.434-6.527a2.041,2.041,0,0,0-1.693-.892" transform="translate(-324.596 -28.783)" fill="#ffd4d4"/>
          <path id="Trazado_820063" data-name="Trazado 820063" d="M505.029,33.841A2.969,2.969,0,1,1,508,30.872a2.973,2.973,0,0,1-2.97,2.969m0-5.5a2.527,2.527,0,1,0,2.527,2.528,2.53,2.53,0,0,0-2.527-2.528" transform="translate(-299.688 -15.559)" fill="#7db3db"/>
          <path id="Trazado_820064" data-name="Trazado 820064" d="M52.369,100.17a2.123,2.123,0,1,1-2.123-2.123,2.124,2.124,0,0,1,2.123,2.123" transform="translate(-46.562 -54.673)" fill="#7db3db"/>
          <path id="Trazado_820065" data-name="Trazado 820065" d="M63.292,90.544a2.123,2.123,0,1,1-2.123-2.124,2.124,2.124,0,0,1,2.123,2.124" transform="translate(-52.654 -49.305)" fill="#7db3db"/>
          <path id="Trazado_820066" data-name="Trazado 820066" d="M65.142,104.614a2.124,2.124,0,1,1-2.124-2.124,2.122,2.122,0,0,1,2.124,2.124" transform="translate(-53.685 -57.151)" fill="#7db3db"/>
          <path id="Trazado_820067" data-name="Trazado 820067" d="M351.381,355.691a2.345,2.345,0,0,1-2.2-3.151,2.343,2.343,0,1,1,2.2,3.151m0-4.248a1.9,1.9,0,1,0,1.727,1.1,1.893,1.893,0,0,0-1.727-1.1" transform="translate(-214.357 -195.726)" fill="#7db3db"/>
          <path id="Trazado_820068" data-name="Trazado 820068" d="M338.054,349.832a2.345,2.345,0,0,1-.988-4.472,2.32,2.32,0,0,1,.984-.218,2.345,2.345,0,0,1,.987,4.472,2.318,2.318,0,0,1-.983.218m0-4.248a1.9,1.9,0,0,0-1.724,2.7,1.912,1.912,0,0,0,1.728,1.1,1.876,1.876,0,0,0,.8-.177,1.9,1.9,0,0,0-.8-3.628" transform="translate(-206.926 -192.459)" fill="#7db3db"/>
          <path id="Trazado_820069" data-name="Trazado 820069" d="M350.038,342.233a2.345,2.345,0,1,1,2.2-1.539,2.352,2.352,0,0,1-2.2,1.539m0-4.248a1.9,1.9,0,1,0,1.727,1.1,1.893,1.893,0,0,0-1.727-1.1" transform="translate(-213.61 -188.222)" fill="#7db3db"/>
          <path id="Trazado_820070" data-name="Trazado 820070" d="M605.59,183.38a2.345,2.345,0,0,1-2.2-3.151,2.344,2.344,0,0,1,2.2-1.538,2.344,2.344,0,0,1,.988,4.472,2.32,2.32,0,0,1-.984.218m0-4.247a1.9,1.9,0,0,0-1.724,2.7,1.911,1.911,0,0,0,1.728,1.1,1.9,1.9,0,0,0,1.723-2.7,1.911,1.911,0,0,0-1.728-1.1" transform="translate(-356.11 -99.642)" fill="#495edb"/>
          <path id="Trazado_820071" data-name="Trazado 820071" d="M592.26,177.52a2.353,2.353,0,0,1-2.129-1.359,2.346,2.346,0,0,1,2.126-3.331,2.345,2.345,0,0,1,.987,4.472,2.32,2.32,0,0,1-.984.218m0-4.248a1.9,1.9,0,0,0-1.724,2.7,1.909,1.909,0,0,0,1.727,1.1,1.9,1.9,0,0,0,1.724-2.7,1.911,1.911,0,0,0-1.727-1.1" transform="translate(-348.677 -96.374)" fill="#495edb"/>
          <path id="Trazado_820072" data-name="Trazado 820072" d="M604.246,169.922a2.344,2.344,0,1,1,2.2-1.538,2.351,2.351,0,0,1-2.2,1.538m0-4.247a1.9,1.9,0,1,0,1.727,1.1,1.893,1.893,0,0,0-1.727-1.1" transform="translate(-355.362 -92.137)" fill="#495edb"/>
          <path id="Trazado_820073" data-name="Trazado 820073" d="M246.939,377.015H.385a.447.447,0,0,1,0-.885H246.939a.447.447,0,0,1,0,.885" transform="translate(1.56 -209.739)" fill="#32015c"/>
        </g>
      </g>
    </g>
  </g>
</svg>
