<svg xmlns="http://www.w3.org/2000/svg" width="158" height="53" viewBox="0 0 158 53">
  <g id="Grupo_1099833" data-name="Grupo 1099833" transform="translate(-442.051 -2900)">
    <rect id="Rect치ngulo_401679" data-name="Rect치ngulo 401679" width="158" height="53" rx="25" transform="translate(442.051 2900)" fill="#fff"/>
    <path id="Rect치ngulo_401679_-_Contorno" data-name="Rect치ngulo 401679 - Contorno" d="M25,3A21.979,21.979,0,0,0,3,25v3A21.979,21.979,0,0,0,25,50H133a21.979,21.979,0,0,0,22-22V25A21.979,21.979,0,0,0,133,3H25m0-3H133a25,25,0,0,1,25,25v3a25,25,0,0,1-25,25H25A25,25,0,0,1,0,28V25A25,25,0,0,1,25,0Z" transform="translate(442.051 2900)" fill="#12263f"/>
  </g>
</svg>
