<svg xmlns="http://www.w3.org/2000/svg" width="143.207" height="94.72" viewBox="0 0 143.207 94.72">
  <g id="Trazado_873548" data-name="Trazado 873548" fill="#fff">
    <path d="M 38.41531372070312 93.22013854980469 C 33.49089431762695 93.22013854980469 28.44065475463867 92.85513305664062 23.4048957824707 92.13523864746094 C 19.37033653259277 91.55847930908203 15.33601570129395 90.75393676757812 11.41395568847656 89.74395751953125 C 6.550039291381836 88.49143218994141 3.058077573776245 87.22637939453125 1.499995589256287 86.62299346923828 L 1.499995589256287 1.499996066093445 L 141.70703125 1.499996066093445 L 141.70703125 67.93829345703125 C 138.8942565917969 68.22050476074219 131.9833068847656 69.03876495361328 122.2935791015625 71.02641296386719 C 114.9190368652344 72.53915405273438 107.4727172851562 74.41861724853516 100.1614990234375 76.61263275146484 C 91.02127838134766 79.35549926757812 82.06639862060547 82.60081481933594 73.54557800292969 86.25845336914062 C 62.78421401977539 90.87789916992188 50.96469497680664 93.22013854980469 38.41531372070312 93.22013854980469 Z" stroke="none"/>
    <path d="M 3 2.999992370605469 L 3 85.58686065673828 C 4.768768310546875 86.23717498779297 7.768417358398438 87.25342559814453 11.71986389160156 88.27375793457031 C 15.59522247314453 89.27444458007812 19.58255767822266 90.07182312011719 23.57115936279297 90.64373779296875 C 28.55230712890625 91.35798645019531 33.54660034179688 91.72013854980469 38.41532897949219 91.72013854980469 C 50.76005554199219 91.72013854980469 62.38051605224609 89.41880035400391 72.95388793945312 84.88007354736328 C 81.52687072753906 81.20002746582031 90.5357666015625 77.93509674072266 99.7303466796875 75.1759033203125 C 107.0841217041016 72.96913146972656 114.5740814208984 71.07865905761719 121.9921569824219 69.55699157714844 C 130.4373626708984 67.82463836669922 136.8025970458984 66.97290802001953 140.20703125 66.59013366699219 L 140.20703125 2.999992370605469 L 3 2.999992370605469 M 0 -7.62939453125e-06 L 143.20703125 -7.62939453125e-06 L 143.20703125 69.30784606933594 C 143.20703125 69.30784606933594 111.2648696899414 71.69940948486328 74.13724517822266 87.63682556152344 C 37.00962066650391 103.5742721557617 0 87.63682556152344 0 87.63682556152344 L 0 -7.62939453125e-06 Z" stroke="none" fill="#12263f"/>
  </g>
</svg>
